<svg id="Layer_1" data-name="Layer 1" xmlns="http://www.w3.org/2000/svg" viewBox="0 0 549.26 557.56"><defs><style>.cls-1{fill:#fff5ee;}</style></defs><title>linkedin-logo</title><path class="cls-1" d="M434.83,0H114.43C51.24,0,0,52,0,116.16V441.4c0,64.14,51.24,116.16,114.43,116.16h320.4c63.21,0,114.43-52,114.43-116.16V116.16C549.26,52,498,0,434.83,0ZM183.09,441.4H114.43V185.85h68.66Zm-34.33-285c-22.11,0-40-18.36-40-41s17.94-41,40.05-41,40.05,18.36,40.05,41S170.89,156.4,148.76,156.4Zm309,285H389.06V311.21c0-78.24-91.55-72.32-91.55,0V441.4H228.86V185.85h68.65v41c31.95-60.08,160.2-64.52,160.2,57.52Z"/></svg>