<svg id="Layer_1" data-name="Layer 1" xmlns="http://www.w3.org/2000/svg" xmlns:xlink="http://www.w3.org/1999/xlink" viewBox="0 0 500 200"><defs><style>.cls-1{fill:#fff5ee;}.cls-2{fill:#191717;opacity:0.71;}.cls-3{fill:none;stroke-miterlimit:10;stroke:url(#linear-gradient);}.cls-4{fill:url(#linear-gradient-2);}.cls-5{fill:url(#linear-gradient-3);}.cls-6{fill:url(#linear-gradient-4);}.cls-7{fill:url(#linear-gradient-5);}.cls-8{fill:url(#linear-gradient-6);}.cls-9{fill:url(#linear-gradient-7);}.cls-10{fill:url(#linear-gradient-8);}.cls-11{fill:url(#linear-gradient-9);}.cls-12{fill:url(#linear-gradient-10);}.cls-13{fill:url(#linear-gradient-11);}.cls-14{fill:url(#linear-gradient-12);}.cls-15{fill:url(#linear-gradient-13);}.cls-16{fill:url(#linear-gradient-14);}.cls-17{fill:url(#linear-gradient-15);}.cls-18{fill:url(#linear-gradient-16);}.cls-19{fill:url(#linear-gradient-17);}.cls-20{fill:url(#linear-gradient-18);}.cls-21{fill:url(#linear-gradient-19);}.cls-22{fill:url(#linear-gradient-20);}.cls-23{fill:url(#linear-gradient-21);}.cls-24{fill:url(#linear-gradient-22);}.cls-25{fill:url(#linear-gradient-23);}.cls-26{fill:url(#linear-gradient-24);}.cls-27{fill:url(#linear-gradient-25);}.cls-28{fill:url(#linear-gradient-26);}.cls-29{fill:url(#linear-gradient-27);}.cls-30{fill:url(#linear-gradient-28);}.cls-31{fill:url(#linear-gradient-29);}.cls-32{fill:url(#linear-gradient-30);}.cls-33{fill:url(#linear-gradient-31);}.cls-34{fill:url(#linear-gradient-32);}.cls-35{fill:url(#linear-gradient-34);}.cls-36{fill:url(#linear-gradient-35);}.cls-37{fill:url(#linear-gradient-36);}.cls-38{fill:url(#linear-gradient-37);}.cls-39{fill:url(#linear-gradient-38);}.cls-40{fill:url(#linear-gradient-39);}.cls-41{fill:url(#linear-gradient-40);}.cls-42{fill:url(#linear-gradient-41);}.cls-43{fill:url(#linear-gradient-42);}.cls-44{fill:url(#linear-gradient-43);}.cls-45{fill:url(#linear-gradient-44);}.cls-46{fill:url(#linear-gradient-45);}.cls-47{fill:url(#linear-gradient-46);}.cls-48{fill:url(#linear-gradient-47);}.cls-49{fill:url(#linear-gradient-48);}.cls-50{fill:url(#linear-gradient-49);}.cls-51{fill:url(#linear-gradient-50);}.cls-52{fill:url(#linear-gradient-51);}.cls-53{fill:url(#linear-gradient-52);}.cls-54{fill:url(#linear-gradient-53);}.cls-55{fill:url(#linear-gradient-54);}.cls-56{fill:url(#linear-gradient-55);}.cls-57{fill:url(#linear-gradient-56);}.cls-58{fill:url(#linear-gradient-57);}.cls-59{fill:url(#linear-gradient-58);}.cls-60{fill:url(#linear-gradient-59);}.cls-61{fill:url(#linear-gradient-60);}.cls-62{fill:url(#linear-gradient-61);}.cls-63{fill:url(#linear-gradient-62);}.cls-64{fill:url(#linear-gradient-63);}.cls-65{fill:url(#linear-gradient-64);}.cls-66{fill:url(#linear-gradient-65);}.cls-67{fill:url(#linear-gradient-66);}.cls-68{fill:url(#linear-gradient-67);}.cls-69{fill:url(#linear-gradient-68);}.cls-70{fill:url(#linear-gradient-69);}.cls-71{fill:url(#linear-gradient-70);}.cls-72{fill:url(#linear-gradient-71);}.cls-73{fill:url(#linear-gradient-72);}.cls-74{fill:url(#linear-gradient-73);}.cls-75{fill:url(#linear-gradient-74);}.cls-76{fill:url(#linear-gradient-75);}.cls-77{fill:url(#linear-gradient-76);}.cls-78{fill:url(#linear-gradient-77);}.cls-79{fill:url(#linear-gradient-78);}.cls-80{fill:url(#linear-gradient-79);}.cls-81{fill:url(#linear-gradient-80);}.cls-82{fill:url(#linear-gradient-81);}.cls-83{fill:url(#linear-gradient-82);}.cls-84{fill:url(#linear-gradient-83);}.cls-85{fill:url(#linear-gradient-84);}.cls-86{fill:url(#linear-gradient-85);}.cls-87{fill:url(#linear-gradient-86);}.cls-88{fill:url(#linear-gradient-87);}</style><linearGradient id="linear-gradient" x1="384.9" y1="138.18" x2="482.17" y2="138.18" gradientUnits="userSpaceOnUse"><stop offset="0" stop-color="#ce2755"/><stop offset="1" stop-color="#9c1b46"/></linearGradient><linearGradient id="linear-gradient-2" x1="385.06" y1="38.18" x2="486.17" y2="42.26" gradientUnits="userSpaceOnUse"><stop offset="0" stop-color="#d85983"/><stop offset="1" stop-color="#9c1b46"/></linearGradient><linearGradient id="linear-gradient-3" x1="385.08" y1="37.6" x2="486.19" y2="41.68" xlink:href="#linear-gradient-2"/><linearGradient id="linear-gradient-4" x1="385.11" y1="37.05" x2="486.21" y2="41.13" xlink:href="#linear-gradient-2"/><linearGradient id="linear-gradient-5" x1="385.14" y1="36.24" x2="486.25" y2="40.33" xlink:href="#linear-gradient-2"/><linearGradient id="linear-gradient-6" x1="385.17" y1="35.51" x2="486.27" y2="39.59" xlink:href="#linear-gradient-2"/><linearGradient id="linear-gradient-7" x1="385.2" y1="34.74" x2="486.31" y2="38.82" xlink:href="#linear-gradient-2"/><linearGradient id="linear-gradient-8" x1="382.94" y1="91.89" x2="482.52" y2="94.78" xlink:href="#linear-gradient-2"/><linearGradient id="linear-gradient-9" x1="383.02" y1="89.19" x2="482.6" y2="92.08" xlink:href="#linear-gradient-2"/><linearGradient id="linear-gradient-10" x1="383.1" y1="86.45" x2="482.68" y2="89.35" xlink:href="#linear-gradient-2"/><linearGradient id="linear-gradient-11" x1="383.16" y1="84.47" x2="482.73" y2="87.37" xlink:href="#linear-gradient-2"/><linearGradient id="linear-gradient-12" x1="383.22" y1="82.39" x2="482.8" y2="85.28" xlink:href="#linear-gradient-2"/><linearGradient id="linear-gradient-13" x1="383.29" y1="79.84" x2="482.87" y2="82.74" xlink:href="#linear-gradient-2"/><linearGradient id="linear-gradient-14" x1="383.42" y1="75.54" x2="482.99" y2="78.43" xlink:href="#linear-gradient-2"/><linearGradient id="linear-gradient-15" x1="383.5" y1="72.71" x2="483.08" y2="75.6" xlink:href="#linear-gradient-2"/><linearGradient id="linear-gradient-16" x1="383.72" y1="65.35" x2="483.29" y2="68.25" xlink:href="#linear-gradient-2"/><linearGradient id="linear-gradient-17" x1="383.72" y1="65.23" x2="483.29" y2="68.12" xlink:href="#linear-gradient-2"/><linearGradient id="linear-gradient-18" x1="383.72" y1="65.12" x2="483.3" y2="68.02" xlink:href="#linear-gradient-2"/><linearGradient id="linear-gradient-19" x1="383.73" y1="64.99" x2="483.3" y2="67.88" xlink:href="#linear-gradient-2"/><linearGradient id="linear-gradient-20" x1="383.73" y1="64.83" x2="483.31" y2="67.72" xlink:href="#linear-gradient-2"/><linearGradient id="linear-gradient-21" x1="383.74" y1="64.65" x2="483.31" y2="67.55" xlink:href="#linear-gradient-2"/><linearGradient id="linear-gradient-22" x1="383.51" y1="72.44" x2="483.08" y2="75.33" xlink:href="#linear-gradient-2"/><linearGradient id="linear-gradient-23" x1="383.52" y1="72.26" x2="483.09" y2="75.16" xlink:href="#linear-gradient-2"/><linearGradient id="linear-gradient-24" x1="383.52" y1="72.15" x2="483.09" y2="75.05" xlink:href="#linear-gradient-2"/><linearGradient id="linear-gradient-25" x1="383.52" y1="71.97" x2="483.1" y2="74.87" xlink:href="#linear-gradient-2"/><linearGradient id="linear-gradient-26" x1="383.53" y1="71.79" x2="483.1" y2="74.69" xlink:href="#linear-gradient-2"/><linearGradient id="linear-gradient-27" x1="383.53" y1="71.74" x2="483.1" y2="74.64" xlink:href="#linear-gradient-2"/><linearGradient id="linear-gradient-28" x1="383.54" y1="71.53" x2="483.11" y2="74.43" xlink:href="#linear-gradient-2"/><linearGradient id="linear-gradient-29" x1="383.28" y1="80.48" x2="482.85" y2="83.37" xlink:href="#linear-gradient-2"/><linearGradient id="linear-gradient-30" x1="383.28" y1="80.34" x2="482.85" y2="83.23" xlink:href="#linear-gradient-2"/><linearGradient id="linear-gradient-31" x1="383.28" y1="80.19" x2="482.86" y2="83.08" xlink:href="#linear-gradient-2"/><linearGradient id="linear-gradient-32" x1="383.29" y1="80.06" x2="482.86" y2="82.95" xlink:href="#linear-gradient-2"/><linearGradient id="linear-gradient-34" x1="383.3" y1="79.68" x2="482.87" y2="82.57" xlink:href="#linear-gradient-2"/><linearGradient id="linear-gradient-35" x1="383.31" y1="79.47" x2="482.88" y2="82.37" xlink:href="#linear-gradient-2"/><linearGradient id="linear-gradient-36" x1="383.31" y1="79.25" x2="482.89" y2="82.15" xlink:href="#linear-gradient-2"/><linearGradient id="linear-gradient-37" x1="383.31" y1="79.15" x2="482.89" y2="82.04" xlink:href="#linear-gradient-2"/><linearGradient id="linear-gradient-38" x1="383.32" y1="79.03" x2="482.89" y2="81.92" xlink:href="#linear-gradient-2"/><linearGradient id="linear-gradient-39" x1="383.32" y1="78.84" x2="482.9" y2="81.74" xlink:href="#linear-gradient-2"/><linearGradient id="linear-gradient-40" x1="383.33" y1="78.75" x2="482.9" y2="81.64" xlink:href="#linear-gradient-2"/><linearGradient id="linear-gradient-41" x1="383.07" y1="87.63" x2="482.64" y2="90.53" xlink:href="#linear-gradient-2"/><linearGradient id="linear-gradient-42" x1="383.07" y1="87.44" x2="482.65" y2="90.33" xlink:href="#linear-gradient-2"/><linearGradient id="linear-gradient-43" x1="383.08" y1="87.38" x2="482.65" y2="90.27" xlink:href="#linear-gradient-2"/><linearGradient id="linear-gradient-44" x1="383.08" y1="87.22" x2="482.65" y2="90.11" xlink:href="#linear-gradient-2"/><linearGradient id="linear-gradient-45" x1="383.09" y1="87.06" x2="482.66" y2="89.95" xlink:href="#linear-gradient-2"/><linearGradient id="linear-gradient-46" x1="383.09" y1="86.97" x2="482.66" y2="89.86" xlink:href="#linear-gradient-2"/><linearGradient id="linear-gradient-47" x1="381.78" y1="131.86" x2="481.36" y2="134.76" xlink:href="#linear-gradient-2"/><linearGradient id="linear-gradient-48" x1="381.87" y1="128.9" x2="481.44" y2="131.8" xlink:href="#linear-gradient-2"/><linearGradient id="linear-gradient-49" x1="381.94" y1="126.36" x2="481.52" y2="129.25" xlink:href="#linear-gradient-2"/><linearGradient id="linear-gradient-50" x1="382" y1="124.44" x2="481.57" y2="127.34" xlink:href="#linear-gradient-2"/><linearGradient id="linear-gradient-51" x1="382.07" y1="122.03" x2="481.64" y2="124.92" xlink:href="#linear-gradient-2"/><linearGradient id="linear-gradient-52" x1="382.17" y1="118.51" x2="481.75" y2="121.41" xlink:href="#linear-gradient-2"/><linearGradient id="linear-gradient-53" x1="382.31" y1="113.73" x2="481.88" y2="116.63" xlink:href="#linear-gradient-2"/><linearGradient id="linear-gradient-54" x1="382.39" y1="110.9" x2="481.97" y2="113.8" xlink:href="#linear-gradient-2"/><linearGradient id="linear-gradient-55" x1="382.57" y1="104.79" x2="482.14" y2="107.69" xlink:href="#linear-gradient-2"/><linearGradient id="linear-gradient-56" x1="382.58" y1="104.56" x2="482.15" y2="107.46" xlink:href="#linear-gradient-2"/><linearGradient id="linear-gradient-57" x1="382.58" y1="104.46" x2="482.15" y2="107.35" xlink:href="#linear-gradient-2"/><linearGradient id="linear-gradient-58" x1="382.58" y1="104.35" x2="482.16" y2="107.24" xlink:href="#linear-gradient-2"/><linearGradient id="linear-gradient-59" x1="382.59" y1="104.24" x2="482.16" y2="107.14" xlink:href="#linear-gradient-2"/><linearGradient id="linear-gradient-60" x1="382.59" y1="104.15" x2="482.16" y2="107.04" xlink:href="#linear-gradient-2"/><linearGradient id="linear-gradient-61" x1="382.59" y1="104.04" x2="482.17" y2="106.93" xlink:href="#linear-gradient-2"/><linearGradient id="linear-gradient-62" x1="382.6" y1="103.89" x2="482.17" y2="106.79" xlink:href="#linear-gradient-2"/><linearGradient id="linear-gradient-63" x1="382.36" y1="111.92" x2="481.94" y2="114.82" xlink:href="#linear-gradient-2"/><linearGradient id="linear-gradient-64" x1="382.37" y1="111.72" x2="481.94" y2="114.61" xlink:href="#linear-gradient-2"/><linearGradient id="linear-gradient-65" x1="382.37" y1="111.67" x2="481.94" y2="114.56" xlink:href="#linear-gradient-2"/><linearGradient id="linear-gradient-66" x1="382.37" y1="111.56" x2="481.95" y2="114.45" xlink:href="#linear-gradient-2"/><linearGradient id="linear-gradient-67" x1="382.38" y1="111.35" x2="481.95" y2="114.24" xlink:href="#linear-gradient-2"/><linearGradient id="linear-gradient-68" x1="382.38" y1="111.17" x2="481.96" y2="114.06" xlink:href="#linear-gradient-2"/><linearGradient id="linear-gradient-69" x1="382.39" y1="111" x2="481.96" y2="113.89" xlink:href="#linear-gradient-2"/><linearGradient id="linear-gradient-70" x1="382.11" y1="120.74" x2="481.68" y2="123.63" xlink:href="#linear-gradient-2"/><linearGradient id="linear-gradient-71" x1="382.11" y1="120.6" x2="481.68" y2="123.49" xlink:href="#linear-gradient-2"/><linearGradient id="linear-gradient-72" x1="382.11" y1="120.45" x2="481.69" y2="123.34" xlink:href="#linear-gradient-2"/><linearGradient id="linear-gradient-73" x1="382.12" y1="120.32" x2="481.69" y2="123.21" xlink:href="#linear-gradient-2"/><linearGradient id="linear-gradient-74" x1="382.12" y1="120.1" x2="481.7" y2="123" xlink:href="#linear-gradient-2"/><linearGradient id="linear-gradient-75" x1="382.13" y1="119.94" x2="481.7" y2="122.83" xlink:href="#linear-gradient-2"/><linearGradient id="linear-gradient-76" x1="382.14" y1="119.73" x2="481.71" y2="122.63" xlink:href="#linear-gradient-2"/><linearGradient id="linear-gradient-77" x1="382.14" y1="119.51" x2="481.72" y2="122.41" xlink:href="#linear-gradient-2"/><linearGradient id="linear-gradient-78" x1="382.14" y1="119.41" x2="481.72" y2="122.3" xlink:href="#linear-gradient-2"/><linearGradient id="linear-gradient-79" x1="382.15" y1="119.29" x2="481.72" y2="122.18" xlink:href="#linear-gradient-2"/><linearGradient id="linear-gradient-80" x1="382.15" y1="119.1" x2="481.73" y2="122" xlink:href="#linear-gradient-2"/><linearGradient id="linear-gradient-81" x1="382.16" y1="119.01" x2="481.73" y2="121.9" xlink:href="#linear-gradient-2"/><linearGradient id="linear-gradient-82" x1="381.9" y1="127.89" x2="481.47" y2="130.79" xlink:href="#linear-gradient-2"/><linearGradient id="linear-gradient-83" x1="381.9" y1="127.7" x2="481.48" y2="130.59" xlink:href="#linear-gradient-2"/><linearGradient id="linear-gradient-84" x1="381.91" y1="127.64" x2="481.48" y2="130.53" xlink:href="#linear-gradient-2"/><linearGradient id="linear-gradient-85" x1="381.91" y1="127.48" x2="481.48" y2="130.37" xlink:href="#linear-gradient-2"/><linearGradient id="linear-gradient-86" x1="381.92" y1="127.32" x2="481.49" y2="130.21" xlink:href="#linear-gradient-2"/><linearGradient id="linear-gradient-87" x1="381.92" y1="127.23" x2="481.49" y2="130.12" xlink:href="#linear-gradient-2"/></defs><title>pinque-right</title><path class="cls-1" d="M500,10V190a10,10,0,0,1-10,10H365.15V0H490A10,10,0,0,1,500,10Z"/><path class="cls-1" d="M500,10V190a10,10,0,0,1-10,10H365.15V0H490A10,10,0,0,1,500,10Z"/><rect class="cls-2" x="390.54" y="153.09" width="85.57" height="19.74"/><path class="cls-1" d="M395.34,159v8.52h-1.19V159Z"/><path class="cls-1" d="M397.45,167.47V159h1.2v8.52Zm.81,0v-1.14h1.93a2,2,0,0,0,1.46-.49,1.81,1.81,0,0,0,.52-1.38V162a1.84,1.84,0,0,0-.52-1.38,2.08,2.08,0,0,0-1.46-.49h-1.93V159h1.89a3.35,3.35,0,0,1,2.4.8,3,3,0,0,1,.84,2.25v2.41a3.25,3.25,0,0,1-.38,1.65,2.46,2.46,0,0,1-1.11,1.05,3.9,3.9,0,0,1-1.75.36Z"/><path class="cls-1" d="M404.65,162.58v-1.25h1.26v1.25Zm0,4.89v-1.26h1.26v1.26Z"/><path class="cls-1" d="M413.17,167.56a2.34,2.34,0,0,1-1.82-.66,2.45,2.45,0,0,1-.61-1.76v-3.88a2.46,2.46,0,0,1,.61-1.77,2.89,2.89,0,0,1,3.64,0,2.47,2.47,0,0,1,.61,1.78v3.88a2.46,2.46,0,0,1-.61,1.77A2.39,2.39,0,0,1,413.17,167.56Zm0-1.14a1.22,1.22,0,0,0,.95-.34,1.45,1.45,0,0,0,.29-.94v-3.88a1.43,1.43,0,0,0-.29-.94,1.18,1.18,0,0,0-.95-.34,1.15,1.15,0,0,0-.94.34,1.37,1.37,0,0,0-.29.94v3.88a1.39,1.39,0,0,0,.29.94A1.18,1.18,0,0,0,413.17,166.42Z"/><path class="cls-1" d="M419.56,167.56a2.38,2.38,0,0,1-1.83-.66,2.49,2.49,0,0,1-.6-1.76v-3.88a2.46,2.46,0,0,1,.61-1.77,2.41,2.41,0,0,1,1.82-.65,2.44,2.44,0,0,1,1.82.64,2.47,2.47,0,0,1,.61,1.78v3.88a2.46,2.46,0,0,1-.61,1.77A2.41,2.41,0,0,1,419.56,167.56Zm0-1.14a1.18,1.18,0,0,0,.94-.34,1.39,1.39,0,0,0,.29-.94v-3.88a1.37,1.37,0,0,0-.29-.94,1.15,1.15,0,0,0-.94-.34,1.18,1.18,0,0,0-.95.34,1.43,1.43,0,0,0-.29.94v3.88a1.45,1.45,0,0,0,.29.94A1.22,1.22,0,0,0,419.56,166.42Z"/><path class="cls-1" d="M425.94,167.56a2.34,2.34,0,0,1-1.82-.66,2.49,2.49,0,0,1-.61-1.76v-3.88a2.46,2.46,0,0,1,.62-1.77,2.38,2.38,0,0,1,1.81-.65,2.41,2.41,0,0,1,1.82.64,2.47,2.47,0,0,1,.62,1.78v3.88a2.46,2.46,0,0,1-.62,1.77A2.38,2.38,0,0,1,425.94,167.56Zm0-1.14a1.2,1.2,0,0,0,.95-.34,1.45,1.45,0,0,0,.29-.94v-3.88a1.43,1.43,0,0,0-.29-.94,1.48,1.48,0,0,0-1.89,0,1.43,1.43,0,0,0-.29.94v3.88a1.45,1.45,0,0,0,.29.94A1.2,1.2,0,0,0,425.94,166.42Z"/><path class="cls-1" d="M432.33,167.56a2.34,2.34,0,0,1-1.82-.66,2.45,2.45,0,0,1-.61-1.76v-3.88a2.42,2.42,0,0,1,.62-1.77,2.38,2.38,0,0,1,1.81-.65,2.43,2.43,0,0,1,1.82.64,2.47,2.47,0,0,1,.61,1.78v3.88a2.46,2.46,0,0,1-.61,1.77A2.39,2.39,0,0,1,432.33,167.56Zm0-1.14a1.22,1.22,0,0,0,.95-.34,1.45,1.45,0,0,0,.29-.94v-3.88a1.43,1.43,0,0,0-.29-.94,1.18,1.18,0,0,0-.95-.34,1.15,1.15,0,0,0-.94.34,1.37,1.37,0,0,0-.29.94v3.88a1.39,1.39,0,0,0,.29.94A1.18,1.18,0,0,0,432.33,166.42Z"/><path class="cls-1" d="M438.72,167.56a2.38,2.38,0,0,1-1.83-.66,2.49,2.49,0,0,1-.6-1.76v-3.88a2.46,2.46,0,0,1,.61-1.77,2.41,2.41,0,0,1,1.82-.65,2.44,2.44,0,0,1,1.82.64,2.47,2.47,0,0,1,.61,1.78v3.88a2.46,2.46,0,0,1-.61,1.77A2.41,2.41,0,0,1,438.72,167.56Zm0-1.14a1.18,1.18,0,0,0,.94-.34,1.39,1.39,0,0,0,.29-.94v-3.88a1.37,1.37,0,0,0-.29-.94,1.15,1.15,0,0,0-.94-.34,1.18,1.18,0,0,0-1,.34,1.43,1.43,0,0,0-.29.94v3.88a1.45,1.45,0,0,0,.29.94A1.22,1.22,0,0,0,438.72,166.42Z"/><path class="cls-1" d="M445.1,167.56a2.34,2.34,0,0,1-1.82-.66,2.49,2.49,0,0,1-.61-1.76v-3.88a2.46,2.46,0,0,1,.62-1.77,2.38,2.38,0,0,1,1.81-.65,2.41,2.41,0,0,1,1.82.64,2.47,2.47,0,0,1,.62,1.78v3.88a2.46,2.46,0,0,1-.62,1.77A2.38,2.38,0,0,1,445.1,167.56Zm0-1.14a1.2,1.2,0,0,0,.95-.34,1.45,1.45,0,0,0,.29-.94v-3.88a1.43,1.43,0,0,0-.29-.94,1.48,1.48,0,0,0-1.89,0,1.43,1.43,0,0,0-.29.94v3.88a1.45,1.45,0,0,0,.29.94A1.2,1.2,0,0,0,445.1,166.42Z"/><path class="cls-1" d="M451.49,167.56a2.34,2.34,0,0,1-1.82-.66,2.45,2.45,0,0,1-.61-1.76v-3.88a2.46,2.46,0,0,1,.62-1.77,2.38,2.38,0,0,1,1.81-.65,2.43,2.43,0,0,1,1.82.64,2.47,2.47,0,0,1,.61,1.78v3.88a2.46,2.46,0,0,1-.61,1.77A2.39,2.39,0,0,1,451.49,167.56Zm0-1.14a1.22,1.22,0,0,0,.95-.34,1.45,1.45,0,0,0,.29-.94v-3.88a1.43,1.43,0,0,0-.29-.94,1.18,1.18,0,0,0-.95-.34,1.15,1.15,0,0,0-.94.34,1.37,1.37,0,0,0-.29.94v3.88a1.39,1.39,0,0,0,.29.94A1.18,1.18,0,0,0,451.49,166.42Z"/><path class="cls-1" d="M457.88,167.56a2.38,2.38,0,0,1-1.83-.66,2.49,2.49,0,0,1-.6-1.76v-3.88a2.46,2.46,0,0,1,.61-1.77,2.41,2.41,0,0,1,1.82-.65,2.44,2.44,0,0,1,1.82.64,2.47,2.47,0,0,1,.61,1.78v3.88a2.46,2.46,0,0,1-.61,1.77A2.41,2.41,0,0,1,457.88,167.56Zm0-1.14a1.18,1.18,0,0,0,.94-.34,1.39,1.39,0,0,0,.29-.94v-3.88a1.37,1.37,0,0,0-.29-.94,1.15,1.15,0,0,0-.94-.34,1.18,1.18,0,0,0-.95.34,1.43,1.43,0,0,0-.29.94v3.88a1.45,1.45,0,0,0,.29.94A1.22,1.22,0,0,0,457.88,166.42Z"/><path class="cls-1" d="M464.27,167.56a2.35,2.35,0,0,1-1.83-.66,2.49,2.49,0,0,1-.61-1.76v-3.88a2.46,2.46,0,0,1,.62-1.77,2.88,2.88,0,0,1,3.63,0,2.47,2.47,0,0,1,.62,1.78v3.88a2.46,2.46,0,0,1-.62,1.77A2.37,2.37,0,0,1,464.27,167.56Zm0-1.14a1.2,1.2,0,0,0,.94-.34,1.45,1.45,0,0,0,.29-.94v-3.88a1.43,1.43,0,0,0-.29-.94,1.48,1.48,0,0,0-1.89,0,1.43,1.43,0,0,0-.29.94v3.88a1.45,1.45,0,0,0,.29.94A1.2,1.2,0,0,0,464.27,166.42Z"/><path class="cls-1" d="M470.6,167.56a2.78,2.78,0,0,1-1.26-.27,2.11,2.11,0,0,1-.87-.75,2.91,2.91,0,0,1-.43-1.19h1.22a1.16,1.16,0,0,0,.44.8,1.48,1.48,0,0,0,.9.26,1.29,1.29,0,0,0,.92-.32,1.18,1.18,0,0,0,.33-.89v-.26a1.5,1.5,0,0,0-.31-1,1.12,1.12,0,0,0-.88-.34h-.61v-1.14h.61a1,1,0,0,0,.77-.3,1.17,1.17,0,0,0,.28-.84v-.27a1.06,1.06,0,0,0-.29-.78,1.18,1.18,0,0,0-.83-.27,1.16,1.16,0,0,0-.76.25,1.37,1.37,0,0,0-.43.81h-1.21a2.75,2.75,0,0,1,.81-1.63,2.24,2.24,0,0,1,1.59-.58,2.35,2.35,0,0,1,1.71.58,2.17,2.17,0,0,1,.6,1.63v.15a1.85,1.85,0,0,1-.34,1.11,2,2,0,0,1-1,.69,1.77,1.77,0,0,1,1.08.68,2.32,2.32,0,0,1,.38,1.36v.15a2.28,2.28,0,0,1-.64,1.73A2.47,2.47,0,0,1,470.6,167.56Z"/><line class="cls-3" x1="384.9" y1="138.18" x2="482.17" y2="138.18"/><path class="cls-4" d="M399.28,34.7c0,5.42-5.79,5.47-6.23,5.47h-2.73V47.4a.22.22,0,0,1-.24.21h-3a.23.23,0,0,1-.23-.21v-18a.22.22,0,0,1,.23-.21h6C393.78,29.16,399.28,29.26,399.28,34.7Zm-3.5,0c0-2.05-2.31-2.15-2.73-2.15h-2.73v4.23h2.73C393.52,36.78,395.78,36.73,395.78,34.7Z"/><path class="cls-5" d="M402.09,29.37a.23.23,0,0,1,.26-.21h3a.23.23,0,0,1,.26.21v18a.23.23,0,0,1-.26.21h-3a.23.23,0,0,1-.26-.21Z"/><path class="cls-6" d="M424.81,47.34a.23.23,0,0,1-.26.21h-3c-.06,0-.19,0-.21-.08l-8.41-12.24V47.34a.23.23,0,0,1-.24.21h-3a.21.21,0,0,1-.24-.21v-18a.22.22,0,0,1,.24-.21h3a.25.25,0,0,1,.18.08l8.44,12.35V29.34a.24.24,0,0,1,.26-.21h2.94a.24.24,0,0,1,.26.21Z"/><path class="cls-7" d="M444.78,48a.32.32,0,0,1-.37,0l-1.73-1.73a9.57,9.57,0,0,1-5.18,1.57,9.17,9.17,0,0,1-9.17-9.48c0-5,3.5-9.43,9.17-9.43a9.18,9.18,0,0,1,9.17,9.43,10.73,10.73,0,0,1-1.57,5.49l1.76,1.76a.21.21,0,0,1,0,.32Zm-4.6-4.2c-.6-.58-1.13-1.16-1.7-1.71a.19.19,0,0,1,0-.31l2.1-2.11a.32.32,0,0,1,.37,0l1.62,1.63a7.25,7.25,0,0,0,.64-2.94c0-3.18-2-6.07-5.71-6.07s-5.67,2.89-5.67,6.07,2.23,6.12,5.67,6.12A6.33,6.33,0,0,0,440.18,43.77Z"/><path class="cls-8" d="M450.67,41.64V29.53a.23.23,0,0,1,.26-.21h3a.23.23,0,0,1,.26.21V41.61a3.22,3.22,0,0,0,3.44,2.82c1.74,0,3.44-.92,3.44-2.79V29.53a.24.24,0,0,1,.27-.21h3a.23.23,0,0,1,.24.21V41.64c0,3.92-3,6.17-6.94,6.17S450.67,45.45,450.67,41.64Z"/><path class="cls-9" d="M472.08,32.5v4.25h7.17a.22.22,0,0,1,.24.21v2.87a.22.22,0,0,1-.24.21h-7.17v4.2h8.67a.24.24,0,0,1,.26.21v2.89a.23.23,0,0,1-.26.21h-11.9a.23.23,0,0,1-.24-.21v-18a.23.23,0,0,1,.24-.21h11.9a.23.23,0,0,1,.26.21v2.92a.24.24,0,0,1-.26.21Z"/><path class="cls-10" d="M388,93a0,0,0,0,1,0,0v-.53a0,0,0,0,1,0,0,.37.37,0,0,0,.35-.42.38.38,0,0,0-.36-.41.43.43,0,0,0-.41.41,1.37,1.37,0,0,1-.1.5.93.93,0,0,1-.87.53,1,1,0,0,1-1-1,1,1,0,0,1,.93-1,0,0,0,0,1,0,0v.52a0,0,0,0,1,0,0,.36.36,0,0,0-.34.4.38.38,0,0,0,.4.42A.4.4,0,0,0,387,92a1.19,1.19,0,0,1,.11-.48A.94.94,0,0,1,388,91,1,1,0,0,1,388,93Z"/><path class="cls-11" d="M386.25,89.8H387V88.53a0,0,0,0,1,0,0h.5a0,0,0,0,1,0,0V89.8h.74V88.27a0,0,0,0,1,0,0h.51s0,0,0,0v2.1s0,0,0,0h-3.18a0,0,0,0,1,0,0v-2.1s0,0,0,0h.52a0,0,0,0,1,0,0Z"/><path class="cls-12" d="M387.59,86.72v.35h1.28s0,0,0,0v.53s0,0,0,0h-3.18s0,0,0,0v-1a1,1,0,0,1,1-1.1.85.85,0,0,1,.87.6l1.36-.62s0,0,0,0v.58a.08.08,0,0,1,0,0Zm-.59.35v-.48c0-.13,0-.48-.38-.48s-.37.39-.37.48v.48Z"/><path class="cls-13" d="M385.69,84.9s0,0,0-.05v-.52s0,0,0,0h3.18s0,0,0,0v.52s0,.05,0,.05Z"/><path class="cls-14" d="M386.25,83H387V81.72a0,0,0,0,1,0,0h.5a0,0,0,0,1,0,0V83h.74V81.46a0,0,0,0,1,0,0h.51s0,0,0,0v2.1s0,0,0,0h-3.18a0,0,0,0,1,0,0v-2.1s0,0,0,0h.52a0,0,0,0,1,0,0Z"/><path class="cls-15" d="M388,81a0,0,0,0,1,0,0v-.52s0,0,0,0a.37.37,0,0,0,.35-.41.38.38,0,0,0-.36-.41.43.43,0,0,0-.41.41,1.33,1.33,0,0,1-.1.49.94.94,0,0,1-.87.54,1,1,0,0,1-1-1,1,1,0,0,1,.93-1,0,0,0,0,1,0,0v.52s0,0,0,0c-.23,0-.34.19-.34.4a.38.38,0,0,0,.4.41A.39.39,0,0,0,387,80a1.19,1.19,0,0,1,.11-.48.93.93,0,0,1,.88-.55,1,1,0,0,1,1,1A1,1,0,0,1,388,81Z"/><path class="cls-16" d="M387.25,75a.75.75,0,0,1,.71-.48c.9,0,.94.91.94,1.13v1s0,0,0,0h-3.18a0,0,0,0,1,0,0v-1s0-1.09.92-1.09A.67.67,0,0,1,387.25,75ZM387,76.14v-.48c0-.09,0-.47-.38-.47s-.36.47-.36.47v.48Zm.95-1c-.38,0-.38.42-.38.52v.48h.75v-.48C388.31,75.46,388.25,75.14,387.94,75.14Z"/><path class="cls-17" d="M385.66,71.33s0-.06.06,0l1.67,1.18h1.48s0,0,0,0V73s0,0,0,0h-1.48l-1.67,1.18s-.06,0-.06,0v-.65a0,0,0,0,1,0,0l1.1-.77-1.1-.76a.06.06,0,0,1,0,0Z"/><path class="cls-18" d="M393,66.13h-.58v2.14s0,.06-.08.06h-.89a.07.07,0,0,1-.07-.06V62.94a.08.08,0,0,1,.07-.07h1.76a1.64,1.64,0,0,1,1.85,1.63,1.43,1.43,0,0,1-1,1.46c.35.77.71,1.52,1.06,2.29,0,0,0,.08-.07.08h-1a.1.1,0,0,1-.07,0Zm-.58-1h.79c.23,0,.81,0,.81-.63s-.64-.64-.81-.64h-.79Z"/><path class="cls-19" d="M396.08,62.94a.08.08,0,0,1,.08-.07H397a.09.09,0,0,1,.08.07v5.33s0,.06-.08.06h-.88c-.05,0-.08,0-.08-.06Z"/><path class="cls-20" d="M399.67,65.63c-.62-.86-1.24-1.8-1.86-2.65,0,0,0-.11.06-.11H399s.05,0,.06,0l1.3,1.85,1.27-1.85s.05,0,.07,0h1.08a.07.07,0,0,1,.06.11l-1.86,2.65,1.86,2.6a.06.06,0,0,1-.06.1h-1.08l-.07,0-1.27-1.8-1.3,1.8-.06,0h-1.08c-.07,0-.1,0-.06-.1Z"/><path class="cls-21" d="M403.32,66.8s0,0,.08,0h.88s.08,0,.08,0a.63.63,0,0,0,.69.6.64.64,0,0,0,.7-.61.73.73,0,0,0-.7-.68,2.12,2.12,0,0,1-.82-.18,1.54,1.54,0,0,1-.91-1.45,1.67,1.67,0,0,1,1.73-1.68,1.6,1.6,0,0,1,1.71,1.58s0,.06-.08.06h-.87s-.08,0-.08-.06a.61.61,0,0,0-.68-.58.64.64,0,0,0-.69.68.67.67,0,0,0,.69.66,2.19,2.19,0,0,1,.82.17,1.59,1.59,0,0,1,.91,1.48,1.73,1.73,0,0,1-3.46,0Z"/><path class="cls-22" d="M413,65.6a2.7,2.7,0,1,1-2.69-2.8A2.66,2.66,0,0,1,413,65.6Zm-1.06,0a1.65,1.65,0,1,0-1.63,1.81A1.67,1.67,0,0,0,411.89,65.61Z"/><path class="cls-23" d="M418.53,68.27s0,.06-.08.06h-.89l-.06,0L415,64.68v3.59s0,.06-.07.06h-.89c-.05,0-.07,0-.07-.06V62.93s0-.06.07-.06h.89s.05,0,.06,0l2.5,3.67V62.93s0-.06.08-.06h.87c.05,0,.08,0,.08.06Z"/><path class="cls-24" d="M397.3,75.42s0,.06-.08.06h-.88a.07.07,0,0,1-.07-.06V72.35l-1.38,2.88s0,0-.07,0H394s-.06,0-.06,0l-1.48-3v3.14s0,.06-.08.06h-.88a.07.07,0,0,1-.07-.06V70.09a.07.07,0,0,1,.07-.07h.9a.16.16,0,0,1,.07,0l1.94,4,1.86-4a.12.12,0,0,1,.07,0h.89a.07.07,0,0,1,.08.07Z"/><path class="cls-25" d="M399.58,71v1.27h2.13c.05,0,.07,0,.07.06v.85s0,.06-.07.06h-2.13V74.5h2.57c.05,0,.08,0,.08.06v.86s0,.06-.08.06h-3.53a.07.07,0,0,1-.07-.06V70.09a.07.07,0,0,1,.07-.07h3.53a.07.07,0,0,1,.08.07V71s0,.06-.08.06Z"/><path class="cls-26" d="M404.75,73.27h-.58v2.15s0,.06-.08.06h-.89a.07.07,0,0,1-.07-.06V70.09a.07.07,0,0,1,.07-.07H405a1.64,1.64,0,0,1,1.85,1.63,1.43,1.43,0,0,1-1,1.46c.35.77.71,1.52,1.06,2.29,0,0,0,.08-.07.08h-1a.08.08,0,0,1-.07,0Zm-.58-1H405c.23,0,.81,0,.81-.63S405.12,71,405,71h-.79Z"/><path class="cls-27" d="M411.55,74.05a.11.11,0,0,1,.11,0l.62.63a.06.06,0,0,1,0,.09,2.75,2.75,0,0,1-1.92.79,2.66,2.66,0,0,1-2.73-2.79,2.73,2.73,0,0,1,4.65-2,.07.07,0,0,1,0,.1l-.62.61a.08.08,0,0,1-.11,0,1.72,1.72,0,0,0-1.19-.5,1.68,1.68,0,0,0-1.68,1.83,1.66,1.66,0,0,0,1.68,1.78A1.64,1.64,0,0,0,411.55,74.05Z"/><path class="cls-28" d="M415.76,74.86H414l-.21.58a.07.07,0,0,1-.07,0h-1c-.06,0-.09,0-.07-.08l2.13-5.49a.08.08,0,0,1,.14,0l2.13,5.49s0,.08-.06.08h-1a.06.06,0,0,1-.06,0Zm-1.43-.92h1.1l-.55-1.63Z"/><path class="cls-29" d="M418.63,70c1.32,0,3.17.31,3.17,2.72s-1.82,2.74-3.17,2.74h-.88c-.05,0-.08,0-.08-.06V70.09a.07.07,0,0,1,.08-.07Zm.08,4.49a1.72,1.72,0,0,0,2.05-1.77c0-1.45-.87-1.81-2.05-1.75Z"/><path class="cls-30" d="M428,72.74a2.7,2.7,0,1,1-2.69-2.8A2.66,2.66,0,0,1,428,72.74Zm-1.06,0a1.65,1.65,0,1,0-1.63,1.81A1.67,1.67,0,0,0,427,72.76Z"/><path class="cls-31" d="M419.64,78.78s.07,0,.07.06v3.8a1.58,1.58,0,0,1-1.63,1.59h-.66c-.05,0-.08,0-.08-.06v-.88s0-.06.08-.06h.66a.58.58,0,0,0,.6-.59v-3.8s0-.06.07-.06Z"/><path class="cls-32" d="M426.06,81.5a2.7,2.7,0,1,1-2.69-2.8A2.65,2.65,0,0,1,426.06,81.5Zm-1.05,0a1.65,1.65,0,1,0-1.64,1.81A1.68,1.68,0,0,0,425,81.51Z"/><path class="cls-33" d="M426.89,82.71s0-.06.08-.06h.88s.07,0,.07.06a.7.7,0,0,0,1.39,0,.72.72,0,0,0-.69-.68,2.12,2.12,0,0,1-.83-.18,1.55,1.55,0,0,1-.9-1.45,1.66,1.66,0,0,1,1.73-1.67,1.61,1.61,0,0,1,1.71,1.57s0,.06-.08.06h-.87s-.08,0-.08-.06a.61.61,0,0,0-.68-.58.64.64,0,0,0-.7.68.67.67,0,0,0,.7.66,2.05,2.05,0,0,1,.81.18,1.56,1.56,0,0,1,.91,1.47,1.73,1.73,0,0,1-3.45,0Z"/><path class="cls-34" d="M432.35,79.77V81h2.13a.07.07,0,0,1,.07.06v.85a.07.07,0,0,1-.07.06h-2.13v1.25h2.57c.05,0,.08,0,.08.06v.86s0,.06-.08.06h-3.53a.07.07,0,0,1-.07-.06V78.84a.07.07,0,0,1,.07-.06h3.53c.05,0,.08,0,.08.06v.86a.08.08,0,0,1-.08.07Z"/><path class="cls-15" d="M439.62,79.77V81h2.13c.05,0,.07,0,.07.06v.85s0,.06-.07.06h-2.13v1.25h2.58a.07.07,0,0,1,.07.06v.86a.07.07,0,0,1-.07.06h-3.54a.07.07,0,0,1-.07-.06V78.84a.07.07,0,0,1,.07-.06h3.54a.07.07,0,0,1,.07.06v.86a.08.08,0,0,1-.07.07Z"/><path class="cls-35" d="M449.07,84.17a.07.07,0,0,1-.07.06h-.89a.07.07,0,0,1-.07-.06V81.1L446.66,84s0,0-.07,0h-.83a.08.08,0,0,1-.06,0L444.22,81v3.13a.07.07,0,0,1-.07.06h-.89a.07.07,0,0,1-.07-.06V78.84a.07.07,0,0,1,.07-.06h.9l.07,0,1.94,4,1.86-4,.07,0h.9a.07.07,0,0,1,.07.06Z"/><path class="cls-36" d="M456.22,84.17s0,.06-.08.06h-.88c-.05,0-.08,0-.08-.06V81.1L453.81,84a.1.1,0,0,1-.07,0h-.84a.08.08,0,0,1-.06,0L451.37,81v3.13s0,.06-.08.06h-.88c-.05,0-.08,0-.08-.06V78.84s0-.06.08-.06h.89s.07,0,.07,0l1.95,4,1.85-4,.07,0h.9s.08,0,.08.06Z"/><path class="cls-37" d="M460,83.62h-1.77l-.21.57a.07.07,0,0,1-.07,0h-1c-.07,0-.1,0-.07-.08l2.12-5.49a.08.08,0,0,1,.15,0l2.12,5.49s0,.08-.06.08h-1a.06.06,0,0,1-.06,0Zm-1.44-.92h1.1l-.55-1.64Z"/><path class="cls-38" d="M466.48,84.17s0,.06-.08.06h-.89s-.05,0-.06,0L463,80.58v3.59a.07.07,0,0,1-.07.06H462c-.05,0-.08,0-.08-.06V78.83s0-.06.08-.06h.89l.06,0,2.5,3.67V78.83s0-.06.08-.06h.87c.05,0,.08,0,.08.06Z"/><path class="cls-39" d="M467.7,82.48V78.89a.07.07,0,0,1,.08-.07h.88a.07.07,0,0,1,.08.07v3.58a1,1,0,0,0,1,.84c.52,0,1-.28,1-.83V78.89a.07.07,0,0,1,.08-.07h.89a.07.07,0,0,1,.07.07v3.59a1.85,1.85,0,0,1-2.06,1.83A1.88,1.88,0,0,1,467.7,82.48Z"/><path class="cls-40" d="M474.06,79.77V81h2.13a.07.07,0,0,1,.07.06v.85a.07.07,0,0,1-.07.06h-2.13v1.25h2.57c.05,0,.08,0,.08.06v.86s0,.06-.08.06H473.1a.07.07,0,0,1-.07-.06V78.84a.07.07,0,0,1,.07-.06h3.53c.05,0,.08,0,.08.06v.86a.08.08,0,0,1-.08.07Z"/><path class="cls-41" d="M480.52,83.23c.05,0,.08,0,.08.06v.88s0,.06-.08.06h-2.84a.07.07,0,0,1-.07-.06V78.84a.07.07,0,0,1,.07-.06h.89a.07.07,0,0,1,.07.06v4.39Z"/><path class="cls-42" d="M420.61,90.38c.05,0,.08,0,.08.06v.88s0,.06-.08.06h-2.84s-.08,0-.08-.06V86a.09.09,0,0,1,.08-.07h.88a.08.08,0,0,1,.08.07v4.39Z"/><path class="cls-43" d="M424.15,90.77h-1.77l-.21.57a.07.07,0,0,1-.07,0h-1c-.06,0-.09,0-.07-.08l2.13-5.49a.08.08,0,0,1,.14,0l2.13,5.49s0,.08-.06.08h-1s-.06,0-.06,0Zm-1.43-.92h1.1l-.55-1.64Z"/><path class="cls-44" d="M426.06,89.63V86s0-.06.08-.06H427c.05,0,.08,0,.08.06v3.59a.94.94,0,0,0,1,.83c.51,0,1-.27,1-.82V86s0-.06.08-.06h.89a.07.07,0,0,1,.07.06v3.6a1.85,1.85,0,0,1-2.06,1.83A1.88,1.88,0,0,1,426.06,89.63Z"/><path class="cls-45" d="M433,89.18h-.58v2.14s0,.06-.08.06h-.89a.07.07,0,0,1-.07-.06V86a.08.08,0,0,1,.07-.07h1.76a1.64,1.64,0,0,1,1.85,1.63,1.43,1.43,0,0,1-1,1.46c.35.77.71,1.52,1.06,2.29,0,0,0,.08-.07.08h-1a.1.1,0,0,1-.07,0Zm-.58-1h.79c.23,0,.81,0,.81-.63s-.64-.64-.81-.64h-.79Z"/><path class="cls-46" d="M437.09,86.91v1.27h2.13a.07.07,0,0,1,.07.06v.85a.07.07,0,0,1-.07.06h-2.13V90.4h2.57s.08,0,.08.06v.86s0,.06-.08.06h-3.53a.07.07,0,0,1-.07-.06V86a.08.08,0,0,1,.07-.07h3.53a.08.08,0,0,1,.08.07v.86s0,.06-.08.06Z"/><path class="cls-47" d="M443.55,90.38c.05,0,.08,0,.08.06v.88s0,.06-.08.06h-2.84a.07.07,0,0,1-.07-.06V86a.08.08,0,0,1,.07-.07h.89a.08.08,0,0,1,.07.07v4.39Z"/><path class="cls-48" d="M385.49,132.65c0-.78.19-1.88,1.61-1.88s1.64,1.08,1.64,1.88v.52a0,0,0,0,1,0,.05h-3.17a0,0,0,0,1,0-.05Zm2.67-.05a1,1,0,0,0-1.06-1.22c-.85,0-1.07.52-1,1.22Z"/><path class="cls-49" d="M386.08,129.54h.75v-1.27a0,0,0,0,1,0,0h.5a0,0,0,0,1,0,0v1.27h.74V128a0,0,0,0,1,0,0h.51a0,0,0,0,1,0,0v2.1a0,0,0,0,1,0,0h-3.17a0,0,0,0,1,0,0V128a0,0,0,0,1,0,0H386a0,0,0,0,1,0,0Z"/><path class="cls-50" d="M387.83,127.54s0,0,0-.05V127s0,0,0,0a.38.38,0,0,0,.36-.41.39.39,0,0,0-.37-.42.42.42,0,0,0-.4.42,1.22,1.22,0,0,1-.11.49.92.92,0,0,1-.86.54,1,1,0,0,1-1-1,1,1,0,0,1,.94-1s0,0,0,.05v.52a0,0,0,0,1,0,0,.36.36,0,0,0-.35.41.38.38,0,0,0,.41.41.4.4,0,0,0,.39-.41,1.33,1.33,0,0,1,.1-.49.94.94,0,0,1,.88-.54,1,1,0,0,1,0,2.06Z"/><path class="cls-51" d="M385.53,124.9a0,0,0,0,1,0,0v-.53a0,0,0,0,1,0,0h3.17a0,0,0,0,1,0,0v.53a0,0,0,0,1,0,0Z"/><path class="cls-52" d="M386.86,120.74a0,0,0,0,1,0,0h1.81a0,0,0,0,1,0,0v.47a0,0,0,0,1,0,0l-.28,0a1.13,1.13,0,0,1,.36.86,1.53,1.53,0,0,1-1.68,1.56,1.62,1.62,0,0,1-1.67-1.62,1.58,1.58,0,0,1,.48-1.15,0,0,0,0,1,.05,0l.37.37a0,0,0,0,1,0,.06,1,1,0,0,0-.3.72,1,1,0,0,0,1.07,1,1,1,0,0,0,1.08-1,1,1,0,0,0-.34-.76h-.45v.8a0,0,0,0,1,0,0h-.46a0,0,0,0,1,0,0Z"/><path class="cls-53" d="M388.7,117.3a0,0,0,0,1,0,0v.53s0,0,0,0l-2.16,1.49h2.14a0,0,0,0,1,0,0V120a0,0,0,0,1,0,0h-3.18s0,0,0,0v-.53a.06.06,0,0,1,0,0l2.18-1.49h-2.16s0,0,0,0v-.52s0,0,0,0Z"/><path class="cls-54" d="M387.09,113.23a.74.74,0,0,1,.71-.48c.9,0,.94.91.94,1.13v1.05a0,0,0,0,1,0,0h-3.17a0,0,0,0,1,0,0v-1.05s0-1.09.92-1.09A.69.69,0,0,1,387.09,113.23Zm-.26,1.13v-.48c0-.09,0-.48-.39-.48s-.36.48-.36.48v.48Zm.95-1c-.39,0-.39.42-.39.52v.48h.75v-.48C388.14,113.68,388.08,113.36,387.78,113.36Z"/><path class="cls-55" d="M385.49,109.55s0-.06.06,0l1.67,1.18h1.48a0,0,0,0,1,0,0v.53a0,0,0,0,1,0,0h-1.48l-1.67,1.18s-.06,0-.06,0v-.68l1.1-.77-1.1-.76s0,0,0,0Z"/><path class="cls-56" d="M392.37,102.34c1.32,0,3.16.31,3.16,2.71s-1.81,2.74-3.16,2.74h-.88c-.05,0-.08,0-.08-.06V102.4s0-.06.08-.06Zm.08,4.48a1.72,1.72,0,0,0,2.05-1.77c0-1.44-.88-1.81-2.05-1.75Z"/><path class="cls-57" d="M399.11,107.18h-1.77l-.21.58a.08.08,0,0,1-.07,0h-1c-.06,0-.09,0-.07-.08l2.13-5.49a.08.08,0,0,1,.14,0l2.13,5.49c0,.05,0,.08-.06.08h-1a.07.07,0,0,1-.06,0Zm-1.43-.92h1.1l-.55-1.64Z"/><path class="cls-58" d="M405.58,107.73a.07.07,0,0,1-.07.06h-.89s-.06,0-.06,0l-2.5-3.63v3.59a.07.07,0,0,1-.07.06h-.89c-.05,0-.07,0-.07-.06v-5.34s0-.06.07-.06h.9l.05,0,2.51,3.67v-3.63a.07.07,0,0,1,.07-.06h.88a.07.07,0,0,1,.07.06Z"/><path class="cls-59" d="M406.81,102.4s0-.06.08-.06h.88c.05,0,.08,0,.08.06v5.33s0,.06-.08.06h-.88c-.05,0-.08,0-.08-.06Z"/><path class="cls-60" d="M410,103.33v1.26h2.13c.05,0,.07,0,.07.06v.85s0,.06-.07.06H410v1.25h2.57c.05,0,.08,0,.08.06v.86s0,.06-.08.06h-3.53a.07.07,0,0,1-.07-.06V102.4a.07.07,0,0,1,.07-.06h3.53c.05,0,.08,0,.08.06v.86a.07.07,0,0,1-.08.07Z"/><path class="cls-61" d="M416.49,106.79a.07.07,0,0,1,.07.06v.88a.07.07,0,0,1-.07.06h-2.84s-.08,0-.08-.06V102.4s0-.06.08-.06h.88c.05,0,.08,0,.08.06v4.39Z"/><path class="cls-62" d="M420.39,106.79c.05,0,.08,0,.08.06v.88s0,.06-.08.06h-2.84a.07.07,0,0,1-.07-.06V102.4a.07.07,0,0,1,.07-.06h.89a.07.07,0,0,1,.07.06v4.39Z"/><path class="cls-63" d="M422.09,103.33v1.26h2.13s.07,0,.07.06v.85s0,.06-.07.06h-2.13v1.25h2.58a.07.07,0,0,1,.07.06v.86a.07.07,0,0,1-.07.06h-3.54s-.07,0-.07-.06V102.4s0-.06.07-.06h3.54a.07.07,0,0,1,.07.06v.86a.07.07,0,0,1-.07.07Z"/><path class="cls-64" d="M394.33,112.17a1.25,1.25,0,0,1,.82,1.19c0,1.51-1.54,1.58-1.91,1.58h-1.76a.07.07,0,0,1-.07-.06v-5.33a.08.08,0,0,1,.07-.07h1.76s1.84,0,1.84,1.55A1.16,1.16,0,0,1,394.33,112.17Zm-1.89-.44h.8c.15,0,.8,0,.8-.65s-.8-.6-.8-.6h-.8Zm1.68,1.6c0-.65-.71-.65-.88-.65h-.8v1.26h.8C393.58,113.94,394.12,113.84,394.12,113.33Z"/><path class="cls-65" d="M398.65,114.33h-1.77l-.21.57a.07.07,0,0,1-.07,0h-1c-.06,0-.09,0-.07-.08l2.13-5.49a.08.08,0,0,1,.14,0l2.13,5.49s0,.08-.06.08h-1a.06.06,0,0,1-.06,0Zm-1.43-.92h1.1l-.55-1.64Z"/><path class="cls-66" d="M403.47,113.94s.08,0,.08.06v.88s0,.06-.08.06h-2.84a.07.07,0,0,1-.07-.06v-5.33a.08.08,0,0,1,.07-.07h.88a.08.08,0,0,1,.08.07v4.39Z"/><path class="cls-67" d="M405.43,109.48c1.32,0,3.16.32,3.16,2.72s-1.81,2.74-3.16,2.74h-.88c-.05,0-.08,0-.08-.06v-5.33a.08.08,0,0,1,.08-.07Zm.08,4.49a1.72,1.72,0,0,0,2.05-1.77c0-1.44-.88-1.81-2.05-1.75Z"/><path class="cls-68" d="M414.83,112.21a2.7,2.7,0,1,1-2.69-2.8A2.66,2.66,0,0,1,414.83,112.21Zm-1.06,0a1.65,1.65,0,1,0-1.63,1.81A1.67,1.67,0,0,0,413.77,112.22Z"/><path class="cls-69" d="M420.41,114.88s0,.06-.08.06h-.89s-.05,0-.06,0l-2.5-3.63v3.59a.07.07,0,0,1-.07.06h-.89a.07.07,0,0,1-.07-.06v-5.34a.07.07,0,0,1,.07-.06h.9s.05,0,.06,0l2.5,3.67v-3.63s0-.06.08-.06h.87c.05,0,.08,0,.08.06Z"/><path class="cls-70" d="M426.83,112.21a2.7,2.7,0,1,1-2.69-2.8A2.66,2.66,0,0,1,426.83,112.21Zm-1.06,0a1.65,1.65,0,1,0-1.63,1.81A1.67,1.67,0,0,0,425.77,112.22Z"/><path class="cls-71" d="M419.64,119.07s.07,0,.07.06v3.8a1.59,1.59,0,0,1-1.63,1.6h-.66c-.05,0-.08,0-.08-.06v-.89s0-.06.08-.06h.66a.58.58,0,0,0,.6-.59v-3.8s0-.06.07-.06Z"/><path class="cls-72" d="M426.06,121.79a2.7,2.7,0,1,1-2.69-2.8A2.65,2.65,0,0,1,426.06,121.79Zm-1.05,0a1.65,1.65,0,1,0-1.64,1.81A1.68,1.68,0,0,0,425,121.81Z"/><path class="cls-73" d="M426.89,123s0-.06.08-.06h.88a.07.07,0,0,1,.07.06.7.7,0,0,0,1.39,0,.71.71,0,0,0-.69-.67,2.12,2.12,0,0,1-.83-.18,1.57,1.57,0,0,1-.9-1.45,1.66,1.66,0,0,1,1.73-1.68,1.61,1.61,0,0,1,1.71,1.57.07.07,0,0,1-.08.07h-.87a.08.08,0,0,1-.08-.07.61.61,0,0,0-.68-.57.64.64,0,0,0-.7.68.67.67,0,0,0,.7.65,2.05,2.05,0,0,1,.81.18,1.56,1.56,0,0,1,.91,1.47,1.73,1.73,0,0,1-3.45,0Z"/><path class="cls-74" d="M432.35,120.06v1.26h2.13a.07.07,0,0,1,.07.07v.85a.07.07,0,0,1-.07.06h-2.13v1.25h2.57c.05,0,.08,0,.08.06v.86s0,.06-.08.06h-3.53a.07.07,0,0,1-.07-.06v-5.34a.07.07,0,0,1,.07-.06h3.53c.05,0,.08,0,.08.06V120s0,.06-.08.06Z"/><path class="cls-75" d="M439.62,120.06v1.26h2.13a.06.06,0,0,1,.07.07v.85s0,.06-.07.06h-2.13v1.25h2.58a.07.07,0,0,1,.07.06v.86a.07.07,0,0,1-.07.06h-3.54a.07.07,0,0,1-.07-.06v-5.34a.07.07,0,0,1,.07-.06h3.54a.07.07,0,0,1,.07.06V120a.07.07,0,0,1-.07.06Z"/><path class="cls-76" d="M449.07,124.47a.07.07,0,0,1-.07.06h-.89a.07.07,0,0,1-.07-.06v-3.08l-1.38,2.89a.09.09,0,0,1-.07,0h-.83s-.05,0-.06,0l-1.48-3v3.14a.07.07,0,0,1-.07.06h-.89a.07.07,0,0,1-.07-.06v-5.34a.07.07,0,0,1,.07-.06h.9a.1.1,0,0,1,.07,0l1.94,4,1.86-4a.1.1,0,0,1,.07,0h.9a.07.07,0,0,1,.07.06Z"/><path class="cls-77" d="M456.22,124.47s0,.06-.08.06h-.88c-.05,0-.08,0-.08-.06v-3.08l-1.37,2.89a.16.16,0,0,1-.07,0h-.84s0,0-.06,0l-1.47-3v3.14s0,.06-.08.06h-.88c-.05,0-.08,0-.08-.06v-5.34s0-.06.08-.06h.89s.07,0,.07,0l1.95,4,1.85-4a.1.1,0,0,1,.07,0h.9s.08,0,.08.06Z"/><path class="cls-78" d="M460,123.91h-1.77l-.21.58a.08.08,0,0,1-.07,0h-1c-.07,0-.1,0-.07-.09l2.12-5.49a.09.09,0,0,1,.15,0l2.12,5.49s0,.09-.06.09h-1a.08.08,0,0,1-.06,0Zm-1.44-.92h1.1l-.55-1.64Z"/><path class="cls-79" d="M466.48,124.47s0,.06-.08.06h-.89s-.05,0-.06,0l-2.5-3.63v3.6a.07.07,0,0,1-.07.06H462c-.05,0-.08,0-.08-.06v-5.35s0-.06.08-.06h.89a.07.07,0,0,1,.06,0l2.5,3.66v-3.63s0-.06.08-.06h.87c.05,0,.08,0,.08.06Z"/><path class="cls-80" d="M467.7,122.77v-3.59s0-.06.08-.06h.88s.08,0,.08.06v3.59a1,1,0,0,0,1,.83c.52,0,1-.27,1-.83v-3.59s0-.06.08-.06h.89a.07.07,0,0,1,.07.06v3.59a1.85,1.85,0,0,1-2.06,1.84A1.89,1.89,0,0,1,467.7,122.77Z"/><path class="cls-81" d="M474.06,120.06v1.26h2.13a.07.07,0,0,1,.07.07v.85a.07.07,0,0,1-.07.06h-2.13v1.25h2.57c.05,0,.08,0,.08.06v.86s0,.06-.08.06H473.1a.07.07,0,0,1-.07-.06v-5.34a.07.07,0,0,1,.07-.06h3.53c.05,0,.08,0,.08.06V120s0,.06-.08.06Z"/><path class="cls-82" d="M480.52,123.52c.05,0,.08,0,.08.06v.89s0,.06-.08.06h-2.84a.07.07,0,0,1-.07-.06v-5.34a.07.07,0,0,1,.07-.06h.89a.07.07,0,0,1,.07.06v4.39Z"/><path class="cls-83" d="M420.61,130.67c.05,0,.08,0,.08.06v.88a.07.07,0,0,1-.08.07h-2.84a.08.08,0,0,1-.08-.07v-5.33s0-.06.08-.06h.88c.05,0,.08,0,.08.06v4.39Z"/><path class="cls-84" d="M424.15,131.06h-1.77l-.21.58a.08.08,0,0,1-.07,0h-1c-.06,0-.09,0-.07-.09l2.13-5.49a.08.08,0,0,1,.14,0l2.13,5.49a.06.06,0,0,1-.06.09h-1s-.06,0-.06,0Zm-1.43-.92h1.1l-.55-1.64Z"/><path class="cls-85" d="M426.06,129.92v-3.59s0-.06.08-.06H427c.05,0,.08,0,.08.06v3.58a1,1,0,0,0,1,.84c.51,0,1-.27,1-.83v-3.59s0-.06.08-.06h.89a.07.07,0,0,1,.07.06v3.59a1.85,1.85,0,0,1-2.06,1.83A1.88,1.88,0,0,1,426.06,129.92Z"/><path class="cls-86" d="M433,129.47h-.58v2.14a.07.07,0,0,1-.08.07h-.89a.07.07,0,0,1-.07-.07v-5.33a.07.07,0,0,1,.07-.06h1.76a1.63,1.63,0,0,1,1.85,1.62,1.45,1.45,0,0,1-1,1.47c.35.77.71,1.52,1.06,2.28,0,0,0,.09-.07.09h-1a.16.16,0,0,1-.07,0Zm-.58-1h.79c.23,0,.81,0,.81-.63s-.64-.63-.81-.63h-.79Z"/><path class="cls-87" d="M437.09,127.21v1.26h2.13a.07.07,0,0,1,.07.06v.85a.07.07,0,0,1-.07.07h-2.13v1.24h2.57a.08.08,0,0,1,.08.07v.85a.07.07,0,0,1-.08.07h-3.53a.07.07,0,0,1-.07-.07v-5.33a.07.07,0,0,1,.07-.06h3.53s.08,0,.08.06v.87s0,.06-.08.06Z"/><path class="cls-88" d="M443.55,130.67c.05,0,.08,0,.08.06v.88a.07.07,0,0,1-.08.07h-2.84a.07.07,0,0,1-.07-.07v-5.33a.07.07,0,0,1,.07-.06h.89a.07.07,0,0,1,.07.06v4.39Z"/></svg>