<svg id="Layer_1" data-name="Layer 1" xmlns="http://www.w3.org/2000/svg" xmlns:xlink="http://www.w3.org/1999/xlink" viewBox="0 0 679.47 600"><defs><style>.cls-1{fill:url(#linear-gradient);}.cls-2{fill:url(#linear-gradient-2);}</style><linearGradient id="linear-gradient" x1="340.39" y1="-31.4" x2="352.84" y2="640.87" gradientUnits="userSpaceOnUse"><stop offset="0" stop-color="#f1593a"/><stop offset="0.53" stop-color="#faa935"/><stop offset="1" stop-color="#fff5ee"/></linearGradient><linearGradient id="linear-gradient-2" x1="476.06" y1="-33.91" x2="488.51" y2="638.36" xlink:href="#linear-gradient"/></defs><title>Tao-logo</title><path class="cls-1" d="M511.33,32.88H523q67.57,0,120.61,39.24V200h-2.9q-57.76-36.31-123.52-36.33-67.23,0-188.92,43.6-1.46,9.81-114.81,361.85H92.81l-2.91-1.46L194.53,239.24H164Q96.45,239.24,43.4,200V72.12h2.91q57.76,36.34,123.52,36.33,69.39,0,245.59-61Q476.1,32.88,511.33,32.88Z"/><path class="cls-2" d="M379.32,287.57H552.14c1.09.14,1.63.68,1.63,1.62v66.53q0,20.49-1.63,39.76H591.9c1.08.13,1.63.68,1.63,1.62v65.73a1.44,1.44,0,0,1-1.63,1.62H542.41q-11.16,46.24-21.91,64.1-24.13,40.58-55.17,40.57h-86a1.44,1.44,0,0,1-1.62-1.63V501.77c.13-1.08.68-1.62,1.62-1.62h39.76q39,0,46.25-35.7H419.08a1.43,1.43,0,0,1-1.62-1.62V397.1c.13-1.08.68-1.62,1.62-1.62h59.23q1.62-30.44,1.62-39H379.32a1.43,1.43,0,0,1-1.62-1.62V289.19C377.83,288.11,378.38,287.57,379.32,287.57Z"/></svg>