<svg id="Layer_1" data-name="Layer 1" xmlns="http://www.w3.org/2000/svg" viewBox="0 0 549.26 557.56"><defs><style>.cls-1{fill:#fff5ee;}</style></defs><title>behance</title><path class="cls-1" d="M202.31,252.12h-45V209.57h40.8C241.12,209.57,235.81,252.12,202.31,252.12Zm132.48,24.21h60.06C392.21,237.72,340.84,234.91,334.79,276.33Zm-135,9.06H157.34V330h41.74C239.86,329.93,237.37,285.39,199.77,285.39Zm349.49-6.61c0,151.66-123,274.63-274.63,274.63S0,430.44,0,278.78,123,4.15,274.63,4.15,549.26,127.12,549.26,278.78ZM243.57,262c38.18-19.52,36.78-91.1-36.32-92.18H114.43V369.61h86.3C291.31,369.61,289.78,278.83,243.57,262Zm76.83-72.45h91.54v-20H320.4Zm113.12,84.51C421.05,193.85,295,189.14,295,294c0,103.58,118.54,87.38,136.14,35.7H388.85c-14.76,17.12-57.4,12.15-55-27.09H434.76C435,289.92,434.55,280.82,433.52,274.06Z"/></svg>