<svg id="Layer_1" data-name="Layer 1" xmlns="http://www.w3.org/2000/svg" xmlns:xlink="http://www.w3.org/1999/xlink" viewBox="0 0 500 200"><defs><style>.cls-1{fill:#fff5ee;}.cls-2{fill:#191717;opacity:0.71;}.cls-3{fill:none;stroke-miterlimit:10;stroke:url(#linear-gradient);}.cls-4{fill:url(#linear-gradient-2);}.cls-5{fill:url(#linear-gradient-3);}.cls-6{fill:url(#linear-gradient-4);}.cls-7{fill:url(#linear-gradient-5);}.cls-8{fill:url(#linear-gradient-6);}.cls-9{fill:url(#linear-gradient-7);}.cls-10{fill:url(#linear-gradient-8);}.cls-11{fill:url(#linear-gradient-9);}.cls-12{fill:url(#linear-gradient-10);}.cls-13{fill:url(#linear-gradient-11);}.cls-14{fill:url(#linear-gradient-12);}.cls-15{fill:url(#linear-gradient-13);}</style><linearGradient id="linear-gradient" x1="385.76" y1="138.18" x2="483.03" y2="138.18" gradientUnits="userSpaceOnUse"><stop offset="0" stop-color="#a4d17d"/><stop offset="1" stop-color="#0b7d4c"/></linearGradient><linearGradient id="linear-gradient-2" x1="385.4" y1="511.7" x2="504.96" y2="506.07" gradientTransform="matrix(1, 0, 0, -1, 0, 579.54)" gradientUnits="userSpaceOnUse"><stop offset="0" stop-color="#a5d27d"/><stop offset="0.16" stop-color="#94c879"/><stop offset="0.49" stop-color="#63b26d"/><stop offset="0.95" stop-color="#188f5b"/><stop offset="1" stop-color="#118c5a"/></linearGradient><linearGradient id="linear-gradient-3" x1="385.52" y1="514.33" x2="505.09" y2="508.7" xlink:href="#linear-gradient-2"/><linearGradient id="linear-gradient-4" x1="385.4" y1="511.66" x2="504.96" y2="506.03" xlink:href="#linear-gradient-2"/><linearGradient id="linear-gradient-5" x1="385.32" y1="510.06" x2="504.89" y2="504.43" xlink:href="#linear-gradient-2"/><linearGradient id="linear-gradient-6" x1="385.61" y1="516.3" x2="505.18" y2="510.67" xlink:href="#linear-gradient-2"/><linearGradient id="linear-gradient-7" x1="385.52" y1="514.3" x2="505.09" y2="508.67" xlink:href="#linear-gradient-2"/><linearGradient id="linear-gradient-8" x1="383.78" y1="479.38" x2="503.35" y2="473.75" xlink:href="#linear-gradient-2"/><linearGradient id="linear-gradient-9" x1="383.75" y1="478.78" x2="503.32" y2="473.15" xlink:href="#linear-gradient-2"/><linearGradient id="linear-gradient-10" x1="383.91" y1="482.16" x2="503.48" y2="476.53" xlink:href="#linear-gradient-2"/><linearGradient id="linear-gradient-11" x1="383.81" y1="480.14" x2="503.38" y2="474.51" xlink:href="#linear-gradient-2"/><linearGradient id="linear-gradient-12" x1="386.9" y1="565.79" x2="481.3" y2="561.35" xlink:href="#linear-gradient-2"/><linearGradient id="linear-gradient-13" x1="384.33" y1="564.71" x2="483.75" y2="560.03" xlink:href="#linear-gradient-2"/></defs><title>calc-right</title><path class="cls-1" d="M500,10V190a10,10,0,0,1-10,10H365.15V0H490A10,10,0,0,1,500,10Z"/><rect class="cls-2" x="390.36" y="153.09" width="85.57" height="19.74"/><path class="cls-1" d="M395.16,159v8.52H394V159Z"/><path class="cls-1" d="M397.27,167.47V159h1.19v8.52Zm.81,0v-1.14H400a2.06,2.06,0,0,0,1.47-.49,1.84,1.84,0,0,0,.52-1.38V162a1.84,1.84,0,0,0-.52-1.38,2.1,2.1,0,0,0-1.47-.49h-1.92V159H400a3.31,3.31,0,0,1,2.39.8,2.92,2.92,0,0,1,.85,2.25v2.41a3.35,3.35,0,0,1-.38,1.65,2.51,2.51,0,0,1-1.11,1.05,3.92,3.92,0,0,1-1.76.36Z"/><path class="cls-1" d="M404.47,162.58v-1.26h1.25v1.26Zm0,4.89v-1.26h1.25v1.26Z"/><path class="cls-1" d="M413,167.55a2.38,2.38,0,0,1-1.83-.65,2.51,2.51,0,0,1-.6-1.77v-3.87a2.48,2.48,0,0,1,.61-1.78,2.44,2.44,0,0,1,1.82-.64,2.4,2.4,0,0,1,1.82.64,2.47,2.47,0,0,1,.61,1.78v3.87a2.47,2.47,0,0,1-.61,1.78A2.4,2.4,0,0,1,413,167.55Zm0-1.13a1.19,1.19,0,0,0,.95-.35,1.41,1.41,0,0,0,.29-.94v-3.87a1.41,1.41,0,0,0-.29-.94,1.5,1.5,0,0,0-1.9,0,1.41,1.41,0,0,0-.29.94v3.87a1.41,1.41,0,0,0,.29.94A1.19,1.19,0,0,0,413,166.42Z"/><path class="cls-1" d="M419.38,167.55a2.36,2.36,0,0,1-1.83-.65,2.52,2.52,0,0,1-.61-1.77v-3.87a2.49,2.49,0,0,1,.62-1.78,2.44,2.44,0,0,1,1.82-.64,2.4,2.4,0,0,1,1.82.64,2.51,2.51,0,0,1,.61,1.78v3.87a2.51,2.51,0,0,1-.61,1.78A2.4,2.4,0,0,1,419.38,167.55Zm0-1.13a1.16,1.16,0,0,0,.94-.35,1.36,1.36,0,0,0,.29-.94v-3.87a1.36,1.36,0,0,0-.29-.94,1.48,1.48,0,0,0-1.89,0,1.41,1.41,0,0,0-.29.94v3.87a1.41,1.41,0,0,0,.29.94A1.17,1.17,0,0,0,419.38,166.42Z"/><path class="cls-1" d="M425.76,167.55a2.34,2.34,0,0,1-1.82-.65,2.47,2.47,0,0,1-.61-1.77v-3.87a2.49,2.49,0,0,1,.62-1.78,2.42,2.42,0,0,1,1.81-.64,2.39,2.39,0,0,1,1.82.64,2.47,2.47,0,0,1,.61,1.78v3.87a2.47,2.47,0,0,1-.61,1.78A2.39,2.39,0,0,1,425.76,167.55Zm0-1.13a1.17,1.17,0,0,0,.95-.35,1.41,1.41,0,0,0,.29-.94v-3.87a1.41,1.41,0,0,0-.29-.94,1.48,1.48,0,0,0-1.89,0,1.36,1.36,0,0,0-.29.94v3.87a1.36,1.36,0,0,0,.29.94A1.16,1.16,0,0,0,425.76,166.42Z"/><path class="cls-1" d="M432.15,167.55a2.38,2.38,0,0,1-1.83-.65,2.51,2.51,0,0,1-.6-1.77v-3.87a2.48,2.48,0,0,1,.61-1.78,2.44,2.44,0,0,1,1.82-.64,2.4,2.4,0,0,1,1.82.64,2.47,2.47,0,0,1,.61,1.78v3.87a2.47,2.47,0,0,1-.61,1.78A2.4,2.4,0,0,1,432.15,167.55Zm0-1.13a1.19,1.19,0,0,0,1-.35,1.41,1.41,0,0,0,.29-.94v-3.87a1.41,1.41,0,0,0-.29-.94,1.5,1.5,0,0,0-1.9,0,1.41,1.41,0,0,0-.29.94v3.87a1.41,1.41,0,0,0,.29.94A1.19,1.19,0,0,0,432.15,166.42Z"/><path class="cls-1" d="M438.54,167.55a2.36,2.36,0,0,1-1.83-.65,2.52,2.52,0,0,1-.61-1.77v-3.87a2.49,2.49,0,0,1,.62-1.78,2.44,2.44,0,0,1,1.82-.64,2.4,2.4,0,0,1,1.82.64,2.51,2.51,0,0,1,.61,1.78v3.87a2.51,2.51,0,0,1-.61,1.78A2.4,2.4,0,0,1,438.54,167.55Zm0-1.13a1.16,1.16,0,0,0,.94-.35,1.36,1.36,0,0,0,.29-.94v-3.87a1.36,1.36,0,0,0-.29-.94,1.48,1.48,0,0,0-1.89,0,1.41,1.41,0,0,0-.29.94v3.87a1.41,1.41,0,0,0,.29.94A1.17,1.17,0,0,0,438.54,166.42Z"/><path class="cls-1" d="M444.92,167.55a2.34,2.34,0,0,1-1.82-.65,2.47,2.47,0,0,1-.61-1.77v-3.87a2.49,2.49,0,0,1,.62-1.78,2.42,2.42,0,0,1,1.81-.64,2.39,2.39,0,0,1,1.82.64,2.47,2.47,0,0,1,.61,1.78v3.87a2.47,2.47,0,0,1-.61,1.78A2.39,2.39,0,0,1,444.92,167.55Zm0-1.13a1.17,1.17,0,0,0,.95-.35,1.41,1.41,0,0,0,.29-.94v-3.87a1.41,1.41,0,0,0-.29-.94,1.48,1.48,0,0,0-1.89,0,1.36,1.36,0,0,0-.29.94v3.87a1.36,1.36,0,0,0,.29.94A1.16,1.16,0,0,0,444.92,166.42Z"/><path class="cls-1" d="M451.31,167.55a2.38,2.38,0,0,1-1.83-.65,2.51,2.51,0,0,1-.6-1.77v-3.87a2.48,2.48,0,0,1,.61-1.78,2.44,2.44,0,0,1,1.82-.64,2.4,2.4,0,0,1,1.82.64,2.47,2.47,0,0,1,.61,1.78v3.87a2.47,2.47,0,0,1-.61,1.78A2.4,2.4,0,0,1,451.31,167.55Zm0-1.13a1.19,1.19,0,0,0,.95-.35,1.41,1.41,0,0,0,.29-.94v-3.87a1.41,1.41,0,0,0-.29-.94,1.5,1.5,0,0,0-1.9,0,1.41,1.41,0,0,0-.29.94v3.87a1.41,1.41,0,0,0,.29.94A1.19,1.19,0,0,0,451.31,166.42Z"/><path class="cls-1" d="M457.7,167.55a2.36,2.36,0,0,1-1.83-.65,2.52,2.52,0,0,1-.61-1.77v-3.87a2.49,2.49,0,0,1,.62-1.78,2.44,2.44,0,0,1,1.82-.64,2.4,2.4,0,0,1,1.82.64,2.51,2.51,0,0,1,.61,1.78v3.87a2.51,2.51,0,0,1-.61,1.78A2.4,2.4,0,0,1,457.7,167.55Zm0-1.13a1.16,1.16,0,0,0,.94-.35,1.36,1.36,0,0,0,.29-.94v-3.87a1.36,1.36,0,0,0-.29-.94,1.48,1.48,0,0,0-1.89,0,1.41,1.41,0,0,0-.29.94v3.87a1.41,1.41,0,0,0,.29.94A1.17,1.17,0,0,0,457.7,166.42Z"/><path class="cls-1" d="M464.08,167.55a2.34,2.34,0,0,1-1.82-.65,2.47,2.47,0,0,1-.61-1.77v-3.87a2.49,2.49,0,0,1,.62-1.78,2.42,2.42,0,0,1,1.81-.64,2.39,2.39,0,0,1,1.82.64,2.47,2.47,0,0,1,.61,1.78v3.87a2.47,2.47,0,0,1-.61,1.78A2.39,2.39,0,0,1,464.08,167.55Zm0-1.13a1.17,1.17,0,0,0,.95-.35,1.41,1.41,0,0,0,.29-.94v-3.87a1.41,1.41,0,0,0-.29-.94,1.48,1.48,0,0,0-1.89,0,1.36,1.36,0,0,0-.29.94v3.87a1.36,1.36,0,0,0,.29.94A1.16,1.16,0,0,0,464.08,166.42Z"/><path class="cls-1" d="M469.15,167.47l2.14-4.24v.22a.86.86,0,0,1-.45.39,1.67,1.67,0,0,1-.69.13,1.81,1.81,0,0,1-1.48-.69,2.7,2.7,0,0,1-.56-1.81h0a2.75,2.75,0,0,1,.62-1.93,2.28,2.28,0,0,1,1.76-.68,2.25,2.25,0,0,1,1.75.69,2.81,2.81,0,0,1,.62,1.94h0a4.75,4.75,0,0,1-.15,1.13,5.84,5.84,0,0,1-.45,1.18l-1.82,3.66Zm1.33-4.59a1.08,1.08,0,0,0,.87-.38,1.71,1.71,0,0,0,.3-1.08h0a1.59,1.59,0,0,0-.3-1,1.22,1.22,0,0,0-1.75,0,1.54,1.54,0,0,0-.31,1h0a1.63,1.63,0,0,0,.31,1.07A1.07,1.07,0,0,0,470.48,162.88Z"/><line class="cls-3" x1="385.76" y1="138.18" x2="483.03" y2="138.18"/><path class="cls-4" d="M384.76,71.89l.63.53a8.16,8.16,0,0,0,2.32,1.44,4.51,4.51,0,0,0,2.73.11,2.16,2.16,0,0,0,.78-.44,1.53,1.53,0,0,0,.41-.63,2.46,2.46,0,0,0,.12-.76,1.1,1.1,0,0,0-.34-.8,3.28,3.28,0,0,0-.82-.62,7.83,7.83,0,0,0-1-.47l-.92-.32a20.6,20.6,0,0,1-3-1.31,9.37,9.37,0,0,1-2.15-1.54,5.61,5.61,0,0,1-1.73-4.17,5.45,5.45,0,0,1,.54-2.42,5.32,5.32,0,0,1,1.54-1.86,7.19,7.19,0,0,1,2.4-1.19,10.84,10.84,0,0,1,3.15-.43,10.55,10.55,0,0,1,2.5.3,9.3,9.3,0,0,1,2.37.94c.32.19.63.39.92.59s.52.39.77.6a3.32,3.32,0,0,1,.52.54.84.84,0,0,1,.2.45.64.64,0,0,1-.1.35,1.93,1.93,0,0,1-.28.36l-2.2,2.32a.71.71,0,0,1-.49.25.58.58,0,0,1-.36-.12,3.84,3.84,0,0,1-.37-.29l-.13-.11a7.14,7.14,0,0,0-.64-.5,5.87,5.87,0,0,0-.75-.47,4.9,4.9,0,0,0-.85-.35,3,3,0,0,0-.9-.14,5.26,5.26,0,0,0-.89.08,2.63,2.63,0,0,0-.73.25,1.41,1.41,0,0,0-.51.46,1.32,1.32,0,0,0,0,1.37,2.1,2.1,0,0,0,.6.55,5.36,5.36,0,0,0,1,.47q.6.23,1.38.48c1,.34,1.95.69,2.8,1a9,9,0,0,1,2.22,1.31,5.42,5.42,0,0,1,1.46,1.8,5.54,5.54,0,0,1,.52,2.54,6.3,6.3,0,0,1-.64,2.86,6.52,6.52,0,0,1-1.78,2.19,8.28,8.28,0,0,1-2.64,1.4,10.74,10.74,0,0,1-3.28.5,9.72,9.72,0,0,1-3.24-.59,12.27,12.27,0,0,1-3-1.58,7.64,7.64,0,0,1-1-.82l-.63-.65,0,0,0,0,0,0a0,0,0,0,0,0,0s0,0,0,0a1,1,0,0,1-.34-.57.83.83,0,0,1,.34-.55l2.49-2.36a1,1,0,0,1,.49-.22.54.54,0,0,1,.27.09A1.7,1.7,0,0,1,384.76,71.89Z"/><path class="cls-5" d="M400.3,54.41a.93.93,0,0,1,1.07-1.11h3.32a1.29,1.29,0,0,1,.82.26,1.06,1.06,0,0,1,.3.85v2.8a.9.9,0,0,1-.07.37,1.54,1.54,0,0,1-.23.39,1,1,0,0,1-.35.31.93.93,0,0,1-.46.12h-3.33c-.71,0-1.06-.39-1.06-1.19Zm0,7.26a1.29,1.29,0,0,1,.26-.79.93.93,0,0,1,.81-.33h3.28a1,1,0,0,1,.38.08,1.2,1.2,0,0,1,.37.23,1.42,1.42,0,0,1,.29.35.81.81,0,0,1,.12.46v16a1,1,0,0,1-.3.82,1.22,1.22,0,0,1-.86.28h-3.28a1,1,0,0,1-1.07-1.1Z"/><path class="cls-6" d="M409.63,60.8a1.08,1.08,0,0,1,.4-.2,2.58,2.58,0,0,1,.39,0h2.17a1,1,0,0,1,.76.35,1.55,1.55,0,0,1,.21.35q.07.2.15.42l.3,1.26a4.32,4.32,0,0,1,.61-.92,4.4,4.4,0,0,1,1-.86,5.77,5.77,0,0,1,1.47-.63,6.78,6.78,0,0,1,2-.25,7,7,0,0,1,1.65.17,5.19,5.19,0,0,1,1.35.53,5.37,5.37,0,0,1,1.11.85,8.32,8.32,0,0,1,.95,1.18,4.23,4.23,0,0,1,.81-.93,6.24,6.24,0,0,1,1.28-.89,8.21,8.21,0,0,1,1.66-.66,7.15,7.15,0,0,1,1.95-.25,6,6,0,0,1,2.86.63,5.79,5.79,0,0,1,2,1.71A7.58,7.58,0,0,1,436,65.17a11.58,11.58,0,0,1,.41,3.1v9.4a1.3,1.3,0,0,1-.24.83,1,1,0,0,1-.75.28h-3.31a1.27,1.27,0,0,1-.85-.21,1.11,1.11,0,0,1-.23-.82V68.27a3.47,3.47,0,0,0-.19-1.15,3.1,3.1,0,0,0-.54-.93,2.42,2.42,0,0,0-.84-.61,2.61,2.61,0,0,0-1.1-.22,2.44,2.44,0,0,0-1,.21,2.47,2.47,0,0,0-.86.6,2.77,2.77,0,0,0-.6.91,3,3,0,0,0-.22,1.19v9.4a1.2,1.2,0,0,1-.24.82.88.88,0,0,1-.75.28h-3.32a1.3,1.3,0,0,1-.84-.2,1.11,1.11,0,0,1-.23-.82V68.27a3.74,3.74,0,0,0-.18-1.15,3,3,0,0,0-.51-.93,2.44,2.44,0,0,0-.82-.61,2.53,2.53,0,0,0-1.09-.22,2.71,2.71,0,0,0-1,.2,2.94,2.94,0,0,0-.89.59,3.47,3.47,0,0,0-.66.91,3.23,3.23,0,0,0-.31,1.18v9.47a1.41,1.41,0,0,1-.09.49.74.74,0,0,1-.28.37,1.19,1.19,0,0,1-.73.2h-3.25a1.17,1.17,0,0,1-.89-.3,1.14,1.14,0,0,1-.27-.81v-16a1.08,1.08,0,0,1,.12-.5.82.82,0,0,1,.34-.35Z"/><path class="cls-7" d="M440.21,60.72a.84.84,0,0,1,.4-.2,1.61,1.61,0,0,1,.39,0h2.16a1,1,0,0,1,.45.08.89.89,0,0,1,.3.24,1.48,1.48,0,0,1,.19.35l.15.42.61,1.74q.39-.53.81-1.05a5.57,5.57,0,0,1,1-1,4.79,4.79,0,0,1,1.33-.73,5.53,5.53,0,0,1,1.89-.29,9,9,0,0,1,3.62.73,8.62,8.62,0,0,1,2.86,2,9.2,9.2,0,0,1,1.87,3,10.53,10.53,0,0,1,0,7.42,9.14,9.14,0,0,1-1.87,3,8.85,8.85,0,0,1-6.48,2.74,5.42,5.42,0,0,1-1.6-.22,4.78,4.78,0,0,1-1.2-.59,5.34,5.34,0,0,1-.93-.78l-.79-.87v6.69a1.06,1.06,0,0,1-.25.73,1,1,0,0,1-.81.31H441a1.23,1.23,0,0,1-.38-.08,1.33,1.33,0,0,1-.37-.2,1.26,1.26,0,0,1-.29-.32,1,1,0,0,1-.11-.44V61.54a.89.89,0,0,1,.11-.48A1.7,1.7,0,0,1,440.21,60.72Zm13.4,9a4.83,4.83,0,0,0-.3-1.76,4.65,4.65,0,0,0-.84-1.44,4,4,0,0,0-1.31-1,3.9,3.9,0,0,0-1.68-.35,4.53,4.53,0,0,0-1.71.33,4.63,4.63,0,0,0-1.42.92,4.75,4.75,0,0,0-1,1.37,4.31,4.31,0,0,0-.43,1.68v.22a4.52,4.52,0,0,0,.35,1.78,4.44,4.44,0,0,0,1,1.44,4.73,4.73,0,0,0,1.45,1,4.47,4.47,0,0,0,1.76.36,4,4,0,0,0,3-1.33,4.46,4.46,0,0,0,.85-1.44A5.16,5.16,0,0,0,453.61,69.68Z"/><path class="cls-8" d="M461.75,56.23a1.28,1.28,0,0,1,.23-.78.92.92,0,0,1,.79-.32h3.52a.67.67,0,0,1,.3.08,1.06,1.06,0,0,1,.29.22,1.51,1.51,0,0,1,.23.35,1,1,0,0,1,.09.45V77.67a1,1,0,0,1-.3.82,1.17,1.17,0,0,1-.8.28h-3.33a.94.94,0,0,1-.78-.28,1.27,1.27,0,0,1-.23-.82Z"/><path class="cls-9" d="M485.92,76.59a9.49,9.49,0,0,1-2.85,1.82,8.46,8.46,0,0,1-3.34.65,9.8,9.8,0,0,1-6.79-2.7,9.68,9.68,0,0,1-2.1-3,9,9,0,0,1-.77-3.74A9.6,9.6,0,0,1,471.25,65a9.29,9.29,0,0,1,1.38-1.91,8.94,8.94,0,0,1,1.82-1.48,8.81,8.81,0,0,1,4.66-1.32,8.59,8.59,0,0,1,2.31.32,8.84,8.84,0,0,1,2.1.89,8.61,8.61,0,0,1,1.8,1.38,8.75,8.75,0,0,1,1.4,1.75,8.44,8.44,0,0,1,.92,2,8.09,8.09,0,0,1,.32,2.24c0,.49,0,.9,0,1.22a1.38,1.38,0,0,1-.23.76,1.06,1.06,0,0,1-.66.38,6.29,6.29,0,0,1-1.37.11H475.35a3.57,3.57,0,0,0,.58,1.54,3.77,3.77,0,0,0,1,1,3.93,3.93,0,0,0,1.23.52,4.59,4.59,0,0,0,1.22.16,4.8,4.8,0,0,0,1.07-.11,8.16,8.16,0,0,0,1.05-.28,5.53,5.53,0,0,0,.93-.42,3,3,0,0,0,.68-.49,2.63,2.63,0,0,1,.4-.28.68.68,0,0,1,.35-.1.75.75,0,0,1,.38.13,3.08,3.08,0,0,1,.43.38l1.53,1.72a1.05,1.05,0,0,1,.2.34,1.54,1.54,0,0,1,0,.3.81.81,0,0,1-.16.5A1.62,1.62,0,0,1,485.92,76.59Zm-6.91-12a2.68,2.68,0,0,0-1.08.22,4,4,0,0,0-1,.6,5.19,5.19,0,0,0-1.42,1.8h7.33a8.49,8.49,0,0,0-.65-1,4.24,4.24,0,0,0-.81-.83,3.23,3.23,0,0,0-1-.56A4.19,4.19,0,0,0,479,64.64Z"/><path class="cls-10" d="M418.56,92.41a.92.92,0,0,1,.36.37.6.6,0,0,1-.05.55l-2.41,3.44a.63.63,0,0,1-.34.28.64.64,0,0,1-.44-.13,5.34,5.34,0,0,0-1.55-.81,5.47,5.47,0,0,0-5.68,1.37,5.63,5.63,0,0,0-1.11,1.81,6.21,6.21,0,0,0,0,4.41,5.48,5.48,0,0,0,1.11,1.8,5.54,5.54,0,0,0,1.71,1.21,5.37,5.37,0,0,0,2.17.45A5.61,5.61,0,0,0,415.7,106a.63.63,0,0,1,.43-.13.56.56,0,0,1,.35.25l2.45,3.53a.56.56,0,0,1,0,.53.87.87,0,0,1-.35.36,11.66,11.66,0,0,1-2.91,1.4,10.74,10.74,0,0,1-3.28.5,10.88,10.88,0,0,1-5.54-1.49,11.21,11.21,0,0,1-3.93-3.93,10.71,10.71,0,0,1-1.1-2.61A11,11,0,0,1,403,96a11.25,11.25,0,0,1,1.72-2.23A10.8,10.8,0,0,1,406.89,92a11.47,11.47,0,0,1,2.63-1.11,11.15,11.15,0,0,1,6.16.09A11.1,11.1,0,0,1,418.56,92.41Z"/><path class="cls-11" d="M440.69,111.1a1.27,1.27,0,0,1-.09.47.76.76,0,0,1-.29.35.75.75,0,0,1-.37.2,2.33,2.33,0,0,1-.37,0h-2.83a1.18,1.18,0,0,1-.49-.08.73.73,0,0,1-.3-.22,1.19,1.19,0,0,1-.19-.35c-.06-.14-.11-.29-.17-.45l-.19-.65a7,7,0,0,1-.87.76,6.76,6.76,0,0,1-2.37,1.14,5.62,5.62,0,0,1-1.41.18,9.66,9.66,0,0,1-2.51-.33,9.34,9.34,0,0,1-6.53-6.56,9.06,9.06,0,0,1-.33-2.53,9.23,9.23,0,0,1,.73-3.71,9.43,9.43,0,0,1,2-3,9.32,9.32,0,0,1,6.63-2.72,6.62,6.62,0,0,1,1.66.2,6.27,6.27,0,0,1,1.4.55,5.53,5.53,0,0,1,1.16.82,6,6,0,0,1,.91,1l.42-1.31c.1-.24.17-.43.24-.58a.94.94,0,0,1,.2-.33.51.51,0,0,1,.26-.14,2.28,2.28,0,0,1,.45,0h2.14a2.33,2.33,0,0,1,.37,0,.69.69,0,0,1,.37.21.9.9,0,0,1,.29.35,1.17,1.17,0,0,1,.09.45Zm-14.14-8a5.5,5.5,0,0,0,.29,1.76,4.29,4.29,0,0,0,.84,1.43,4,4,0,0,0,1.32,1,4,4,0,0,0,1.7.35,4.53,4.53,0,0,0,3.22-1.31,4.31,4.31,0,0,0,.95-1.43,4.66,4.66,0,0,0,0-3.52,4.54,4.54,0,0,0-.95-1.46,4.47,4.47,0,0,0-3.22-1.37,4,4,0,0,0-1.7.37,4.05,4.05,0,0,0-1.32,1,4.52,4.52,0,0,0-.84,1.46A5.5,5.5,0,0,0,426.55,103.07Z"/><path class="cls-12" d="M444.13,89.62a1.28,1.28,0,0,1,.23-.78.91.91,0,0,1,.79-.31h3.51a.64.64,0,0,1,.3.08.89.89,0,0,1,.29.22,1.18,1.18,0,0,1,.23.35,1,1,0,0,1,.1.44v21.44a1,1,0,0,1-.31.82,1.12,1.12,0,0,1-.8.28h-3.31a1,1,0,0,1-.79-.28,1.27,1.27,0,0,1-.23-.82Z"/><path class="cls-13" d="M464.69,106.55a1.17,1.17,0,0,1,.38-.17,1.45,1.45,0,0,1,.28,0,1,1,0,0,1,.45.1,1.44,1.44,0,0,1,.42.43l1.6,2.43.14.25a.65.65,0,0,1,.06.23.69.69,0,0,1-.21.54,2.69,2.69,0,0,1-.45.37,10.74,10.74,0,0,1-2.57,1.31,8.86,8.86,0,0,1-3,.5,9.4,9.4,0,0,1-4.72-1.28,9.26,9.26,0,0,1-1.89-1.46,8.71,8.71,0,0,1-1.47-1.9,9.63,9.63,0,0,1,0-9.6,9,9,0,0,1,1.47-1.89,9.63,9.63,0,0,1,1.89-1.46,9.32,9.32,0,0,1,4.72-1.26,9.51,9.51,0,0,1,2.9.42,9.14,9.14,0,0,1,2.49,1.22l0,0a1.66,1.66,0,0,1,.51.44,1,1,0,0,1,.18.62,1.11,1.11,0,0,1-.17.53L466.4,99a1.14,1.14,0,0,1-1,.7.85.85,0,0,1-.31-.06,2.1,2.1,0,0,1-.42-.22,6.69,6.69,0,0,0-1.36-.69,4.23,4.23,0,0,0-1.54-.26,3.82,3.82,0,0,0-1.66.36,4,4,0,0,0-1.3,1,4.63,4.63,0,0,0-.84,1.46,5.34,5.34,0,0,0,0,3.53,4.49,4.49,0,0,0,.84,1.43,3.92,3.92,0,0,0,3,1.3,4.24,4.24,0,0,0,1.54-.28A6.8,6.8,0,0,0,464.69,106.55Z"/><path class="cls-14" d="M387.55,0V19a13.63,13.63,0,0,0,13.62,13.61h66.46A13.63,13.63,0,0,0,481.25,19V0Zm53,21.84c0,.86-.7,1.47-2.11,1.83a10.13,10.13,0,0,1-1.1.37c-.11.47-.31.7-.61.7,0,.05-.12.07-.37.07h-.2c-.21,0-.33-.16-.37-.46v-.12q0-1,1.38-1.65a7.28,7.28,0,0,1,1.16-.64v0c0-.06-.13-.11-.4-.12a2.55,2.55,0,0,0-1.1.33h-.09c-.24,0-.47-.35-.68-1v-.24c0-.49.5-1.13,1.5-1.94l0-.12-.09,0a5.27,5.27,0,0,0-1.13.46h-.06c-.41,0-.71-.55-.92-1.65v-.18c0-.48.15-.76.46-.85h.06a1.49,1.49,0,0,1,.49.24l.09,0a1.19,1.19,0,0,1,.49-.1h.28c1.4,0,2.2.16,2.41.46a1.44,1.44,0,0,1,.37.92v.21c0,.48-.42,1.08-1.25,1.81v0h.06a1,1,0,0,1,.51-.22h.09c.29,0,.63.39,1,1.16a2.37,2.37,0,0,1,.09.65Zm2.62-9.7A3,3,0,0,1,442,14.57l-.31.07c-.05,0-.11-.07-.18-.18a.72.72,0,0,0,.13-.37v-.18a.69.69,0,0,0-.68-.37h-.41c-.85,0-3.27.87-7.24,2.62q-1.25,0-2.87,7.06l.18,1.22c-.16.77-.91,1.15-2.25,1.15h-.3a1.89,1.89,0,0,1-2-1.1v-.42a12.58,12.58,0,0,1,.78-1.89,29.58,29.58,0,0,1,1.71-5.59h-.07A4.21,4.21,0,0,1,426,14.82a3.57,3.57,0,0,1-.42-1.57V13a3.19,3.19,0,0,1,2.07-2.79h.1a2.7,2.7,0,0,0,2.5,1.64,3,3,0,0,0,.73.06h.24q2,0,7.06-2.13a5.62,5.62,0,0,1,1.52-.25h.36a3,3,0,0,1,2.94,1.77l.05.61ZM436.48,24.6l0,0h0c.3-.07.44-.19.44-.37-.34.09-.51.2-.51.35Z"/><path class="cls-15" d="M482.36,0V19a14.75,14.75,0,0,1-14.73,14.73H401.17A14.75,14.75,0,0,1,386.43,19V0H385V19a16.14,16.14,0,0,0,16.14,16.13h66.46A16.13,16.13,0,0,0,483.76,19h0V0Z"/></svg>