<svg xmlns="http://www.w3.org/2000/svg" xmlns:xlink="http://www.w3.org/1999/xlink" viewBox="0 0 500 200"><defs><style>.cls-1{isolation:isolate;}.cls-2{fill:#fff5ee;}.cls-3{fill:#191717;opacity:0.71;}.cls-4,.cls-5{fill:none;stroke-miterlimit:10;}.cls-4{stroke:#c81f42;opacity:0.28;mix-blend-mode:multiply;}.cls-5{stroke:#33171c;stroke-width:2px;}.cls-6{fill:#c91f44;}.cls-7{fill:#ef4961;}.cls-8{fill:#45141d;}.cls-9{fill:url(#linear-gradient);}.cls-10{fill:url(#linear-gradient-2);}</style><linearGradient id="linear-gradient" x1="419.33" y1="1019.68" x2="441.94" y2="1019.68" gradientTransform="matrix(1, 0, 0, -1, 0, 1051.37)" gradientUnits="userSpaceOnUse"><stop offset="0" stop-color="#f8f1e8"/><stop offset="1" stop-color="#efbf7e"/></linearGradient><linearGradient id="linear-gradient-2" x1="419.33" y1="1016.75" x2="441.94" y2="1016.75" xlink:href="#linear-gradient"/></defs><title>dict-right</title><g class="cls-1"><g id="Layer_1" data-name="Layer 1"><path class="cls-2" d="M500,10V190a10,10,0,0,1-10,10H365.15V0H490A10,10,0,0,1,500,10Z"/><rect class="cls-3" x="390.36" y="153.09" width="85.57" height="19.74"/><path class="cls-2" d="M396.16,159v8.52H395V159Z"/><path class="cls-2" d="M398.27,167.47V159h1.19v8.52Zm.81,0v-1.14H401a2.06,2.06,0,0,0,1.47-.49,1.84,1.84,0,0,0,.52-1.38V162a1.84,1.84,0,0,0-.52-1.38,2.1,2.1,0,0,0-1.47-.49h-1.92V159H401a3.31,3.31,0,0,1,2.39.8,2.92,2.92,0,0,1,.85,2.25v2.41a3.35,3.35,0,0,1-.38,1.65,2.44,2.44,0,0,1-1.11,1,3.78,3.78,0,0,1-1.76.37Z"/><path class="cls-2" d="M405.47,162.58v-1.26h1.25v1.26Zm0,4.89v-1.26h1.25v1.26Z"/><path class="cls-2" d="M414,167.55a2.38,2.38,0,0,1-1.83-.65,2.51,2.51,0,0,1-.6-1.77v-3.87a2.48,2.48,0,0,1,.61-1.78,2.44,2.44,0,0,1,1.82-.64,2.4,2.4,0,0,1,1.82.64,2.47,2.47,0,0,1,.61,1.78v3.87a2.47,2.47,0,0,1-.61,1.78A2.4,2.4,0,0,1,414,167.55Zm0-1.13a1.19,1.19,0,0,0,.95-.35,1.41,1.41,0,0,0,.29-.94v-3.87a1.41,1.41,0,0,0-.29-.94,1.5,1.5,0,0,0-1.9,0,1.41,1.41,0,0,0-.29.94v3.87a1.41,1.41,0,0,0,.29.94A1.19,1.19,0,0,0,414,166.42Z"/><path class="cls-2" d="M420.38,167.55a2.36,2.36,0,0,1-1.83-.65,2.52,2.52,0,0,1-.61-1.77v-3.87a2.49,2.49,0,0,1,.62-1.78,2.44,2.44,0,0,1,1.82-.64,2.4,2.4,0,0,1,1.82.64,2.51,2.51,0,0,1,.61,1.78v3.87a2.51,2.51,0,0,1-.61,1.78A2.4,2.4,0,0,1,420.38,167.55Zm0-1.13a1.16,1.16,0,0,0,.94-.35,1.36,1.36,0,0,0,.29-.94v-3.87a1.36,1.36,0,0,0-.29-.94,1.48,1.48,0,0,0-1.89,0,1.41,1.41,0,0,0-.29.94v3.87a1.41,1.41,0,0,0,.29.94A1.17,1.17,0,0,0,420.38,166.42Z"/><path class="cls-2" d="M426.76,167.55a2.34,2.34,0,0,1-1.82-.65,2.47,2.47,0,0,1-.61-1.77v-3.87a2.49,2.49,0,0,1,.62-1.78,2.42,2.42,0,0,1,1.81-.64,2.39,2.39,0,0,1,1.82.64,2.47,2.47,0,0,1,.61,1.78v3.87a2.47,2.47,0,0,1-.61,1.78A2.39,2.39,0,0,1,426.76,167.55Zm0-1.13a1.17,1.17,0,0,0,.95-.35,1.41,1.41,0,0,0,.29-.94v-3.87a1.41,1.41,0,0,0-.29-.94,1.48,1.48,0,0,0-1.89,0,1.36,1.36,0,0,0-.29.94v3.87a1.36,1.36,0,0,0,.29.94A1.16,1.16,0,0,0,426.76,166.42Z"/><path class="cls-2" d="M433.15,167.55a2.38,2.38,0,0,1-1.83-.65,2.51,2.51,0,0,1-.6-1.77v-3.87a2.48,2.48,0,0,1,.61-1.78,2.44,2.44,0,0,1,1.82-.64,2.4,2.4,0,0,1,1.82.64,2.47,2.47,0,0,1,.61,1.78v3.87a2.47,2.47,0,0,1-.61,1.78A2.4,2.4,0,0,1,433.15,167.55Zm0-1.13a1.19,1.19,0,0,0,1-.35,1.41,1.41,0,0,0,.29-.94v-3.87a1.41,1.41,0,0,0-.29-.94,1.5,1.5,0,0,0-1.9,0,1.41,1.41,0,0,0-.29.94v3.87a1.41,1.41,0,0,0,.29.94A1.19,1.19,0,0,0,433.15,166.42Z"/><path class="cls-2" d="M439.54,167.55a2.36,2.36,0,0,1-1.83-.65,2.52,2.52,0,0,1-.61-1.77v-3.87a2.49,2.49,0,0,1,.62-1.78,2.44,2.44,0,0,1,1.82-.64,2.4,2.4,0,0,1,1.82.64,2.51,2.51,0,0,1,.61,1.78v3.87a2.51,2.51,0,0,1-.61,1.78A2.4,2.4,0,0,1,439.54,167.55Zm0-1.13a1.16,1.16,0,0,0,.94-.35,1.36,1.36,0,0,0,.29-.94v-3.87a1.36,1.36,0,0,0-.29-.94,1.48,1.48,0,0,0-1.89,0,1.41,1.41,0,0,0-.29.94v3.87a1.41,1.41,0,0,0,.29.94A1.17,1.17,0,0,0,439.54,166.42Z"/><path class="cls-2" d="M445.92,167.55a2.34,2.34,0,0,1-1.82-.65,2.47,2.47,0,0,1-.61-1.77v-3.87a2.49,2.49,0,0,1,.62-1.78,2.42,2.42,0,0,1,1.81-.64,2.39,2.39,0,0,1,1.82.64,2.47,2.47,0,0,1,.61,1.78v3.87a2.47,2.47,0,0,1-.61,1.78A2.39,2.39,0,0,1,445.92,167.55Zm0-1.13a1.17,1.17,0,0,0,.95-.35,1.41,1.41,0,0,0,.29-.94v-3.87a1.41,1.41,0,0,0-.29-.94,1.48,1.48,0,0,0-1.89,0,1.36,1.36,0,0,0-.29.94v3.87a1.36,1.36,0,0,0,.29.94A1.16,1.16,0,0,0,445.92,166.42Z"/><path class="cls-2" d="M452.31,167.55a2.38,2.38,0,0,1-1.83-.65,2.51,2.51,0,0,1-.6-1.77v-3.87a2.48,2.48,0,0,1,.61-1.78,2.44,2.44,0,0,1,1.82-.64,2.4,2.4,0,0,1,1.82.64,2.47,2.47,0,0,1,.61,1.78v3.87a2.47,2.47,0,0,1-.61,1.78A2.4,2.4,0,0,1,452.31,167.55Zm0-1.13a1.19,1.19,0,0,0,.95-.35,1.41,1.41,0,0,0,.29-.94v-3.87a1.41,1.41,0,0,0-.29-.94,1.5,1.5,0,0,0-1.9,0,1.41,1.41,0,0,0-.29.94v3.87a1.41,1.41,0,0,0,.29.94A1.19,1.19,0,0,0,452.31,166.42Z"/><path class="cls-2" d="M458.7,167.55a2.36,2.36,0,0,1-1.83-.65,2.52,2.52,0,0,1-.61-1.77v-3.87a2.49,2.49,0,0,1,.62-1.78,2.44,2.44,0,0,1,1.82-.64,2.4,2.4,0,0,1,1.82.64,2.51,2.51,0,0,1,.61,1.78v3.87a2.51,2.51,0,0,1-.61,1.78A2.4,2.4,0,0,1,458.7,167.55Zm0-1.13a1.16,1.16,0,0,0,.94-.35,1.36,1.36,0,0,0,.29-.94v-3.87a1.36,1.36,0,0,0-.29-.94,1.48,1.48,0,0,0-1.89,0,1.41,1.41,0,0,0-.29.94v3.87a1.41,1.41,0,0,0,.29.94A1.17,1.17,0,0,0,458.7,166.42Z"/><path class="cls-2" d="M464.94,159v8.52h-1.19v-7.22l-1.22.74v-1.24l1.22-.8Z"/><path class="cls-2" d="M469.31,167.55a2.38,2.38,0,0,1-1.83-.65,2.51,2.51,0,0,1-.6-1.77v-3.87a2.48,2.48,0,0,1,.61-1.78,2.44,2.44,0,0,1,1.82-.64,2.4,2.4,0,0,1,1.82.64,2.47,2.47,0,0,1,.61,1.78v3.87a2.47,2.47,0,0,1-.61,1.78A2.4,2.4,0,0,1,469.31,167.55Zm0-1.13a1.15,1.15,0,0,0,.94-.35,1.36,1.36,0,0,0,.29-.94v-3.87a1.36,1.36,0,0,0-.29-.94,1.15,1.15,0,0,0-.94-.34,1.17,1.17,0,0,0-.95.34,1.41,1.41,0,0,0-.29.94v3.87a1.41,1.41,0,0,0,.29.94A1.17,1.17,0,0,0,469.31,166.42Z"/><line class="cls-4" x1="385.76" y1="138.18" x2="483.03" y2="138.18"/><path class="cls-5" d="M448.79,41.36,441.7,72l3.54,3.93s-1.34,10.54-12.35,10.54S420.54,75.9,420.54,75.9L424.09,72,417,41.36"/><rect class="cls-6" x="413.85" y="19.43" width="38.12" height="30.7"/><rect class="cls-7" x="413.85" y="12.01" width="38.12" height="7.42"/><rect class="cls-6" x="411.49" y="48.88" width="42.83" height="2.32"/><rect class="cls-8" x="421.07" y="48.88" width="23.67" height="2.32"/><rect class="cls-7" x="413.17" y="48.88" width="39.47" height="2.32"/><rect class="cls-8" x="421.07" y="48.88" width="23.67" height="2.32"/><path class="cls-9" d="M438.37,23.63h.36a2.94,2.94,0,0,1,2.93,1.78l.06.6v.25a2.93,2.93,0,0,1-1.16,2.43l-.31.07q-.08,0-.18-.18a.71.71,0,0,0,.12-.37V28a.67.67,0,0,0-.67-.37h-.43q-1.27,0-7.25,2.62-1.24,0-2.87,7.08l.18,1.22c-.16.77-.91,1.15-2.26,1.15h-.3a1.89,1.89,0,0,1-2-1.1v-.42a11.53,11.53,0,0,1,.79-1.9,29.46,29.46,0,0,1,1.71-5.6H427a4.23,4.23,0,0,1-2.5-1.78,3.71,3.71,0,0,1-.42-1.58v-.24a3.21,3.21,0,0,1,2.07-2.81h.14A2.69,2.69,0,0,0,428.8,26a3,3,0,0,0,.73.06h.24q2,0,7.08-2.13A5.57,5.57,0,0,1,438.37,23.63Z"/><path class="cls-10" d="M434.61,30.06h.07a2,2,0,0,1,.53.26.21.21,0,0,0,.1,0,1.44,1.44,0,0,1,.54-.1h.31c1.54,0,2.43.17,2.65.5a1.68,1.68,0,0,1,.41,1V32c0,.53-.46,1.19-1.38,2v0h.07a1.16,1.16,0,0,1,.57-.24h.1c.31,0,.68.43,1.11,1.28a2.44,2.44,0,0,1,.1.71v.13c0,1-.77,1.63-2.32,2,0,0-.41.15-1.22.41-.12.51-.34.77-.66.77,0,0-.14.07-.41.07h-.24c-.22,0-.36-.17-.4-.5v-.14c0-.75.51-1.36,1.52-1.82a9.31,9.31,0,0,1,1.28-.71v0c0-.07-.15-.11-.44-.13a2.75,2.75,0,0,0-1.21.37h-.1c-.27,0-.52-.38-.75-1.15v-.26q0-.81,1.65-2.13l0-.13-.1,0a5.32,5.32,0,0,0-1.25.51h-.06c-.45,0-.79-.61-1-1.82V31C434.1,30.47,434.27,30.15,434.61,30.06Zm.68,8.89,0,0h0c.32-.07.48-.2.48-.4C435.48,38.66,435.29,38.79,435.29,39Z"/><path class="cls-6" d="M391.8,117a9.4,9.4,0,0,1-2-.21,7.86,7.86,0,0,1-1.83-.6,7.42,7.42,0,0,1-1.53-1l1.24-2.21a5.93,5.93,0,0,0,1.9,1,6.92,6.92,0,0,0,2.21.37,3.84,3.84,0,0,0,2-.45,1.39,1.39,0,0,0,.73-1.26h0a1.21,1.21,0,0,0-.36-.94,2.17,2.17,0,0,0-1-.48,10.64,10.64,0,0,0-1.28-.27c-.56-.08-1.12-.19-1.69-.32a5.16,5.16,0,0,1-1.56-.6,3.13,3.13,0,0,1-1.15-1.19,4.2,4.2,0,0,1-.44-2.06h0a4,4,0,0,1,1.37-3.23,5.92,5.92,0,0,1,3.88-1.14,7.45,7.45,0,0,1,2.34.39,8.43,8.43,0,0,1,2.23,1.1l-1.14,2.27a6.87,6.87,0,0,0-1.72-.89,5.32,5.32,0,0,0-1.71-.3,3.75,3.75,0,0,0-1.91.4,1.27,1.27,0,0,0-.68,1.14h0a1.31,1.31,0,0,0,.41,1,2.48,2.48,0,0,0,1,.52c.43.12.9.22,1.39.32a16.24,16.24,0,0,1,1.64.39,5.35,5.35,0,0,1,1.48.66,3.08,3.08,0,0,1,1.08,1.18,4.11,4.11,0,0,1,.4,2v0a3.81,3.81,0,0,1-1.42,3.18A6.29,6.29,0,0,1,391.8,117Z"/><path class="cls-6" d="M399.32,105.35v-2.68H402v2.68Zm0,11.54V106.74H402v10.15Z"/><path class="cls-6" d="M404.5,116.89V106.74h2.68v10.15Zm5.92,0V111a2,2,0,0,0-.44-1.37,1.61,1.61,0,0,0-1.25-.49,1.53,1.53,0,0,0-1.15.42,1.61,1.61,0,0,0-.4,1.17l-.21-2.25a3.87,3.87,0,0,1,1.11-1.42,2.63,2.63,0,0,1,1.6-.5,3,3,0,0,1,2.53,1.16,5.28,5.28,0,0,1,.89,3.27v5.87Zm5.91,0V111a2,2,0,0,0-.42-1.37,1.55,1.55,0,0,0-1.21-.49,1.53,1.53,0,0,0-1.19.47,1.89,1.89,0,0,0-.41,1.31l-.5-2.34a3.64,3.64,0,0,1,1.25-1.49,3,3,0,0,1,1.7-.53,3.07,3.07,0,0,1,2.56,1.16A5.21,5.21,0,0,1,419,111v5.87Z"/><path class="cls-6" d="M421.66,121V106.74h2.68V121Zm5-4a2.54,2.54,0,0,1-1.53-.46,2.68,2.68,0,0,1-1-1.28l.14-2.32a1.84,1.84,0,0,0,.17.85,1.18,1.18,0,0,0,.52.54,1.67,1.67,0,0,0,.81.19,1.45,1.45,0,0,0,1.17-.5,2.16,2.16,0,0,0,.42-1.41V111a2.21,2.21,0,0,0-.42-1.44,1.43,1.43,0,0,0-1.17-.51,1.57,1.57,0,0,0-.81.19,1.21,1.21,0,0,0-.52.55,2,2,0,0,0-.17.88l-.21-2.25a3.34,3.34,0,0,1,1.08-1.37,2.44,2.44,0,0,1,1.48-.49,3,3,0,0,1,2.53,1.16,5.28,5.28,0,0,1,.89,3.27v1.63a5.22,5.22,0,0,1-.89,3.24A3,3,0,0,1,426.69,117Z"/><path class="cls-6" d="M435.23,102.67v10.87a.73.73,0,0,0,.21.56.84.84,0,0,0,.61.21h.45v2.58h-1.37a2.5,2.5,0,0,1-1.9-.7,2.76,2.76,0,0,1-.68-2V102.67Z"/><path class="cls-6" d="M442.71,117a4.7,4.7,0,0,1-3.43-1.19,4.48,4.48,0,0,1-1.22-3.36v-1.14a4.94,4.94,0,0,1,1.17-3.52,4.34,4.34,0,0,1,3.3-1.24,3.69,3.69,0,0,1,3.12,1.48,6.93,6.93,0,0,1,1.1,4.18v.66H439.8V111.1h4.5l0-.23a2.42,2.42,0,0,0-.54-1.36,1.57,1.57,0,0,0-1.2-.48,2,2,0,0,0-1.5.57,2.31,2.31,0,0,0-.53,1.64v1.29a2.11,2.11,0,0,0,.58,1.6,2.23,2.23,0,0,0,1.63.57,3,3,0,0,0,1.06-.19,3.22,3.22,0,0,0,1-.54l1.75,1.55a5.53,5.53,0,0,1-1.78,1.12A5.2,5.2,0,0,1,442.71,117Z"/><path class="cls-6" d="M449.29,116.89V102.67H452v14.22Zm1.35,0v-2.58h3.42a3,3,0,0,0,2-.64,2.29,2.29,0,0,0,.72-1.8v-4.18a2.26,2.26,0,0,0-.72-1.8,3,3,0,0,0-2-.64h-3.42v-2.58H454a5.94,5.94,0,0,1,4.14,1.33,4.87,4.87,0,0,1,1.46,3.77v4a5.53,5.53,0,0,1-.62,2.66,4.29,4.29,0,0,1-1.88,1.79,6.73,6.73,0,0,1-3.11.64Z"/><path class="cls-6" d="M462.1,105.35v-2.68h2.68v2.68Zm0,11.54V106.74h2.68v10.15Z"/><path class="cls-6" d="M471.57,117a4.52,4.52,0,0,1-3.39-1.23,4.78,4.78,0,0,1-1.2-3.48v-1.08a4.69,4.69,0,0,1,1.2-3.44,4.55,4.55,0,0,1,3.39-1.22,5.87,5.87,0,0,1,2.26.42,3.8,3.8,0,0,1,1.61,1.21l-1.73,1.68a2.4,2.4,0,0,0-.87-.53,2.84,2.84,0,0,0-1-.2,2.16,2.16,0,0,0-1.57.55,2,2,0,0,0-.56,1.53v1.08a2.07,2.07,0,0,0,.56,1.57,2.12,2.12,0,0,0,1.57.56,2.66,2.66,0,0,0,1-.21,2.4,2.4,0,0,0,.87-.59l1.73,1.79a3.89,3.89,0,0,1-1.61,1.17A5.87,5.87,0,0,1,471.57,117Z"/><path class="cls-6" d="M476.47,109v-2.29h5V109Zm3.62,7.91a2.49,2.49,0,0,1-2-.69,3,3,0,0,1-.61-2V103.78h2.68v9.81a.91.91,0,0,0,.15.56.49.49,0,0,0,.43.21h.67v2.58Z"/></g></g></svg>