<svg id="Layer_1" data-name="Layer 1" xmlns="http://www.w3.org/2000/svg" viewBox="0 0 549.26 557.56"><defs><style>.cls-1{fill:#fff5ee;}</style></defs><title>github</title><path class="cls-1" d="M274.63,0C123,0,0,125.37,0,280S123,560,274.63,560,549.26,434.65,549.26,280,426.29,0,274.63,0Zm50.76,434.39c-8.1,1.61-10.71-3.48-10.71-7.84V381.72c0-15.23-5.24-25.17-11-30.24,35.7-4,73.19-17.85,73.19-80.59,0-17.85-6.25-32.41-16.5-43.85,1.65-4.13,7.14-20.74-1.58-43.24,0,0-13.44-4.38-44,16.73a153,153,0,0,0-40.14-5.46,151.43,151.43,0,0,0-40.12,5.49c-30.6-21.12-44.06-16.73-44.06-16.73-8.67,22.49-3.2,39.1-1.53,43.21-10.25,11.44-16.52,26-16.52,43.85,0,62.58,37.39,76.58,73,80.71-4.58,4.08-8.72,11.27-10.16,21.84-9.16,4.18-32.34,11.39-46.62-13.58,0,0-8.47-15.68-24.56-16.85,0,0-15.63-.21-1.09,9.94,0,0,10.52,5,17.78,23.9,0,0,9.27,29.17,53.85,19.27v30.41c0,4.31-2.59,9.38-10.58,7.86-63.66-21.58-109.57-82.81-109.57-155,0-90.24,71.74-163.34,160.2-163.34s160.2,73.1,160.2,163.34C434.83,351.55,389,412.78,325.39,434.39Z"/></svg>