<svg id="Layer_1" data-name="Layer 1" xmlns="http://www.w3.org/2000/svg" viewBox="0 0 500 200"><defs><style>.cls-1{fill:#fff5ee;}.cls-2{fill:#191717;opacity:0.71;}.cls-3{fill:none;stroke:#000;stroke-miterlimit:10;}.cls-4,.cls-5{isolation:isolate;font-family:BAYBAYINCHOCHIN, BAYBAYIN CHOCHIN;}.cls-4{font-size:59.94px;}.cls-4,.cls-5,.cls-6{fill:#2e2f3a;}.cls-5{font-size:28.89px;}.cls-6{font-size:23.74px;font-family:CenturyGothic-Bold, Century Gothic;font-weight:700;}.cls-7{font-size:16.18px;letter-spacing:0em;}</style></defs><title>gradgen-right</title><path class="cls-1" d="M500,10V190a10,10,0,0,1-10,10H365.15V0H490A10,10,0,0,1,500,10Z"/><rect class="cls-2" x="390.36" y="153.09" width="85.57" height="19.74"/><path class="cls-1" d="M397.16,159v8.52H396V159Z"/><path class="cls-1" d="M399.27,167.47V159h1.19v8.52Zm.81,0v-1.14H402a2.06,2.06,0,0,0,1.47-.49,1.81,1.81,0,0,0,.52-1.38V162a1.84,1.84,0,0,0-.52-1.38,2.1,2.1,0,0,0-1.47-.49h-1.92V159H402a3.31,3.31,0,0,1,2.39.8,2.92,2.92,0,0,1,.85,2.25v2.41a3.35,3.35,0,0,1-.38,1.65,2.46,2.46,0,0,1-1.11,1.05,3.92,3.92,0,0,1-1.76.36Z"/><path class="cls-1" d="M406.47,162.58v-1.25h1.25v1.25Zm0,4.89v-1.26h1.25v1.26Z"/><path class="cls-1" d="M415,167.56a2.38,2.38,0,0,1-1.83-.66,2.49,2.49,0,0,1-.6-1.76v-3.88a2.46,2.46,0,0,1,.61-1.77,2.41,2.41,0,0,1,1.82-.65,2.44,2.44,0,0,1,1.82.64,2.47,2.47,0,0,1,.61,1.78v3.88a2.46,2.46,0,0,1-.61,1.77A2.41,2.41,0,0,1,415,167.56Zm0-1.14a1.22,1.22,0,0,0,.95-.34,1.45,1.45,0,0,0,.29-.94v-3.88a1.43,1.43,0,0,0-.29-.94,1.5,1.5,0,0,0-1.9,0,1.43,1.43,0,0,0-.29.94v3.88a1.45,1.45,0,0,0,.29.94A1.22,1.22,0,0,0,415,166.42Z"/><path class="cls-1" d="M421.38,167.56a2.37,2.37,0,0,1-1.83-.66,2.49,2.49,0,0,1-.61-1.76v-3.88a2.46,2.46,0,0,1,.62-1.77,2.41,2.41,0,0,1,1.82-.65,2.44,2.44,0,0,1,1.82.64,2.51,2.51,0,0,1,.61,1.78v3.88a2.5,2.5,0,0,1-.61,1.77A2.41,2.41,0,0,1,421.38,167.56Zm0-1.14a1.2,1.2,0,0,0,.94-.34,1.39,1.39,0,0,0,.29-.94v-3.88a1.37,1.37,0,0,0-.29-.94,1.48,1.48,0,0,0-1.89,0,1.43,1.43,0,0,0-.29.94v3.88a1.45,1.45,0,0,0,.29.94A1.2,1.2,0,0,0,421.38,166.42Z"/><path class="cls-1" d="M427.76,167.56a2.34,2.34,0,0,1-1.82-.66,2.45,2.45,0,0,1-.61-1.76v-3.88a2.46,2.46,0,0,1,.62-1.77,2.38,2.38,0,0,1,1.81-.65,2.43,2.43,0,0,1,1.82.64,2.47,2.47,0,0,1,.61,1.78v3.88a2.46,2.46,0,0,1-.61,1.77A2.39,2.39,0,0,1,427.76,167.56Zm0-1.14a1.2,1.2,0,0,0,.95-.34,1.45,1.45,0,0,0,.29-.94v-3.88a1.43,1.43,0,0,0-.29-.94,1.48,1.48,0,0,0-1.89,0,1.37,1.37,0,0,0-.29.94v3.88a1.39,1.39,0,0,0,.29.94A1.2,1.2,0,0,0,427.76,166.42Z"/><path class="cls-1" d="M434.15,167.56a2.38,2.38,0,0,1-1.83-.66,2.49,2.49,0,0,1-.6-1.76v-3.88a2.46,2.46,0,0,1,.61-1.77,2.41,2.41,0,0,1,1.82-.65,2.44,2.44,0,0,1,1.82.64,2.47,2.47,0,0,1,.61,1.78v3.88a2.46,2.46,0,0,1-.61,1.77A2.41,2.41,0,0,1,434.15,167.56Zm0-1.14a1.22,1.22,0,0,0,1-.34,1.45,1.45,0,0,0,.29-.94v-3.88a1.43,1.43,0,0,0-.29-.94,1.5,1.5,0,0,0-1.9,0,1.43,1.43,0,0,0-.29.94v3.88a1.45,1.45,0,0,0,.29.94A1.22,1.22,0,0,0,434.15,166.42Z"/><path class="cls-1" d="M440.54,167.56a2.37,2.37,0,0,1-1.83-.66,2.49,2.49,0,0,1-.61-1.76v-3.88a2.46,2.46,0,0,1,.62-1.77,2.41,2.41,0,0,1,1.82-.65,2.44,2.44,0,0,1,1.82.64,2.51,2.51,0,0,1,.61,1.78v3.88a2.5,2.5,0,0,1-.61,1.77A2.41,2.41,0,0,1,440.54,167.56Zm0-1.14a1.2,1.2,0,0,0,.94-.34,1.39,1.39,0,0,0,.29-.94v-3.88a1.37,1.37,0,0,0-.29-.94,1.48,1.48,0,0,0-1.89,0,1.43,1.43,0,0,0-.29.94v3.88a1.45,1.45,0,0,0,.29.94A1.2,1.2,0,0,0,440.54,166.42Z"/><path class="cls-1" d="M446.92,167.56a2.34,2.34,0,0,1-1.82-.66,2.45,2.45,0,0,1-.61-1.76v-3.88a2.46,2.46,0,0,1,.62-1.77,2.38,2.38,0,0,1,1.81-.65,2.43,2.43,0,0,1,1.82.64,2.47,2.47,0,0,1,.61,1.78v3.88a2.46,2.46,0,0,1-.61,1.77A2.39,2.39,0,0,1,446.92,167.56Zm0-1.14a1.2,1.2,0,0,0,.95-.34,1.45,1.45,0,0,0,.29-.94v-3.88a1.43,1.43,0,0,0-.29-.94,1.48,1.48,0,0,0-1.89,0,1.37,1.37,0,0,0-.29.94v3.88a1.39,1.39,0,0,0,.29.94A1.2,1.2,0,0,0,446.92,166.42Z"/><path class="cls-1" d="M453.31,167.56a2.38,2.38,0,0,1-1.83-.66,2.49,2.49,0,0,1-.6-1.76v-3.88a2.46,2.46,0,0,1,.61-1.77,2.41,2.41,0,0,1,1.82-.65,2.44,2.44,0,0,1,1.82.64,2.47,2.47,0,0,1,.61,1.78v3.88a2.46,2.46,0,0,1-.61,1.77A2.41,2.41,0,0,1,453.31,167.56Zm0-1.14a1.22,1.22,0,0,0,.95-.34,1.45,1.45,0,0,0,.29-.94v-3.88a1.43,1.43,0,0,0-.29-.94,1.5,1.5,0,0,0-1.9,0,1.43,1.43,0,0,0-.29.94v3.88a1.45,1.45,0,0,0,.29.94A1.22,1.22,0,0,0,453.31,166.42Z"/><path class="cls-1" d="M459.7,167.56a2.37,2.37,0,0,1-1.83-.66,2.49,2.49,0,0,1-.61-1.76v-3.88a2.46,2.46,0,0,1,.62-1.77,2.41,2.41,0,0,1,1.82-.65,2.44,2.44,0,0,1,1.82.64,2.51,2.51,0,0,1,.61,1.78v3.88a2.5,2.5,0,0,1-.61,1.77A2.41,2.41,0,0,1,459.7,167.56Zm0-1.14a1.2,1.2,0,0,0,.94-.34,1.39,1.39,0,0,0,.29-.94v-3.88a1.37,1.37,0,0,0-.29-.94,1.48,1.48,0,0,0-1.89,0,1.43,1.43,0,0,0-.29.94v3.88a1.45,1.45,0,0,0,.29.94A1.2,1.2,0,0,0,459.7,166.42Z"/><path class="cls-1" d="M465.94,159v8.52h-1.19v-7.22l-1.22.74v-1.23l1.22-.81Z"/><path class="cls-1" d="M469.93,159v8.52h-1.19v-7.22l-1.22.74v-1.23l1.22-.81Z"/><line class="cls-3" x1="385.76" y1="138.18" x2="483.03" y2="138.18"/><text class="cls-4" transform="translate(409.48 65.04)">t</text><text class="cls-5" transform="translate(436.61 60.76)">O</text><text class="cls-6" transform="translate(396.33 97.78)">G<tspan class="cls-7" x="19.94" y="0">radient</tspan><tspan x="-5.66" y="24.27">G</tspan><tspan class="cls-7" x="14.27" y="24.27">enerator</tspan></text></svg>