<svg xmlns="http://www.w3.org/2000/svg" xmlns:xlink="http://www.w3.org/1999/xlink" viewBox="0 0 500 200"><defs><style>.cls-1{isolation:isolate;}.cls-2{fill:#f6f4b4;opacity:0.78;mix-blend-mode:hard-light;}.cls-3{fill:#fff5ee;}.cls-4{fill:#191717;opacity:0.71;}.cls-5{fill:none;stroke-miterlimit:10;stroke:url(#linear-gradient);}.cls-6{font-size:18.29px;fill:#231f20;font-family:TiemposHeadline-Bold, Tiempos Headline;font-weight:700;}.cls-7{letter-spacing:0em;}.cls-8{letter-spacing:0em;}.cls-9{letter-spacing:0em;}.cls-10{letter-spacing:0.01em;}.cls-11{letter-spacing:0em;}.cls-12{letter-spacing:0em;}.cls-13{letter-spacing:0em;}</style><linearGradient id="linear-gradient" x1="384.9" y1="138.18" x2="482.17" y2="138.18" gradientUnits="userSpaceOnUse"><stop offset="0" stop-color="#070808"/><stop offset="1" stop-color="#ebdac8"/></linearGradient></defs><title>guidon-right</title><g class="cls-1"><g id="Layer_1" data-name="Layer 1"><path class="cls-2" d="M487,78.45c0,.57-1.59.46-2.08,1.06s-.22,2.16-.93,2.16-.21-1.48-.81-2.12-2.23-.4-2.23-1,1.57-.07,2.11-.66.23-2.43.91-2.43.26,1.52.88,2.16S487,77.85,487,78.45Z"/><path class="cls-2" d="M385.89,114.8c0,.57-1.6.46-2.09,1.06-.62.75-.22,2.16-.93,2.16s-.2-1.48-.81-2.12-2.22-.4-2.22-1,1.56-.07,2.1-.67.23-2.42.91-2.42.27,1.52.88,2.16S385.89,114.2,385.89,114.8Z"/><path class="cls-2" d="M386.47,112.59c0,.2-.54.16-.71.37s-.08.74-.32.74-.07-.51-.28-.73-.77-.14-.77-.35.54,0,.73-.23.08-.84.31-.84.09.52.3.75S386.47,112.38,386.47,112.59Z"/><path class="cls-2" d="M487.24,81.21c0,.2-.55.16-.72.36s-.08.75-.32.75-.07-.51-.28-.73-.77-.14-.77-.36.54,0,.73-.22.08-.84.31-.84.09.52.3.74S487.24,81,487.24,81.21Z"/><path class="cls-2" d="M482,76.26c0,.19-.54.15-.71.36s-.08.74-.32.74-.07-.51-.28-.73-.77-.13-.77-.35.54,0,.73-.23.08-.83.31-.83.09.52.3.74S482,76.05,482,76.26Z"/><path class="cls-2" d="M382.12,111.26c0,.1-.26.08-.34.17s0,.35-.15.35,0-.24-.13-.34-.36-.06-.36-.17.25,0,.34-.1,0-.4.15-.4,0,.25.14.35S382.12,111.17,382.12,111.26Z"/><path class="cls-3" d="M500,10V190a10,10,0,0,1-10,10H365.15V0H490A10,10,0,0,1,500,10Z"/><path class="cls-3" d="M500,10V190a10,10,0,0,1-10,10H365.15V0H490A10,10,0,0,1,500,10Z"/><rect class="cls-4" x="390.54" y="153.09" width="85.57" height="19.74"/><path class="cls-3" d="M395.34,159v8.52h-1.19V159Z"/><path class="cls-3" d="M397.45,167.47V159h1.2v8.52Zm.81,0v-1.14h1.93a2,2,0,0,0,1.46-.49,1.81,1.81,0,0,0,.52-1.38V162a1.84,1.84,0,0,0-.52-1.38,2.08,2.08,0,0,0-1.46-.49h-1.93V159h1.89a3.35,3.35,0,0,1,2.4.8,3,3,0,0,1,.84,2.25v2.41a3.25,3.25,0,0,1-.38,1.65,2.46,2.46,0,0,1-1.11,1.05,3.9,3.9,0,0,1-1.75.36Z"/><path class="cls-3" d="M404.65,162.58v-1.25h1.26v1.25Zm0,4.89v-1.26h1.26v1.26Z"/><path class="cls-3" d="M413.17,167.56a2.34,2.34,0,0,1-1.82-.66,2.45,2.45,0,0,1-.61-1.76v-3.88a2.46,2.46,0,0,1,.61-1.77,2.89,2.89,0,0,1,3.64,0,2.47,2.47,0,0,1,.61,1.78v3.88a2.46,2.46,0,0,1-.61,1.77A2.39,2.39,0,0,1,413.17,167.56Zm0-1.14a1.22,1.22,0,0,0,.95-.34,1.45,1.45,0,0,0,.29-.94v-3.88a1.43,1.43,0,0,0-.29-.94,1.18,1.18,0,0,0-.95-.34,1.15,1.15,0,0,0-.94.34,1.37,1.37,0,0,0-.29.94v3.88a1.39,1.39,0,0,0,.29.94A1.18,1.18,0,0,0,413.17,166.42Z"/><path class="cls-3" d="M419.56,167.56a2.38,2.38,0,0,1-1.83-.66,2.49,2.49,0,0,1-.6-1.76v-3.88a2.46,2.46,0,0,1,.61-1.77,2.41,2.41,0,0,1,1.82-.65,2.44,2.44,0,0,1,1.82.64,2.47,2.47,0,0,1,.61,1.78v3.88a2.46,2.46,0,0,1-.61,1.77A2.41,2.41,0,0,1,419.56,167.56Zm0-1.14a1.18,1.18,0,0,0,.94-.34,1.39,1.39,0,0,0,.29-.94v-3.88a1.37,1.37,0,0,0-.29-.94,1.15,1.15,0,0,0-.94-.34,1.18,1.18,0,0,0-.95.34,1.43,1.43,0,0,0-.29.94v3.88a1.45,1.45,0,0,0,.29.94A1.22,1.22,0,0,0,419.56,166.42Z"/><path class="cls-3" d="M425.94,167.56a2.34,2.34,0,0,1-1.82-.66,2.49,2.49,0,0,1-.61-1.76v-3.88a2.46,2.46,0,0,1,.62-1.77,2.38,2.38,0,0,1,1.81-.65,2.41,2.41,0,0,1,1.82.64,2.47,2.47,0,0,1,.62,1.78v3.88a2.46,2.46,0,0,1-.62,1.77A2.38,2.38,0,0,1,425.94,167.56Zm0-1.14a1.2,1.2,0,0,0,.95-.34,1.45,1.45,0,0,0,.29-.94v-3.88a1.43,1.43,0,0,0-.29-.94,1.48,1.48,0,0,0-1.89,0,1.43,1.43,0,0,0-.29.94v3.88a1.45,1.45,0,0,0,.29.94A1.2,1.2,0,0,0,425.94,166.42Z"/><path class="cls-3" d="M432.33,167.56a2.34,2.34,0,0,1-1.82-.66,2.45,2.45,0,0,1-.61-1.76v-3.88a2.42,2.42,0,0,1,.62-1.77,2.38,2.38,0,0,1,1.81-.65,2.43,2.43,0,0,1,1.82.64,2.47,2.47,0,0,1,.61,1.78v3.88a2.46,2.46,0,0,1-.61,1.77A2.39,2.39,0,0,1,432.33,167.56Zm0-1.14a1.22,1.22,0,0,0,.95-.34,1.45,1.45,0,0,0,.29-.94v-3.88a1.43,1.43,0,0,0-.29-.94,1.18,1.18,0,0,0-.95-.34,1.15,1.15,0,0,0-.94.34,1.37,1.37,0,0,0-.29.94v3.88a1.39,1.39,0,0,0,.29.94A1.18,1.18,0,0,0,432.33,166.42Z"/><path class="cls-3" d="M438.72,167.56a2.38,2.38,0,0,1-1.83-.66,2.49,2.49,0,0,1-.6-1.76v-3.88a2.46,2.46,0,0,1,.61-1.77,2.41,2.41,0,0,1,1.82-.65,2.44,2.44,0,0,1,1.82.64,2.47,2.47,0,0,1,.61,1.78v3.88a2.46,2.46,0,0,1-.61,1.77A2.41,2.41,0,0,1,438.72,167.56Zm0-1.14a1.18,1.18,0,0,0,.94-.34,1.39,1.39,0,0,0,.29-.94v-3.88a1.37,1.37,0,0,0-.29-.94,1.15,1.15,0,0,0-.94-.34,1.18,1.18,0,0,0-1,.34,1.43,1.43,0,0,0-.29.94v3.88a1.45,1.45,0,0,0,.29.94A1.22,1.22,0,0,0,438.72,166.42Z"/><path class="cls-3" d="M445.1,167.56a2.34,2.34,0,0,1-1.82-.66,2.49,2.49,0,0,1-.61-1.76v-3.88a2.46,2.46,0,0,1,.62-1.77,2.38,2.38,0,0,1,1.81-.65,2.41,2.41,0,0,1,1.82.64,2.47,2.47,0,0,1,.62,1.78v3.88a2.46,2.46,0,0,1-.62,1.77A2.38,2.38,0,0,1,445.1,167.56Zm0-1.14a1.2,1.2,0,0,0,.95-.34,1.45,1.45,0,0,0,.29-.94v-3.88a1.43,1.43,0,0,0-.29-.94,1.48,1.48,0,0,0-1.89,0,1.43,1.43,0,0,0-.29.94v3.88a1.45,1.45,0,0,0,.29.94A1.2,1.2,0,0,0,445.1,166.42Z"/><path class="cls-3" d="M451.49,167.56a2.34,2.34,0,0,1-1.82-.66,2.45,2.45,0,0,1-.61-1.76v-3.88a2.46,2.46,0,0,1,.62-1.77,2.38,2.38,0,0,1,1.81-.65,2.43,2.43,0,0,1,1.82.64,2.47,2.47,0,0,1,.61,1.78v3.88a2.46,2.46,0,0,1-.61,1.77A2.39,2.39,0,0,1,451.49,167.56Zm0-1.14a1.22,1.22,0,0,0,.95-.34,1.45,1.45,0,0,0,.29-.94v-3.88a1.43,1.43,0,0,0-.29-.94,1.18,1.18,0,0,0-.95-.34,1.15,1.15,0,0,0-.94.34,1.37,1.37,0,0,0-.29.94v3.88a1.39,1.39,0,0,0,.29.94A1.18,1.18,0,0,0,451.49,166.42Z"/><path class="cls-3" d="M457.88,167.56a2.38,2.38,0,0,1-1.83-.66,2.49,2.49,0,0,1-.6-1.76v-3.88a2.46,2.46,0,0,1,.61-1.77,2.41,2.41,0,0,1,1.82-.65,2.44,2.44,0,0,1,1.82.64,2.47,2.47,0,0,1,.61,1.78v3.88a2.46,2.46,0,0,1-.61,1.77A2.41,2.41,0,0,1,457.88,167.56Zm0-1.14a1.18,1.18,0,0,0,.94-.34,1.39,1.39,0,0,0,.29-.94v-3.88a1.37,1.37,0,0,0-.29-.94,1.15,1.15,0,0,0-.94-.34,1.18,1.18,0,0,0-.95.34,1.43,1.43,0,0,0-.29.94v3.88a1.45,1.45,0,0,0,.29.94A1.22,1.22,0,0,0,457.88,166.42Z"/><path class="cls-3" d="M464.27,167.56a2.35,2.35,0,0,1-1.83-.66,2.49,2.49,0,0,1-.61-1.76v-3.88a2.46,2.46,0,0,1,.62-1.77,2.88,2.88,0,0,1,3.63,0,2.47,2.47,0,0,1,.62,1.78v3.88a2.46,2.46,0,0,1-.62,1.77A2.37,2.37,0,0,1,464.27,167.56Zm0-1.14a1.2,1.2,0,0,0,.94-.34,1.45,1.45,0,0,0,.29-.94v-3.88a1.43,1.43,0,0,0-.29-.94,1.48,1.48,0,0,0-1.89,0,1.43,1.43,0,0,0-.29.94v3.88a1.45,1.45,0,0,0,.29.94A1.2,1.2,0,0,0,464.27,166.42Z"/><path class="cls-3" d="M470.65,167.56a2.26,2.26,0,0,1-1.75-.68,2.72,2.72,0,0,1-.62-1.9h0a4.94,4.94,0,0,1,.15-1.17,5.68,5.68,0,0,1,.44-1.19l1.85-3.67H472l-2.17,4.25V163a1.14,1.14,0,0,1,1.09-.58,1.91,1.91,0,0,1,1.55.67A2.85,2.85,0,0,1,473,165h0a2.75,2.75,0,0,1-.62,1.92A2.24,2.24,0,0,1,470.65,167.56Zm0-1.15a1.12,1.12,0,0,0,.88-.35,1.52,1.52,0,0,0,.31-1h0a1.67,1.67,0,0,0-.33-1.11,1.12,1.12,0,0,0-.92-.39,1,1,0,0,0-.82.4,1.78,1.78,0,0,0-.3,1.1h0a1.49,1.49,0,0,0,.31,1A1.12,1.12,0,0,0,470.65,166.41Z"/><line class="cls-5" x1="384.9" y1="138.18" x2="482.17" y2="138.18"/><image width="612" height="662" transform="translate(414.09 78.43) scale(0.06)" xlink:href="D:%5C2%20-%20DESIGNS%5Cguidon%5CLogo%5CGDNblack.png"/><text class="cls-6" transform="translate(397.53 45.39)">P<tspan class="cls-7" x="12.2" y="0">r</tspan><tspan class="cls-8" x="20.52" y="0">o</tspan><tspan class="cls-9" x="31.52" y="0">j</tspan><tspan class="cls-10" x="37.12" y="0">e</tspan><tspan class="cls-11" x="46.92" y="0">c</tspan><tspan class="cls-12" x="56.14" y="0">ts</tspan><tspan class="cls-13"><tspan x="22.88" y="22">f</tspan><tspan class="cls-8" x="29.78" y="22">or</tspan></tspan></text></g></g></svg>