<svg id="Layer_1" data-name="Layer 1" xmlns="http://www.w3.org/2000/svg" xmlns:xlink="http://www.w3.org/1999/xlink" viewBox="0 0 500 200"><defs><style>.cls-1{fill:#fff5ee;}.cls-2{fill:#191717;opacity:0.71;}.cls-3{fill:none;stroke-miterlimit:10;stroke:url(#linear-gradient);}.cls-4{fill:url(#linear-gradient-2);}.cls-5{fill:url(#linear-gradient-3);}.cls-6{fill:url(#linear-gradient-4);}.cls-7{fill:url(#linear-gradient-5);}.cls-8{fill:url(#linear-gradient-6);}.cls-9{fill:url(#linear-gradient-7);}.cls-10{fill:url(#linear-gradient-8);}.cls-11{fill:url(#linear-gradient-9);}.cls-12{fill:url(#linear-gradient-10);}.cls-13{fill:url(#linear-gradient-11);}.cls-14{fill:url(#linear-gradient-12);}.cls-15{fill:url(#linear-gradient-13);}.cls-16{fill:url(#linear-gradient-14);}</style><linearGradient id="linear-gradient" x1="385.76" y1="138.18" x2="483.03" y2="138.18" gradientUnits="userSpaceOnUse"><stop offset="0" stop-color="#a81e2e"/><stop offset="1" stop-color="#eeb727"/></linearGradient><linearGradient id="linear-gradient-2" x1="402.47" y1="488.62" x2="404.65" y2="437.73" gradientTransform="matrix(1, 0, 0, -1, 0, 579.54)" gradientUnits="userSpaceOnUse"><stop offset="0" stop-color="#ffc92f"/><stop offset="0.17" stop-color="#f6bf2c"/><stop offset="0.44" stop-color="#e0aa2b"/><stop offset="0.78" stop-color="#ba832c"/><stop offset="1" stop-color="#9f6829"/></linearGradient><linearGradient id="linear-gradient-3" x1="420.97" y1="489.41" x2="423.15" y2="438.52" xlink:href="#linear-gradient-2"/><linearGradient id="linear-gradient-4" x1="438.93" y1="490.18" x2="441.11" y2="439.29" xlink:href="#linear-gradient-2"/><linearGradient id="linear-gradient-5" x1="452.59" y1="490.77" x2="454.77" y2="439.87" xlink:href="#linear-gradient-2"/><linearGradient id="linear-gradient-6" x1="465.68" y1="491.33" x2="467.87" y2="440.44" xlink:href="#linear-gradient-2"/><linearGradient id="linear-gradient-7" x1="401.44" y1="508.72" x2="403.62" y2="457.82" xlink:href="#linear-gradient-2"/><linearGradient id="linear-gradient-8" x1="411.89" y1="509.16" x2="414.07" y2="458.27" xlink:href="#linear-gradient-2"/><linearGradient id="linear-gradient-9" x1="424.49" y1="509.7" x2="426.67" y2="458.81" xlink:href="#linear-gradient-2"/><linearGradient id="linear-gradient-10" x1="441.21" y1="510.42" x2="443.39" y2="459.53" xlink:href="#linear-gradient-2"/><linearGradient id="linear-gradient-11" x1="454.37" y1="510.98" x2="456.55" y2="460.09" xlink:href="#linear-gradient-2"/><linearGradient id="linear-gradient-12" x1="466.9" y1="511.52" x2="469.09" y2="460.63" xlink:href="#linear-gradient-2"/><linearGradient id="linear-gradient-13" x1="435.44" y1="569.75" x2="430.85" y2="509.51" gradientTransform="matrix(1, 0, 0, -1, 0, 579.54)" gradientUnits="userSpaceOnUse"><stop offset="0" stop-color="#e32e46"/><stop offset="0.17" stop-color="#dc2c42"/><stop offset="0.45" stop-color="#c5273a"/><stop offset="0.78" stop-color="#a01d2b"/><stop offset="1" stop-color="#841620"/></linearGradient><linearGradient id="linear-gradient-14" x1="448.63" y1="568.74" x2="444.05" y2="508.51" xlink:href="#linear-gradient-13"/></defs><title>notes-right</title><path class="cls-1" d="M500,10V190a10,10,0,0,1-10,10H365.15V0H490A10,10,0,0,1,500,10Z"/><rect class="cls-2" x="390.36" y="153.09" width="85.57" height="19.74"/><path class="cls-1" d="M396.16,159v8.52H395V159Z"/><path class="cls-1" d="M398.27,167.47V159h1.19v8.52Zm.81,0v-1.14H401a2.06,2.06,0,0,0,1.47-.49,1.84,1.84,0,0,0,.52-1.38V162a1.84,1.84,0,0,0-.52-1.38,2.1,2.1,0,0,0-1.47-.49h-1.92V159H401a3.31,3.31,0,0,1,2.39.8,2.92,2.92,0,0,1,.85,2.25v2.41a3.35,3.35,0,0,1-.38,1.65,2.51,2.51,0,0,1-1.11,1.05,3.92,3.92,0,0,1-1.76.36Z"/><path class="cls-1" d="M405.47,162.58v-1.26h1.25v1.26Zm0,4.89v-1.26h1.25v1.26Z"/><path class="cls-1" d="M414,167.55a2.38,2.38,0,0,1-1.83-.65,2.51,2.51,0,0,1-.6-1.77v-3.87a2.48,2.48,0,0,1,.61-1.78,2.44,2.44,0,0,1,1.82-.64,2.4,2.4,0,0,1,1.82.64,2.47,2.47,0,0,1,.61,1.78v3.87a2.47,2.47,0,0,1-.61,1.78A2.4,2.4,0,0,1,414,167.55Zm0-1.13a1.19,1.19,0,0,0,.95-.35,1.41,1.41,0,0,0,.29-.94v-3.87a1.41,1.41,0,0,0-.29-.94,1.5,1.5,0,0,0-1.9,0,1.41,1.41,0,0,0-.29.94v3.87a1.41,1.41,0,0,0,.29.94A1.19,1.19,0,0,0,414,166.42Z"/><path class="cls-1" d="M420.38,167.55a2.36,2.36,0,0,1-1.83-.65,2.52,2.52,0,0,1-.61-1.77v-3.87a2.49,2.49,0,0,1,.62-1.78,2.44,2.44,0,0,1,1.82-.64,2.4,2.4,0,0,1,1.82.64,2.51,2.51,0,0,1,.61,1.78v3.87a2.51,2.51,0,0,1-.61,1.78A2.4,2.4,0,0,1,420.38,167.55Zm0-1.13a1.16,1.16,0,0,0,.94-.35,1.36,1.36,0,0,0,.29-.94v-3.87a1.36,1.36,0,0,0-.29-.94,1.48,1.48,0,0,0-1.89,0,1.41,1.41,0,0,0-.29.94v3.87a1.41,1.41,0,0,0,.29.94A1.17,1.17,0,0,0,420.38,166.42Z"/><path class="cls-1" d="M426.76,167.55a2.34,2.34,0,0,1-1.82-.65,2.47,2.47,0,0,1-.61-1.77v-3.87a2.49,2.49,0,0,1,.62-1.78,2.42,2.42,0,0,1,1.81-.64,2.39,2.39,0,0,1,1.82.64,2.47,2.47,0,0,1,.61,1.78v3.87a2.47,2.47,0,0,1-.61,1.78A2.39,2.39,0,0,1,426.76,167.55Zm0-1.13a1.17,1.17,0,0,0,.95-.35,1.41,1.41,0,0,0,.29-.94v-3.87a1.41,1.41,0,0,0-.29-.94,1.48,1.48,0,0,0-1.89,0,1.36,1.36,0,0,0-.29.94v3.87a1.36,1.36,0,0,0,.29.94A1.16,1.16,0,0,0,426.76,166.42Z"/><path class="cls-1" d="M433.15,167.55a2.38,2.38,0,0,1-1.83-.65,2.51,2.51,0,0,1-.6-1.77v-3.87a2.48,2.48,0,0,1,.61-1.78,2.44,2.44,0,0,1,1.82-.64,2.4,2.4,0,0,1,1.82.64,2.47,2.47,0,0,1,.61,1.78v3.87a2.47,2.47,0,0,1-.61,1.78A2.4,2.4,0,0,1,433.15,167.55Zm0-1.13a1.19,1.19,0,0,0,1-.35,1.41,1.41,0,0,0,.29-.94v-3.87a1.41,1.41,0,0,0-.29-.94,1.5,1.5,0,0,0-1.9,0,1.41,1.41,0,0,0-.29.94v3.87a1.41,1.41,0,0,0,.29.94A1.19,1.19,0,0,0,433.15,166.42Z"/><path class="cls-1" d="M439.54,167.55a2.36,2.36,0,0,1-1.83-.65,2.52,2.52,0,0,1-.61-1.77v-3.87a2.49,2.49,0,0,1,.62-1.78,2.44,2.44,0,0,1,1.82-.64,2.4,2.4,0,0,1,1.82.64,2.51,2.51,0,0,1,.61,1.78v3.87a2.51,2.51,0,0,1-.61,1.78A2.4,2.4,0,0,1,439.54,167.55Zm0-1.13a1.16,1.16,0,0,0,.94-.35,1.36,1.36,0,0,0,.29-.94v-3.87a1.36,1.36,0,0,0-.29-.94,1.48,1.48,0,0,0-1.89,0,1.41,1.41,0,0,0-.29.94v3.87a1.41,1.41,0,0,0,.29.94A1.17,1.17,0,0,0,439.54,166.42Z"/><path class="cls-1" d="M445.92,167.55a2.34,2.34,0,0,1-1.82-.65,2.47,2.47,0,0,1-.61-1.77v-3.87a2.49,2.49,0,0,1,.62-1.78,2.42,2.42,0,0,1,1.81-.64,2.39,2.39,0,0,1,1.82.64,2.47,2.47,0,0,1,.61,1.78v3.87a2.47,2.47,0,0,1-.61,1.78A2.39,2.39,0,0,1,445.92,167.55Zm0-1.13a1.17,1.17,0,0,0,.95-.35,1.41,1.41,0,0,0,.29-.94v-3.87a1.41,1.41,0,0,0-.29-.94,1.48,1.48,0,0,0-1.89,0,1.36,1.36,0,0,0-.29.94v3.87a1.36,1.36,0,0,0,.29.94A1.16,1.16,0,0,0,445.92,166.42Z"/><path class="cls-1" d="M452.31,167.55a2.38,2.38,0,0,1-1.83-.65,2.51,2.51,0,0,1-.6-1.77v-3.87a2.48,2.48,0,0,1,.61-1.78,2.44,2.44,0,0,1,1.82-.64,2.4,2.4,0,0,1,1.82.64,2.47,2.47,0,0,1,.61,1.78v3.87a2.47,2.47,0,0,1-.61,1.78A2.4,2.4,0,0,1,452.31,167.55Zm0-1.13a1.19,1.19,0,0,0,.95-.35,1.41,1.41,0,0,0,.29-.94v-3.87a1.41,1.41,0,0,0-.29-.94,1.5,1.5,0,0,0-1.9,0,1.41,1.41,0,0,0-.29.94v3.87a1.41,1.41,0,0,0,.29.94A1.19,1.19,0,0,0,452.31,166.42Z"/><path class="cls-1" d="M458.7,167.55a2.36,2.36,0,0,1-1.83-.65,2.52,2.52,0,0,1-.61-1.77v-3.87a2.49,2.49,0,0,1,.62-1.78,2.44,2.44,0,0,1,1.82-.64,2.4,2.4,0,0,1,1.82.64,2.51,2.51,0,0,1,.61,1.78v3.87a2.51,2.51,0,0,1-.61,1.78A2.4,2.4,0,0,1,458.7,167.55Zm0-1.13a1.16,1.16,0,0,0,.94-.35,1.36,1.36,0,0,0,.29-.94v-3.87a1.36,1.36,0,0,0-.29-.94,1.48,1.48,0,0,0-1.89,0,1.41,1.41,0,0,0-.29.94v3.87a1.41,1.41,0,0,0,.29.94A1.17,1.17,0,0,0,458.7,166.42Z"/><path class="cls-1" d="M464.94,159v8.52h-1.19v-7.22l-1.22.74v-1.24l1.22-.8Z"/><path class="cls-1" d="M469.08,167.55a2.78,2.78,0,0,1-1.26-.26,2.11,2.11,0,0,1-.87-.75,2.9,2.9,0,0,1-.43-1.2h1.22a1.16,1.16,0,0,0,.44.81,1.48,1.48,0,0,0,.9.25,1.28,1.28,0,0,0,.92-.31,1.18,1.18,0,0,0,.33-.89v-.26a1.48,1.48,0,0,0-.31-1,1.13,1.13,0,0,0-.88-.35h-.61v-1.13h.61a1,1,0,0,0,.77-.3,1.18,1.18,0,0,0,.28-.85v-.26a1.06,1.06,0,0,0-.29-.78,1.18,1.18,0,0,0-.83-.27,1.16,1.16,0,0,0-.76.25,1.37,1.37,0,0,0-.43.81h-1.21a2.72,2.72,0,0,1,.81-1.63,2.24,2.24,0,0,1,1.59-.58,2.35,2.35,0,0,1,1.71.58,2.15,2.15,0,0,1,.6,1.63v.14a1.81,1.81,0,0,1-.34,1.11,2,2,0,0,1-1,.7,1.72,1.72,0,0,1,1.08.68,2.32,2.32,0,0,1,.38,1.36v.14a2.29,2.29,0,0,1-.64,1.74A2.47,2.47,0,0,1,469.08,167.55Z"/><line class="cls-3" x1="385.76" y1="138.18" x2="483.03" y2="138.18"/><path class="cls-4" d="M406.12,110.69V105c0-1.52.87-2.29,2.61-2.29s2.61.77,2.61,2.29v13.21c0,1.53-.87,2.29-2.61,2.29a2.82,2.82,0,0,1-2.29-1l-5.85-7v5.67c0,1.53-.87,2.29-2.61,2.29s-2.61-.76-2.61-2.29V105c0-1.52.87-2.28,2.61-2.29a2.62,2.62,0,0,1,2.39,1.08Z"/><path class="cls-5" d="M431.31,111.48a8.81,8.81,0,0,1-2.68,6.67,10.24,10.24,0,0,1-13.52,0,8.82,8.82,0,0,1-2.65-6.67,8.91,8.91,0,0,1,2.64-6.69,10.28,10.28,0,0,1,13.58,0A8.94,8.94,0,0,1,431.31,111.48Zm-6.25-3.31a4.07,4.07,0,0,0-3.16-1.31,4.12,4.12,0,0,0-3.18,1.31,4.71,4.71,0,0,0-1.2,3.31,4.62,4.62,0,0,0,1.2,3.28,4.49,4.49,0,0,0,6.33,0,4.67,4.67,0,0,0,1.19-3.29,4.72,4.72,0,0,0-1.18-3.29Z"/><path class="cls-6" d="M442.19,106.94v11.34c0,1.52-.87,2.29-2.61,2.29s-2.61-.77-2.61-2.29V106.94h-2.63a2.1,2.1,0,1,1,0-4.19h10.51a2.1,2.1,0,1,1,0,4.19Z"/><path class="cls-7" d="M450.69,120.54c-1.74,0-2.61-.76-2.61-2.29V105c0-1.52.87-2.29,2.61-2.29H457a2.1,2.1,0,0,1,0,4.19H453.3v2.56h3.2c1.35,0,2,.7,2,2.11a1.83,1.83,0,0,1-2,2.11h-3.19v2.63H457a1.82,1.82,0,0,1,2,2.09c0,1.4-.67,2.1-2,2.1Z"/><path class="cls-8" d="M467.48,120.6a15.3,15.3,0,0,1-4.93-.81c-1.59-.53-2.38-1.49-2.38-2.87s.62-2.07,1.87-2.07a13.34,13.34,0,0,1,2.2.72,9.53,9.53,0,0,0,3.32.73c.94,0,1.41-.4,1.41-1.19a1.49,1.49,0,0,0-1-1.29,16.74,16.74,0,0,0-2.68-1.09,11.87,11.87,0,0,1-2.15-.86,4.37,4.37,0,0,1-2-3.88,5.4,5.4,0,0,1,1.68-4.13,5.46,5.46,0,0,1,3.86-1.56,14,14,0,0,1,3.88.49q3.07,1,2.48,2.88c-.4,1.27-1.13,1.86-2.19,1.78a12.29,12.29,0,0,1-1.58-.54,7.39,7.39,0,0,0-2.55-.54,1,1,0,0,0-1.12,1.09c0,.47.32.87.95,1.21a20.58,20.58,0,0,0,2.65,1.11,12,12,0,0,1,2.18.91,4.6,4.6,0,0,1,2,4.08,5.45,5.45,0,0,1-1.75,4.28A5.94,5.94,0,0,1,467.48,120.6Z"/><path class="cls-9" d="M402.91,95.75a15.24,15.24,0,0,1-4.92-.81c-1.59-.53-2.39-1.49-2.39-2.87s.63-2.07,1.87-2.07a12.81,12.81,0,0,1,2.21.73,9.72,9.72,0,0,0,3.32.72c.94,0,1.41-.39,1.41-1.18a1.5,1.5,0,0,0-1-1.3,17.32,17.32,0,0,0-2.69-1.09,11.14,11.14,0,0,1-2.15-.86,4.35,4.35,0,0,1-2-3.88,5.52,5.52,0,0,1,5.54-5.68A13.56,13.56,0,0,1,406,78q3.08,1,2.48,2.87c-.4,1.27-1.13,1.86-2.2,1.78a12.9,12.9,0,0,1-1.58-.54,7.39,7.39,0,0,0-2.55-.54,1,1,0,0,0-1.11,1.09c0,.47.31.87.94,1.21a19.86,19.86,0,0,0,2.66,1.1,11.57,11.57,0,0,1,2.17.92,4.6,4.6,0,0,1,2,4.08,5.5,5.5,0,0,1-1.74,4.29A6,6,0,0,1,402.91,95.75Z"/><path class="cls-10" d="M415.2,93.4c0,1.53-.87,2.29-2.61,2.29S410,94.93,410,93.4V80.2c0-1.53.87-2.29,2.61-2.29s2.61.76,2.61,2.29Z"/><path class="cls-11" d="M425.22,83.39l3.66-4.4a3,3,0,0,1,2.43-1.08c1.74,0,2.61.76,2.61,2.29V93.4c0,1.53-.87,2.29-2.61,2.29s-2.61-.76-2.61-2.29V86.13l-3.48,4.09-3.48-4.06V93.4c0,1.53-.87,2.29-2.61,2.29s-2.61-.76-2.61-2.29V80.2c0-1.56.87-2.32,2.61-2.29a3,3,0,0,1,2.4,1.08Z"/><path class="cls-12" d="M440.45,89.77V93.4c0,1.53-.87,2.29-2.61,2.29s-2.61-.76-2.61-2.29V80.25c0-1.53.87-2.29,2.61-2.29h5.91a4.67,4.67,0,0,1,3.68,1.73,6,6,0,0,1,1.42,4.13A6.33,6.33,0,0,1,447.21,88a5.23,5.23,0,0,1-4.1,1.78Zm0-8.28v4.06H442c1.48,0,2.22-.68,2.22-2s-.74-2-2.22-2Z"/><path class="cls-13" d="M459.27,95.7h-6.69c-1.74,0-2.61-.77-2.61-2.29V80.2c0-1.53.87-2.29,2.61-2.29s2.61.76,2.61,2.29V91.5h4.08c1.09,0,1.64.7,1.64,2.1S460.36,95.7,459.27,95.7Z"/><path class="cls-14" d="M464.83,95.7c-1.74,0-2.61-.77-2.61-2.29V80.2c0-1.53.87-2.29,2.61-2.29h6.33a2.1,2.1,0,0,1,0,4.19h-3.72v2.55h3.19a1.83,1.83,0,0,1,2,2.11c0,1.41-.68,2.11-2,2.11h-3.19V91.5h3.72a2.1,2.1,0,0,1,0,4.19Z"/><path class="cls-15" d="M422.49,18.32h1.56q5.9,0,9.21,5.62a6.07,6.07,0,0,1,.67,1.93h.13V18.54q0-.21.21-.21h22.07q.21,0,.21.21v.12q0,7-8,9.67a11.42,11.42,0,0,1-2.26.25h-12V62.09a.19.19,0,0,1-.16.21h-.27q-6.62,0-9.91-6.63a10.4,10.4,0,0,1-.67-3.49V28.58H412.45c-.14,0-.21-.09-.21-.25v-.09q0-7,8-9.7A13.32,13.32,0,0,1,422.49,18.32Z"/><path class="cls-16" d="M444.75,34.26h7.17a.1.1,0,0,1,.1.11V49c0,2-1.15,3.41-3.46,4.19a5.34,5.34,0,0,1-1,.1h-2.83a4.48,4.48,0,0,1-4.18-2.69,3.56,3.56,0,0,1-.35-1.6v0a.09.09,0,0,1,.1-.1h6.93V46h-2.5a4.48,4.48,0,0,1-4.14-2.72,4.41,4.41,0,0,1-.29-1.57v0a.09.09,0,0,1,.1-.09h6.83V38.7h-6.93a.1.1,0,0,1-.1-.07v-.08a4.13,4.13,0,0,1,2.3-3.7A4.48,4.48,0,0,1,444.75,34.26Z"/></svg>