<svg id="Layer_1" data-name="Layer 1" xmlns="http://www.w3.org/2000/svg" xmlns:xlink="http://www.w3.org/1999/xlink" viewBox="0 0 500 132.6"><defs><style>.cls-1{fill:url(#linear-gradient);}.cls-2{fill:url(#linear-gradient-2);}.cls-3{fill:url(#linear-gradient-3);}.cls-4{fill:url(#linear-gradient-4);}.cls-5{fill:url(#linear-gradient-5);}.cls-6{fill:url(#linear-gradient-6);}</style><linearGradient id="linear-gradient" x1="11.62" y1="-541.89" x2="510.05" y2="-562" gradientTransform="matrix(1, 0, 0, -1, 0, -476.46)" gradientUnits="userSpaceOnUse"><stop offset="0" stop-color="#d85a84"/><stop offset="1" stop-color="#9d1c47"/></linearGradient><linearGradient id="linear-gradient-2" x1="11.72" y1="-539.04" x2="510.15" y2="-559.15" xlink:href="#linear-gradient"/><linearGradient id="linear-gradient-3" x1="11.87" y1="-536.27" x2="510.25" y2="-556.38" xlink:href="#linear-gradient"/><linearGradient id="linear-gradient-4" x1="12.01" y1="-532.41" x2="510.44" y2="-552.57" xlink:href="#linear-gradient"/><linearGradient id="linear-gradient-5" x1="12.16" y1="-528.67" x2="510.55" y2="-548.78" xlink:href="#linear-gradient"/><linearGradient id="linear-gradient-6" x1="12.32" y1="-524.8" x2="510.75" y2="-544.91" xlink:href="#linear-gradient"/></defs><title>pinque-title</title><path class="cls-1" d="M81.72,48.22c0,26.72-28.54,27-30.71,27H37.55v35.64a1.09,1.09,0,0,1-1.13,1H21.58a1.13,1.13,0,0,1-1.13-1V22.09a1.08,1.08,0,0,1,1.13-1H51.16C54.61,20.91,81.72,21.4,81.72,48.22Zm-17.25,0c0-10.11-11.39-10.6-13.46-10.6H37.55V58.47H51C53.33,58.47,64.47,58.23,64.47,48.22Z"/><path class="cls-2" d="M95.57,22a1.15,1.15,0,0,1,1.22-1.05h14.85a1.14,1.14,0,0,1,1.28,1,.2.2,0,0,0,0,.07v88.73a1.14,1.14,0,0,1-1.22,1H96.85a1.12,1.12,0,0,1-1.27-1s0,0,0-.06Z"/><path class="cls-3" d="M207.57,110.53a1.13,1.13,0,0,1-1.22,1H191.5c-.29,0-.93,0-1-.4L149,50.83v59.7a1.14,1.14,0,0,1-1.18,1H133a1,1,0,0,1-1.17-.88.88.88,0,0,1,0-.16V21.8a1.08,1.08,0,0,1,1.13-1h14.85a1.25,1.25,0,0,1,.88.4L190.32,82V21.8a1.18,1.18,0,0,1,1.28-1h14.49a1.19,1.19,0,0,1,1.29,1Z"/><path class="cls-4" d="M306,113.78a1.58,1.58,0,0,1-1.83,0l-8.52-8.52A47.23,47.23,0,0,1,270.13,113,45.21,45.21,0,0,1,224.9,67.82q0-.78,0-1.56c0-24.65,17.25-46.48,45.2-46.48a45.24,45.24,0,0,1,45.22,45.28c0,.4,0,.8,0,1.2a52.81,52.81,0,0,1-7.74,27.07l8.68,8.67a1,1,0,0,1,.12,1.46l-.12.12Zm-22.68-20.7c-3-2.86-5.57-5.72-8.38-8.43a.94.94,0,0,1-.22-1.31.92.92,0,0,1,.22-.22l10.35-10.4a1.58,1.58,0,0,1,1.83,0l8,8a35.73,35.73,0,0,0,3.16-14.5c0-15.67-9.86-29.92-28.15-29.92s-27.95,14.25-27.95,29.92,11,30.17,27.95,30.17a31.08,31.08,0,0,0,13.21-3.5Z"/><path class="cls-5" d="M335.05,82.43V22.73a1.14,1.14,0,0,1,1.22-1h14.85a1.14,1.14,0,0,1,1.28,1V82.28a15.88,15.88,0,0,0,17,13.91c8.58,0,17-4.54,17-13.76V22.73a1.18,1.18,0,0,1,1.31-1h14.81a1.13,1.13,0,0,1,1.18,1v59.7c0,19.33-14.79,30.42-34.21,30.42S335.05,101.21,335.05,82.43Z"/><path class="cls-6" d="M440.59,37.38V58.33h35.35a1.08,1.08,0,0,1,1.18,1v14.2a1.09,1.09,0,0,1-1.13,1h-35.4V95.25h42.74a1.19,1.19,0,0,1,1.29,1v14.25a1.14,1.14,0,0,1-1.22,1H424.67a1.14,1.14,0,0,1-1.18-1V21.8a1.13,1.13,0,0,1,1.18-1h58.66a1.13,1.13,0,0,1,1.28,1,.15.15,0,0,0,0,.07V36.19a1.19,1.19,0,0,1-1.29,1Z"/></svg>