<svg id="Layer_1" data-name="Layer 1" xmlns="http://www.w3.org/2000/svg" xmlns:xlink="http://www.w3.org/1999/xlink" viewBox="0 0 500 200"><defs><style>.cls-1{fill:#fff5ee;}.cls-2{fill:#191717;opacity:0.71;}.cls-3{fill:none;stroke-miterlimit:10;stroke:url(#linear-gradient);}.cls-4{fill:url(#linear-gradient-2);}.cls-5{fill:url(#linear-gradient-3);}.cls-6{fill:url(#linear-gradient-4);}.cls-7{fill:url(#linear-gradient-5);}.cls-8{fill:url(#linear-gradient-6);}.cls-9{fill:url(#linear-gradient-7);}.cls-10{fill:url(#linear-gradient-8);}.cls-11{fill:url(#linear-gradient-9);}.cls-12{fill:url(#linear-gradient-10);}.cls-13{fill:url(#linear-gradient-11);}.cls-14{fill:url(#linear-gradient-12);}.cls-15{fill:url(#linear-gradient-13);}.cls-16{fill:url(#linear-gradient-14);}.cls-17{fill:url(#linear-gradient-15);}.cls-18{fill:url(#linear-gradient-16);}.cls-19{fill:url(#linear-gradient-17);}.cls-20{fill:url(#linear-gradient-18);}.cls-21{fill:url(#linear-gradient-19);}.cls-22{fill:url(#linear-gradient-20);}.cls-23,.cls-24{isolation:isolate;fill:#fff;font-family:BAYBAYINCHOCHIN, BAYBAYIN CHOCHIN;}.cls-23{font-size:40px;}.cls-24{font-size:17.39px;}</style><linearGradient id="linear-gradient" x1="385.76" y1="138.18" x2="483.03" y2="138.18" gradientUnits="userSpaceOnUse"><stop offset="0" stop-color="#1f449c"/><stop offset="1" stop-color="#1774bb"/></linearGradient><linearGradient id="linear-gradient-2" x1="387.72" y1="-499.93" x2="485.08" y2="-501.03" gradientTransform="matrix(1, 0, 0, -1, 0, -409.06)" gradientUnits="userSpaceOnUse"><stop offset="0" stop-color="#035599"/><stop offset="1" stop-color="#1b76bd"/></linearGradient><linearGradient id="linear-gradient-3" x1="387.73" y1="-499.69" x2="485.08" y2="-500.79" xlink:href="#linear-gradient-2"/><linearGradient id="linear-gradient-4" x1="387.72" y1="-499.72" x2="485.08" y2="-500.82" xlink:href="#linear-gradient-2"/><linearGradient id="linear-gradient-5" x1="387.73" y1="-499.64" x2="485.08" y2="-500.73" xlink:href="#linear-gradient-2"/><linearGradient id="linear-gradient-6" x1="387.73" y1="-499.68" x2="485.08" y2="-500.77" xlink:href="#linear-gradient-2"/><linearGradient id="linear-gradient-7" x1="387.73" y1="-499.35" x2="485.08" y2="-500.45" xlink:href="#linear-gradient-2"/><linearGradient id="linear-gradient-8" x1="387.73" y1="-499.26" x2="485.09" y2="-500.36" xlink:href="#linear-gradient-2"/><linearGradient id="linear-gradient-9" x1="387.73" y1="-499.18" x2="485.09" y2="-500.27" xlink:href="#linear-gradient-2"/><linearGradient id="linear-gradient-10" x1="387.53" y1="-516.97" x2="484.89" y2="-518.06" xlink:href="#linear-gradient-2"/><linearGradient id="linear-gradient-11" x1="387.53" y1="-516.82" x2="484.89" y2="-517.92" xlink:href="#linear-gradient-2"/><linearGradient id="linear-gradient-12" x1="387.53" y1="-516.68" x2="484.89" y2="-517.77" xlink:href="#linear-gradient-2"/><linearGradient id="linear-gradient-13" x1="387.54" y1="-516.55" x2="484.89" y2="-517.64" xlink:href="#linear-gradient-2"/><linearGradient id="linear-gradient-14" x1="387.54" y1="-516.44" x2="484.89" y2="-517.54" xlink:href="#linear-gradient-2"/><linearGradient id="linear-gradient-15" x1="387.54" y1="-516.14" x2="484.89" y2="-517.23" xlink:href="#linear-gradient-2"/><linearGradient id="linear-gradient-16" x1="387.54" y1="-516.24" x2="484.89" y2="-517.34" xlink:href="#linear-gradient-2"/><linearGradient id="linear-gradient-17" x1="387.54" y1="-516.06" x2="484.9" y2="-517.16" xlink:href="#linear-gradient-2"/><linearGradient id="linear-gradient-18" x1="387.54" y1="-515.95" x2="484.9" y2="-517.04" xlink:href="#linear-gradient-2"/><linearGradient id="linear-gradient-19" x1="410.24" y1="-440.91" x2="458.21" y2="-441.46" xlink:href="#linear-gradient-2"/><linearGradient id="linear-gradient-20" x1="412.81" y1="-439.68" x2="455.66" y2="-440.16" xlink:href="#linear-gradient-2"/></defs><title>psw-right</title><path class="cls-1" d="M500,10V190a10,10,0,0,1-10,10H365.15V0H490A10,10,0,0,1,500,10Z"/><rect class="cls-2" x="390.36" y="153.09" width="85.57" height="19.74"/><path class="cls-1" d="M395.16,159v8.52H394V159Z"/><path class="cls-1" d="M397.27,167.47V159h1.19v8.52Zm.81,0v-1.14H400a2.06,2.06,0,0,0,1.47-.49,1.81,1.81,0,0,0,.52-1.38V162a1.84,1.84,0,0,0-.52-1.38,2.1,2.1,0,0,0-1.47-.49h-1.92V159H400a3.31,3.31,0,0,1,2.39.8,2.92,2.92,0,0,1,.85,2.25v2.41a3.35,3.35,0,0,1-.38,1.65,2.46,2.46,0,0,1-1.11,1.05,3.92,3.92,0,0,1-1.76.36Z"/><path class="cls-1" d="M404.47,162.58v-1.25h1.25v1.25Zm0,4.89v-1.26h1.25v1.26Z"/><path class="cls-1" d="M413,167.56a2.38,2.38,0,0,1-1.83-.66,2.49,2.49,0,0,1-.6-1.76v-3.88a2.46,2.46,0,0,1,.61-1.77,2.41,2.41,0,0,1,1.82-.65,2.44,2.44,0,0,1,1.82.64,2.47,2.47,0,0,1,.61,1.78v3.88a2.46,2.46,0,0,1-.61,1.77A2.41,2.41,0,0,1,413,167.56Zm0-1.14a1.22,1.22,0,0,0,.95-.34,1.45,1.45,0,0,0,.29-.94v-3.88a1.43,1.43,0,0,0-.29-.94,1.5,1.5,0,0,0-1.9,0,1.43,1.43,0,0,0-.29.94v3.88a1.45,1.45,0,0,0,.29.94A1.22,1.22,0,0,0,413,166.42Z"/><path class="cls-1" d="M419.38,167.56a2.37,2.37,0,0,1-1.83-.66,2.49,2.49,0,0,1-.61-1.76v-3.88a2.46,2.46,0,0,1,.62-1.77,2.41,2.41,0,0,1,1.82-.65,2.44,2.44,0,0,1,1.82.64,2.51,2.51,0,0,1,.61,1.78v3.88a2.5,2.5,0,0,1-.61,1.77A2.41,2.41,0,0,1,419.38,167.56Zm0-1.14a1.2,1.2,0,0,0,.94-.34,1.39,1.39,0,0,0,.29-.94v-3.88a1.37,1.37,0,0,0-.29-.94,1.48,1.48,0,0,0-1.89,0,1.43,1.43,0,0,0-.29.94v3.88a1.45,1.45,0,0,0,.29.94A1.2,1.2,0,0,0,419.38,166.42Z"/><path class="cls-1" d="M425.76,167.56a2.34,2.34,0,0,1-1.82-.66,2.45,2.45,0,0,1-.61-1.76v-3.88a2.46,2.46,0,0,1,.62-1.77,2.38,2.38,0,0,1,1.81-.65,2.43,2.43,0,0,1,1.82.64,2.47,2.47,0,0,1,.61,1.78v3.88a2.46,2.46,0,0,1-.61,1.77A2.39,2.39,0,0,1,425.76,167.56Zm0-1.14a1.2,1.2,0,0,0,.95-.34,1.45,1.45,0,0,0,.29-.94v-3.88a1.43,1.43,0,0,0-.29-.94,1.48,1.48,0,0,0-1.89,0,1.37,1.37,0,0,0-.29.94v3.88a1.39,1.39,0,0,0,.29.94A1.2,1.2,0,0,0,425.76,166.42Z"/><path class="cls-1" d="M432.15,167.56a2.38,2.38,0,0,1-1.83-.66,2.49,2.49,0,0,1-.6-1.76v-3.88a2.46,2.46,0,0,1,.61-1.77,2.41,2.41,0,0,1,1.82-.65,2.44,2.44,0,0,1,1.82.64,2.47,2.47,0,0,1,.61,1.78v3.88a2.46,2.46,0,0,1-.61,1.77A2.41,2.41,0,0,1,432.15,167.56Zm0-1.14a1.22,1.22,0,0,0,1-.34,1.45,1.45,0,0,0,.29-.94v-3.88a1.43,1.43,0,0,0-.29-.94,1.5,1.5,0,0,0-1.9,0,1.43,1.43,0,0,0-.29.94v3.88a1.45,1.45,0,0,0,.29.94A1.22,1.22,0,0,0,432.15,166.42Z"/><path class="cls-1" d="M438.54,167.56a2.37,2.37,0,0,1-1.83-.66,2.49,2.49,0,0,1-.61-1.76v-3.88a2.46,2.46,0,0,1,.62-1.77,2.41,2.41,0,0,1,1.82-.65,2.44,2.44,0,0,1,1.82.64,2.51,2.51,0,0,1,.61,1.78v3.88a2.5,2.5,0,0,1-.61,1.77A2.41,2.41,0,0,1,438.54,167.56Zm0-1.14a1.2,1.2,0,0,0,.94-.34,1.39,1.39,0,0,0,.29-.94v-3.88a1.37,1.37,0,0,0-.29-.94,1.48,1.48,0,0,0-1.89,0,1.43,1.43,0,0,0-.29.94v3.88a1.45,1.45,0,0,0,.29.94A1.2,1.2,0,0,0,438.54,166.42Z"/><path class="cls-1" d="M444.92,167.56a2.34,2.34,0,0,1-1.82-.66,2.45,2.45,0,0,1-.61-1.76v-3.88a2.46,2.46,0,0,1,.62-1.77,2.38,2.38,0,0,1,1.81-.65,2.43,2.43,0,0,1,1.82.64,2.47,2.47,0,0,1,.61,1.78v3.88a2.46,2.46,0,0,1-.61,1.77A2.39,2.39,0,0,1,444.92,167.56Zm0-1.14a1.2,1.2,0,0,0,.95-.34,1.45,1.45,0,0,0,.29-.94v-3.88a1.43,1.43,0,0,0-.29-.94,1.48,1.48,0,0,0-1.89,0,1.37,1.37,0,0,0-.29.94v3.88a1.39,1.39,0,0,0,.29.94A1.2,1.2,0,0,0,444.92,166.42Z"/><path class="cls-1" d="M451.31,167.56a2.38,2.38,0,0,1-1.83-.66,2.49,2.49,0,0,1-.6-1.76v-3.88a2.46,2.46,0,0,1,.61-1.77,2.41,2.41,0,0,1,1.82-.65,2.44,2.44,0,0,1,1.82.64,2.47,2.47,0,0,1,.61,1.78v3.88a2.46,2.46,0,0,1-.61,1.77A2.41,2.41,0,0,1,451.31,167.56Zm0-1.14a1.22,1.22,0,0,0,.95-.34,1.45,1.45,0,0,0,.29-.94v-3.88a1.43,1.43,0,0,0-.29-.94,1.5,1.5,0,0,0-1.9,0,1.43,1.43,0,0,0-.29.94v3.88a1.45,1.45,0,0,0,.29.94A1.22,1.22,0,0,0,451.31,166.42Z"/><path class="cls-1" d="M457.7,167.56a2.37,2.37,0,0,1-1.83-.66,2.49,2.49,0,0,1-.61-1.76v-3.88a2.46,2.46,0,0,1,.62-1.77,2.41,2.41,0,0,1,1.82-.65,2.44,2.44,0,0,1,1.82.64,2.51,2.51,0,0,1,.61,1.78v3.88a2.5,2.5,0,0,1-.61,1.77A2.41,2.41,0,0,1,457.7,167.56Zm0-1.14a1.2,1.2,0,0,0,.94-.34,1.39,1.39,0,0,0,.29-.94v-3.88a1.37,1.37,0,0,0-.29-.94,1.48,1.48,0,0,0-1.89,0,1.43,1.43,0,0,0-.29.94v3.88a1.45,1.45,0,0,0,.29.94A1.2,1.2,0,0,0,457.7,166.42Z"/><path class="cls-1" d="M464.08,167.56a2.34,2.34,0,0,1-1.82-.66,2.45,2.45,0,0,1-.61-1.76v-3.88a2.46,2.46,0,0,1,.62-1.77,2.38,2.38,0,0,1,1.81-.65,2.43,2.43,0,0,1,1.82.64,2.47,2.47,0,0,1,.61,1.78v3.88a2.46,2.46,0,0,1-.61,1.77A2.39,2.39,0,0,1,464.08,167.56Zm0-1.14a1.2,1.2,0,0,0,.95-.34,1.45,1.45,0,0,0,.29-.94v-3.88a1.43,1.43,0,0,0-.29-.94,1.48,1.48,0,0,0-1.89,0,1.37,1.37,0,0,0-.29.94v3.88a1.39,1.39,0,0,0,.29.94A1.2,1.2,0,0,0,464.08,166.42Z"/><path class="cls-1" d="M472.67,159V160l-2.2,7.46H469.2l2.2-7.39h-2.17v1.23H468V159Z"/><line class="cls-3" x1="385.76" y1="138.18" x2="483.03" y2="138.18"/><path class="cls-4" d="M403.08,89c0,2.94-3.14,3-3.38,3h-1.49v3.93a.11.11,0,0,1-.11.11h-1.65a.14.14,0,0,1-.13-.11v-9.8a.14.14,0,0,1,.13-.11h3.24C400.09,86,403.08,86,403.08,89Zm-1.9,0c0-1.11-1.26-1.17-1.49-1.17h-1.48v2.3h1.48c.26,0,1.49,0,1.49-1.13Z"/><path class="cls-5" d="M409.26,94.84H406l-.39,1.06a.13.13,0,0,1-.13.07h-1.75c-.12,0-.17-.07-.13-.15l3.9-10a.16.16,0,0,1,.21,0,.1.1,0,0,1,0,0l3.9,10c0,.08,0,.15-.11.15H409.8a.14.14,0,0,1-.12-.07Zm-2.63-1.69h2l-1-3Z"/><path class="cls-6" d="M412.4,93.17c0-.06.06-.1.15-.1h1.6c.08,0,.15,0,.15.1a1.15,1.15,0,0,0,1.27,1.1,1.18,1.18,0,0,0,1.27-1.13,1.33,1.33,0,0,0-1.27-1.24,3.81,3.81,0,0,1-1.52-.33,2.84,2.84,0,0,1-1.65-2.65,3.06,3.06,0,0,1,3.17-3.07,2.94,2.94,0,0,1,3.13,2.88.14.14,0,0,1-.14.12H417a.14.14,0,0,1-.14-.12,1.11,1.11,0,0,0-1.24-1.06,1.17,1.17,0,0,0-1.27,1.25,1.23,1.23,0,0,0,1.27,1.2,3.58,3.58,0,0,1,1.48.32,2.88,2.88,0,0,1,1.67,2.7,3.17,3.17,0,0,1-6.32,0Z"/><path class="cls-7" d="M420.15,93.17c0-.06.06-.1.14-.1h1.62c.07,0,.14,0,.14.1a1.15,1.15,0,0,0,1.27,1.1,1.18,1.18,0,0,0,1.27-1.13,1.33,1.33,0,0,0-1.27-1.24,3.73,3.73,0,0,1-1.51-.33,2.82,2.82,0,0,1-1.66-2.65,3.06,3.06,0,0,1,3.17-3.07,3,3,0,0,1,3.13,2.88.14.14,0,0,1-.15.12h-1.59a.16.16,0,0,1-.15-.12,1.11,1.11,0,0,0-1.24-1.06,1.17,1.17,0,0,0-1.27,1.25,1.23,1.23,0,0,0,1.27,1.2,3.75,3.75,0,0,1,1.48.32,2.88,2.88,0,0,1,1.68,2.7,3.17,3.17,0,0,1-6.33,0Z"/><path class="cls-8" d="M437.54,96.28a.13.13,0,0,1-.24,0l-2.92-7.72-2.9,7.72a.14.14,0,0,1-.21,0l0,0-3.85-10.14c0-.09,0-.16.13-.16h1.74a.17.17,0,0,1,.13.07l2,5.57,2-5.57a.11.11,0,0,1,.11-.07h1.8a.17.17,0,0,1,.13.07l2,5.57,2-5.57a.13.13,0,0,1,.13-.07h1.74c.12,0,.16.07.12.15Z"/><path class="cls-9" d="M452.12,91a4.94,4.94,0,1,1-4.93-5.13A4.86,4.86,0,0,1,452.12,91Zm-1.93,0a3,3,0,1,0-6,0,3,3,0,1,0,6,0Z"/><path class="cls-10" d="M456.94,91.93h-1.07v3.93a.13.13,0,0,1-.15.11H454.1a.12.12,0,0,1-.13-.11V86.09a.12.12,0,0,1,.13-.11h3.22c.57,0,3.38,0,3.38,3a2.64,2.64,0,0,1-1.85,2.68c.63,1.41,1.3,2.79,1.93,4.18,0,.09,0,.16-.11.16H458.9a.21.21,0,0,1-.13-.07Zm-1.07-1.83h1.45c.42,0,1.49,0,1.49-1.15s-1.19-1.16-1.49-1.16h-1.45Z"/><path class="cls-11" d="M464.29,86c2.41,0,5.8.57,5.8,5,0,4.24-3.33,5-5.8,5h-1.61a.12.12,0,0,1-.14-.11V86.09a.12.12,0,0,1,.14-.11Zm.14,8.21c1.2,0,3.76-.18,3.76-3.24,0-2.65-1.6-3.32-3.76-3.2Z"/><path class="cls-12" d="M393.53,106.89a.16.16,0,0,1,.17.15v7.26a.17.17,0,0,1-.17.16h-1.85c-.09,0-.18-.06-.18-.14l-.08-1.2a4.29,4.29,0,0,1-3.46,1.46c-3.5,0-6.24-2.42-6.24-6.66a6.49,6.49,0,0,1,6.52-6.67,6.32,6.32,0,0,1,4.59,1.91.14.14,0,0,1,0,.19l0,0-1.48,1.48a.18.18,0,0,1-.24,0,4,4,0,0,0-2.87-1.2,4,4,0,0,0-4,4.26c0,3,1.81,4.26,4,4.26a4,4,0,0,0,3-1.36v-1.69h-2.1c-.11,0-.18-.06-.18-.13v-2a.17.17,0,0,1,.18-.15h4.41Z"/><path class="cls-13" d="M398.87,103.78v3h5.06a.15.15,0,0,1,.16.14h0v2a.15.15,0,0,1-.15.15h-5.07v3H405a.18.18,0,0,1,.19.15h0v2a.17.17,0,0,1-.19.15h-8.39a.15.15,0,0,1-.16-.15V101.57a.16.16,0,0,1,.16-.15H405a.17.17,0,0,1,.19.15h0v2.06a.17.17,0,0,1-.18.15h-6.12Z"/><path class="cls-14" d="M418.15,114.24a.17.17,0,0,1-.18.16h-2.12a.24.24,0,0,1-.15-.06l-5.93-8.63v8.54a.16.16,0,0,1-.16.15H407.5a.16.16,0,0,1-.17-.14h0v-12.7a.16.16,0,0,1,.16-.15h2.14a.16.16,0,0,1,.13.06l5.95,8.7v-8.61a.16.16,0,0,1,.18-.15H418a.17.17,0,0,1,.18.15h0Z"/><path class="cls-15" d="M423.5,103.78v3h5.06a.15.15,0,0,1,.17.14h0v2a.15.15,0,0,1-.15.15H423.5v3h6.12a.17.17,0,0,1,.18.15v2a.17.17,0,0,1-.18.15h-8.39a.15.15,0,0,1-.17-.15V101.57a.17.17,0,0,1,.17-.15h8.39a.17.17,0,0,1,.18.15v2.06a.17.17,0,0,1-.18.15Z"/><path class="cls-16" d="M435.79,109.15H434.4v5.09a.17.17,0,0,1-.19.16H432.1a.17.17,0,0,1-.17-.16V101.57a.17.17,0,0,1,.17-.15h4.19c.74,0,4.39,0,4.39,3.85a3.43,3.43,0,0,1-2.39,3.48c.81,1.84,1.68,3.62,2.5,5.43,0,.11,0,.2-.16.2h-2.31a.22.22,0,0,1-.16-.09Zm-1.39-2.37h1.89c.53,0,1.92-.08,1.92-1.5s-1.53-1.5-1.92-1.5H434.4Z"/><path class="cls-17" d="M449.09,112.93h-4.2l-.5,1.37a.18.18,0,0,1-.17.09h-2.28c-.16,0-.23-.09-.17-.2l5.06-13a.19.19,0,0,1,.26-.08.27.27,0,0,1,.07.08l5.06,13c0,.11,0,.2-.16.2h-2.3a.16.16,0,0,1-.15-.09Zm-3.41-2.19h2.61L447,106.85Z"/><path class="cls-18" d="M459.29,103.61c0,.08-.07.13-.18.13h-2.46v10.5a.16.16,0,0,1-.15.16h-2.12a.15.15,0,0,1-.16-.14V103.74h-2.46c-.11,0-.18,0-.18-.13v-1.92a.16.16,0,0,1,.18-.16h7.36a.17.17,0,0,1,.18.16Z"/><path class="cls-19" d="M473.3,107.89c0,3.32-2.15,6.67-6.39,6.67s-6.43-3.35-6.43-6.67,2.11-6.65,6.43-6.65S473.3,104.57,473.3,107.89Zm-2.5,0c0-2.17-1.32-4.34-3.89-4.34s-3.91,2.17-3.91,4.34,1.29,4.29,3.91,4.29S470.8,110.08,470.8,107.93Z"/><path class="cls-20" d="M479.56,109.15h-1.39v5.09a.17.17,0,0,1-.18.16h-2.12a.17.17,0,0,1-.17-.16V101.57a.17.17,0,0,1,.17-.15h4.19c.74,0,4.39,0,4.39,3.85a3.42,3.42,0,0,1-2.39,3.48c.81,1.84,1.69,3.62,2.5,5.43.05.11,0,.2-.15.2H482.1a.22.22,0,0,1-.17-.09Zm-1.39-2.37h1.89c.54,0,1.92-.08,1.92-1.5s-1.53-1.5-1.92-1.5h-1.89Z"/><path class="cls-21" d="M456.41,0V40.77a22,22,0,1,1-44.1,0V0H410.6V40.77a23.75,23.75,0,0,0,23.76,23.75h0a23.75,23.75,0,0,0,23.76-23.75h0V0Z"/><path class="cls-22" d="M434.36,62a21.22,21.22,0,0,0,21.2-21.19V0h-42.4V40.77A21.22,21.22,0,0,0,434.36,62Z"/><text class="cls-23" transform="translate(419.4 42.49)">t</text><text class="cls-24" transform="translate(435.96 39.27)">O</text></svg>