<svg id="Layer_1" data-name="Layer 1" xmlns="http://www.w3.org/2000/svg" xmlns:xlink="http://www.w3.org/1999/xlink" viewBox="0 0 500 200"><defs><style>.cls-1{fill:#fff5ee;}.cls-2{fill:#191717;opacity:0.71;}.cls-3{fill:none;stroke-miterlimit:10;stroke:url(#linear-gradient);}.cls-4{fill:url(#linear-gradient-2);}.cls-5{fill:url(#linear-gradient-3);}.cls-6{fill:url(#linear-gradient-4);}.cls-7{fill:url(#linear-gradient-5);}.cls-8{fill:url(#linear-gradient-6);}.cls-9{fill:url(#linear-gradient-7);}.cls-10{fill:url(#linear-gradient-8);}.cls-11{fill:url(#linear-gradient-9);}.cls-12{fill:url(#linear-gradient-10);}.cls-13{fill:url(#linear-gradient-11);}</style><linearGradient id="linear-gradient" x1="385.76" y1="138.18" x2="483.03" y2="138.18" gradientUnits="userSpaceOnUse"><stop offset="0" stop-color="#8e54a2"/><stop offset="1" stop-color="#fddf51"/></linearGradient><linearGradient id="linear-gradient-2" x1="488.22" y1="85.4" x2="365.67" y2="81.31" xlink:href="#linear-gradient"/><linearGradient id="linear-gradient-3" x1="488.25" y1="84.61" x2="365.7" y2="80.53" xlink:href="#linear-gradient"/><linearGradient id="linear-gradient-4" x1="488.17" y1="86.85" x2="365.62" y2="82.76" xlink:href="#linear-gradient"/><linearGradient id="linear-gradient-5" x1="488.12" y1="88.51" x2="365.57" y2="84.42" xlink:href="#linear-gradient"/><linearGradient id="linear-gradient-6" x1="488.3" y1="83.16" x2="365.74" y2="79.08" xlink:href="#linear-gradient"/><linearGradient id="linear-gradient-7" x1="488.23" y1="85.3" x2="365.67" y2="81.21" xlink:href="#linear-gradient"/><linearGradient id="linear-gradient-8" x1="487.27" y1="114.09" x2="364.71" y2="110.01" xlink:href="#linear-gradient"/><linearGradient id="linear-gradient-9" x1="487.34" y1="111.91" x2="364.79" y2="107.83" xlink:href="#linear-gradient"/><linearGradient id="linear-gradient-10" x1="456.01" y1="35.4" x2="403.13" y2="34.51" gradientTransform="matrix(1, 0, 0, -1, 0, 75.03)" gradientUnits="userSpaceOnUse"><stop offset="0" stop-color="#8953a1"/><stop offset="0.18" stop-color="#996896"/><stop offset="0.56" stop-color="#c49c77"/><stop offset="1" stop-color="#fde251"/></linearGradient><linearGradient id="linear-gradient-11" x1="456.09" y1="30.32" x2="403.22" y2="29.43" xlink:href="#linear-gradient-10"/></defs><title>qr-right</title><path class="cls-1" d="M500,10V190a10,10,0,0,1-10,10H365.15V0H490A10,10,0,0,1,500,10Z"/><rect class="cls-2" x="390.36" y="153.09" width="85.57" height="19.74"/><path class="cls-1" d="M396.16,159v8.52H395V159Z"/><path class="cls-1" d="M398.27,167.47V159h1.19v8.52Zm.81,0v-1.14H401a2.06,2.06,0,0,0,1.47-.49,1.84,1.84,0,0,0,.52-1.38V162a1.84,1.84,0,0,0-.52-1.38,2.1,2.1,0,0,0-1.47-.49h-1.92V159H401a3.31,3.31,0,0,1,2.39.8,2.92,2.92,0,0,1,.85,2.25v2.41a3.35,3.35,0,0,1-.38,1.65,2.46,2.46,0,0,1-1.11,1.05,3.92,3.92,0,0,1-1.76.36Z"/><path class="cls-1" d="M405.47,162.58v-1.25h1.25v1.25Zm0,4.89v-1.26h1.25v1.26Z"/><path class="cls-1" d="M414,167.55a2.38,2.38,0,0,1-1.83-.65,2.51,2.51,0,0,1-.6-1.77v-3.87a2.46,2.46,0,0,1,.61-1.77,2.89,2.89,0,0,1,3.64,0,2.47,2.47,0,0,1,.61,1.78v3.87a2.47,2.47,0,0,1-.61,1.78A2.4,2.4,0,0,1,414,167.55Zm0-1.13a1.19,1.19,0,0,0,.95-.35,1.41,1.41,0,0,0,.29-.94v-3.87a1.41,1.41,0,0,0-.29-.94,1.5,1.5,0,0,0-1.9,0,1.41,1.41,0,0,0-.29.94v3.87a1.41,1.41,0,0,0,.29.94A1.19,1.19,0,0,0,414,166.42Z"/><path class="cls-1" d="M420.38,167.55a2.36,2.36,0,0,1-1.83-.65,2.52,2.52,0,0,1-.61-1.77v-3.87a2.46,2.46,0,0,1,.62-1.77,2.89,2.89,0,0,1,3.64,0,2.51,2.51,0,0,1,.61,1.78v3.87a2.51,2.51,0,0,1-.61,1.78A2.4,2.4,0,0,1,420.38,167.55Zm0-1.13a1.16,1.16,0,0,0,.94-.35,1.36,1.36,0,0,0,.29-.94v-3.87a1.36,1.36,0,0,0-.29-.94,1.48,1.48,0,0,0-1.89,0,1.41,1.41,0,0,0-.29.94v3.87a1.41,1.41,0,0,0,.29.94A1.17,1.17,0,0,0,420.38,166.42Z"/><path class="cls-1" d="M426.76,167.55a2.34,2.34,0,0,1-1.82-.65,2.47,2.47,0,0,1-.61-1.77v-3.87a2.46,2.46,0,0,1,.62-1.77,2.88,2.88,0,0,1,3.63,0,2.47,2.47,0,0,1,.61,1.78v3.87a2.47,2.47,0,0,1-.61,1.78A2.39,2.39,0,0,1,426.76,167.55Zm0-1.13a1.17,1.17,0,0,0,.95-.35,1.41,1.41,0,0,0,.29-.94v-3.87a1.41,1.41,0,0,0-.29-.94,1.48,1.48,0,0,0-1.89,0,1.36,1.36,0,0,0-.29.94v3.87a1.36,1.36,0,0,0,.29.94A1.16,1.16,0,0,0,426.76,166.42Z"/><path class="cls-1" d="M433.15,167.55a2.38,2.38,0,0,1-1.83-.65,2.51,2.51,0,0,1-.6-1.77v-3.87a2.46,2.46,0,0,1,.61-1.77,2.89,2.89,0,0,1,3.64,0,2.47,2.47,0,0,1,.61,1.78v3.87a2.47,2.47,0,0,1-.61,1.78A2.4,2.4,0,0,1,433.15,167.55Zm0-1.13a1.19,1.19,0,0,0,1-.35,1.41,1.41,0,0,0,.29-.94v-3.87a1.41,1.41,0,0,0-.29-.94,1.5,1.5,0,0,0-1.9,0,1.41,1.41,0,0,0-.29.94v3.87a1.41,1.41,0,0,0,.29.94A1.19,1.19,0,0,0,433.15,166.42Z"/><path class="cls-1" d="M439.54,167.55a2.36,2.36,0,0,1-1.83-.65,2.52,2.52,0,0,1-.61-1.77v-3.87a2.46,2.46,0,0,1,.62-1.77,2.89,2.89,0,0,1,3.64,0,2.51,2.51,0,0,1,.61,1.78v3.87a2.51,2.51,0,0,1-.61,1.78A2.4,2.4,0,0,1,439.54,167.55Zm0-1.13a1.16,1.16,0,0,0,.94-.35,1.36,1.36,0,0,0,.29-.94v-3.87a1.36,1.36,0,0,0-.29-.94,1.48,1.48,0,0,0-1.89,0,1.41,1.41,0,0,0-.29.94v3.87a1.41,1.41,0,0,0,.29.94A1.17,1.17,0,0,0,439.54,166.42Z"/><path class="cls-1" d="M445.92,167.55a2.34,2.34,0,0,1-1.82-.65,2.47,2.47,0,0,1-.61-1.77v-3.87a2.46,2.46,0,0,1,.62-1.77,2.88,2.88,0,0,1,3.63,0,2.47,2.47,0,0,1,.61,1.78v3.87a2.47,2.47,0,0,1-.61,1.78A2.39,2.39,0,0,1,445.92,167.55Zm0-1.13a1.17,1.17,0,0,0,.95-.35,1.41,1.41,0,0,0,.29-.94v-3.87a1.41,1.41,0,0,0-.29-.94,1.48,1.48,0,0,0-1.89,0,1.36,1.36,0,0,0-.29.94v3.87a1.36,1.36,0,0,0,.29.94A1.16,1.16,0,0,0,445.92,166.42Z"/><path class="cls-1" d="M452.31,167.55a2.38,2.38,0,0,1-1.83-.65,2.51,2.51,0,0,1-.6-1.77v-3.87a2.46,2.46,0,0,1,.61-1.77,2.89,2.89,0,0,1,3.64,0,2.47,2.47,0,0,1,.61,1.78v3.87a2.47,2.47,0,0,1-.61,1.78A2.4,2.4,0,0,1,452.31,167.55Zm0-1.13a1.19,1.19,0,0,0,.95-.35,1.41,1.41,0,0,0,.29-.94v-3.87a1.41,1.41,0,0,0-.29-.94,1.5,1.5,0,0,0-1.9,0,1.41,1.41,0,0,0-.29.94v3.87a1.41,1.41,0,0,0,.29.94A1.19,1.19,0,0,0,452.31,166.42Z"/><path class="cls-1" d="M458.7,167.55a2.36,2.36,0,0,1-1.83-.65,2.52,2.52,0,0,1-.61-1.77v-3.87a2.46,2.46,0,0,1,.62-1.77,2.89,2.89,0,0,1,3.64,0,2.51,2.51,0,0,1,.61,1.78v3.87a2.51,2.51,0,0,1-.61,1.78A2.4,2.4,0,0,1,458.7,167.55Zm0-1.13a1.16,1.16,0,0,0,.94-.35,1.36,1.36,0,0,0,.29-.94v-3.87a1.36,1.36,0,0,0-.29-.94,1.48,1.48,0,0,0-1.89,0,1.41,1.41,0,0,0-.29.94v3.87a1.41,1.41,0,0,0,.29.94A1.17,1.17,0,0,0,458.7,166.42Z"/><path class="cls-1" d="M464.94,159v8.52h-1.19v-7.22l-1.22.74v-1.24l1.22-.8Z"/><path class="cls-1" d="M466.75,167.47v-1l3-4a3.14,3.14,0,0,0,.4-.71,2,2,0,0,0,.14-.68h0a1,1,0,0,0-.3-.79,1.18,1.18,0,0,0-.85-.28,1.2,1.2,0,0,0-.84.3,1.41,1.41,0,0,0-.39.87h-1.24a2.86,2.86,0,0,1,.8-1.71,2.35,2.35,0,0,1,1.66-.6,2.51,2.51,0,0,1,1.78.58,2.11,2.11,0,0,1,.62,1.64h0a2.74,2.74,0,0,1-.18.94,4.21,4.21,0,0,1-.52.95l-2.47,3.35h3.22v1.14Z"/><line class="cls-3" x1="385.76" y1="138.18" x2="483.03" y2="138.18"/><path class="cls-4" d="M385.18,86.55l5.78-1c.49,1.64,1.73,2.45,3.75,2.45,1.56,0,2.34-.41,2.34-1.25a1.12,1.12,0,0,0-.54-1,5.7,5.7,0,0,0-1.94-.65q-5.34-1-6.85-2.67a5.55,5.55,0,0,1-1.52-3.88,6.08,6.08,0,0,1,2.18-4.77,9.22,9.22,0,0,1,6.26-1.9q6.19,0,8.19,5l-5.15,1.56a3.17,3.17,0,0,0-3.26-2q-2,0-2,1.26a1,1,0,0,0,.46.88,5.51,5.51,0,0,0,1.79.59,37.46,37.46,0,0,1,5.17,1.37,5.54,5.54,0,0,1,2.56,2,5.69,5.69,0,0,1,1,3.39,6,6,0,0,1-2.5,5,10.45,10.45,0,0,1-6.55,1.91Q386.92,92.73,385.18,86.55Z"/><path class="cls-5" d="M411.48,71.49v4.7h-5.93v-4.7Zm0,5.81V92.42h-5.93V77.3Z"/><path class="cls-6" d="M437.51,92.42h-5.75V83a2.33,2.33,0,0,0-.28-1.33,1.11,1.11,0,0,0-1-.37c-1.11,0-1.67.8-1.67,2.42v8.74h-5.69V83c0-1.21-.46-1.81-1.4-1.81s-1.44.6-1.44,1.81v9.46H414.6V77.3h5.33v2A4.56,4.56,0,0,1,424.07,77a4.51,4.51,0,0,1,4.25,2.35A5,5,0,0,1,432.84,77a5.2,5.2,0,0,1,2.56.61A3.81,3.81,0,0,1,437,79.17a6.68,6.68,0,0,1,.5,3Z"/><path class="cls-7" d="M446.81,97.19h-5.93V77.3h5.46v2.15A4.29,4.29,0,0,1,450.61,77a4.93,4.93,0,0,1,4.23,2.11,9.62,9.62,0,0,1,1.54,5.73,9.57,9.57,0,0,1-1.57,5.76,4.9,4.9,0,0,1-4.14,2.14,4.36,4.36,0,0,1-3.85-1.93Zm0-10.3a2.42,2.42,0,0,0,.46,1.56,1.53,1.53,0,0,0,2.62-.42,8.54,8.54,0,0,0,.4-3,8.37,8.37,0,0,0-.46-3.32,1.47,1.47,0,0,0-1.38-1,1.81,1.81,0,0,0-1.09.43,1.71,1.71,0,0,0-.55,1.41Z"/><path class="cls-8" d="M464.58,72.13V92.42h-5.84V72.13Z"/><path class="cls-9" d="M477.69,87l5.53.38a6.57,6.57,0,0,1-2.51,3.8,8.67,8.67,0,0,1-5.45,1.56,8.39,8.39,0,0,1-6.09-2.2,7.31,7.31,0,0,1-2.27-5.48A7.84,7.84,0,0,1,475.13,77a7.64,7.64,0,0,1,8.1,8.19c0,.21,0,.5,0,.87H473.09a3.87,3.87,0,0,0,.51,2.11A2.44,2.44,0,0,0,477.69,87Zm-.4-3.92a2.79,2.79,0,0,0-.62-2.06,2.13,2.13,0,0,0-1.49-.53c-1.4,0-2.1.86-2.1,2.59Z"/><path class="cls-10" d="M426,120.64a10.79,10.79,0,0,1-2,.2,9.1,9.1,0,0,1-7-2.89,10.6,10.6,0,0,1-2.66-7.51,11.06,11.06,0,0,1,2.57-7.55,10,10,0,0,1,14.06-.16,10.34,10.34,0,0,1,2.67,7.46q0,5.66-3.64,8.63c.2.59.82.88,1.88.88a8.65,8.65,0,0,0,1.68-.19v4.59c-1.1.11-2,.17-2.59.17a6.29,6.29,0,0,1-2.95-.7A4.46,4.46,0,0,1,426,120.64Zm-2.11-4.4a2.33,2.33,0,0,0,2.26-1.38,12.66,12.66,0,0,0,.7-5q0-5.3-2.84-5.3c-2,0-3.06,2-3.06,6Q420.91,116.24,423.85,116.24Z"/><path class="cls-11" d="M454.2,120.53h-6.9l-3-7.76h-2v7.76h-6.23V100.24h10.6a8.16,8.16,0,0,1,5.45,1.65,5.4,5.4,0,0,1,1.94,4.33,6.45,6.45,0,0,1-.72,3.1,6,6,0,0,1-2.88,2.37Zm-11.83-12.1H445a3.2,3.2,0,0,0,1.88-.49,1.63,1.63,0,0,0,.72-1.44c0-1.3-.8-2-2.39-2h-2.87Z"/><path class="cls-12" d="M445.46,22h.77a13.26,13.26,0,0,1,8.09,2.63V33.2h-.2a15.28,15.28,0,0,0-8.28-2.43q-4.5,0-12.66,2.92-.1.66-7.69,24.25h-8.08l-.2-.1,7-22h-2a13.26,13.26,0,0,1-8.09-2.63V24.63h.2a15.28,15.28,0,0,0,8.28,2.43q4.65,0,16.46-4.09A29.24,29.24,0,0,1,445.46,22Z"/><path class="cls-13" d="M437.72,36.1h10.89a.09.09,0,0,1,.1.1v4.19c0,.86,0,1.7-.1,2.51h2.5a.1.1,0,0,1,.11.1v4.14a.09.09,0,0,1-.08.1H448a16,16,0,0,1-1.38,4q-1.53,2.56-3.48,2.56h-5.42a.09.09,0,0,1-.1-.08V49.6a.1.1,0,0,1,.1-.11h2.51a2.62,2.62,0,0,0,2.9-2.25h-2.9a.09.09,0,0,1-.11-.07V43c0-.07,0-.1.11-.1H444c.07-1.28.1-2.1.1-2.46h-6.34a.08.08,0,0,1-.1-.07V36.2A.09.09,0,0,1,437.72,36.1Z"/></svg>