<svg id="Layer_1" data-name="Layer 1" xmlns="http://www.w3.org/2000/svg" xmlns:xlink="http://www.w3.org/1999/xlink" viewBox="0 0 500 200"><defs><style>.cls-1{fill:url(#linear-gradient);}.cls-2{fill:url(#linear-gradient-2);}.cls-3{fill:url(#linear-gradient-3);}.cls-4{fill:url(#linear-gradient-4);}.cls-5{fill:url(#linear-gradient-5);}.cls-6{fill:url(#linear-gradient-6);}.cls-7{fill:url(#linear-gradient-7);}.cls-8{fill:url(#linear-gradient-8);}.cls-9{fill:url(#linear-gradient-9);}.cls-10{fill:url(#linear-gradient-10);}.cls-11{fill:url(#linear-gradient-11);}.cls-12{fill:url(#linear-gradient-12);}</style><linearGradient id="linear-gradient" x1="-64.43" y1="-515.41" x2="647.77" y2="-511.47" gradientTransform="matrix(1, 0, 0, -1, 0, -409.06)" gradientUnits="userSpaceOnUse"><stop offset="0" stop-color="#3757a7"/><stop offset="0.21" stop-color="#476db4"/><stop offset="0.52" stop-color="#5987c6"/><stop offset="0.79" stop-color="#6497d0"/><stop offset="1" stop-color="#699dd4"/></linearGradient><linearGradient id="linear-gradient-2" x1="-64.34" y1="-526.6" x2="647.82" y2="-522.66" xlink:href="#linear-gradient"/><linearGradient id="linear-gradient-3" x1="-64.29" y1="-533.26" x2="647.87" y2="-529.31" xlink:href="#linear-gradient"/><linearGradient id="linear-gradient-4" x1="-64.34" y1="-527.7" x2="647.82" y2="-523.75" xlink:href="#linear-gradient"/><linearGradient id="linear-gradient-5" x1="-64.53" y1="-493.05" x2="647.64" y2="-489.1" xlink:href="#linear-gradient"/><linearGradient id="linear-gradient-6" x1="-64.52" y1="-498.42" x2="647.68" y2="-494.48" xlink:href="#linear-gradient"/><linearGradient id="linear-gradient-7" x1="-64.53" y1="-497.04" x2="647.64" y2="-493.09" xlink:href="#linear-gradient"/><linearGradient id="linear-gradient-8" x1="-64.53" y1="-495.43" x2="647.64" y2="-491.48" xlink:href="#linear-gradient"/><linearGradient id="linear-gradient-9" x1="-64.7" y1="-462.29" x2="647.46" y2="-458.35" xlink:href="#linear-gradient"/><linearGradient id="linear-gradient-10" x1="-64.7" y1="-459.82" x2="647.46" y2="-455.87" xlink:href="#linear-gradient"/><linearGradient id="linear-gradient-11" x1="-64.76" y1="-457.29" x2="647.45" y2="-453.34" xlink:href="#linear-gradient"/><linearGradient id="linear-gradient-12" x1="-64.75" y1="-454.94" x2="647.41" y2="-450.99" xlink:href="#linear-gradient"/></defs><title>sapphire-updated-title</title><path class="cls-1" d="M116,41.71a5.69,5.69,0,0,1,3.3,3,10.67,10.67,0,0,1,1,4.65,19.09,19.09,0,0,1-.74,5.57,43.51,43.51,0,0,1-1.9,5.57,44.54,44.54,0,0,1-2.42,4.65,16.49,16.49,0,0,1-2.18,3,1.11,1.11,0,0,0-.84,0h-.69a9.35,9.35,0,0,0-4.88.56A9.86,9.86,0,0,0,103,71.11a10.57,10.57,0,0,0-1.86,4,9.35,9.35,0,0,0,0,4.64,7.49,7.49,0,0,1-1.11-5,9.35,9.35,0,0,0,0,4.64,9.73,9.73,0,0,0,2.32,4.64,8.27,8.27,0,0,1-4.88-1.81,9.34,9.34,0,0,1-2.74-3.9,15.43,15.43,0,0,1-1.06-4.64A13.93,13.93,0,0,1,94,69.39a14.85,14.85,0,0,0-1.3,6.73,12.12,12.12,0,0,0,1.53,5.67A10.47,10.47,0,0,0,98.38,85a12.19,12.19,0,0,0,6.31,1.53,8.54,8.54,0,0,1-6.59,1.25,13.91,13.91,0,0,1-7.39-3.9,19.79,19.79,0,0,1-5.06-8.77,25.6,25.6,0,0,1,.28-13.7,33.9,33.9,0,0,0-11.61-4.92,20.75,20.75,0,0,0-9,0,10.62,10.62,0,0,0-5.8,3.71,10,10,0,0,0-2.14,5.94,11.53,11.53,0,0,0,2.14,6.69,18.53,18.53,0,0,0,6.92,5.9,70,70,0,0,1,19,14.39A54.94,54.94,0,0,1,96.1,109.79a43.68,43.68,0,0,1,3.21,17.27A47.19,47.19,0,0,1,96,143.41a44.11,44.11,0,0,1-8.82,13.93,42.25,42.25,0,0,1-13.47,9.57,44.29,44.29,0,0,1-17,3.76,49.33,49.33,0,0,1-19.6-3.81,39.56,39.56,0,0,1-15.14-9.94,38,38,0,0,1-8.27-13.65,41,41,0,0,1-2.27-15.14,48.41,48.41,0,0,1,2.83-14.58,38.28,38.28,0,0,1,6.87-11.84,23,23,0,0,1,10.08-7c-1.21,1.12-3,2.88-5.29,5.25a30.7,30.7,0,0,0-6.09,9.29A26.31,26.31,0,0,1,26,101.15a19.66,19.66,0,0,1,10.63-4.92,14.13,14.13,0,0,1,7.11,1.21,23.25,23.25,0,0,1,6.22,3.94,20.66,20.66,0,0,1,4.32,5.44,9.26,9.26,0,0,1,1.35,5.43,16.25,16.25,0,0,0-10.36,1.63,26,26,0,0,0-8.31,7,32.93,32.93,0,0,0-5.43,10.21,31.68,31.68,0,0,0-1.63,11.43,24.65,24.65,0,0,0,2.79,10.59,17.36,17.36,0,0,0,7.89,7.66,22.55,22.55,0,0,0,14.82,2.5A26.63,26.63,0,0,0,68.24,157a32.51,32.51,0,0,0,8.59-12.54,33.18,33.18,0,0,0,2.27-16.16,39.89,39.89,0,0,0-6.5-17.37,53.39,53.39,0,0,0-17.41-16A51.72,51.72,0,0,1,39,80.39a28.84,28.84,0,0,1-5.62-14.81,20,20,0,0,1,4-13,25.43,25.43,0,0,1,12.12-8.77,45.54,45.54,0,0,1,18.86-2.23A75.21,75.21,0,0,1,92.8,47.89a22.48,22.48,0,0,1,5.58-4.65,22,22,0,0,1,12.3-2.78A17.19,17.19,0,0,1,116,41.71ZM40.66,112.2a16.64,16.64,0,0,0-8.87,7,33.72,33.72,0,0,0-4.65,11.24,38.91,38.91,0,0,0-.88,11.93,18.84,18.84,0,0,0,2.65,9,25.25,25.25,0,0,1-2.14-12.12,43.21,43.21,0,0,1,2.46-11.84,35.1,35.1,0,0,1,5.11-9.61A17.85,17.85,0,0,1,40.66,112.2Zm10.54,2.09h.69a.79.79,0,0,1-.42.75c-.41.23-.51,0-.6,0S50.92,114.53,51.2,114.29Zm1.85,1.77c-.55,0-.79,0-.79-.47a5.11,5.11,0,0,1,.24-1.44,2.15,2.15,0,0,1,.93,1C53.7,115.59,53.56,115.92,53.05,116.06Zm.89-53.68a8.8,8.8,0,0,1,.51-3.67A10,10,0,0,1,57,55a12.33,12.33,0,0,1,4.93-2.84,20.42,20.42,0,0,1,7.89-.69,18.15,18.15,0,0,0-10.54,1.2,11,11,0,0,0-4.37,3.67A8,8,0,0,0,53.94,62.38Zm.69,51.73a4.6,4.6,0,0,1,2.6,0,4.07,4.07,0,0,1,1.67,1.16,2.2,2.2,0,0,1,.56,1.44,1.05,1.05,0,0,1-1,1,1.73,1.73,0,0,1-2.31-.77c0-.1-.08-.19-.11-.29A11.35,11.35,0,0,0,54.63,114.11ZM58.77,58a5.8,5.8,0,0,1,1.3-1.07,15,15,0,0,1,2.32-1.21,24.16,24.16,0,0,1,2.88-.93,8.51,8.51,0,0,1,3,0A4.34,4.34,0,0,0,66,54.48a12.49,12.49,0,0,0-2.88.7,20.48,20.48,0,0,0-2.74,1.35A4.09,4.09,0,0,0,58.77,58Zm21.64,63.75a20.53,20.53,0,0,0-2-8.17,47.63,47.63,0,0,0-4.64-8.08A37.14,37.14,0,0,0,67.26,99,19.6,19.6,0,0,0,61,95.3c1.07.7,2.51,1.72,4.32,3.11a42.67,42.67,0,0,1,5.71,5.2,40,40,0,0,1,5.48,7.76A40.87,40.87,0,0,1,80.41,121.72Zm4.92-9.84A14.74,14.74,0,0,0,84,107.24a26.41,26.41,0,0,0-2.79-4.65,21.69,21.69,0,0,0-3.39-3.71,13,13,0,0,0-3.34-2.19,27.06,27.06,0,0,1,6.18,6.09A27.94,27.94,0,0,1,85.33,111.88Zm3.76,4.36a13.16,13.16,0,0,0-.42-6.5,29.28,29.28,0,0,0-3.16-6.87,32.53,32.53,0,0,0-4.64-5.94,16.49,16.49,0,0,0-5.48-3.63,22.63,22.63,0,0,1,5.29,4.09,34.44,34.44,0,0,1,4.42,5.71,31.4,31.4,0,0,1,3.06,6.6A22.63,22.63,0,0,1,89.09,116.24Zm1.9-5.57a21.7,21.7,0,0,0-3.8-9.94,28,28,0,0,0-3.26-3.62,12.52,12.52,0,0,0-3.25-2.23,27.05,27.05,0,0,1,5.9,6.32A29.48,29.48,0,0,1,91,110.67Zm4.93-46.06a18,18,0,0,1,2.18-2.19A18.54,18.54,0,0,1,101.39,60a17.3,17.3,0,0,1,4.18-1.72,15.18,15.18,0,0,1,5.11-.42,12.14,12.14,0,0,0-5.43,0,17.05,17.05,0,0,0-4.64,1.77,12,12,0,0,0-3.16,2.64A8.4,8.4,0,0,0,95.92,64.61Z"/><path class="cls-2" d="M169.66,105a4.67,4.67,0,0,1,1.9-2.28,2.64,2.64,0,0,1,2.18-.37,2.29,2.29,0,0,1,1.4,1.58,5.55,5.55,0,0,1-.47,3.67,71.39,71.39,0,0,1-2.64,6.92c-1.21,2.83-2.6,5.76-4.23,8.92s-3.39,6.17-5.34,9.28a50.07,50.07,0,0,1-6.27,8.08,24.87,24.87,0,0,1-6.73,5.11,10.4,10.4,0,0,1-7.25.79,8.87,8.87,0,0,1-5-3.11,13,13,0,0,1-2.46-5.67,26.42,26.42,0,0,1-6.27,8.08A16.92,16.92,0,0,1,118,149.73a7.86,7.86,0,0,1-7.85-3.91,21.5,21.5,0,0,1-2.32-10.63A70.86,70.86,0,0,1,109.57,121a123.15,123.15,0,0,1,4.13-14.72,96.85,96.85,0,0,1,5.11-12.12,17,17,0,0,1,4.64-6.32,27.28,27.28,0,0,1,13.47-4.36,16.88,16.88,0,0,1,10,2.69l.56-1.62a12.53,12.53,0,0,1,.79-1.44c0-.37,1.06-.61,3-.84a32.3,32.3,0,0,1,5.9,0,15.29,15.29,0,0,1,5.24,1.3,2,2,0,0,1,1,3.11c-1.21,2.33-2.65,5.11-4.32,8.5s-3.39,6.83-5.07,10.5-3.25,7.33-4.64,11a100.88,100.88,0,0,0-3.76,10.08,37.28,37.28,0,0,0-1.72,7.75c0,2.09.28,3.44,1.3,4a4.18,4.18,0,0,0,4.65-.75,23.74,23.74,0,0,0,5.15-5.2,65.17,65.17,0,0,0,5.11-7.71c1.62-2.92,3.11-5.71,4.64-8.45a73.37,73.37,0,0,0,3.39-7.24C169.1,107,169.29,105.61,169.66,105Zm-53.87,33.62A55.38,55.38,0,0,1,117,127.76q1.26-5.85,2.93-11.28c1.11-3.63,2.23-6.88,3.39-9.8a64.51,64.51,0,0,1,2.5-6,38.29,38.29,0,0,0-3,6.09c-1.21,3-2.42,6.31-3.58,10.07a102,102,0,0,0-2.83,11.43A38.37,38.37,0,0,0,115.79,138.58Zm18.11,1.67c.53.84.67,1.4.42,1.67s-.47.28-.6,0a11.31,11.31,0,0,1-3.67,4.65,21.83,21.83,0,0,1-4.88,2.78,19.22,19.22,0,0,1-4.64,1.26,6.9,6.9,0,0,1-2.79,0,21.89,21.89,0,0,0,6.32-1.53,20.31,20.31,0,0,0,4.64-2.7,19.88,19.88,0,0,0,3.11-3.11A17.47,17.47,0,0,0,133.9,140.25Zm-11.93.84c2,.93,4.87-2.46,8.45-10.13a245.53,245.53,0,0,0,11.89-34.82,1.58,1.58,0,0,0-.84-1.63,6.34,6.34,0,0,0-2.74-1.11,8.31,8.31,0,0,0-3.44,0,4.62,4.62,0,0,0-2.92,1.95,13.23,13.23,0,0,0-1.16,2.32c-.61,1.3-1.3,3-2.14,5.06s-1.72,4.41-2.69,7-1.81,5.3-2.65,8c1.35-4.09,2.79-7.85,4.23-11.28a53.78,53.78,0,0,1,3.48-7.06c-.23.79-.79,2.23-1.67,4.36s-1.86,4.65-2.88,7.43-2,5.85-3.07,9.29-1.76,6.27-2.36,9.29a36.83,36.83,0,0,0-.89,7.47A4.68,4.68,0,0,0,122,141.09Zm3.34,2.13a8.78,8.78,0,0,0,2.69-2.46,34.16,34.16,0,0,0,2.88-4.64,45.74,45.74,0,0,0,2.42-5.34,30.74,30.74,0,0,0,1.44-5.34,30.39,30.39,0,0,1-1.49,4.27c-.74,1.81-1.58,3.67-2.55,5.53s-1.9,3.42-3,5.06A7.36,7.36,0,0,1,125.31,143.22Zm8.64,1c-.42,0-.61,0-.56-.47a2.6,2.6,0,0,1,.42-1,2,2,0,0,1,.56.84c.13.37,0,.6-.42.65Zm.32-1.53v-.42a.33.33,0,0,1,.42,0v.37c0,.37-.28.28-.42,0Z"/><path class="cls-3" d="M229.89,99a4.61,4.61,0,0,1,2-2.23,2.52,2.52,0,0,1,2.18-.37A2.18,2.18,0,0,1,235.37,98a5.48,5.48,0,0,1-.42,3.67c-.7,1.81-1.67,4.18-2.93,7.19a69.3,69.3,0,0,1-4.64,9.29c-1.9,3.16-3.67,6.64-5.76,9.94a59.6,59.6,0,0,1-6.69,8.73,28.8,28.8,0,0,1-7.24,5.8,9.73,9.73,0,0,1-7.38,1.07,10.08,10.08,0,0,1-5.81-3.76,14.75,14.75,0,0,1-2.23-8.36,57.57,57.57,0,0,1,1.95-13.93,170.16,170.16,0,0,1,7-21.13,24.74,24.74,0,0,0-7.8,4.23,42.82,42.82,0,0,0-7.53,7.57A67.45,67.45,0,0,0,179,118.89a69.59,69.59,0,0,0-5.3,13c-1.58,5.06-3,9.56-4.22,13.42s-2.37,7.06-3.35,9.7c-.32.88-.74,2.05-1.21,3.49a31.48,31.48,0,0,1-1.71,4.17,19.47,19.47,0,0,1-2.51,3.81,9.34,9.34,0,0,1-3.53,2.56,9.41,9.41,0,0,0,1.72-3.76,20.78,20.78,0,0,0,.51-3.67,11.61,11.61,0,0,1-2.51,2.18l-1.9,1.35a15,15,0,0,1,1.11-5.34,9.77,9.77,0,0,1-2.51,2.92,18.51,18.51,0,0,1-2.92,1.86,10.61,10.61,0,0,0,1.16-2.93c.29-.93.54-1.87.74-2.83a6.07,6.07,0,0,1-.65,1c-.32.51-.74,1.12-1.21,1.95,2-5.8,4.14-12.49,6.64-20.06s4.93-15.23,7.34-22.85,4.65-14.72,6.6-21.31,3.43-11.66,4.36-15.37a10.42,10.42,0,0,1,3.44-2,34.12,34.12,0,0,1,4.64-1.44,20.43,20.43,0,0,1,4.18-.65,7,7,0,0,1,2.65,0l-2.42,7c-.88,2.55-1.76,5.29-2.64,8.26a21.52,21.52,0,0,1,2-3.25,50,50,0,0,1,3.53-4.32,48.36,48.36,0,0,1,4.64-4.41,26.81,26.81,0,0,1,5.53-3.57,25.5,25.5,0,0,0-3.63,2.92,63.48,63.48,0,0,0-4.64,4.65,45.49,45.49,0,0,1,7.06-5.62,20.68,20.68,0,0,1,7.06-3A14.32,14.32,0,0,1,212,79.79a20.93,20.93,0,0,1,5.66,9.06,17.32,17.32,0,0,1,.84,3.48c-2.93,6.08-5.43,11.75-7.62,17s-3.9,9.7-5.24,13.51a66.7,66.7,0,0,0-2.6,9.29c-.42,2.37-.28,3.67.41,3.95a4.65,4.65,0,0,0,4.88-1,26.48,26.48,0,0,0,5.43-5.8,71.25,71.25,0,0,0,5.44-8.5c1.71-3.2,3.34-6.27,4.64-9.29s2.65-5.52,3.67-7.75S229.52,99.62,229.89,99Zm-67.76,42.44a10.45,10.45,0,0,1-.6,2.19c-.46,1.25-.88,2.6-1.35,4s-.88,2.74-1.25,3.94-.6,2-.7,2.23.38-1.07.79-2.13.93-2.33,1.44-3.77l1.67-4.64c.61-1.67,1.17-3.25,1.68-4.64a2.14,2.14,0,0,0-.89,1.06c-.29.55-.55,1.11-.79,1.68Zm-3.52,15.79a31.18,31.18,0,0,0,1.39-3.06c.7-1.63,1.35-3.3,1.95-5.06s1.25-3.39,1.76-4.93a17.11,17.11,0,0,0,.84-3.16c-.28.84-.65,2-1.21,3.53s-1.21,3.12-1.86,4.65-1.2,3.2-1.71,4.64Zm5.2-18.57a39.37,39.37,0,0,0,1.39-4.09l1.76-5.9c.65-2,1.21-3.9,1.68-5.62a28.27,28.27,0,0,1,1-3.2A19.64,19.64,0,0,0,168.4,123c-.55,1.62-1.11,3.39-1.71,5.15s-1.12,3.53-1.63,5.11-.79,2.51-.88,2.74a5.26,5.26,0,0,0-.51,1.44c-.28.37-.28.79.14,1Zm6.54,0a98,98,0,0,1,5.3-15.56,83.75,83.75,0,0,1,5.57-10.77,46.37,46.37,0,0,1,4.92-6.64c1.49-1.58,2.6-2.65,3.3-3.3a41.75,41.75,0,0,0-10.91,13.93,94.28,94.28,0,0,0-8.18,22.1Zm29-1.58c-1.3-.93-1.16-5.11.47-12.45a145,145,0,0,1,12-30.37,42.12,42.12,0,0,0-3,5.06c-1.16,2.33-2.41,4.65-3.67,7.76s-2.41,5.9-3.53,9.29-2,6.17-2.69,9a29.12,29.12,0,0,0-1.07,7.43,5.67,5.67,0,0,0,1.44,4Zm2.14-6.46a2.5,2.5,0,0,1-.37,1.35,6.65,6.65,0,0,0,0,2.18,5.71,5.71,0,0,0,.6,2.14,3.22,3.22,0,0,0,1.9,1.53,3.42,3.42,0,0,1-2.09-2.65,13.7,13.7,0,0,1,0-4.78Z"/><path class="cls-4" d="M290.16,92.93a4.66,4.66,0,0,1,1.91-2.27,2.75,2.75,0,0,1,2.18-.37,2.49,2.49,0,0,1,1.39,1.57,5.8,5.8,0,0,1-.46,3.67c-.7,1.81-1.67,4.23-2.93,7.2a66.42,66.42,0,0,1-4.64,9.29c-1.95,3.16-3.48,6.87-5.57,10.17a62.93,62.93,0,0,1-6.69,8.73,29.67,29.67,0,0,1-7.25,5.8,9.86,9.86,0,0,1-7.38,1.07,10.23,10.23,0,0,1-5.8-3.81,13.94,13.94,0,0,1-2.19-8.31,55.09,55.09,0,0,1,2-13.93,167.38,167.38,0,0,1,6.92-21.18,25.92,25.92,0,0,0-7.8,4.23,47.75,47.75,0,0,0-7.71,7.66,72.77,72.77,0,0,0-6.92,10.68A79.2,79.2,0,0,0,233.88,126c-1.53,5.11-3,9.57-4.23,13.42s-2.36,7.11-3.29,9.71q-.56,1.4-1.26,3.48a29.7,29.7,0,0,1-1.71,4.23,15.87,15.87,0,0,1-2.47,3.76,10.16,10.16,0,0,1-3.52,2.6,9.37,9.37,0,0,0,1.71-3.9,19,19,0,0,0,.51-3.67,10.26,10.26,0,0,1-2.46,2.23c-1,.65-1.62,1.07-1.95,1.34a15.54,15.54,0,0,1,1.12-5.38,9.7,9.7,0,0,1-2.51,3,19.07,19.07,0,0,1-2.93,1.86,14.14,14.14,0,0,0,1.21-2.93,28.11,28.11,0,0,0,.7-2.88,6.11,6.11,0,0,1-.65,1.07,21.8,21.8,0,0,0-1.21,2c1.95-5.8,4.18-12.49,6.64-20.11s4.92-15.18,7.34-22.84,4.64-14.72,6.59-21.27S235,80,235.88,76.26a10.82,10.82,0,0,1,3.43-2A34.26,34.26,0,0,1,244,72.87a26.17,26.17,0,0,1,4.22-.7,7.86,7.86,0,0,1,2.65,0c-.7,2-1.44,4.32-2.28,6.88l-2.64,8.22a22.43,22.43,0,0,1,2-3.25,43.43,43.43,0,0,1,3.49-4.28A55.22,55.22,0,0,1,256,75.33a25.76,25.76,0,0,1,5.53-3.57,24.56,24.56,0,0,0-3.63,2.88c-1.43,1.3-2.92,2.78-4.64,4.64a46.81,46.81,0,0,1,7.11-5.67,20.07,20.07,0,0,1,7-3,13.74,13.74,0,0,1,5.06,3.11,20.24,20.24,0,0,1,3.58,4.65A21,21,0,0,1,278.13,83a18.57,18.57,0,0,1,.84,3.44c-2.88,6.13-5.43,11.75-7.62,17s-3.9,9.66-5.2,13.47a67.86,67.86,0,0,0-2.64,9.29c-.44,2.32-.3,3.62.41,3.9a4.67,4.67,0,0,0,4.93-1,28.77,28.77,0,0,0,5.38-5.8,73.57,73.57,0,0,0,5.25-9.06c1.77-3.2,3.35-6.27,4.65-9.28s2.69-5.48,3.66-7.76A34.4,34.4,0,0,1,290.16,92.93Zm-67.8,42.45a12,12,0,0,1-.6,2.18l-1.35,4c-.46,1.44-.88,2.74-1.25,4s-.6,1.95-.65,2.18a15.25,15.25,0,0,1,.74-2.09c.47-1.12.93-2.37,1.44-3.76l1.67-4.65c.61-1.62,1.16-3.25,1.68-4.64-.24,0-.52.28-.89,1.07s-.6,1.25-.79,1.72Zm-3.53,15.78a24.82,24.82,0,0,0,1.4-3.11c.69-1.58,1.34-3.25,2-5s1.21-3.44,1.72-5a16.82,16.82,0,0,0,.84-3.11c-.23.79-.65,1.95-1.21,3.48s-1.16,3.16-1.81,4.64-1.25,3.26-1.76,4.65-.89,2.74-1.17,3.43ZM224,132.59a32.82,32.82,0,0,0,1.39-4.09c.56-1.9,1.16-3.9,1.81-5.94s1.16-3.9,1.63-5.57.83-2.79,1-3.25a20.9,20.9,0,0,0-1.26,3.15l-1.72,5.21c-.55,1.81-1.11,3.52-1.62,5.1s-.79,2.46-.88,2.7a7.85,7.85,0,0,0-.51,1.48c-.14.42-.14.84.14,1Zm6.59,0A95.89,95.89,0,0,1,235.88,117a97.07,97.07,0,0,1,5.57-10.77,44.39,44.39,0,0,1,4.92-6.64c1.49-1.58,2.6-2.69,3.3-3.3a41.75,41.75,0,0,0-10.91,13.93,93.2,93.2,0,0,0-8.13,22.15ZM259.56,131c-1.3-1-1.16-5.11.46-12.44a146.53,146.53,0,0,1,12-30.42,38,38,0,0,0-2.92,5.06c-1.21,2.32-2.42,4.92-3.67,7.8a99.45,99.45,0,0,0-3.58,9.29c-1.11,3.44-2,6.18-2.69,9a31.66,31.66,0,0,0-1.07,7.43,6,6,0,0,0,1.44,4.14Zm2.14-6.45a2.44,2.44,0,0,1-.38,1.34,7,7,0,0,0,0,2.14,6,6,0,0,0,.66,2.18,3.22,3.22,0,0,0,1.85,1.53,3.59,3.59,0,0,1-2.09-2.69,14.76,14.76,0,0,1,0-4.69Z"/><path class="cls-5" d="M347,87.27a4.57,4.57,0,0,1,1.9-2.28,2.79,2.79,0,0,1,2.18-.37,2.25,2.25,0,0,1,1.39,1.58,5.2,5.2,0,0,1-.46,3.67,71.4,71.4,0,0,1-2.79,7.2,85.36,85.36,0,0,1-4.64,9.28,91.72,91.72,0,0,1-5.76,10A67.66,67.66,0,0,1,332.1,125a28.19,28.19,0,0,1-7.2,5.85,9.59,9.59,0,0,1-7.29,1,13.17,13.17,0,0,1-6.46-3.71,14.19,14.19,0,0,1-3.43-8.69,48,48,0,0,1,1.57-15.6,155.36,155.36,0,0,1,8.5-24.47,14,14,0,0,0-4.92,4.27,78.26,78.26,0,0,0-6.55,9.61c-2.32,4-4.64,8.83-7.29,14.31a176.33,176.33,0,0,0-7.34,18.57c-.32.93-.65,1.86-.92,2.88a24.41,24.41,0,0,1-1,2.88,2.88,2.88,0,0,1-2.92.37,7.14,7.14,0,0,1-2.88-2,13.29,13.29,0,0,1-2.37-3.2,11,11,0,0,1-1.3-3.06,23.43,23.43,0,0,1,.88-2.56c.42-1.16.93-2.41,1.44-3.76l1.53-4.27q.75-2.23,1.26-3.9c-.42,1-.93,2.27-1.44,3.76s-1.07,2.92-1.68,4.64a40.27,40.27,0,0,1-1.67,4,5.34,5.34,0,0,1-1.2,2.09c4.36-12.68,8-24.33,11.09-35S296,69.2,297.78,61.17A163.9,163.9,0,0,0,301.21,42a18.94,18.94,0,0,0-.46-9.57,5,5,0,0,1,3.34-1,12.72,12.72,0,0,1,5.11.88,11.24,11.24,0,0,1,4.65,3.21,8.55,8.55,0,0,1,1.85,5.94,4.64,4.64,0,0,0,.51-3.2,5.28,5.28,0,0,1,.84,2.64,19.12,19.12,0,0,1,0,3.21,28.44,28.44,0,0,1-.74,3.29c-.33,1.07-.65,1.95-.89,2.65a29,29,0,0,0,1.44-3.62,9.29,9.29,0,0,0,.75-3.86,9.63,9.63,0,0,1,0,5.11c-.56,1.81-1.3,4-2.23,6.64a27.79,27.79,0,0,1,2.13-4.13,11.69,11.69,0,0,1,2.7-3.39,134.59,134.59,0,0,0-5.62,12.72c-2.23,5.48-4.27,11.2-6.18,17.23a52.15,52.15,0,0,1,8.22-8.45,19.4,19.4,0,0,1,8.55-4.23,16.19,16.19,0,0,1,4.64,4.65,24.55,24.55,0,0,1,2.83,5.8A30.43,30.43,0,0,1,333.91,80a28.66,28.66,0,0,1,.32,3.81,277.72,277.72,0,0,0-11.93,28.65c-2.28,6.92-2.79,10.68-1.54,11.33a4.65,4.65,0,0,0,4.93-1,27.73,27.73,0,0,0,5.43-5.81,80.58,80.58,0,0,0,5.39-8.49q2.64-4.65,4.87-9.29c1.44-3,2.7-5.57,3.72-7.8S346.72,87.92,347,87.27ZM299.68,97.9c-.46.93-1.16,2.51-2.09,4.64s-1.9,4.65-3,7.2l-2.93,7L290,120.93c.28-.46.93-1.85,2-4.18s2.09-4.64,3.21-7.38,2.09-5.06,3-7.34Zm-9.29,30.37A121.49,121.49,0,0,1,295,114.9c1.95-5.06,4.13-10,6.55-14.86a120.19,120.19,0,0,1,7.47-13.1,28.1,28.1,0,0,1,7.43-8.12,22.55,22.55,0,0,0-6.36,6,90.07,90.07,0,0,0-6,9.29c-1.9,3.39-3.66,6.92-5.34,10.63s-3.06,7.2-4.22,10.41-2.09,6-2.84,8.4A23.15,23.15,0,0,0,290.39,128.27Zm16.72-54.79-.65,2.36a32.88,32.88,0,0,0-.83,3.21c-.28,1.11-.56,2.23-.75,3.29a22.23,22.23,0,0,0-.41,2.42,26.16,26.16,0,0,1,3.39-4.64c1.62-1.82,3.34-3.58,5.06-5.3s3.43-3.2,5.06-4.64a34.41,34.41,0,0,1,3.34-2.65,16,16,0,0,0-3.2,2.14c-1.44,1.11-2.93,2.41-4.65,3.9a63.47,63.47,0,0,0-4.64,4.64A37,37,0,0,0,305,82.86a4.49,4.49,0,0,1,.37-2,12.34,12.34,0,0,0,.56-2.74c.19-1,.33-2,.51-2.88a12.62,12.62,0,0,1,.88-1.81Zm5.39-16.82c-.28.56-.6,1.44-1.07,2.65L310.18,63c-.44,1.27-.81,2.43-1.12,3.48s-.55,1.77-.65,2.09a9,9,0,0,0,.75-2c.37-1.16.78-2.51,1.3-3.9s1-2.74,1.34-4,.61-1.85.7-2.09Zm-2.37,23.73,1.58-1.57c.84-.89,1.76-1.86,2.83-2.84s2.09-1.85,3.16-2.69a5.46,5.46,0,0,1,2.41-1.3,2.74,2.74,0,0,0-1.95.7c-.83.69-1.85,1.39-2.92,2.32a34.18,34.18,0,0,0-3,2.92C311.34,79,310.59,80,310.13,80.39Zm5.53-45.27c.74,0,.88.51.46,1.76a3,3,0,0,1-.65-1c-.23-.28-.19-.51.19-.56Zm2.78,84.05a8.48,8.48,0,0,0-.46,3.67,3.63,3.63,0,0,0,1.25,2.69,3.76,3.76,0,0,0,3.16.47,12.4,12.4,0,0,0,5.15-2.79,12.7,12.7,0,0,1-5.66,2.6,2.89,2.89,0,0,1-2.79-1,4.72,4.72,0,0,1-.88-2.88,11.42,11.42,0,0,1,.23-2.55ZM320,39.44a.87.87,0,0,1-.2,1.23l0,0c-.37.33-.79,0-1.16-.28a1,1,0,0,1,.28-1.21.8.8,0,0,1,1.07.32,1,1,0,0,0,0,.1Zm4.65-4.09a2.16,2.16,0,0,1,0,2.6,5.83,5.83,0,0,1-3.44,2.51,4.65,4.65,0,0,1,.88-4.32c1.35-.93,2.14-1.21,2.74-.6Z"/><path class="cls-6" d="M381.13,83.83A4.72,4.72,0,0,1,383,81.6a2.75,2.75,0,0,1,2.18-.37,2.19,2.19,0,0,1,1.4,1.58,7.29,7.29,0,0,1-.38,3.67c-.92,2.69-2.41,6.31-4.36,10.86a88.07,88.07,0,0,1-7.15,13.29,52,52,0,0,1-9.29,11.14,16.24,16.24,0,0,1-11.56,4.64,11.19,11.19,0,0,1-9.29-4.64,20.53,20.53,0,0,1-2.93-12.72,68.56,68.56,0,0,1,4.23-19.55,150.64,150.64,0,0,1,11.94-25.22c-.24.56-.56,1.25-.84,2s-.6,1.63-.84,2.42-.51,1.48-.69,2a5.25,5.25,0,0,1-.47,1,15,15,0,0,1,1.12-2.64c.51-1,1-1.91,1.53-2.7a13.44,13.44,0,0,1,1.62-2.13,4.15,4.15,0,0,1,1.44-1.16,37,37,0,0,1,7.06-1.35,31,31,0,0,1,7,.32,8.51,8.51,0,0,1,4.37,1.77c.88.84.74,2-.42,3.25.28-.46,0-.84-.51-1.11s-1.58.27-2.88,1.62a68.19,68.19,0,0,0-5.57,7.62c-1.95,3.06-3.76,6.27-5.48,9.66s-3.2,6.87-4.64,10.35a80.58,80.58,0,0,0-3.16,9.57,31.57,31.57,0,0,0-1.12,7.43c0,2,.51,3.34,1.54,3.9a4.28,4.28,0,0,0,4.64-.56,19.41,19.41,0,0,0,5-4.92,80.74,80.74,0,0,0,5-7.48c1.63-2.78,3.07-5.52,4.37-8.17l3.25-7C380.16,85.87,380.76,84.53,381.13,83.83Zm-28.6,29.35a6.1,6.1,0,0,0,1.34,4A5.59,5.59,0,0,0,357,119a7.82,7.82,0,0,0,4-.55,10.15,10.15,0,0,0,3.85-3,12.12,12.12,0,0,1-4,2.78,6.93,6.93,0,0,1-3.95.38,5.65,5.65,0,0,1-3-1.77A6,6,0,0,1,352.53,113.18ZM370,70.83a47.28,47.28,0,0,0-4.27,6.5c-1.58,2.79-3.12,5.85-4.65,9.29s-2.83,6.73-4.08,10.21a63.57,63.57,0,0,0-2.7,9.57,26.22,26.22,0,0,0-.42,7.29c.28,1.9,1.17,3,2.74,3.16-1.62-.51-2.41-1.91-2.5-4.18a33.11,33.11,0,0,1,1.06-8.17,70.83,70.83,0,0,1,3.26-10.17c1.43-3.58,2.87-7,4.41-10.13s2.88-6,4.18-8.4a46.92,46.92,0,0,1,3-5ZM365.62,56.9a3.26,3.26,0,0,1-2.74-2.19,4.68,4.68,0,0,1,.42-3.34A6.52,6.52,0,0,1,366,48.49a5.88,5.88,0,0,1,4.27-.79c-.69.84-.32,1.26,1.12,1.21a32.74,32.74,0,0,0,5.66-.74,5.92,5.92,0,0,1,5.71,1.25c1.26,1.3.93,3.3-.88,6a7,7,0,0,1-3.29,2.27A18.32,18.32,0,0,1,374,58.89a16.93,16.93,0,0,1-4.87-.27,5.44,5.44,0,0,1-3.49-1.44Zm3.16-8c-.88,1-.79,1.44.33,1.44a29.66,29.66,0,0,0,4.31-.41,49.09,49.09,0,0,1,5.53-.56,4.63,4.63,0,0,1,3.81.93,3.26,3.26,0,0,0-3.35-1.21,41.55,41.55,0,0,0-5.2.51l-4.64.51c-1,.19-1.35-.23-.79-1.16Z"/><path class="cls-7" d="M379.09,106.07a34.06,34.06,0,0,0,2.83-5.38c1.21-2.65,2.46-5.48,3.76-8.59s2.46-6.09,3.63-9.29,2-5.29,2.55-7l-.56-.28-.6-.28c-.84,2.65-1.81,5.25-2.83,7.94s-2.23,5.34-3.49,8c-.55,1.16-1.11,1.67-1.67,1.58a2.61,2.61,0,0,1-1.58-1.26,7,7,0,0,1-1.11-2.6,3.84,3.84,0,0,1,0-2.37c.93-2.09,1.81-4.31,2.74-6.68s1.76-4.65,2.65-7a12.49,12.49,0,0,1-6.13-13.94,8.67,8.67,0,0,1,4.64-6.22,6.86,6.86,0,0,1,3.39-.74,5.21,5.21,0,0,1,3.16,1.25,7.16,7.16,0,0,1,2.74,4.32,18.16,18.16,0,0,1,0,6.41,37.63,37.63,0,0,0,9.61,4,.59.59,0,0,0,0-.37,36.72,36.72,0,0,1,4.64-9.29,24.57,24.57,0,0,1,5.62-5.71,14,14,0,0,1,5.76-2.46,9.71,9.71,0,0,1,5.2.47,7.6,7.6,0,0,1,3.58,2.92,9.66,9.66,0,0,1,1.62,4.64,17.2,17.2,0,0,1-.42,5.72,18.77,18.77,0,0,1-2.36,5.66,23.07,23.07,0,0,0,1.85-2.74,14,14,0,0,0,1.3-3.16,13.43,13.43,0,0,1-3.06,6.78,23.15,23.15,0,0,1-5.43,5.39,19.44,19.44,0,0,1-5.67,2.55h-.79c-1.49,3.67-2.88,7.34-4.13,11.1a102.27,102.27,0,0,0-3,10.41,44.07,44.07,0,0,0-1.16,8.17c0,2.27.46,3.62,1.48,4a4.64,4.64,0,0,0,4.65-.61,25.45,25.45,0,0,0,5.11-5.15,65.67,65.67,0,0,0,5.1-7.29c1.63-2.93,3.12-5.76,4.65-8.5a62.88,62.88,0,0,0,3.34-7.34c.88-2.13,1.53-3.53,1.91-4.22a4.56,4.56,0,0,1,1.81-2.23,2.42,2.42,0,0,1,2.13-.37,2.22,2.22,0,0,1,1.35,1.58,5.48,5.48,0,0,1-.42,3.67c-.6,1.81-1.48,4.13-2.69,7s-2.56,5.8-4.13,8.87a95,95,0,0,1-5.35,9.28,56.32,56.32,0,0,1-6.5,7.71,23,23,0,0,1-6.87,5.2A10.35,10.35,0,0,1,398,115l0-.05a25.09,25.09,0,0,1-2.32-10.12,56.22,56.22,0,0,1,1-13A126,126,0,0,1,400,77.93a17.05,17.05,0,0,1-3.67-.69,29.49,29.49,0,0,1-3.71-1,42.61,42.61,0,0,1-1.86,7,93.55,93.55,0,0,1-3.48,8.82c-1.35,3-2.79,5.8-4.27,8.41A23.89,23.89,0,0,1,379.09,106.07Zm9.52-44.85c.32-2.09,0-3.3-.84-3.53s-1.34,0-1.3.55A6.28,6.28,0,0,0,388.61,61.22Zm9.05,31.67c-.32,2.22-.55,4.64-.74,7.15a43.3,43.3,0,0,0,0,7.38,22.21,22.21,0,0,0,1.77,6.64,11.2,11.2,0,0,0,4.64,5.06,19.73,19.73,0,0,1-3.53-4,15.57,15.57,0,0,1-1.95-5,34.56,34.56,0,0,1-.65-7.1A92.55,92.55,0,0,1,397.66,92.89Zm24.06-22.62A11.24,11.24,0,0,1,419,72.73a12.1,12.1,0,0,1-3.44,1.91,10,10,0,0,0,3.76-1.86C420.79,71.8,421.58,71.11,421.72,70.27Zm3.48-13.19a15.79,15.79,0,0,1,.37,2.37,10,10,0,0,1-.51,3.67,15.69,15.69,0,0,1-2.51,4.64A23.81,23.81,0,0,1,417,72.69a16.45,16.45,0,0,0,7.8-8.13,9.93,9.93,0,0,0,.37-7.38Zm-2.55,5.67a6.75,6.75,0,0,0,.56-1.58s-.33,0-.75.7a24.78,24.78,0,0,0-1.58,2.22l-1.95,2.84a11.51,11.51,0,0,0,3.72-4.18Zm3.67-8.92a9.71,9.71,0,0,1,1.76,3.35,10.94,10.94,0,0,1,.47,3.9,10.7,10.7,0,0,0-.89-5.58,10.78,10.78,0,0,0-1.34-1.67Z"/><path class="cls-8" d="M485.43,74.45a7.48,7.48,0,0,1,2.18-3,2.78,2.78,0,0,1,2.23-.61,2,2,0,0,1,1.49,1.4,4.93,4.93,0,0,1-.33,3.25,63.47,63.47,0,0,1-8.22,17,71.58,71.58,0,0,1-11.47,13.28,51.36,51.36,0,0,1-12.49,8.5,23.23,23.23,0,0,1-11.24,2.6,17.39,17.39,0,0,1-13-6,24.39,24.39,0,0,1-5.25-13.09,43.48,43.48,0,0,1,1.54-16.44,51.9,51.9,0,0,1,7.47-16,39,39,0,0,1,12.31-11.56,25.34,25.34,0,0,1,16.11-3.44,9.29,9.29,0,0,1,6.6,3.53,15.67,15.67,0,0,1,3,8,32.51,32.51,0,0,1-.75,10.77A52.49,52.49,0,0,1,471,84.85a63.74,63.74,0,0,1-8.13,12.4,57.2,57.2,0,0,1-11.56,11,23,23,0,0,0,8.54-3.39,55.77,55.77,0,0,0,9.29-7.34,76,76,0,0,0,9-10.36A66.83,66.83,0,0,0,485.43,74.45Zm-43.84,26.89c1-.56,2.09-1.16,3.12-1.81a19.08,19.08,0,0,0,2.74-2.09,8.88,8.88,0,0,1-2.23,1.39l-1.68.65a34.87,34.87,0,0,0,6.09-4.64,43.24,43.24,0,0,0,4.64-5.48,52.57,52.57,0,0,0,3.39-5.44,39.14,39.14,0,0,0,2.18-4.64,22,22,0,0,0,1.63-8.54c0-2.42-1.11-3.58-3-3.49A9.3,9.3,0,0,0,451.81,71a37,37,0,0,0-6,9,51.69,51.69,0,0,0-3.9,11.14A24.53,24.53,0,0,0,441.59,101.34Zm27.17-14.72a24.65,24.65,0,0,1-2.88,5c-1.45,2-3,4-4.64,5.89s-3.58,3.86-5.34,5.67a41.12,41.12,0,0,1-4.65,4,34.26,34.26,0,0,0,3.07-2.27c1.48-1.26,3.2-2.84,5.11-4.65a50,50,0,0,0,5.43-6.36A31.83,31.83,0,0,0,468.76,86.62Zm-1.63-19.55a6.3,6.3,0,0,0-7.43-7.53,6.13,6.13,0,0,0-3.48,2,8.77,8.77,0,0,1,7-.46A7,7,0,0,1,467.13,67.07Zm-4.27,2a4.26,4.26,0,0,0-1.44-3.2,3.58,3.58,0,0,0-4.18-.33,5.46,5.46,0,0,1,3.39,0A3.48,3.48,0,0,1,462.86,69.11Zm11.29-7.29a12.85,12.85,0,0,0-1.63-5.67,9,9,0,0,0-3-3.15,7.62,7.62,0,0,0-3.71-1.12,16.36,16.36,0,0,0-3.76.28,11.48,11.48,0,0,1,7.38,1.49A10.81,10.81,0,0,1,474.15,61.82Zm-3.21,25.49a56.2,56.2,0,0,0,5.48-13.42,33.34,33.34,0,0,0,.88-13.7,12.55,12.55,0,0,1,.89,4.09,29.06,29.06,0,0,1-.24,6.59,36.1,36.1,0,0,1-2.18,8,32.53,32.53,0,0,1-4.83,8.5Z"/><path class="cls-9" d="M148.06,52.81v.37l-.51.33a4.28,4.28,0,0,0-1.16,1.2,3.14,3.14,0,0,1-1.16,1.07h0a1.29,1.29,0,0,1-.37.33,1.79,1.79,0,0,0-.56.6,4.23,4.23,0,0,1-.51.61,1.25,1.25,0,0,1-.37.74,1.79,1.79,0,0,1-.88.88.38.38,0,0,0,0,.33c0,.65.37.92.88.88h.23a1.57,1.57,0,0,1,.61,0,1,1,0,0,0,.65-.28,1.43,1.43,0,0,1,.65,0h.55l1.54-.47h1.06a1.32,1.32,0,0,0,.56,0l.47-.27h.6l.79-.33,1.07-.28h3.85c1,0,1.63,0,1.77.56l.6,1a2.77,2.77,0,0,1,.37.7h0v.65c0,.47,0,.74-.23.84s-.37,0-.42.32h0a1.42,1.42,0,0,1-1.25-.74h-.47a1.28,1.28,0,0,1-.55,0,2.25,2.25,0,0,1-.7-.33h-1.11a3.9,3.9,0,0,0-1,.38L150,62.7h-.56a2,2,0,0,0-1.11.47h-1.07l-3.25.88h-.7a1,1,0,0,0,0,.42c0,.23-.23.32-.51.37a2.49,2.49,0,0,1-1.62-.33h-.7a1.53,1.53,0,0,0-.23-.46l-.28-.56-.33-.46a1.9,1.9,0,0,1-.32-1,3.63,3.63,0,0,1,.37-2.6,2.8,2.8,0,0,0,.65-.88,8.58,8.58,0,0,1,1.95-2.6l.88-1.12h0l.75-.74,1-.93.88-.79,1-.93a13.4,13.4,0,0,1,2.13-1.85h.47l.23-.33a1.74,1.74,0,0,1,.83-.37l1.72-1.3.84-.42,1-.6a3.7,3.7,0,0,1,1.12-.61l.6-.32.42-.47.7-.41a2,2,0,0,0,.74-.51,5.67,5.67,0,0,1,1-.65,1,1,0,0,0,.65-1.07c0-.28,0-.42-.51-.42a2.62,2.62,0,0,1-.79,0H155.4a1.52,1.52,0,0,0-.6,0h-1.21a7.5,7.5,0,0,0-1.16.6h0a.45.45,0,0,1-.28,0h-.6l-1,.56a2.51,2.51,0,0,1-.65.47,1.43,1.43,0,0,0-.46.27.4.4,0,0,1-.37,0h-.61l-.32.28c-.33.28,0,.23-.28.23s-1-.51-1.16-1.81a2.49,2.49,0,0,1,.46-1.44,1.75,1.75,0,0,1,1.12-.83l1.76-.42h.7l.6-.42h1.07l1.63-.37h3.62c.6,0,1.39.47,2.32,1.63l.7.69a2.51,2.51,0,0,1,.65,1.63,1.82,1.82,0,0,1-.38,1.16v.28a6.6,6.6,0,0,1-.6,1.11,1.91,1.91,0,0,1-1.35,1h-.51a.42.42,0,0,0-.27,0l-1.58,1.3a4.14,4.14,0,0,1-1.12.79l-.28.28h-.41l-.42.51c0,.33-.37.47-.51.47h-.65s-.42,0-.75.6a7.29,7.29,0,0,1-1.06,1l-.28.47-.65.28a2,2,0,0,0-.7.46,1.11,1.11,0,0,1-.51.42C148.25,52.53,148.11,52.53,148.06,52.81Z"/><path class="cls-10" d="M162.41,58.75h0a.44.44,0,0,1,0-.32l-.37-2V55.27a4.84,4.84,0,0,1,.23-1.25v-.79a1.62,1.62,0,0,1,.33-.7h.23v-.37a.89.89,0,0,1,0-.51l.37-1.07a.34.34,0,0,1,.33-.28h-.14v-.69a1.34,1.34,0,0,1,1-1.12.31.31,0,0,0,0-.23h-.28a2,2,0,0,1,.61-1.53s0-.33.51-.88a1.45,1.45,0,0,1,1.06-.93l.28-.38h0a2.31,2.31,0,0,1,.33-.69,2.26,2.26,0,0,1,.74-.88h0a2.59,2.59,0,0,1,.88-1l.75-1.06.93-1.12c.32-.32.55-.56.69-.56l.79-.83a3.51,3.51,0,0,1,.79-.65l.37-.42a2.06,2.06,0,0,1,.88-.51,3,3,0,0,1,1-1l.6-.42c.79,0,1.21,0,1.25.37l-.28.37a1.54,1.54,0,0,1-.65.47,1.68,1.68,0,0,0-.55.93l1.2-.42h2.14a2.92,2.92,0,0,0,.7.56l.55.51.42.28a3.47,3.47,0,0,1,.93,1.25l.56,1V41a2.66,2.66,0,0,0,.32.6,1.54,1.54,0,0,1,.28.61.72.72,0,0,1,0,.41,1.48,1.48,0,0,1,0,.42v2.42a1.61,1.61,0,0,1,0,.69,5.23,5.23,0,0,0,0,.56,2.18,2.18,0,0,1,0,.51v.37c0,.24,0,.37-.32.42s-.33,0-.28.37v.75a1.45,1.45,0,0,1-.37,1,1,1,0,0,0,0,.84.52.52,0,0,1,0,.51,4.4,4.4,0,0,0-.37.93,2.35,2.35,0,0,1-.65,1,.83.83,0,0,0-.47.74.69.69,0,0,1-.42.65L179,55a1.4,1.4,0,0,1-.47,1.11,4.35,4.35,0,0,0-.56.79L177,58.38c-.6,1-1.25,1.58-1.85,1.63a1.64,1.64,0,0,0-.37.42,5.2,5.2,0,0,1-2.79,2l-.79.42a2.45,2.45,0,0,1-.88.28h-.42a1.18,1.18,0,0,1-.56.42H167.8a3.41,3.41,0,0,1-.93-.37,7.83,7.83,0,0,0-1-.47L164,61.26a4.13,4.13,0,0,1-.6-.65Zm2.7,1.54h0a1.94,1.94,0,0,0,.83,0h.51a1.92,1.92,0,0,0,1-.37l.46-.24a14.09,14.09,0,0,0,3.16-2.09h.32v-.32c0-.33.23-.37.7-.56h0a2.17,2.17,0,0,1,1.25-1.62,3.24,3.24,0,0,1,.51-.79l.33-.47.56-.65a9.06,9.06,0,0,0,1.2-1.62,9.74,9.74,0,0,0,.89-1.4v-.41h.32a1.41,1.41,0,0,1,.28-.7,3.9,3.9,0,0,1,.51-1,.34.34,0,0,0,0-.28h0v-.33l.28-.37v-.51a2.63,2.63,0,0,0,.23-.83.47.47,0,0,1,0-.33.61.61,0,0,1,0-.42,5.15,5.15,0,0,1,0-1.11v-.74a3,3,0,0,1,.28-.93,2.18,2.18,0,0,1,0-.51v-1.4l-.23-.28a1,1,0,0,1,0-.55h0a1.48,1.48,0,0,1,0-.42s0-.28-.51-.42h-.7l-.37.23-1.39.65a11,11,0,0,0-1.72.93,1.18,1.18,0,0,1-.47.47l-.46.41h-.23c-.24,0,0,0-.28-.37s0-.32-.28-.32q-.74.75-1.53,1.44a.61.61,0,0,0-.33.46,1.15,1.15,0,0,1,0,.37,3.36,3.36,0,0,0-.32.51l-.28.38a2,2,0,0,0-.51.74h0a1.21,1.21,0,0,0-.33.69v.42h-.32a1.86,1.86,0,0,0-.33.89,2.53,2.53,0,0,1-1,1.62,1.83,1.83,0,0,0,0,.93,1.52,1.52,0,0,1-.65,1.3,2.73,2.73,0,0,0,0,.7,8.08,8.08,0,0,1-.88,1.57,9.89,9.89,0,0,0-.75,3.12c-.23,1.81-.32,2.88-.32,3.2v.37a1.35,1.35,0,0,0,.32.79c.24,0,.33.33.33.37h0Zm9.28-24.15h0s0,.23.24,0a.26.26,0,0,1,.41,0,3.53,3.53,0,0,0-.74,0Z"/><path class="cls-11" d="M191.25,41,193,37.72h0c-.93,0-1.39-.23-1.49-1s0-.69.65-1a4.64,4.64,0,0,0,1-.84,3.8,3.8,0,0,1,.79-.65,2.72,2.72,0,0,0,.79-.83H195l.79-.38a1.21,1.21,0,0,1,.65-.27c1.3.83,2,1.39,2,1.67a1,1,0,0,1-.28.79,2.26,2.26,0,0,0-.46.65,5.81,5.81,0,0,1-.56.65,2.12,2.12,0,0,1-.28.51l-.28.79-.28.69V39a5.93,5.93,0,0,1-.69,1.26l-.28.74-.61,1.49-.51.55a5.43,5.43,0,0,0-.65,1.86l-.51,1.81a5.36,5.36,0,0,1-.51,1.21,4.19,4.19,0,0,0-.46,1.62l-.28.42v1.72a1.75,1.75,0,0,0,0,.56.36.36,0,0,1,0,.32v.65a1.76,1.76,0,0,1,0,.79l-.33,1a.45.45,0,0,0-.28.32,2.28,2.28,0,0,0,0,.37h0a1,1,0,0,1,0,.42,2,2,0,0,0,0,.6,6.12,6.12,0,0,1,0,1.21v1.67a1.24,1.24,0,0,1,0,.47v.37a.45.45,0,0,1-.46.42,2.48,2.48,0,0,1-2-1.4,7.14,7.14,0,0,1-1-3V54.06l.88-3.15.56-1.81c.51-1.58.88-2.74,1.16-3.49a11.32,11.32,0,0,0,.61-1.72l.27-.32A7.83,7.83,0,0,0,191.25,41Z"/><path class="cls-12" d="M198.45,43.89h0a1.19,1.19,0,0,1,0-.83l.37-.47a1.15,1.15,0,0,1,.28-.41,2.84,2.84,0,0,0,.46-1A2.76,2.76,0,0,1,200.4,40a3.41,3.41,0,0,0,.37-.93l.79-.74v-.28a.45.45,0,0,1,0-.28.83.83,0,0,0,.28-.28.31.31,0,0,1,.23,0h.28a1.86,1.86,0,0,0,.37-.42l.74-.78h0a1.59,1.59,0,0,1,.61-.65,4,4,0,0,0,.69-.61h0a2.3,2.3,0,0,0,.75-.83l.74-.61a11.25,11.25,0,0,1,1-.93h0a1.27,1.27,0,0,1,.47-.32l.32-.28a4.93,4.93,0,0,1,.93-.7,1.42,1.42,0,0,0,.51-.32h0a1.75,1.75,0,0,1,.7-.65l1.07-.51a8.25,8.25,0,0,1,1.34-.56h.28a.45.45,0,0,1,.28,0h.7a.93.93,0,0,1,.74.84,2,2,0,0,1-.28,1.11,1,1,0,0,1-.65.6.89.89,0,0,1-.56,0l-.32-.23-.65.33h-.61a5,5,0,0,0-.79.6l-1,.7-.6.55a3.2,3.2,0,0,1-.89.61,1.26,1.26,0,0,0-.51.69,2.94,2.94,0,0,0-1,.7h-.33a.7.7,0,0,1-.65.7,1.92,1.92,0,0,1-.32.83,2.61,2.61,0,0,1-1,1,.45.45,0,0,1-.28,0h0s-.24,0,0,.51a2.38,2.38,0,0,1-.89,1v.23a1.35,1.35,0,0,1-.41.61l-.56,1c-.6.93-1.12,1.58-1.44,2a1.86,1.86,0,0,0-.46,1.48h.23a1,1,0,0,0,.88-.46,3.85,3.85,0,0,1,.6-.61.41.41,0,0,0,.42-.32v-.23a2.31,2.31,0,0,0,.79-.42,5.82,5.82,0,0,1,.79-.7l.84-.83a5.36,5.36,0,0,1,.83-.75l.65-.42a.63.63,0,0,0,.23-.46s0-.28.42-.32a.49.49,0,0,0,.33-.28,1,1,0,0,1,.42-.37v-.28l.37-.28.28-.33a.81.81,0,0,1,.41-.46.51.51,0,0,0,.33-.37,4.3,4.3,0,0,0,.93-1,.37.37,0,0,1,.28-.33.63.63,0,0,0,.41-.37l.28-.51h.37c.33,0,.61-.33.75-.93h0a.45.45,0,0,0,.28,0h.27l.79-.88h.24l.83-1.21.88-.88a2.73,2.73,0,0,1,.89-.93l1-.84a.45.45,0,0,1,.28,0A1.55,1.55,0,0,1,219,30a2.75,2.75,0,0,1,.7,1.58,3.28,3.28,0,0,1-.47,1.39l-.79,1.49a3,3,0,0,1-1.16,1.11,1.77,1.77,0,0,0,0,1h0a1.61,1.61,0,0,0-.56.84,4.21,4.21,0,0,1-.51.93,4.14,4.14,0,0,0-.55.93l-1,1.34a4.62,4.62,0,0,0-.6,1l-.23.27h0c0,.7,0,1.21-.28,1.4a2.79,2.79,0,0,0-.51.46h-.47a2.28,2.28,0,0,0,0,.37l-.69,2.14a7.71,7.71,0,0,1-.84,1.58,3.84,3.84,0,0,0-.65,2.13.78.78,0,0,1-.37.28,1.59,1.59,0,0,0-.42.84,11.18,11.18,0,0,1-.37,1.62,6.6,6.6,0,0,0-.37,1.58V55a3.23,3.23,0,0,0,0,1.16v1a3.84,3.84,0,0,0,.51,1.3s.28.32.28.41,0,0-.24,0h0a1.54,1.54,0,0,1-.65.47,3.3,3.3,0,0,1-2.32-.7,3.2,3.2,0,0,1-1.21-2.23l.28-1.53a6.86,6.86,0,0,0,0-1.11.71.71,0,0,1,.24-.51,1.74,1.74,0,0,0,.27-.66h0a1.46,1.46,0,0,0,0-.51,2,2,0,0,1,.24-.51l.37-.55a.86.86,0,0,1,.23-.33h0v-.93a1.41,1.41,0,0,0,.42-.93c.14-.33.29-.66.46-1a1.41,1.41,0,0,0,.23-.65h0c.42-.61.75-1,.89-1.3a5.51,5.51,0,0,1,.37-.61h0v-.51c0-.23,0-.32.46-.37a1.12,1.12,0,0,0,.28-.65v-.32l.51-.37c.23,0,.33,0,.33-.42a2.9,2.9,0,0,1,.28-.65,5.43,5.43,0,0,0,1.06-1.81v-.38a10.91,10.91,0,0,0,1.81-3L213,38a5.87,5.87,0,0,0-.88,1,.5.5,0,0,1-.37.46h-.23a2.29,2.29,0,0,0-.61.79h-.28a1,1,0,0,0-.27.42,1.67,1.67,0,0,1-.51.79l-.56.37a2.62,2.62,0,0,1-1.63,1.3,1.11,1.11,0,0,1-.93.88,2.08,2.08,0,0,0-.32.51s-.23.37-.37.37h-.42a2.87,2.87,0,0,0-.51.79c-.23.51-.47.79-.74.79h-.79c-.22,0-.45.28-.7.84s-.53.83-.84.83h-.41a.5.5,0,0,1-.47.56l-1.39-.6a3.5,3.5,0,0,1-1.67-1.16l-.28-.37v-.28A1.87,1.87,0,0,1,198.45,43.89Z"/></svg>