<svg id="Layer_1" data-name="Layer 1" xmlns="http://www.w3.org/2000/svg" xmlns:xlink="http://www.w3.org/1999/xlink" viewBox="0 0 412.6 200"><defs><style>.cls-1{fill:url(#linear-gradient);}.cls-2{fill:url(#linear-gradient-2);}.cls-3{fill:url(#linear-gradient-3);}.cls-4{fill:url(#linear-gradient-4);}.cls-5{fill:url(#linear-gradient-5);}</style><linearGradient id="linear-gradient" x1="-51.39" y1="483.1" x2="522.94" y2="497.01" gradientTransform="matrix(1, 0, 0, -1, 0, 579.54)" gradientUnits="userSpaceOnUse"><stop offset="0" stop-color="#d3b842"/><stop offset="1" stop-color="#e28e54"/></linearGradient><linearGradient id="linear-gradient-2" x1="-51.34" y1="482.91" x2="522.93" y2="496.82" xlink:href="#linear-gradient"/><linearGradient id="linear-gradient-3" x1="-50.43" y1="444.87" x2="523.84" y2="458.77" xlink:href="#linear-gradient"/><linearGradient id="linear-gradient-4" x1="-51.39" y1="483.72" x2="522.89" y2="497.67" xlink:href="#linear-gradient"/><linearGradient id="linear-gradient-5" x1="-51.02" y1="469.47" x2="523.26" y2="483.42" xlink:href="#linear-gradient"/></defs><title>sigla-title</title><path class="cls-1" d="M117.38,9a26.86,26.86,0,0,1,14.45,5.55,28.08,28.08,0,0,1,9.58,13.36,35.53,35.53,0,0,1,.91,16.17,45.3,45.3,0,0,1-8.54,19.45h0l-1.45,1.87a46.83,46.83,0,0,1-3.87,5A6.67,6.67,0,0,1,123,72.56a12.46,12.46,0,0,1-6.54-1.36,8,8,0,0,1-4.55-5,6.14,6.14,0,0,1,0-3.4,10.05,10.05,0,0,1,1.41-3.55,75.73,75.73,0,0,0,10.41-19.67A23.78,23.78,0,0,0,125.24,26c-.41-1-.82-1.59-1.23-1.63a16.24,16.24,0,0,0-10.54,1.54A52.48,52.48,0,0,0,101,33.57a63.36,63.36,0,0,0-10.9,11.82,34.53,34.53,0,0,0-6.27,13,31,31,0,0,0-.28,10.95,62,62,0,0,0,3,12,65.73,65.73,0,0,0,7.27,15h0a24.41,24.41,0,0,1,2.91,4.55c.73,1.63,1.46,3.36,2.09,5.09a38.44,38.44,0,0,1,1.73,16.36A51.25,51.25,0,0,1,96,138.45a61.56,61.56,0,0,1-9.45,14.68,79.66,79.66,0,0,1-13,12.17,70.8,70.8,0,0,1-15.09,8.64,50.24,50.24,0,0,1-15.77,3.91,42.34,42.34,0,0,1-11.45-.78,26.21,26.21,0,0,1-11.49-6.5,31.31,31.31,0,0,1-8.5-13.63,36.22,36.22,0,0,1-2-12,40,40,0,0,1,3-14.27,69.29,69.29,0,0,1,9.09-16A110.12,110.12,0,0,1,38,97.19a4.57,4.57,0,0,1,3.68-.82,19.45,19.45,0,0,1,5.41,1.36A41.57,41.57,0,0,1,53,100.55a37.64,37.64,0,0,1,5.18,3.5,14,14,0,0,1,3.18,3.59,2.36,2.36,0,0,1,0,2.91c-6.45,7-11.82,13.27-16,18.67a129,129,0,0,0-9.86,14.36A44.81,44.81,0,0,0,31,153.9a11.52,11.52,0,0,0-.23,6.4,2.34,2.34,0,0,0,1.41,1.19,4,4,0,0,0,2.32,0,28.29,28.29,0,0,0,10-3.23,50.92,50.92,0,0,0,10.17-7.18,63.42,63.42,0,0,0,9.09-10,54.06,54.06,0,0,0,6.82-11.9,43.32,43.32,0,0,0,3.27-12.91,29.2,29.2,0,0,0-1.54-12.81,29,29,0,0,0-2.05-4.14h0C68.48,96.19,66.8,92.78,65,89.24a95.08,95.08,0,0,1-4.54-11,84.83,84.83,0,0,1-3.28-13.63A42.13,42.13,0,0,1,57.44,51a66.57,66.57,0,0,1,3.45-12.54,44.16,44.16,0,0,1,8-13.09,47.31,47.31,0,0,1,14-10.72,55.1,55.1,0,0,1,22-5.64,87.1,87.1,0,0,1,12.72,0Z"/><path class="cls-2" d="M135.6,73.29a31.8,31.8,0,0,1,7.22,2,21.94,21.94,0,0,1,5.18,3,8.62,8.62,0,0,1,2.73,3.54,3.77,3.77,0,0,1,0,3.37c-2.86,3.77-5.77,7.9-8.68,12.36s-5.63,8.81-8.09,13.17-4.77,8.5-6.81,12.55-3.73,7.49-5.09,10.58a49.24,49.24,0,0,0-2.73,7.23c-.45,1.79-.36,2.65.27,2.59a15,15,0,0,0,7.23-3.91,121,121,0,0,0,9.72-9.09c3.46-3.59,7-7.4,10.45-11.4l9.55-10.91c2-2.36,3.86-4.54,5.5-6.22a37.72,37.72,0,0,1,3.45-3.59,4.51,4.51,0,0,1,3.86-1.23,5.52,5.52,0,0,1,3.32,1.91,10,10,0,0,1,2,3.91,10.86,10.86,0,0,1,0,4.54,35.67,35.67,0,0,1-3,4.18q-2.91,3.68-7.36,9.09c-3,3.54-6.32,7.41-10,11.5s-7.36,7.95-10.9,11.4a114.64,114.64,0,0,1-10,8.82,16.19,16.19,0,0,1-7.36,3.77h-3.63a11.81,11.81,0,0,1-4.55-.87,15.47,15.47,0,0,1-4.81-3.09,22.44,22.44,0,0,1-4.91-6.45h0a18.66,18.66,0,0,1-1.77-10.63,73.35,73.35,0,0,1,2.54-15.22,148.37,148.37,0,0,1,5.54-16.82,129.9,129.9,0,0,1,7.14-15.49,59.27,59.27,0,0,1,7.68-10.73C131.65,74.29,133.78,73,135.6,73.29Zm3.63-13.64a64.08,64.08,0,0,1,2.64-6.22c1.14-2.41,2.36-4.82,3.59-7.23s2.54-4.54,3.82-7a59.51,59.51,0,0,1,3.31-5.45l2-2.59a11.59,11.59,0,0,1,2.68-2.5,7.85,7.85,0,0,1,8.09-.55l5.59,3a19.57,19.57,0,0,1,4.54,3.46,5.81,5.81,0,0,1,1.86,3.81c0,1.32-.91,2.68-2.81,4.09a68.67,68.67,0,0,0-6.64,5.64c-2.32,2.22-4.54,4.54-6.72,7a89.16,89.16,0,0,0-5.68,7,33.79,33.79,0,0,0-3.14,5.91c-1.36,3.27-2.68,5.13-3.95,5.54a7.82,7.82,0,0,1-5.59-1.36c-.64-.37-1.36-.82-2.14-1.37a5.86,5.86,0,0,1-1.91-2.22,8.41,8.41,0,0,1-.81-3.59,14.37,14.37,0,0,1,1.27-5.55Z"/><path class="cls-3" d="M193.9,188a12.1,12.1,0,0,1-4.55,2.37,24.83,24.83,0,0,1-4.54.81,23.93,23.93,0,0,1-8.18-1.72,20.59,20.59,0,0,1-6.13-4.14,19.51,19.51,0,0,1-4.23-5.72,14.2,14.2,0,0,1-1.41-6.5,13,13,0,0,1,6-9.59,99.82,99.82,0,0,1,14.09-8l7.36-3.5c1.09-2.31,2.18-4.54,3.36-7.31l3.32-7.64a169.63,169.63,0,0,1-13.32,11.37,32,32,0,0,1-10.36,5.9,21.53,21.53,0,0,1-4.54,0,18.36,18.36,0,0,1-5.23-1.77,24.72,24.72,0,0,1-5.59-4.23,33.57,33.57,0,0,1-5.58-7.54,20,20,0,0,1-1.91-11.59,53.78,53.78,0,0,1,3.68-14.86,90,90,0,0,1,8.22-15.9A92,92,0,0,1,176,83.69a72,72,0,0,1,14.27-11.4,41.6,41.6,0,0,1,15.81-5.91,27.77,27.77,0,0,1,8.82.27,37.1,37.1,0,0,1,9.49,3,33.92,33.92,0,0,1,8.32,5.49,20.33,20.33,0,0,1,5.45,7.73,1.13,1.13,0,0,1-.51,1.52l-.17.07,1.77.36a7.2,7.2,0,0,1,2,1.64,11.29,11.29,0,0,1,1.86,2.63,6.89,6.89,0,0,1,.68,3.28A6.29,6.29,0,0,1,242.47,96h.32c-.27.55-.68,1.5-1.22,2.82L239.38,104,232,122.18c3-3,5.81-6,8.54-9.09s5.32-5.81,7.73-8.5,4.54-5,6.36-7.27L259.15,92a6.55,6.55,0,0,1,7.23,1.09,15.2,15.2,0,0,1,3.86,7.63,124.77,124.77,0,0,1-9.09,12q-6,7-13.63,14.54c-4.91,5-10.09,9.86-15.45,14.63S221.62,151,216.8,154.49c-1.86,3.63-3.73,7.13-5.63,10.54s-3.87,6.59-5.82,9.54a93.12,93.12,0,0,1-5.86,8,41.69,41.69,0,0,1-5.77,5.81Zm23.49-94.74c1.23-2.18,2.36-4,3.41-5.54a12.41,12.41,0,0,1,2.95-3.14,3.18,3.18,0,0,1-.36-.77,2,2,0,0,0-.86-.91,1.63,1.63,0,0,0-1.46,0,33.57,33.57,0,0,0-13.22,5.23,78.79,78.79,0,0,0-13.09,10.36,115.75,115.75,0,0,0-11.49,13,101.91,101.91,0,0,0-8.64,13,43.55,43.55,0,0,0-4.54,10.54c-.73,3-.41,4.55,1,5.41A9.45,9.45,0,0,0,177,138a99.37,99.37,0,0,0,8.59-7.27c3.18-3,6.45-6.32,9.81-10s6.55-7.22,9.41-10.63,5.36-6.54,7.5-9.32a42.11,42.11,0,0,0,4.13-6.18Z"/><path class="cls-4" d="M298,29.48a20.43,20.43,0,0,1,7.18,2.77,26.26,26.26,0,0,1,5.63,4.55A16.79,16.79,0,0,1,314,41.61c.64,1.55.64,2.69,0,3.37a118.25,118.25,0,0,0-13.27,14q-6.86,8.53-13.63,18.17T274.6,96.73c-4,6.55-7.45,12.5-10.4,17.77s-5.28,9.63-7,13.09-2.41,5.36-2.18,5.63a16.46,16.46,0,0,0,7-3.5,89.57,89.57,0,0,0,8.86-7.77c3.09-3.09,6.27-6.4,9.45-10s6.09-6.91,8.77-10.09,4.91-5.81,6.64-8,2.81-3.59,3.22-4a4.53,4.53,0,0,1,3.09-2,5.18,5.18,0,0,1,3.32,1,10.16,10.16,0,0,1,3,3.09,15.12,15.12,0,0,1,2,4.54,18.43,18.43,0,0,1-3,4.86c-1.91,2.64-4.55,5.77-7.41,9.41s-6.36,7.5-10,11.5-7.32,7.77-10.91,11.27a100.57,100.57,0,0,1-10.17,8.72,18.25,18.25,0,0,1-7.41,3.86H260.2a23.9,23.9,0,0,1-3.59,0,12.84,12.84,0,0,1-4.18-1.13,17.52,17.52,0,0,1-4.55-3,26.6,26.6,0,0,1-4.54-5.86,14.39,14.39,0,0,1,.91-7.73,121.83,121.83,0,0,1,4.95-13.63q3.36-7.91,7.77-17.45t9.41-19q5-9.54,10-18.18c3.36-5.9,6.5-11.13,9.36-15.63a99,99,0,0,1,7.54-10.77C295.59,30.57,297.14,29.35,298,29.48Z"/><path class="cls-5" d="M359.08,81.42a19.11,19.11,0,0,1,7.13,2.5,13.6,13.6,0,0,1,4,3.59,6.88,6.88,0,0,1,1.32,3.86,5.35,5.35,0,0,1-.91,3.18c-7.41,9.91-12.82,17.63-16.27,23.09a57.5,57.5,0,0,0-5,9.08,15.85,15.85,0,0,0,7.86-4.22,120.26,120.26,0,0,0,10.22-9.59c3.59-3.77,7.14-7.68,10.59-11.77l9.09-10.72,7-8a6.93,6.93,0,0,1,4.18,0,10.51,10.51,0,0,1,4.14,2.27,8.61,8.61,0,0,1,2.54,3.5,4.21,4.21,0,0,1-.5,4c-.45.64-1.73,2.27-3.77,4.86s-4.55,5.55-7.5,9.09-6.27,7.09-9.77,10.91-7,7.4-10.4,10.68a102,102,0,0,1-9.64,8.22,15.9,15.9,0,0,1-7.36,3.54h-1.27a32.27,32.27,0,0,1-3.68,0,12.86,12.86,0,0,1-4.27-1,17.69,17.69,0,0,1-4.55-3,23.14,23.14,0,0,1-4.54-6,8.39,8.39,0,0,1-1.09-4Q329,132.76,322,138.4a34.59,34.59,0,0,1-11.4,6.68,19.8,19.8,0,0,1-4.55-.22,16.9,16.9,0,0,1-5.22-1.78,22.2,22.2,0,0,1-5.59-4.18,33,33,0,0,1-5.64-7.54,20.08,20.08,0,0,1-1.91-11.59,54.49,54.49,0,0,1,3.68-14.86,95,95,0,0,1,8.23-15.86,92.72,92.72,0,0,1,11.68-14.81,74.37,74.37,0,0,1,14.27-11.4A42.74,42.74,0,0,1,341.4,57a27.7,27.7,0,0,1,8.81,0,37.17,37.17,0,0,1,9.5,3A34.11,34.11,0,0,1,368,65.47a20.38,20.38,0,0,1,5.45,7.68c.41.82,0,1.5-1.5,2.09a15,15,0,0,1-4.86,1.05,23.66,23.66,0,0,1-5.32,0c-1.68-.32-2.77-.91-3.13-1.87a2.25,2.25,0,0,0-.87-.86,1.83,1.83,0,0,0-1.45,0,34.39,34.39,0,0,0-13.22,5.22,78.66,78.66,0,0,0-13.05,10.37,117.19,117.19,0,0,0-11.54,13,102.27,102.27,0,0,0-8.63,13.08,43.1,43.1,0,0,0-4.55,10.55c-.72,3-.4,4.54,1.05,5.36a7.84,7.84,0,0,0,4.54-1.41,48.92,48.92,0,0,0,6.32-4.55c2.36-1.9,4.91-4.13,7.63-6.63s5.37-5.13,8-7.86,5.14-5.45,7.54-8.18S345,97.32,347,95a64.28,64.28,0,0,1,6.77-9.59C355.71,82.37,357.58,81.19,359.08,81.42Z"/></svg>