<svg id="Layer_1" data-name="Layer 1" xmlns="http://www.w3.org/2000/svg" xmlns:xlink="http://www.w3.org/1999/xlink" viewBox="0 0 500 200"><defs><style>.cls-1{fill:#fff5ee;}.cls-2{fill:#191717;opacity:0.71;}.cls-3{fill:none;stroke-miterlimit:10;stroke:url(#linear-gradient);}.cls-4{fill:url(#linear-gradient-2);}.cls-5{fill:url(#linear-gradient-3);}.cls-6{fill:url(#linear-gradient-4);}.cls-7{fill:url(#linear-gradient-5);}.cls-8{fill:url(#linear-gradient-6);}.cls-9{fill:url(#linear-gradient-7);}.cls-10{fill:url(#linear-gradient-8);}.cls-11{fill:url(#linear-gradient-9);}.cls-12{fill:url(#linear-gradient-10);}.cls-13{fill:url(#linear-gradient-11);}.cls-14{fill:url(#linear-gradient-12);}.cls-15{fill:url(#linear-gradient-13);}.cls-16{fill:url(#linear-gradient-14);}.cls-17{fill:url(#linear-gradient-15);}.cls-18{fill:url(#linear-gradient-16);}.cls-19{fill:url(#linear-gradient-17);}.cls-20{fill:url(#linear-gradient-18);}.cls-21{fill:url(#linear-gradient-19);}.cls-22{fill:url(#linear-gradient-20);}.cls-23{fill:url(#linear-gradient-21);}.cls-24{fill:url(#linear-gradient-22);}.cls-25{fill:url(#linear-gradient-23);}.cls-26{fill:url(#linear-gradient-24);}.cls-27{fill:url(#linear-gradient-25);}.cls-28{fill:url(#linear-gradient-26);}.cls-29{fill:url(#linear-gradient-27);}.cls-30{fill:url(#linear-gradient-28);}.cls-31{fill:url(#linear-gradient-29);}.cls-32{fill:url(#linear-gradient-30);}.cls-33{fill:url(#linear-gradient-31);}.cls-34{fill:url(#linear-gradient-32);}.cls-35{fill:url(#linear-gradient-33);}.cls-36{fill:url(#linear-gradient-34);}.cls-37{fill:url(#linear-gradient-35);}.cls-38{fill:url(#linear-gradient-36);}.cls-39{fill:url(#linear-gradient-37);}.cls-40{fill:url(#linear-gradient-38);}.cls-41{fill:url(#linear-gradient-39);}.cls-42{fill:url(#linear-gradient-40);}.cls-43{fill:url(#linear-gradient-41);}.cls-44{fill:url(#linear-gradient-42);}.cls-45{fill:url(#linear-gradient-43);}.cls-46{fill:url(#linear-gradient-44);}.cls-47{fill:url(#linear-gradient-45);}.cls-48{fill:url(#linear-gradient-46);}.cls-49{fill:url(#linear-gradient-47);}.cls-50{fill:url(#linear-gradient-48);}.cls-51{fill:url(#linear-gradient-49);}.cls-52{fill:url(#linear-gradient-50);}.cls-53{fill:url(#linear-gradient-51);}.cls-54{fill:url(#linear-gradient-52);}.cls-55{fill:url(#linear-gradient-53);}.cls-56{fill:url(#linear-gradient-54);}.cls-57{fill:url(#linear-gradient-55);}.cls-58{fill:url(#linear-gradient-56);}.cls-59{fill:url(#linear-gradient-57);}.cls-60{fill:url(#linear-gradient-58);}.cls-61{fill:url(#linear-gradient-59);}.cls-62{fill:url(#linear-gradient-60);}.cls-63{fill:url(#linear-gradient-61);}.cls-64{fill:url(#linear-gradient-62);}.cls-65{fill:url(#linear-gradient-63);}.cls-66{fill:url(#linear-gradient-64);}.cls-67{fill:url(#linear-gradient-65);}.cls-68{fill:url(#linear-gradient-66);}.cls-69{fill:url(#linear-gradient-67);}.cls-70{fill:url(#linear-gradient-68);}.cls-71{fill:url(#linear-gradient-69);}.cls-72{fill:url(#linear-gradient-70);}.cls-73{fill:url(#linear-gradient-71);}</style><linearGradient id="linear-gradient" x1="384.92" y1="139.36" x2="482.15" y2="137" gradientUnits="userSpaceOnUse"><stop offset="0" stop-color="#d3b842"/><stop offset="1" stop-color="#e28e54"/></linearGradient><linearGradient id="linear-gradient-2" x1="379.58" y1="99.38" x2="505.97" y2="96.31" xlink:href="#linear-gradient"/><linearGradient id="linear-gradient-3" x1="379.52" y1="96.67" x2="505.9" y2="93.61" xlink:href="#linear-gradient"/><linearGradient id="linear-gradient-4" x1="379.45" y1="93.96" x2="505.84" y2="90.9" xlink:href="#linear-gradient"/><linearGradient id="linear-gradient-5" x1="379.4" y1="91.95" x2="505.79" y2="88.89" xlink:href="#linear-gradient"/><linearGradient id="linear-gradient-6" x1="379.35" y1="89.87" x2="505.74" y2="86.8" xlink:href="#linear-gradient"/><linearGradient id="linear-gradient-7" x1="379.29" y1="87.33" x2="505.67" y2="84.27" xlink:href="#linear-gradient"/><linearGradient id="linear-gradient-8" x1="379.19" y1="83.03" x2="505.57" y2="79.97" xlink:href="#linear-gradient"/><linearGradient id="linear-gradient-9" x1="379.12" y1="80.1" x2="505.5" y2="77.04" xlink:href="#linear-gradient"/><linearGradient id="linear-gradient-10" x1="378.95" y1="73.12" x2="505.33" y2="70.06" xlink:href="#linear-gradient"/><linearGradient id="linear-gradient-11" x1="378.95" y1="73.2" x2="505.33" y2="70.14" xlink:href="#linear-gradient"/><linearGradient id="linear-gradient-12" x1="378.95" y1="73.29" x2="505.33" y2="70.23" xlink:href="#linear-gradient"/><linearGradient id="linear-gradient-13" x1="378.95" y1="73.41" x2="505.34" y2="70.35" xlink:href="#linear-gradient"/><linearGradient id="linear-gradient-14" x1="378.96" y1="73.53" x2="505.34" y2="70.46" xlink:href="#linear-gradient"/><linearGradient id="linear-gradient-15" x1="378.96" y1="73.67" x2="505.34" y2="70.61" xlink:href="#linear-gradient"/><linearGradient id="linear-gradient-16" x1="379.12" y1="80.29" x2="505.5" y2="77.23" xlink:href="#linear-gradient"/><linearGradient id="linear-gradient-17" x1="379.12" y1="80.44" x2="505.51" y2="77.37" xlink:href="#linear-gradient"/><linearGradient id="linear-gradient-18" x1="379.13" y1="80.55" x2="505.51" y2="77.49" xlink:href="#linear-gradient"/><linearGradient id="linear-gradient-19" x1="379.13" y1="80.68" x2="505.51" y2="77.62" xlink:href="#linear-gradient"/><linearGradient id="linear-gradient-20" x1="379.13" y1="80.74" x2="505.51" y2="77.67" xlink:href="#linear-gradient"/><linearGradient id="linear-gradient-21" x1="379.14" y1="80.87" x2="505.52" y2="77.81" xlink:href="#linear-gradient"/><linearGradient id="linear-gradient-22" x1="379.14" y1="81.04" x2="505.52" y2="77.97" xlink:href="#linear-gradient"/><linearGradient id="linear-gradient-23" x1="379.35" y1="89.62" x2="505.73" y2="86.56" xlink:href="#linear-gradient"/><linearGradient id="linear-gradient-24" x1="379.35" y1="89.74" x2="505.73" y2="86.67" xlink:href="#linear-gradient"/><linearGradient id="linear-gradient-25" x1="379.35" y1="89.87" x2="505.74" y2="86.81" xlink:href="#linear-gradient"/><linearGradient id="linear-gradient-26" x1="379.36" y1="89.98" x2="505.74" y2="86.92" xlink:href="#linear-gradient"/><linearGradient id="linear-gradient-27" x1="379.36" y1="90.16" x2="505.74" y2="87.09" xlink:href="#linear-gradient"/><linearGradient id="linear-gradient-28" x1="379.36" y1="90.29" x2="505.75" y2="87.23" xlink:href="#linear-gradient"/><linearGradient id="linear-gradient-29" x1="379.37" y1="90.47" x2="505.75" y2="87.4" xlink:href="#linear-gradient"/><linearGradient id="linear-gradient-30" x1="379.37" y1="90.56" x2="505.75" y2="87.49" xlink:href="#linear-gradient"/><linearGradient id="linear-gradient-31" x1="379.37" y1="90.73" x2="505.76" y2="87.66" xlink:href="#linear-gradient"/><linearGradient id="linear-gradient-32" x1="379.38" y1="90.9" x2="505.76" y2="87.84" xlink:href="#linear-gradient"/><linearGradient id="linear-gradient-33" x1="379.38" y1="90.99" x2="505.76" y2="87.93" xlink:href="#linear-gradient"/><linearGradient id="linear-gradient-34" x1="379.38" y1="91.09" x2="505.77" y2="88.03" xlink:href="#linear-gradient"/><linearGradient id="linear-gradient-35" x1="379.52" y1="96.78" x2="505.9" y2="93.72" xlink:href="#linear-gradient"/><linearGradient id="linear-gradient-36" x1="379.52" y1="96.83" x2="505.91" y2="93.77" xlink:href="#linear-gradient"/><linearGradient id="linear-gradient-37" x1="379.53" y1="97.04" x2="505.91" y2="93.98" xlink:href="#linear-gradient"/><linearGradient id="linear-gradient-38" x1="379.53" y1="97.13" x2="505.91" y2="94.06" xlink:href="#linear-gradient"/><linearGradient id="linear-gradient-39" x1="379.53" y1="97.24" x2="505.91" y2="94.17" xlink:href="#linear-gradient"/><linearGradient id="linear-gradient-40" x1="379.53" y1="97.34" x2="505.92" y2="94.28" xlink:href="#linear-gradient"/><linearGradient id="linear-gradient-41" x1="380.38" y1="132.18" x2="506.76" y2="129.11" xlink:href="#linear-gradient"/><linearGradient id="linear-gradient-42" x1="380.31" y1="129.22" x2="506.69" y2="126.16" xlink:href="#linear-gradient"/><linearGradient id="linear-gradient-43" x1="380.25" y1="126.68" x2="506.63" y2="123.62" xlink:href="#linear-gradient"/><linearGradient id="linear-gradient-44" x1="380.2" y1="124.76" x2="506.58" y2="121.7" xlink:href="#linear-gradient"/><linearGradient id="linear-gradient-45" x1="380.14" y1="122.36" x2="506.52" y2="119.3" xlink:href="#linear-gradient"/><linearGradient id="linear-gradient-46" x1="380.06" y1="118.83" x2="506.44" y2="115.76" xlink:href="#linear-gradient"/><linearGradient id="linear-gradient-47" x1="379.94" y1="114.06" x2="506.32" y2="111" xlink:href="#linear-gradient"/><linearGradient id="linear-gradient-48" x1="379.87" y1="111.13" x2="506.25" y2="108.07" xlink:href="#linear-gradient"/><linearGradient id="linear-gradient-49" x1="380.02" y1="117.46" x2="506.41" y2="114.39" xlink:href="#linear-gradient"/><linearGradient id="linear-gradient-50" x1="380.02" y1="117.57" x2="506.41" y2="114.51" xlink:href="#linear-gradient"/><linearGradient id="linear-gradient-51" x1="380.03" y1="117.71" x2="506.41" y2="114.64" xlink:href="#linear-gradient"/><linearGradient id="linear-gradient-52" x1="380.03" y1="117.81" x2="506.41" y2="114.75" xlink:href="#linear-gradient"/><linearGradient id="linear-gradient-53" x1="380.03" y1="117.99" x2="506.42" y2="114.93" xlink:href="#linear-gradient"/><linearGradient id="linear-gradient-54" x1="380.04" y1="118.13" x2="506.42" y2="115.06" xlink:href="#linear-gradient"/><linearGradient id="linear-gradient-55" x1="380.04" y1="118.3" x2="506.43" y2="115.24" xlink:href="#linear-gradient"/><linearGradient id="linear-gradient-56" x1="380.04" y1="118.39" x2="506.43" y2="115.33" xlink:href="#linear-gradient"/><linearGradient id="linear-gradient-57" x1="380.05" y1="118.56" x2="506.43" y2="115.5" xlink:href="#linear-gradient"/><linearGradient id="linear-gradient-58" x1="380.05" y1="118.74" x2="506.44" y2="115.67" xlink:href="#linear-gradient"/><linearGradient id="linear-gradient-59" x1="380.06" y1="118.82" x2="506.44" y2="115.76" xlink:href="#linear-gradient"/><linearGradient id="linear-gradient-60" x1="380.06" y1="118.93" x2="506.44" y2="115.86" xlink:href="#linear-gradient"/><linearGradient id="linear-gradient-61" x1="380.2" y1="124.62" x2="506.58" y2="121.55" xlink:href="#linear-gradient"/><linearGradient id="linear-gradient-62" x1="380.2" y1="124.66" x2="506.58" y2="121.6" xlink:href="#linear-gradient"/><linearGradient id="linear-gradient-63" x1="380.2" y1="124.87" x2="506.58" y2="121.81" xlink:href="#linear-gradient"/><linearGradient id="linear-gradient-64" x1="380.2" y1="124.96" x2="506.59" y2="121.9" xlink:href="#linear-gradient"/><linearGradient id="linear-gradient-65" x1="380.21" y1="125.07" x2="506.59" y2="122.01" xlink:href="#linear-gradient"/><linearGradient id="linear-gradient-66" x1="380.21" y1="125.17" x2="506.59" y2="122.11" xlink:href="#linear-gradient"/><linearGradient id="linear-gradient-67" x1="378.17" y1="41.21" x2="504.56" y2="38.15" xlink:href="#linear-gradient"/><linearGradient id="linear-gradient-68" x1="378.18" y1="41.28" x2="504.56" y2="38.22" xlink:href="#linear-gradient"/><linearGradient id="linear-gradient-69" x1="378.38" y1="49.64" x2="504.76" y2="46.58" xlink:href="#linear-gradient"/><linearGradient id="linear-gradient-70" x1="378.17" y1="41.1" x2="504.55" y2="38.03" xlink:href="#linear-gradient"/><linearGradient id="linear-gradient-71" x1="378.25" y1="44.18" x2="504.63" y2="41.11" xlink:href="#linear-gradient"/></defs><title>sigla-right</title><path class="cls-1" d="M500,10V190a10,10,0,0,1-10,10H365.15V0H490A10,10,0,0,1,500,10Z"/><path class="cls-1" d="M500,10V190a10,10,0,0,1-10,10H365.15V0H490A10,10,0,0,1,500,10Z"/><rect class="cls-2" x="390.54" y="153.09" width="85.57" height="19.74"/><path class="cls-1" d="M395.34,159v8.52h-1.19V159Z"/><path class="cls-1" d="M397.45,167.47V159h1.2v8.52Zm.81,0v-1.14h1.93a2,2,0,0,0,1.46-.49,1.81,1.81,0,0,0,.52-1.38V162a1.84,1.84,0,0,0-.52-1.38,2.08,2.08,0,0,0-1.46-.49h-1.93V159h1.89a3.35,3.35,0,0,1,2.4.8,3,3,0,0,1,.84,2.25v2.41a3.25,3.25,0,0,1-.38,1.65,2.46,2.46,0,0,1-1.11,1.05,3.9,3.9,0,0,1-1.75.36Z"/><path class="cls-1" d="M404.65,162.58v-1.25h1.26v1.25Zm0,4.89v-1.26h1.26v1.26Z"/><path class="cls-1" d="M413.17,167.56a2.34,2.34,0,0,1-1.82-.66,2.45,2.45,0,0,1-.61-1.76v-3.88a2.46,2.46,0,0,1,.61-1.77,2.89,2.89,0,0,1,3.64,0,2.47,2.47,0,0,1,.61,1.78v3.88a2.46,2.46,0,0,1-.61,1.77A2.39,2.39,0,0,1,413.17,167.56Zm0-1.14a1.22,1.22,0,0,0,.95-.34,1.45,1.45,0,0,0,.29-.94v-3.88a1.43,1.43,0,0,0-.29-.94,1.18,1.18,0,0,0-.95-.34,1.15,1.15,0,0,0-.94.34,1.37,1.37,0,0,0-.29.94v3.88a1.39,1.39,0,0,0,.29.94A1.18,1.18,0,0,0,413.17,166.42Z"/><path class="cls-1" d="M419.56,167.56a2.38,2.38,0,0,1-1.83-.66,2.49,2.49,0,0,1-.6-1.76v-3.88a2.46,2.46,0,0,1,.61-1.77,2.41,2.41,0,0,1,1.82-.65,2.44,2.44,0,0,1,1.82.64,2.47,2.47,0,0,1,.61,1.78v3.88a2.46,2.46,0,0,1-.61,1.77A2.41,2.41,0,0,1,419.56,167.56Zm0-1.14a1.18,1.18,0,0,0,.94-.34,1.39,1.39,0,0,0,.29-.94v-3.88a1.37,1.37,0,0,0-.29-.94,1.15,1.15,0,0,0-.94-.34,1.18,1.18,0,0,0-.95.34,1.43,1.43,0,0,0-.29.94v3.88a1.45,1.45,0,0,0,.29.94A1.22,1.22,0,0,0,419.56,166.42Z"/><path class="cls-1" d="M425.94,167.56a2.34,2.34,0,0,1-1.82-.66,2.49,2.49,0,0,1-.61-1.76v-3.88a2.46,2.46,0,0,1,.62-1.77,2.38,2.38,0,0,1,1.81-.65,2.41,2.41,0,0,1,1.82.64,2.47,2.47,0,0,1,.62,1.78v3.88a2.46,2.46,0,0,1-.62,1.77A2.38,2.38,0,0,1,425.94,167.56Zm0-1.14a1.2,1.2,0,0,0,.95-.34,1.45,1.45,0,0,0,.29-.94v-3.88a1.43,1.43,0,0,0-.29-.94,1.48,1.48,0,0,0-1.89,0,1.43,1.43,0,0,0-.29.94v3.88a1.45,1.45,0,0,0,.29.94A1.2,1.2,0,0,0,425.94,166.42Z"/><path class="cls-1" d="M432.33,167.56a2.34,2.34,0,0,1-1.82-.66,2.45,2.45,0,0,1-.61-1.76v-3.88a2.42,2.42,0,0,1,.62-1.77,2.38,2.38,0,0,1,1.81-.65,2.43,2.43,0,0,1,1.82.64,2.47,2.47,0,0,1,.61,1.78v3.88a2.46,2.46,0,0,1-.61,1.77A2.39,2.39,0,0,1,432.33,167.56Zm0-1.14a1.22,1.22,0,0,0,.95-.34,1.45,1.45,0,0,0,.29-.94v-3.88a1.43,1.43,0,0,0-.29-.94,1.18,1.18,0,0,0-.95-.34,1.15,1.15,0,0,0-.94.34,1.37,1.37,0,0,0-.29.94v3.88a1.39,1.39,0,0,0,.29.94A1.18,1.18,0,0,0,432.33,166.42Z"/><path class="cls-1" d="M438.72,167.56a2.38,2.38,0,0,1-1.83-.66,2.49,2.49,0,0,1-.6-1.76v-3.88a2.46,2.46,0,0,1,.61-1.77,2.41,2.41,0,0,1,1.82-.65,2.44,2.44,0,0,1,1.82.64,2.47,2.47,0,0,1,.61,1.78v3.88a2.46,2.46,0,0,1-.61,1.77A2.41,2.41,0,0,1,438.72,167.56Zm0-1.14a1.18,1.18,0,0,0,.94-.34,1.39,1.39,0,0,0,.29-.94v-3.88a1.37,1.37,0,0,0-.29-.94,1.15,1.15,0,0,0-.94-.34,1.18,1.18,0,0,0-1,.34,1.43,1.43,0,0,0-.29.94v3.88a1.45,1.45,0,0,0,.29.94A1.22,1.22,0,0,0,438.72,166.42Z"/><path class="cls-1" d="M445.1,167.56a2.34,2.34,0,0,1-1.82-.66,2.49,2.49,0,0,1-.61-1.76v-3.88a2.46,2.46,0,0,1,.62-1.77,2.38,2.38,0,0,1,1.81-.65,2.41,2.41,0,0,1,1.82.64,2.47,2.47,0,0,1,.62,1.78v3.88a2.46,2.46,0,0,1-.62,1.77A2.38,2.38,0,0,1,445.1,167.56Zm0-1.14a1.2,1.2,0,0,0,.95-.34,1.45,1.45,0,0,0,.29-.94v-3.88a1.43,1.43,0,0,0-.29-.94,1.48,1.48,0,0,0-1.89,0,1.43,1.43,0,0,0-.29.94v3.88a1.45,1.45,0,0,0,.29.94A1.2,1.2,0,0,0,445.1,166.42Z"/><path class="cls-1" d="M451.49,167.56a2.34,2.34,0,0,1-1.82-.66,2.45,2.45,0,0,1-.61-1.76v-3.88a2.46,2.46,0,0,1,.62-1.77,2.38,2.38,0,0,1,1.81-.65,2.43,2.43,0,0,1,1.82.64,2.47,2.47,0,0,1,.61,1.78v3.88a2.46,2.46,0,0,1-.61,1.77A2.39,2.39,0,0,1,451.49,167.56Zm0-1.14a1.22,1.22,0,0,0,.95-.34,1.45,1.45,0,0,0,.29-.94v-3.88a1.43,1.43,0,0,0-.29-.94,1.18,1.18,0,0,0-.95-.34,1.15,1.15,0,0,0-.94.34,1.37,1.37,0,0,0-.29.94v3.88a1.39,1.39,0,0,0,.29.94A1.18,1.18,0,0,0,451.49,166.42Z"/><path class="cls-1" d="M457.88,167.56a2.38,2.38,0,0,1-1.83-.66,2.49,2.49,0,0,1-.6-1.76v-3.88a2.46,2.46,0,0,1,.61-1.77,2.41,2.41,0,0,1,1.82-.65,2.44,2.44,0,0,1,1.82.64,2.47,2.47,0,0,1,.61,1.78v3.88a2.46,2.46,0,0,1-.61,1.77A2.41,2.41,0,0,1,457.88,167.56Zm0-1.14a1.18,1.18,0,0,0,.94-.34,1.39,1.39,0,0,0,.29-.94v-3.88a1.37,1.37,0,0,0-.29-.94,1.15,1.15,0,0,0-.94-.34,1.18,1.18,0,0,0-.95.34,1.43,1.43,0,0,0-.29.94v3.88a1.45,1.45,0,0,0,.29.94A1.22,1.22,0,0,0,457.88,166.42Z"/><path class="cls-1" d="M464.27,167.56a2.35,2.35,0,0,1-1.83-.66,2.49,2.49,0,0,1-.61-1.76v-3.88a2.46,2.46,0,0,1,.62-1.77,2.88,2.88,0,0,1,3.63,0,2.47,2.47,0,0,1,.62,1.78v3.88a2.46,2.46,0,0,1-.62,1.77A2.37,2.37,0,0,1,464.27,167.56Zm0-1.14a1.2,1.2,0,0,0,.94-.34,1.45,1.45,0,0,0,.29-.94v-3.88a1.43,1.43,0,0,0-.29-.94,1.48,1.48,0,0,0-1.89,0,1.43,1.43,0,0,0-.29.94v3.88a1.45,1.45,0,0,0,.29.94A1.2,1.2,0,0,0,464.27,166.42Z"/><path class="cls-1" d="M468.34,166.16v-1L471.2,159h1.23l-2.79,6.1h4.18v1.11Zm3.67,1.31v-5h1.17v5Z"/><line class="cls-3" x1="384.9" y1="138.18" x2="482.17" y2="138.18"/><path class="cls-4" d="M388,100.21a0,0,0,0,1,0,0v-.53a0,0,0,0,1,0,0,.37.37,0,0,0,.35-.42.38.38,0,0,0-.36-.41.43.43,0,0,0-.41.41,1.37,1.37,0,0,1-.1.5.93.93,0,0,1-.87.53,1,1,0,0,1-1-1,1,1,0,0,1,.93-1,0,0,0,0,1,0,0v.52a0,0,0,0,1,0,0,.36.36,0,0,0-.34.4.38.38,0,0,0,.4.42.4.4,0,0,0,.39-.42,1.19,1.19,0,0,1,.11-.48.94.94,0,0,1,.88-.54,1,1,0,0,1,0,2Z"/><path class="cls-5" d="M386.25,97H387V95.7a0,0,0,0,1,0,0h.5a0,0,0,0,1,0,0V97h.74V95.44a0,0,0,0,1,0,0h.51s0,0,0,0v2.1s0,0,0,0h-3.18a0,0,0,0,1,0,0v-2.1s0,0,0,0h.52a0,0,0,0,1,0,0Z"/><path class="cls-6" d="M387.59,93.89v.35h1.28s0,0,0,0v.53s0,0,0,0h-3.18s0,0,0,0v-1a1,1,0,0,1,1-1.1.85.85,0,0,1,.87.6l1.36-.62s0,0,0,0v.58a.08.08,0,0,1,0,0Zm-.59.35v-.48c0-.13,0-.48-.38-.48s-.37.39-.37.48v.48Z"/><path class="cls-7" d="M385.69,92.07s0,0,0,0V91.5s0,0,0,0h3.18s0,0,0,0V92s0,0,0,0Z"/><path class="cls-8" d="M386.25,90.16H387V88.89a0,0,0,0,1,0,0h.5a0,0,0,0,1,0,0v1.27h.74V88.63a0,0,0,0,1,0,0h.51s0,0,0,0v2.1s0,0,0,0h-3.18a0,0,0,0,1,0,0v-2.1s0,0,0,0h.52a0,0,0,0,1,0,0Z"/><path class="cls-9" d="M388,88.16a0,0,0,0,1,0,0v-.52a0,0,0,0,1,0,0,.37.37,0,0,0,.35-.41.38.38,0,0,0-.36-.41.43.43,0,0,0-.41.41,1.33,1.33,0,0,1-.1.49.94.94,0,0,1-.87.54,1,1,0,0,1-1-1,1,1,0,0,1,.93-1,0,0,0,0,1,0,0v.52s0,0,0,0c-.23,0-.34.19-.34.4a.38.38,0,0,0,.4.41.39.39,0,0,0,.39-.41,1.19,1.19,0,0,1,.11-.48.93.93,0,0,1,.88-.55,1,1,0,0,1,1,1A1,1,0,0,1,388,88.16Z"/><path class="cls-10" d="M387.25,82.18a.75.75,0,0,1,.71-.48c.9,0,.94.91.94,1.13v1s0,0,0,0h-3.18a0,0,0,0,1,0,0v-1s0-1.09.92-1.09A.67.67,0,0,1,387.25,82.18ZM387,83.31v-.48c0-.09,0-.47-.38-.47s-.36.47-.36.47v.48Zm.95-1c-.38,0-.38.42-.38.52v.48h.75v-.48C388.31,82.63,388.25,82.31,387.94,82.31Z"/><path class="cls-11" d="M385.66,78.5s0-.06.06,0l1.67,1.18h1.48s0,0,0,0v.53s0,0,0,0h-1.48l-1.67,1.18s-.06,0-.06,0v-.65a0,0,0,0,1,0,0l1.1-.77-1.1-.76a.06.06,0,0,1,0,0Z"/><path class="cls-12" d="M393,73.3h-.58v2.14s0,.06-.08.06h-.89a.07.07,0,0,1-.07-.06V70.11a.08.08,0,0,1,.07-.07h1.76a1.64,1.64,0,0,1,1.85,1.63,1.43,1.43,0,0,1-1,1.46c.35.77.71,1.52,1.06,2.29,0,0,0,.08-.07.08h-1a.1.1,0,0,1-.07,0Zm-.58-1h.79c.23,0,.81,0,.81-.63s-.64-.64-.81-.64h-.79Z"/><path class="cls-13" d="M396.08,70.11a.08.08,0,0,1,.08-.07H397a.09.09,0,0,1,.08.07v5.33s0,.06-.08.06h-.88c-.05,0-.08,0-.08-.06Z"/><path class="cls-14" d="M399.67,72.8c-.62-.86-1.24-1.8-1.86-2.65,0-.05,0-.11.06-.11H399s.05,0,.06,0l1.3,1.85,1.27-1.85s.05,0,.07,0h1.08a.07.07,0,0,1,.06.11l-1.86,2.65,1.86,2.6a.06.06,0,0,1-.06.1h-1.08l-.07,0-1.27-1.8-1.3,1.8-.06,0h-1.08c-.07,0-.1,0-.06-.1Z"/><path class="cls-15" d="M403.32,74s0,0,.08,0h.88s.08,0,.08,0a.63.63,0,0,0,.69.6.64.64,0,0,0,.7-.61.73.73,0,0,0-.7-.68,2.12,2.12,0,0,1-.82-.18,1.54,1.54,0,0,1-.91-1.45A1.67,1.67,0,0,1,405.05,70a1.6,1.6,0,0,1,1.71,1.58s0,.06-.08.06h-.87s-.08,0-.08-.06a.61.61,0,0,0-.68-.58.64.64,0,0,0-.69.68.67.67,0,0,0,.69.66,2.19,2.19,0,0,1,.82.17,1.59,1.59,0,0,1,.91,1.48,1.73,1.73,0,0,1-3.46,0Z"/><path class="cls-16" d="M413,72.77a2.7,2.7,0,1,1-2.69-2.8A2.66,2.66,0,0,1,413,72.77Zm-1.06,0a1.65,1.65,0,1,0-1.63,1.81A1.67,1.67,0,0,0,411.89,72.78Z"/><path class="cls-17" d="M418.53,75.44s0,.06-.08.06h-.89l-.06,0L415,71.85v3.59s0,.06-.07.06h-.89c-.05,0-.07,0-.07-.06V70.1s0-.06.07-.06h.89s.05,0,.06,0l2.5,3.67V70.1s0-.06.08-.06h.87c.05,0,.08,0,.08.06Z"/><path class="cls-18" d="M397.3,82.59s0,.06-.08.06h-.88a.07.07,0,0,1-.07-.06V79.52l-1.38,2.88s0,0-.07,0H394s-.06,0-.06,0l-1.48-3v3.14s0,.06-.08.06h-.88a.07.07,0,0,1-.07-.06V77.26a.07.07,0,0,1,.07-.07h.9a.16.16,0,0,1,.07,0l1.94,4,1.86-4a.12.12,0,0,1,.07,0h.89a.07.07,0,0,1,.08.07Z"/><path class="cls-19" d="M399.58,78.18v1.27h2.13c.05,0,.07,0,.07.06v.85s0,.06-.07.06h-2.13v1.25h2.57c.05,0,.08,0,.08.06v.86s0,.06-.08.06h-3.53a.07.07,0,0,1-.07-.06V77.26a.07.07,0,0,1,.07-.07h3.53a.07.07,0,0,1,.08.07v.86s0,.06-.08.06Z"/><path class="cls-20" d="M404.75,80.44h-.58v2.15s0,.06-.08.06h-.89a.07.07,0,0,1-.07-.06V77.26a.07.07,0,0,1,.07-.07H405a1.64,1.64,0,0,1,1.85,1.62,1.44,1.44,0,0,1-1,1.47c.35.77.71,1.52,1.06,2.28,0,0,0,.09-.07.09h-1a.08.08,0,0,1-.07,0Zm-.58-1H405c.23,0,.81,0,.81-.64s-.65-.63-.81-.63h-.79Z"/><path class="cls-21" d="M411.55,81.22a.11.11,0,0,1,.11,0l.62.63a.06.06,0,0,1,0,.09,2.75,2.75,0,0,1-1.92.79,2.66,2.66,0,0,1-2.73-2.79,2.73,2.73,0,0,1,4.65-2,.07.07,0,0,1,0,.1l-.62.61a.08.08,0,0,1-.11,0,1.72,1.72,0,0,0-1.19-.5,1.68,1.68,0,0,0-1.68,1.83,1.66,1.66,0,0,0,1.68,1.78A1.64,1.64,0,0,0,411.55,81.22Z"/><path class="cls-22" d="M415.76,82H414l-.21.58a.07.07,0,0,1-.07,0h-1c-.06,0-.09,0-.07-.09l2.13-5.48a.08.08,0,0,1,.14,0l2.13,5.48a.06.06,0,0,1-.06.09h-1a.06.06,0,0,1-.06,0Zm-1.43-.92h1.1l-.55-1.63Z"/><path class="cls-23" d="M418.63,77.19c1.32,0,3.17.31,3.17,2.72s-1.82,2.74-3.17,2.74h-.88c-.05,0-.08,0-.08-.06V77.26a.07.07,0,0,1,.08-.07Zm.08,4.49a1.72,1.72,0,0,0,2.05-1.77c0-1.45-.87-1.81-2.05-1.75Z"/><path class="cls-24" d="M428,79.91a2.7,2.7,0,1,1-2.69-2.8A2.66,2.66,0,0,1,428,79.91Zm-1.06,0a1.65,1.65,0,1,0-1.63,1.81A1.67,1.67,0,0,0,427,79.93Z"/><path class="cls-25" d="M419.64,86s.07,0,.07.06v3.8a1.58,1.58,0,0,1-1.63,1.59h-.66c-.05,0-.08,0-.08-.06v-.88s0-.06.08-.06h.66a.58.58,0,0,0,.6-.59V86s0-.06.07-.06Z"/><path class="cls-26" d="M426.06,88.67a2.7,2.7,0,1,1-2.69-2.8A2.65,2.65,0,0,1,426.06,88.67Zm-1.05,0a1.65,1.65,0,1,0-1.64,1.81A1.68,1.68,0,0,0,425,88.68Z"/><path class="cls-27" d="M426.89,89.88s0-.06.08-.06h.88s.07,0,.07.06a.7.7,0,0,0,1.39,0,.72.72,0,0,0-.69-.68,2.12,2.12,0,0,1-.83-.18,1.55,1.55,0,0,1-.9-1.45,1.66,1.66,0,0,1,1.73-1.67,1.61,1.61,0,0,1,1.71,1.57s0,.06-.08.06h-.87s-.08,0-.08-.06a.61.61,0,0,0-.68-.58.64.64,0,0,0-.7.68.67.67,0,0,0,.7.66,2.05,2.05,0,0,1,.81.18,1.56,1.56,0,0,1,.91,1.47,1.73,1.73,0,0,1-3.45,0Z"/><path class="cls-28" d="M432.35,86.94V88.2h2.13a.07.07,0,0,1,.07.06v.85a.07.07,0,0,1-.07.06h-2.13v1.25h2.57c.05,0,.08,0,.08.06v.86s0,.06-.08.06h-3.53a.07.07,0,0,1-.07-.06V86a.07.07,0,0,1,.07-.06h3.53c.05,0,.08,0,.08.06v.86a.08.08,0,0,1-.08.07Z"/><path class="cls-29" d="M439.62,86.94V88.2h2.13c.05,0,.07,0,.07.06v.85s0,.06-.07.06h-2.13v1.25h2.58a.07.07,0,0,1,.07.06v.86a.07.07,0,0,1-.07.06h-3.54a.07.07,0,0,1-.07-.06V86a.07.07,0,0,1,.07-.06h3.54a.07.07,0,0,1,.07.06v.86a.08.08,0,0,1-.07.07Z"/><path class="cls-30" d="M449.07,91.34a.07.07,0,0,1-.07.06h-.89a.07.07,0,0,1-.07-.06V88.27l-1.38,2.88s0,0-.07,0h-.83a.08.08,0,0,1-.06,0l-1.48-2.94v3.13a.07.07,0,0,1-.07.06h-.89a.07.07,0,0,1-.07-.06V86a.07.07,0,0,1,.07-.06h.9l.07,0,1.94,4L448,86l.07,0h.9a.07.07,0,0,1,.07.06Z"/><path class="cls-31" d="M456.22,91.34s0,.06-.08.06h-.88c-.05,0-.08,0-.08-.06V88.27l-1.37,2.88a.1.1,0,0,1-.07,0h-.84a.08.08,0,0,1-.06,0l-1.47-2.94v3.13s0,.06-.08.06h-.88c-.05,0-.08,0-.08-.06V86s0-.06.08-.06h.89s.07,0,.07,0l1.95,4,1.85-4,.07,0h.9s.08,0,.08.06Z"/><path class="cls-32" d="M460,90.79h-1.77l-.21.57a.07.07,0,0,1-.07,0h-1c-.07,0-.1,0-.07-.08l2.12-5.49a.09.09,0,0,1,.15,0l2.12,5.49s0,.08-.06.08h-1a.06.06,0,0,1-.06,0Zm-1.44-.92h1.1l-.55-1.64Z"/><path class="cls-33" d="M466.48,91.34s0,.06-.08.06h-.89s-.05,0-.06,0L463,87.75v3.59a.07.07,0,0,1-.07.06H462c-.05,0-.08,0-.08-.06V86s0-.06.08-.06h.89l.06,0,2.5,3.67V86s0-.06.08-.06h.87c.05,0,.08,0,.08.06Z"/><path class="cls-34" d="M467.7,89.65V86.06a.07.07,0,0,1,.08-.07h.88a.07.07,0,0,1,.08.07v3.58a1,1,0,0,0,1,.84c.52,0,1-.28,1-.83V86.06a.07.07,0,0,1,.08-.07h.89a.07.07,0,0,1,.07.07v3.59a1.85,1.85,0,0,1-2.06,1.83A1.88,1.88,0,0,1,467.7,89.65Z"/><path class="cls-35" d="M474.06,86.94V88.2h2.13a.07.07,0,0,1,.07.06v.85a.07.07,0,0,1-.07.06h-2.13v1.25h2.57c.05,0,.08,0,.08.06v.86s0,.06-.08.06H473.1a.07.07,0,0,1-.07-.06V86a.07.07,0,0,1,.07-.06h3.53c.05,0,.08,0,.08.06v.86a.08.08,0,0,1-.08.07Z"/><path class="cls-36" d="M480.52,90.4c.05,0,.08,0,.08.06v.88s0,.06-.08.06h-2.84a.07.07,0,0,1-.07-.06V86a.07.07,0,0,1,.07-.06h.89a.07.07,0,0,1,.07.06V90.4Z"/><path class="cls-37" d="M420.61,97.55c.05,0,.08,0,.08.06v.88s0,.06-.08.06h-2.84s-.08,0-.08-.06V93.16a.09.09,0,0,1,.08-.07h.88a.08.08,0,0,1,.08.07v4.39Z"/><path class="cls-38" d="M424.15,97.94h-1.77l-.21.57a.07.07,0,0,1-.07,0h-1c-.06,0-.09,0-.07-.08L423.2,93a.08.08,0,0,1,.14,0l2.13,5.49s0,.08-.06.08h-1s-.06,0-.06,0ZM422.72,97h1.1l-.55-1.64Z"/><path class="cls-39" d="M426.06,96.8V93.2s0-.06.08-.06H427c.05,0,.08,0,.08.06v3.59a.94.94,0,0,0,1,.83c.51,0,1-.27,1-.82V93.2s0-.06.08-.06h.89a.07.07,0,0,1,.07.06v3.6a1.85,1.85,0,0,1-2.06,1.83A1.88,1.88,0,0,1,426.06,96.8Z"/><path class="cls-40" d="M433,96.35h-.58v2.14s0,.06-.08.06h-.89a.07.07,0,0,1-.07-.06V93.16a.08.08,0,0,1,.07-.07h1.76a1.64,1.64,0,0,1,1.85,1.63,1.43,1.43,0,0,1-1,1.46c.35.77.71,1.52,1.06,2.29,0,0,0,.08-.07.08h-1a.1.1,0,0,1-.07,0Zm-.58-1h.79c.23,0,.81,0,.81-.63s-.64-.64-.81-.64h-.79Z"/><path class="cls-41" d="M437.09,94.08v1.27h2.13a.07.07,0,0,1,.07.06v.85a.07.07,0,0,1-.07.06h-2.13v1.25h2.57s.08,0,.08.06v.86s0,.06-.08.06h-3.53a.07.07,0,0,1-.07-.06V93.16a.08.08,0,0,1,.07-.07h3.53a.08.08,0,0,1,.08.07V94s0,.06-.08.06Z"/><path class="cls-42" d="M443.55,97.55c.05,0,.08,0,.08.06v.88s0,.06-.08.06h-2.84a.07.07,0,0,1-.07-.06V93.16a.08.08,0,0,1,.07-.07h.89a.08.08,0,0,1,.07.07v4.39Z"/><path class="cls-43" d="M385.49,132.65c0-.78.19-1.88,1.61-1.88s1.64,1.08,1.64,1.88v.52a0,0,0,0,1,0,.05h-3.17a0,0,0,0,1,0-.05Zm2.67-.05a1,1,0,0,0-1.06-1.22c-.85,0-1.07.52-1,1.22Z"/><path class="cls-44" d="M386.08,129.54h.75v-1.27a0,0,0,0,1,0,0h.5a0,0,0,0,1,0,0v1.27h.74V128a0,0,0,0,1,0,0h.51a0,0,0,0,1,0,0v2.1a0,0,0,0,1,0,0h-3.17a0,0,0,0,1,0,0V128a0,0,0,0,1,0,0H386a0,0,0,0,1,0,0Z"/><path class="cls-45" d="M387.83,127.54s0,0,0-.05V127s0,0,0,0a.38.38,0,0,0,.36-.41.39.39,0,0,0-.37-.42.42.42,0,0,0-.4.42,1.22,1.22,0,0,1-.11.49.92.92,0,0,1-.86.54,1,1,0,0,1-1-1,1,1,0,0,1,.94-1s0,0,0,.05v.52a0,0,0,0,1,0,0,.36.36,0,0,0-.35.41.38.38,0,0,0,.41.41.4.4,0,0,0,.39-.41,1.33,1.33,0,0,1,.1-.49.94.94,0,0,1,.88-.54,1,1,0,0,1,0,2.06Z"/><path class="cls-46" d="M385.53,124.9a0,0,0,0,1,0,0v-.53a0,0,0,0,1,0,0h3.17a0,0,0,0,1,0,0v.53a0,0,0,0,1,0,0Z"/><path class="cls-47" d="M386.86,120.74a0,0,0,0,1,0,0h1.81a0,0,0,0,1,0,0v.47a0,0,0,0,1,0,0l-.28,0a1.13,1.13,0,0,1,.36.86,1.53,1.53,0,0,1-1.68,1.56,1.62,1.62,0,0,1-1.67-1.62,1.58,1.58,0,0,1,.48-1.15,0,0,0,0,1,.05,0l.37.37a0,0,0,0,1,0,.06,1,1,0,0,0-.3.72,1,1,0,0,0,1.07,1,1,1,0,0,0,1.08-1,1,1,0,0,0-.34-.76h-.45v.8a0,0,0,0,1,0,0h-.46a0,0,0,0,1,0,0Z"/><path class="cls-48" d="M388.7,117.3a0,0,0,0,1,0,0v.53s0,0,0,0l-2.16,1.49h2.14a0,0,0,0,1,0,0V120a0,0,0,0,1,0,0h-3.18s0,0,0,0v-.53a.06.06,0,0,1,0,0l2.18-1.49h-2.16s0,0,0,0v-.52s0,0,0,0Z"/><path class="cls-49" d="M387.09,113.23a.74.74,0,0,1,.71-.48c.9,0,.94.91.94,1.13v1.05a0,0,0,0,1,0,0h-3.17a0,0,0,0,1,0,0v-1.05s0-1.09.92-1.09A.69.69,0,0,1,387.09,113.23Zm-.26,1.13v-.48c0-.09,0-.48-.39-.48s-.36.48-.36.48v.48Zm.95-1c-.39,0-.39.42-.39.52v.48h.75v-.48C388.14,113.68,388.08,113.36,387.78,113.36Z"/><path class="cls-50" d="M385.49,109.55s0-.06.06,0l1.67,1.18h1.48a0,0,0,0,1,0,0v.53a0,0,0,0,1,0,0h-1.48l-1.67,1.18s-.06,0-.06,0v-.68l1.1-.77-1.1-.76s0,0,0,0Z"/><path class="cls-51" d="M393.29,114.43a.09.09,0,0,1,.08.07v3.79a1.59,1.59,0,0,1-1.63,1.6h-.66c-.05,0-.08,0-.08-.06V119s0-.06.08-.06h.66a.59.59,0,0,0,.6-.6V114.5a.07.07,0,0,1,.07-.07Z"/><path class="cls-52" d="M399.72,117.16a2.7,2.7,0,1,1-2.69-2.8A2.65,2.65,0,0,1,399.72,117.16Zm-1.05,0A1.65,1.65,0,1,0,397,119,1.68,1.68,0,0,0,398.67,117.17Z"/><path class="cls-53" d="M400.55,118.36s0,0,.07,0h.89s.07,0,.07,0a.63.63,0,0,0,.7.6.64.64,0,0,0,.69-.61.72.72,0,0,0-.69-.68,2.12,2.12,0,0,1-.83-.18,1.53,1.53,0,0,1-.9-1.45,1.67,1.67,0,0,1,1.73-1.68,1.61,1.61,0,0,1,1.71,1.58s0,.06-.08.06H403s-.08,0-.08-.06a.61.61,0,0,0-.68-.58.64.64,0,0,0-.7.68.67.67,0,0,0,.7.66,2.05,2.05,0,0,1,.81.18,1.56,1.56,0,0,1,.91,1.47,1.73,1.73,0,0,1-3.45,0Z"/><path class="cls-54" d="M406,115.42v1.27h2.12c.05,0,.08,0,.08.06v.85s0,.06-.08.06H406v1.25h2.57c.05,0,.08,0,.08.06v.86s0,.06-.08.06h-3.53a.07.07,0,0,1-.07-.06V114.5a.08.08,0,0,1,.07-.07h3.53a.08.08,0,0,1,.08.07v.86s0,.06-.08.06Z"/><path class="cls-55" d="M413.28,115.42v1.27h2.13s.07,0,.07.06v.85s0,.06-.07.06h-2.13v1.25h2.57s.08,0,.08.06v.86s0,.06-.08.06h-3.53a.07.07,0,0,1-.07-.06V114.5a.08.08,0,0,1,.07-.07h3.53a.08.08,0,0,1,.08.07v.86s0,.06-.08.06Z"/><path class="cls-56" d="M422.73,119.83s0,.06-.08.06h-.88a.07.07,0,0,1-.07-.06v-3.07l-1.38,2.88s0,0-.07,0h-.83s-.06,0-.06,0l-1.48-2.94v3.13s0,.06-.08.06h-.88a.07.07,0,0,1-.07-.06V114.5a.08.08,0,0,1,.07-.07h.9a.16.16,0,0,1,.07,0l1.94,4,1.86-4a.12.12,0,0,1,.07,0h.89a.08.08,0,0,1,.08.07Z"/><path class="cls-57" d="M429.87,119.83a.07.07,0,0,1-.07.06h-.88c-.05,0-.08,0-.08-.06v-3.07l-1.37,2.88a.1.1,0,0,1-.07,0h-.84a.08.08,0,0,1-.06,0L425,116.7v3.13s0,.06-.08.06h-.88c-.05,0-.08,0-.08-.06V114.5a.08.08,0,0,1,.08-.07H425a.09.09,0,0,1,.07,0l1.94,4,1.86-4a.16.16,0,0,1,.07,0h.9a.08.08,0,0,1,.07.07Z"/><path class="cls-58" d="M433.67,119.28H431.9l-.22.57s0,0-.06,0h-1c-.07,0-.1,0-.07-.08l2.12-5.49a.08.08,0,0,1,.14,0l2.13,5.49s0,.08-.06.08h-1a.06.06,0,0,1-.06,0Zm-1.44-.92h1.1l-.55-1.64Z"/><path class="cls-59" d="M440.14,119.83s0,.06-.08.06h-.89l-.06,0-2.5-3.63v3.59a.07.07,0,0,1-.07.06h-.89a.07.07,0,0,1-.07-.06v-5.34a.07.07,0,0,1,.07-.06h.9s.05,0,.06,0l2.5,3.67v-3.63s0-.06.08-.06h.87c.05,0,.08,0,.08.06Z"/><path class="cls-60" d="M441.36,118.14v-3.6s0-.06.08-.06h.88c.05,0,.08,0,.08.06v3.59a.94.94,0,0,0,1,.83c.52,0,1-.27,1-.82v-3.6s0-.06.08-.06h.89a.07.07,0,0,1,.07.06v3.6a1.85,1.85,0,0,1-2.06,1.83A1.88,1.88,0,0,1,441.36,118.14Z"/><path class="cls-61" d="M447.72,115.42v1.27h2.13a.07.07,0,0,1,.07.06v.85a.07.07,0,0,1-.07.06h-2.13v1.25h2.57s.08,0,.08.06v.86s0,.06-.08.06h-3.53a.07.07,0,0,1-.07-.06V114.5a.08.08,0,0,1,.07-.07h3.53a.08.08,0,0,1,.08.07v.86s0,.06-.08.06Z"/><path class="cls-62" d="M454.18,118.89c.05,0,.08,0,.08.06v.88s0,.06-.08.06h-2.84a.07.07,0,0,1-.07-.06V114.5a.08.08,0,0,1,.07-.07h.89a.08.08,0,0,1,.07.07v4.39Z"/><path class="cls-63" d="M394.27,126c.05,0,.08,0,.08.06V127s0,.06-.08.06h-2.84c-.05,0-.08,0-.08-.06v-5.33a.07.07,0,0,1,.08-.07h.88a.07.07,0,0,1,.08.07V126Z"/><path class="cls-64" d="M397.81,126.42H396l-.21.58a.07.07,0,0,1-.07,0h-1c-.06,0-.09,0-.07-.08l2.13-5.49a.08.08,0,0,1,.14,0l2.13,5.49s0,.08-.06.08h-1s-.06,0-.06,0Zm-1.44-.92h1.1l-.54-1.63Z"/><path class="cls-65" d="M399.72,125.29v-3.6s0-.06.08-.06h.88c.05,0,.08,0,.08.06v3.59a1,1,0,0,0,1,.83c.51,0,1-.27,1-.82v-3.6s0-.06.08-.06h.89a.07.07,0,0,1,.07.06v3.6a1.85,1.85,0,0,1-2.06,1.83A1.88,1.88,0,0,1,399.72,125.29Z"/><path class="cls-66" d="M406.66,124.83h-.58V127s0,.06-.08.06h-.89A.07.07,0,0,1,405,127v-5.33a.07.07,0,0,1,.07-.07h1.76a1.64,1.64,0,0,1,1.85,1.63,1.43,1.43,0,0,1-1,1.46c.35.77.71,1.52,1.06,2.29,0,0,0,.08-.07.08h-1a.1.1,0,0,1-.07,0Zm-.58-1h.79c.23,0,.81,0,.81-.63s-.64-.64-.81-.64h-.79Z"/><path class="cls-67" d="M410.75,122.57v1.27h2.13a.07.07,0,0,1,.07.06v.85a.07.07,0,0,1-.07.06h-2.13v1.25h2.57c.05,0,.08,0,.08.06V127s0,.06-.08.06h-3.53a.07.07,0,0,1-.07-.06v-5.33a.07.07,0,0,1,.07-.07h3.53a.07.07,0,0,1,.08.07v.86s0,.06-.08.06Z"/><path class="cls-68" d="M417.21,126c.05,0,.08,0,.08.06V127s0,.06-.08.06h-2.84a.07.07,0,0,1-.07-.06v-5.33a.07.07,0,0,1,.07-.07h.88a.07.07,0,0,1,.08.07V126Z"/><path class="cls-69" d="M415.31,22a5.91,5.91,0,0,1,3.18,1.22,6.18,6.18,0,0,1,2.11,2.94,7.85,7.85,0,0,1,.2,3.56A10,10,0,0,1,418.92,34h0l-.32.41a10.23,10.23,0,0,1-.85,1.1,1.47,1.47,0,0,1-1.2.47,2.74,2.74,0,0,1-1.44-.3,1.75,1.75,0,0,1-1-1.09,1.33,1.33,0,0,1,0-.75,2.16,2.16,0,0,1,.31-.78,16.64,16.64,0,0,0,2.29-4.33,5.22,5.22,0,0,0,.33-3c-.09-.22-.18-.35-.27-.36a3.58,3.58,0,0,0-2.32.34,11.48,11.48,0,0,0-2.75,1.69A14,14,0,0,0,409.3,30a7.6,7.6,0,0,0-1.38,2.86,6.83,6.83,0,0,0-.06,2.41,13.6,13.6,0,0,0,.66,2.64,14.48,14.48,0,0,0,1.6,3.3l0,0a5.33,5.33,0,0,1,.64,1c.16.36.32.74.46,1.12a8.49,8.49,0,0,1,.38,3.6,11.28,11.28,0,0,1-1,3.55,13.56,13.56,0,0,1-2.08,3.23,17.6,17.6,0,0,1-2.86,2.68,15.48,15.48,0,0,1-3.32,1.9,11,11,0,0,1-3.47.86,9.36,9.36,0,0,1-2.52-.17,5.78,5.78,0,0,1-2.53-1.43,6.91,6.91,0,0,1-1.87-3,7.92,7.92,0,0,1-.43-2.65,8.78,8.78,0,0,1,.65-3.14,15.33,15.33,0,0,1,2-3.52,24.34,24.34,0,0,1,3.67-3.84,1,1,0,0,1,.81-.18,4.24,4.24,0,0,1,1.19.3,9,9,0,0,1,1.3.62,8.07,8.07,0,0,1,1.14.77,3.08,3.08,0,0,1,.7.79.52.52,0,0,1,0,.64c-1.42,1.55-2.6,2.92-3.52,4.11a28,28,0,0,0-2.17,3.16,9.82,9.82,0,0,0-1,2.27,2.54,2.54,0,0,0-.05,1.41.51.51,0,0,0,.31.26.88.88,0,0,0,.51,0,6.19,6.19,0,0,0,2.2-.71,11.17,11.17,0,0,0,2.24-1.58,14.17,14.17,0,0,0,2-2.2,12,12,0,0,0,1.5-2.62,9.5,9.5,0,0,0,.72-2.84,6.42,6.42,0,0,0-.34-2.82,6.16,6.16,0,0,0-.45-.91h0c-.38-.69-.75-1.44-1.14-2.22s-.71-1.59-1-2.41a18.74,18.74,0,0,1-.72-3,9.26,9.26,0,0,1,.05-3,14.5,14.5,0,0,1,.76-2.76,9.68,9.68,0,0,1,1.75-2.88,10.43,10.43,0,0,1,3.09-2.36A12.13,12.13,0,0,1,412.55,22a18.73,18.73,0,0,1,2.8,0Z"/><path class="cls-70" d="M419.32,36.14a7.07,7.07,0,0,1,1.59.45,4.83,4.83,0,0,1,1.14.66,1.91,1.91,0,0,1,.6.78.83.83,0,0,1,0,.74c-.63.83-1.27,1.74-1.91,2.72s-1.24,1.94-1.78,2.9-1.05,1.87-1.5,2.76-.82,1.65-1.12,2.33a10.69,10.69,0,0,0-.6,1.59q-.15.59.06.57a3.29,3.29,0,0,0,1.59-.86,26.76,26.76,0,0,0,2.14-2c.76-.79,1.53-1.63,2.3-2.51l2.1-2.4c.45-.52.85-1,1.21-1.37a8.83,8.83,0,0,1,.76-.79,1,1,0,0,1,.85-.27,1.21,1.21,0,0,1,.73.42,2.2,2.2,0,0,1,.45.86,2.43,2.43,0,0,1,0,1,7.74,7.74,0,0,1-.67.92q-.64.81-1.62,2c-.66.78-1.39,1.63-2.21,2.53s-1.62,1.75-2.4,2.51a25.12,25.12,0,0,1-2.2,1.94,3.55,3.55,0,0,1-1.62.83l-.8,0a2.59,2.59,0,0,1-1-.19,3.48,3.48,0,0,1-1.06-.68,5,5,0,0,1-1.08-1.42v0a4.12,4.12,0,0,1-.39-2.34,16.15,16.15,0,0,1,.56-3.35,32.6,32.6,0,0,1,1.22-3.7,28.64,28.64,0,0,1,1.57-3.41A13.12,13.12,0,0,1,417.92,37C418.45,36.36,418.92,36.08,419.32,36.14Zm.8-3a14.07,14.07,0,0,1,.58-1.37c.25-.53.52-1.06.79-1.59s.56-1,.84-1.53.52-.88.73-1.2l.43-.57a2.59,2.59,0,0,1,.59-.55,2,2,0,0,1,.78-.3,2,2,0,0,1,1,.18l1.23.66a4.25,4.25,0,0,1,1,.76,1.29,1.29,0,0,1,.41.84c0,.29-.2.59-.62.9a14.9,14.9,0,0,0-1.46,1.24c-.51.49-1,1-1.48,1.54a19.78,19.78,0,0,0-1.25,1.55A7.6,7.6,0,0,0,423,35c-.3.72-.59,1.13-.87,1.22a1.72,1.72,0,0,1-1.23-.3c-.14-.08-.3-.18-.47-.3a1.27,1.27,0,0,1-.42-.49,1.84,1.84,0,0,1-.18-.79,3.19,3.19,0,0,1,.28-1.22Z"/><path class="cls-71" d="M432.15,61.39a2.67,2.67,0,0,1-1,.52,5.62,5.62,0,0,1-1,.18,5.25,5.25,0,0,1-1.8-.38A4.55,4.55,0,0,1,427,60.8a4.28,4.28,0,0,1-.93-1.26,3.13,3.13,0,0,1-.31-1.43A2.86,2.86,0,0,1,427.08,56a21.89,21.89,0,0,1,3.1-1.76l1.62-.77c.24-.51.48-1,.74-1.61l.73-1.68a37.48,37.48,0,0,1-2.93,2.5,7.08,7.08,0,0,1-2.28,1.3,4.9,4.9,0,0,1-1,0,4,4,0,0,1-1.15-.39,5.38,5.38,0,0,1-1.23-.93A7.38,7.38,0,0,1,423.45,51a4.41,4.41,0,0,1-.42-2.55,11.84,11.84,0,0,1,.81-3.27,19.81,19.81,0,0,1,1.81-3.5,20.3,20.3,0,0,1,2.57-3.25,15.81,15.81,0,0,1,3.14-2.51,9.19,9.19,0,0,1,3.48-1.3,6.13,6.13,0,0,1,1.94.06,8.17,8.17,0,0,1,2.09.65,7.46,7.46,0,0,1,1.83,1.21,4.49,4.49,0,0,1,1.2,1.7.25.25,0,0,1-.15.35l.39.08a1.56,1.56,0,0,1,.43.36,2.43,2.43,0,0,1,.41.58,1.52,1.52,0,0,1,.15.72,1.4,1.4,0,0,1-.29.8l.07,0c-.06.12-.15.33-.27.62l-.48,1.15-1.63,4c.65-.66,1.28-1.31,1.88-2s1.17-1.28,1.7-1.87,1-1.11,1.4-1.6l1-1.17a1.44,1.44,0,0,1,1.59.24,3.34,3.34,0,0,1,.85,1.68,27.58,27.58,0,0,1-2,2.64q-1.32,1.55-3,3.2c-1.08,1.1-2.22,2.17-3.4,3.22s-2.3,2-3.36,2.77c-.41.8-.82,1.57-1.24,2.32s-.85,1.45-1.28,2.1a20.41,20.41,0,0,1-1.29,1.75,9,9,0,0,1-1.27,1.28Zm5.17-20.85c.27-.48.52-.89.75-1.22a2.74,2.74,0,0,1,.65-.69.68.68,0,0,1-.08-.17.45.45,0,0,0-.19-.2.36.36,0,0,0-.32,0,7.43,7.43,0,0,0-2.91,1.15,17.36,17.36,0,0,0-2.88,2.28,25.7,25.7,0,0,0-2.53,2.87,22.45,22.45,0,0,0-1.9,2.87,9.64,9.64,0,0,0-1,2.32c-.16.65-.09,1,.22,1.19a2.08,2.08,0,0,0,1.31-.55,21.92,21.92,0,0,0,1.89-1.6c.7-.65,1.42-1.39,2.16-2.2s1.44-1.59,2.07-2.34,1.18-1.44,1.65-2.05a9.42,9.42,0,0,0,.91-1.36Z"/><path class="cls-72" d="M455.05,26.5a4.48,4.48,0,0,1,1.58.61,5.74,5.74,0,0,1,1.24,1,3.69,3.69,0,0,1,.72,1.06c.14.34.14.59,0,.74A26,26,0,0,0,455.67,33q-1.51,1.88-3,4t-2.76,4.3c-.88,1.44-1.64,2.75-2.29,3.91s-1.16,2.12-1.54,2.88-.53,1.18-.48,1.24a3.61,3.61,0,0,0,1.55-.77,20,20,0,0,0,1.95-1.71c.68-.68,1.38-1.41,2.08-2.19s1.34-1.52,1.93-2.22,1.08-1.28,1.46-1.77.62-.79.71-.89a1,1,0,0,1,.68-.43,1.14,1.14,0,0,1,.73.21,2.26,2.26,0,0,1,.66.68,3.34,3.34,0,0,1,.44,1,4.08,4.08,0,0,1-.66,1.07c-.42.58-1,1.27-1.63,2.07s-1.4,1.65-2.21,2.53-1.61,1.71-2.4,2.48a21.87,21.87,0,0,1-2.24,1.92,4,4,0,0,1-1.63.85h-.28a5.43,5.43,0,0,1-.79,0,2.82,2.82,0,0,1-.92-.25,3.87,3.87,0,0,1-1-.66,5.85,5.85,0,0,1-1-1.29,3.17,3.17,0,0,1,.2-1.7,26.89,26.89,0,0,1,1.09-3q.74-1.74,1.71-3.84t2.07-4.19q1.1-2.1,2.21-4c.74-1.3,1.43-2.45,2.06-3.44a21.86,21.86,0,0,1,1.66-2.37C454.53,26.74,454.87,26.47,455.05,26.5Z"/><path class="cls-73" d="M468.5,37.93a4.17,4.17,0,0,1,1.57.55,3,3,0,0,1,.88.79,1.5,1.5,0,0,1,.29.85,1.16,1.16,0,0,1-.2.7c-1.63,2.18-2.82,3.88-3.58,5.08a12.59,12.59,0,0,0-1.11,2,3.5,3.5,0,0,0,1.73-.93,26.3,26.3,0,0,0,2.25-2.11c.79-.83,1.57-1.69,2.33-2.59l2-2.36,1.55-1.75a1.53,1.53,0,0,1,.92,0,2.31,2.31,0,0,1,.91.5,1.89,1.89,0,0,1,.56.77.93.93,0,0,1-.11.89c-.1.14-.38.5-.83,1.07s-1,1.22-1.65,2-1.38,1.56-2.15,2.4-1.54,1.63-2.29,2.35a22.18,22.18,0,0,1-2.12,1.81,3.52,3.52,0,0,1-1.62.78h-.28a7.06,7.06,0,0,1-.81,0,2.87,2.87,0,0,1-.94-.23,3.91,3.91,0,0,1-1-.66,5.08,5.08,0,0,1-1-1.33,1.85,1.85,0,0,1-.24-.88q-1.67,1.6-3.21,2.84a7.61,7.61,0,0,1-2.51,1.47,4.32,4.32,0,0,1-1-.05,3.73,3.73,0,0,1-1.15-.39,5,5,0,0,1-1.23-.92,7.24,7.24,0,0,1-1.24-1.66,4.41,4.41,0,0,1-.42-2.55,11.84,11.84,0,0,1,.81-3.27,20.81,20.81,0,0,1,1.81-3.49,20.38,20.38,0,0,1,2.57-3.26,16.56,16.56,0,0,1,3.14-2.51,9.4,9.4,0,0,1,3.48-1.29,6.1,6.1,0,0,1,1.94,0,8.17,8.17,0,0,1,2.09.65,7.49,7.49,0,0,1,1.83,1.22,4.46,4.46,0,0,1,1.2,1.69c.09.18,0,.33-.33.46a3.31,3.31,0,0,1-1.07.23,5.05,5.05,0,0,1-1.17,0c-.37-.07-.61-.2-.69-.41a.49.49,0,0,0-.19-.19.4.4,0,0,0-.32,0,7.58,7.58,0,0,0-2.91,1.15,17.3,17.3,0,0,0-2.87,2.28,25.67,25.67,0,0,0-2.54,2.87,22.51,22.51,0,0,0-1.9,2.88,9.48,9.48,0,0,0-1,2.32c-.16.65-.09,1,.23,1.18a1.71,1.71,0,0,0,1-.31,10.9,10.9,0,0,0,1.39-1c.52-.42,1.08-.91,1.68-1.46s1.18-1.13,1.76-1.73,1.13-1.2,1.66-1.8,1-1.15,1.45-1.67a13.94,13.94,0,0,1,1.49-2.11C467.76,38.14,468.17,37.88,468.5,37.93Z"/></svg>