<svg id="Layer_1" data-name="Layer 1" xmlns="http://www.w3.org/2000/svg" xmlns:xlink="http://www.w3.org/1999/xlink" viewBox="0 0 500 200"><defs><style>.cls-1{fill:#fff5ee;}.cls-2{fill:url(#linear-gradient);}.cls-3{fill:url(#linear-gradient-2);}.cls-4{fill:url(#linear-gradient-3);}.cls-5{fill:url(#linear-gradient-4);}.cls-6{fill:url(#linear-gradient-5);}.cls-7{fill:url(#linear-gradient-6);}.cls-8{fill:url(#linear-gradient-7);}.cls-9{fill:url(#linear-gradient-8);}.cls-10{fill:url(#linear-gradient-9);}.cls-11{fill:url(#linear-gradient-10);}.cls-12{fill:url(#linear-gradient-11);}.cls-13{fill:url(#linear-gradient-12);}.cls-14{fill:url(#linear-gradient-13);}.cls-15{fill:url(#linear-gradient-14);}.cls-16{fill:url(#linear-gradient-15);}.cls-17{fill:url(#linear-gradient-16);}.cls-18{fill:url(#linear-gradient-17);}.cls-19{fill:url(#linear-gradient-18);}.cls-20{fill:url(#linear-gradient-19);}.cls-21{fill:url(#linear-gradient-20);}.cls-22{fill:url(#linear-gradient-21);}.cls-23{fill:url(#linear-gradient-22);}.cls-24{fill:url(#linear-gradient-23);}.cls-25{fill:url(#linear-gradient-24);}</style><linearGradient id="linear-gradient" x1="-106.13" y1="45.95" x2="627.66" y2="49.52" gradientUnits="userSpaceOnUse"><stop offset="0" stop-color="#f15c3c"/><stop offset="0.53" stop-color="#fba933"/><stop offset="1" stop-color="#fff5ee"/></linearGradient><linearGradient id="linear-gradient-2" x1="-106.12" y1="45.4" x2="627.66" y2="48.97" xlink:href="#linear-gradient"/><linearGradient id="linear-gradient-3" x1="-106.12" y1="45.3" x2="627.66" y2="48.87" xlink:href="#linear-gradient"/><linearGradient id="linear-gradient-4" x1="-106.12" y1="45.09" x2="627.66" y2="48.67" xlink:href="#linear-gradient"/><linearGradient id="linear-gradient-5" x1="-106.12" y1="44.98" x2="627.66" y2="48.55" xlink:href="#linear-gradient"/><linearGradient id="linear-gradient-6" x1="-106.42" y1="106.83" x2="627.36" y2="110.4" xlink:href="#linear-gradient"/><linearGradient id="linear-gradient-7" x1="-106.42" y1="106.63" x2="627.36" y2="110.21" xlink:href="#linear-gradient"/><linearGradient id="linear-gradient-8" x1="-106.42" y1="106.44" x2="627.37" y2="110.02" xlink:href="#linear-gradient"/><linearGradient id="linear-gradient-9" x1="-106.42" y1="106.33" x2="627.37" y2="109.91" xlink:href="#linear-gradient"/><linearGradient id="linear-gradient-10" x1="-106.42" y1="106.3" x2="627.37" y2="109.87" xlink:href="#linear-gradient"/><linearGradient id="linear-gradient-11" x1="-106.42" y1="106.08" x2="627.37" y2="109.66" xlink:href="#linear-gradient"/><linearGradient id="linear-gradient-12" x1="-106.42" y1="106.25" x2="627.37" y2="109.83" xlink:href="#linear-gradient"/><linearGradient id="linear-gradient-13" x1="-106.42" y1="105.72" x2="627.37" y2="109.29" xlink:href="#linear-gradient"/><linearGradient id="linear-gradient-14" x1="-106.42" y1="105.7" x2="627.37" y2="109.27" xlink:href="#linear-gradient"/><linearGradient id="linear-gradient-15" x1="-106.42" y1="105.5" x2="627.37" y2="109.07" xlink:href="#linear-gradient"/><linearGradient id="linear-gradient-16" x1="-106.42" y1="105.34" x2="627.37" y2="108.92" xlink:href="#linear-gradient"/><linearGradient id="linear-gradient-17" x1="-106.42" y1="105.15" x2="627.37" y2="108.73" xlink:href="#linear-gradient"/><linearGradient id="linear-gradient-18" x1="-106.64" y1="150.83" x2="627.15" y2="154.41" xlink:href="#linear-gradient"/><linearGradient id="linear-gradient-19" x1="-106.71" y1="166.56" x2="627.07" y2="170.13" xlink:href="#linear-gradient"/><linearGradient id="linear-gradient-20" x1="-106.64" y1="150.47" x2="627.15" y2="154.04" xlink:href="#linear-gradient"/><linearGradient id="linear-gradient-21" x1="-106.64" y1="150.51" x2="627.15" y2="154.08" xlink:href="#linear-gradient"/><linearGradient id="linear-gradient-22" x1="-106.57" y1="135.98" x2="627.22" y2="139.55" xlink:href="#linear-gradient"/><linearGradient id="linear-gradient-23" x1="-106.64" y1="150.39" x2="627.15" y2="153.97" xlink:href="#linear-gradient"/><linearGradient id="linear-gradient-24" x1="-106.65" y1="153.84" x2="627.13" y2="157.41" xlink:href="#linear-gradient"/></defs><title>under-const</title><rect class="cls-1" width="500" height="200" rx="10"/><path class="cls-2" d="M170.4,53.09V30.67a1,1,0,0,1,1.06-.92H177a1,1,0,0,1,1.06.92V53a5.65,5.65,0,0,0,5.82,4.75c2.89,0,5.77-1.52,5.77-4.65V30.67a1,1,0,0,1,1.06-.92h5.57a1,1,0,0,1,1,.92V53.09c0,7.54-5.82,11.94-13.41,11.94S170.4,60.43,170.4,53.09Z"/><path class="cls-3" d="M234.62,63.67a1,1,0,0,1-1.06.86H228a1.41,1.41,0,0,1-.91-.36l-14.47-21.1v20.6a1,1,0,0,1-1.07.86h-5.51a.91.91,0,0,1-1-.86V30.31c0-.45.31-.86,1-.86h5.56a1.27,1.27,0,0,1,.86.3L227,51.11V30.31a1,1,0,0,1,1.06-.86h5.47a1,1,0,0,1,1.06.86Z"/><path class="cls-4" d="M249.09,29.5c8.45,0,20.35,2,20.35,17.41,0,14.83-11.69,17.62-20.35,17.62h-5.52a1,1,0,0,1-1.06-.86V30.36a1,1,0,0,1,1.06-.86Zm1.06,28c4,.1,11.64-1.06,11.64-10.58,0-8-4.5-10.48-10.73-10.48a6.89,6.89,0,0,0-.91,0Z"/><path class="cls-5" d="M283.6,36.64v6.93h12.71a.9.9,0,0,1,1,.86v5.32a.93.93,0,0,1-1,.86H283.6v6.83H299a1,1,0,0,1,1.11.86v5.37a1,1,0,0,1-1.11.86H277a1,1,0,0,1-1-.86V30.36a.93.93,0,0,1,1-.86h22a1,1,0,0,1,1.11.86v5.42a1,1,0,0,1-1.11.86Z"/><path class="cls-6" d="M315.94,50.51h-2.58V63.67a1,1,0,0,1-1.11.86h-5.52a1,1,0,0,1-1-.86V30.36a.93.93,0,0,1,1-.86h11c2.08,0,12.15.1,12.15,10.58,0,5.26-2.73,8.05-6.18,9.41,1.07,2.28,2.23,4.86,3.29,7.09l3.09,6.73a.86.86,0,0,1-.91,1.22h-6.07a1.34,1.34,0,0,1-1-.56Zm-2.58-6.74h4.35c1.27,0,4.51-.25,4.51-3.54s-3.6-3.59-4.51-3.59h-4.35Z"/><path class="cls-7" d="M87.94,115.48a1.15,1.15,0,0,1,1.37,0l3.84,3.9a1,1,0,0,1,0,1.37,17.73,17.73,0,0,1-12.35,5c-9.66,0-17.61-7-17.61-17.87,0-10.47,7.29-18.17,17.61-18.17a18.14,18.14,0,0,1,12.45,5.06,1.21,1.21,0,0,1-.1,1.32L89.31,100a1.15,1.15,0,0,1-1.37,0,10.17,10.17,0,0,0-7.14-3c-6.17,0-9.87,4.86-9.87,11,0,6.58,4.46,10.58,9.87,10.58A10.12,10.12,0,0,0,87.94,115.48Z"/><path class="cls-8" d="M133.08,107.69c0,9-5.87,18-17.41,18-11.69,0-17.46-9.06-17.46-18s5.77-18,17.46-18C127.21,89.72,133.08,98.73,133.08,107.69Zm-7.74.1c0-5.46-3.29-10.93-9.67-10.93S106,102.33,106,107.79s3.24,10.78,9.67,10.78S125.34,113.21,125.34,107.79Z"/><path class="cls-9" d="M169.42,124.39a1,1,0,0,1-1.07.86h-5.51a1.42,1.42,0,0,1-.92-.35l-14.47-21.11v20.6a1,1,0,0,1-1.06.86h-5.52a.89.89,0,0,1-1-.86V91c0-.46.3-.86,1-.86h5.57a1.29,1.29,0,0,1,.86.3l14.52,21.36V91a1,1,0,0,1,1.07-.86h5.46c.66,0,1.07.4,1.07.86Z"/><path class="cls-10" d="M176,115.23c0-.5.4-.81,1.06-.81h5.52c.51,0,1.06.31,1.06.81.1,2.18,1.77,3.24,3.75,3.24a3.46,3.46,0,0,0,3.74-3.34,4.05,4.05,0,0,0-3.74-3.74,13.86,13.86,0,0,1-5.42-1.17,10.18,10.18,0,0,1-6-9.51c0-6.79,5.47-10.94,11.39-10.94,6.22,0,11.13,4.2,11.23,10.33a1,1,0,0,1-1.06.86h-5.47a1,1,0,0,1-1.06-.86A3.33,3.33,0,0,0,187.43,97a3.48,3.48,0,0,0-3.75,3.75,3.62,3.62,0,0,0,3.75,3.64,13.6,13.6,0,0,1,5.31,1.16,10.22,10.22,0,0,1,6,9.62c0,6.88-5.52,10.63-11.34,10.63C181.1,125.61,176.14,122,176,115.23Z"/><path class="cls-11" d="M223.26,96.45c0,.46-.41.81-1.06.81h-5.88v27.13a.92.92,0,0,1-1,.86h-5.52a.9.9,0,0,1-1-.86V97.26h-5.92c-.61,0-1.06-.35-1.06-.81V91.39a1,1,0,0,1,1.06-.91H222.2a1,1,0,0,1,1.06.91Z"/><path class="cls-12" d="M237.63,111.23h-2.58v13.16a1,1,0,0,1-1.12.86h-5.51a1,1,0,0,1-1-.86V91.09a.93.93,0,0,1,1-.86h11c2.08,0,12.15.1,12.15,10.58,0,5.26-2.74,8-6.18,9.41,1.07,2.28,2.23,4.86,3.29,7.09l3.09,6.73c.25.61-.1,1.21-.91,1.21h-6.07a1.35,1.35,0,0,1-1-.55Zm-2.58-6.73h4.35c1.27,0,4.5-.25,4.5-3.54s-3.59-3.59-4.5-3.59h-4.35Z"/><path class="cls-13" d="M257.77,113.81V91.39a1,1,0,0,1,1.06-.91h5.52a1,1,0,0,1,1.06.91v22.32a5.65,5.65,0,0,0,5.82,4.76c2.89,0,5.77-1.52,5.77-4.66V91.39a1,1,0,0,1,1.06-.91h5.57a1,1,0,0,1,1,.91v22.42c0,7.55-5.82,12-13.41,12S257.77,121.15,257.77,113.81Z"/><path class="cls-14" d="M316,115.48a1.15,1.15,0,0,1,1.37,0l3.84,3.9a1,1,0,0,1,0,1.37,17.73,17.73,0,0,1-12.35,5c-9.66,0-17.61-7-17.61-17.87,0-10.47,7.29-18.17,17.61-18.17a18.14,18.14,0,0,1,12.45,5.06,1.21,1.21,0,0,1-.1,1.32L317.34,100a1.15,1.15,0,0,1-1.37,0,10.17,10.17,0,0,0-7.14-3c-6.17,0-9.87,4.86-9.87,11,0,6.58,4.46,10.58,9.87,10.58A10.12,10.12,0,0,0,316,115.48Z"/><path class="cls-15" d="M345.93,96.45c0,.46-.41.81-1.07.81H339v27.13a.92.92,0,0,1-1,.86h-5.52a.89.89,0,0,1-1-.86V97.26h-5.92c-.61,0-1.06-.35-1.06-.81V91.39a1,1,0,0,1,1.06-.91h19.33a1,1,0,0,1,1.07.91Z"/><path class="cls-16" d="M349.92,91.09a1,1,0,0,1,1.06-.86h5.52a.94.94,0,0,1,1.06.86v33.3a1,1,0,0,1-1.06.86H351a1,1,0,0,1-1.06-.86Z"/><path class="cls-17" d="M398,107.69c0,9-5.87,18-17.41,18-11.69,0-17.46-9.06-17.46-18s5.77-18,17.46-18C392.08,89.72,398,98.73,398,107.69Zm-7.74.1c0-5.46-3.29-10.93-9.67-10.93s-9.67,5.47-9.67,10.93,3.24,10.78,9.67,10.78S390.21,113.21,390.21,107.79Z"/><path class="cls-18" d="M434.29,124.39a1,1,0,0,1-1.07.86h-5.51a1.42,1.42,0,0,1-.92-.35l-14.47-21.11v20.6a1,1,0,0,1-1.06.86h-5.52a.89.89,0,0,1-1-.86V91c0-.46.3-.86,1-.86h5.57a1.29,1.29,0,0,1,.86.3l14.52,21.36V91a1,1,0,0,1,1.07-.86h5.46c.66,0,1.07.4,1.07.86Z"/><path class="cls-19" d="M203.76,142.59h1q7.51,0,10.38,2.37v17a.1.1,0,0,1-.11.11l-3.79.05a9.9,9.9,0,0,1-7-2.64,9.93,9.93,0,0,1-7.11,2.64l-3.74-.05-.05-.11V145.38q.43-.69,3.21-1.74A24.05,24.05,0,0,1,203.76,142.59Zm-6,5.58v9.11a13.09,13.09,0,0,0,4.17-1.15v-5.38c0-.07,0-.1.1-.1h4.27a.09.09,0,0,1,.1.1V156a8.07,8.07,0,0,0,2.69,1,10.63,10.63,0,0,0,1.48.26v-9.22a27.07,27.07,0,0,0-6.48-.73A25.17,25.17,0,0,0,197.75,148.17Z"/><path class="cls-20" d="M204.2,165.11h0a2.8,2.8,0,0,1,2.74,2,2.39,2.39,0,0,1,.16,1v0a2.85,2.85,0,0,1-2,2.77,2.36,2.36,0,0,1-.94.17h0a2.81,2.81,0,0,1-2.74-2,2.42,2.42,0,0,1-.16-1v0a2.84,2.84,0,0,1,2-2.77A2.39,2.39,0,0,1,204.2,165.11Z"/><path class="cls-21" d="M237.12,142.22h8.49a.09.09,0,0,1,.1.1v4.27c0,.07,0,.1-.1.1H241.5v12.54a6.9,6.9,0,0,1-2.43,1.58,16.71,16.71,0,0,1-6.63,1.27h-1.27q-5.37,0-7.85-2.06l-.16-.21V148.27h-4.53c-.07,0-.1,0-.1-.1V143.9c0-.07,0-.1.1-.1h8.91c.07,0,.1,0,.1.1v5.22H237v-6.8C237,142.25,237.06,142.22,237.12,142.22Zm-9.48,11.38v3.26a18,18,0,0,0,4.27.48h.1a17,17,0,0,0,5-.69V153.6Z"/><path class="cls-22" d="M266.6,142.53H267A7.21,7.21,0,0,1,271.4,144v4.64h-.11a8.24,8.24,0,0,0-4.48-1.32,15.32,15.32,0,0,0-4.05.69v14a.1.1,0,0,1-.11.11h-4.27c-.07,0-.1,0-.1-.11V149.38a16.3,16.3,0,0,1-3.85.63H254a7.15,7.15,0,0,1-4.37-1.42V144h.1a8.27,8.27,0,0,0,4.48,1.32q2.52,0,8.91-2.21A15.91,15.91,0,0,1,266.6,142.53Z"/><path class="cls-23" d="M260.54,134.8h0a2.8,2.8,0,0,1,2.74,2,2.39,2.39,0,0,1,.16,1v0a2.85,2.85,0,0,1-2,2.77,2.36,2.36,0,0,1-.94.17h0a2.81,2.81,0,0,1-2.73-2,2.42,2.42,0,0,1-.16-1v0a2.84,2.84,0,0,1,2-2.77A2.34,2.34,0,0,1,260.54,134.8Z"/><path class="cls-24" d="M292.07,142.53h.42a7.21,7.21,0,0,1,4.37,1.42v4.64h-.11a8.21,8.21,0,0,0-4.47-1.32,15.32,15.32,0,0,0-4.06.69v7.27a16.22,16.22,0,0,1,3.85-.63h.42a7.15,7.15,0,0,1,4.37,1.42v4.64h-.11a8.21,8.21,0,0,0-4.47-1.32q-2.55,0-8.7,2.16a16.16,16.16,0,0,1-3.69.58h-.42a7.21,7.21,0,0,1-4.37-1.42V156h.11a8.21,8.21,0,0,0,4.47,1.32,15.39,15.39,0,0,0,4.06-.69v-7.27a16.3,16.3,0,0,1-3.85.63h-.42a7.15,7.15,0,0,1-4.37-1.42V144h.11a8.21,8.21,0,0,0,4.47,1.32q2.52,0,8.91-2.21A15.9,15.9,0,0,1,292.07,142.53Z"/><path class="cls-25" d="M301.19,142.18h3.48c.07,0,.11,0,.11.1v18.13q0,6.39-6,8.48a10.16,10.16,0,0,1-3.11.53H285.6a.1.1,0,0,1-.11-.11V166.1c0-.07.05-.11.11-.11h9.69a5.21,5.21,0,0,0,5.32-3.69,7.88,7.88,0,0,0,.48-2.58V142.28C301.1,142.21,301.13,142.18,301.19,142.18Z"/></svg>