<svg id="Layer_1" data-name="Layer 1" xmlns="http://www.w3.org/2000/svg" xmlns:xlink="http://www.w3.org/1999/xlink" viewBox="0 0 500 200"><defs><style>.cls-1{fill:#fff5ee;}.cls-2{fill:#191717;opacity:0.71;}.cls-3{fill:none;stroke-miterlimit:10;stroke:url(#linear-gradient);}.cls-4{fill:#7a87b2;}.cls-5{fill:url(#linear-gradient-2);}.cls-6{fill:url(#linear-gradient-3);}</style><linearGradient id="linear-gradient" x1="385.76" y1="138.18" x2="483.03" y2="138.18" gradientUnits="userSpaceOnUse"><stop offset="0" stop-color="#222638"/><stop offset="1" stop-color="#93a0d1"/></linearGradient><linearGradient id="linear-gradient-2" x1="389.51" y1="36.75" x2="474.93" y2="35.59" xlink:href="#linear-gradient"/><linearGradient id="linear-gradient-3" x1="389.73" y1="53.5" x2="475.16" y2="52.34" xlink:href="#linear-gradient"/></defs><title>visual-right</title><path class="cls-1" d="M500,10V190a10,10,0,0,1-10,10H365.15V0H490A10,10,0,0,1,500,10Z"/><rect class="cls-2" x="390.36" y="153.09" width="85.57" height="19.74"/><path class="cls-1" d="M396.16,159v8.52H395V159Z"/><path class="cls-1" d="M398.27,167.47V159h1.19v8.52Zm.81,0v-1.14H401a2.06,2.06,0,0,0,1.47-.49,1.84,1.84,0,0,0,.52-1.38V162a1.84,1.84,0,0,0-.52-1.38,2.1,2.1,0,0,0-1.47-.49h-1.92V159H401a3.31,3.31,0,0,1,2.39.8,2.92,2.92,0,0,1,.85,2.25v2.41a3.35,3.35,0,0,1-.38,1.65,2.44,2.44,0,0,1-1.11,1,3.78,3.78,0,0,1-1.76.37Z"/><path class="cls-1" d="M405.47,162.58v-1.26h1.25v1.26Zm0,4.89v-1.26h1.25v1.26Z"/><path class="cls-1" d="M414,167.55a2.38,2.38,0,0,1-1.83-.65,2.51,2.51,0,0,1-.6-1.77v-3.87a2.48,2.48,0,0,1,.61-1.78,2.44,2.44,0,0,1,1.82-.64,2.4,2.4,0,0,1,1.82.64,2.47,2.47,0,0,1,.61,1.78v3.87a2.47,2.47,0,0,1-.61,1.78A2.4,2.4,0,0,1,414,167.55Zm0-1.13a1.19,1.19,0,0,0,.95-.35,1.41,1.41,0,0,0,.29-.94v-3.87a1.41,1.41,0,0,0-.29-.94,1.5,1.5,0,0,0-1.9,0,1.41,1.41,0,0,0-.29.94v3.87a1.41,1.41,0,0,0,.29.94A1.19,1.19,0,0,0,414,166.42Z"/><path class="cls-1" d="M420.38,167.55a2.36,2.36,0,0,1-1.83-.65,2.52,2.52,0,0,1-.61-1.77v-3.87a2.49,2.49,0,0,1,.62-1.78,2.44,2.44,0,0,1,1.82-.64,2.4,2.4,0,0,1,1.82.64,2.51,2.51,0,0,1,.61,1.78v3.87a2.51,2.51,0,0,1-.61,1.78A2.4,2.4,0,0,1,420.38,167.55Zm0-1.13a1.16,1.16,0,0,0,.94-.35,1.36,1.36,0,0,0,.29-.94v-3.87a1.36,1.36,0,0,0-.29-.94,1.48,1.48,0,0,0-1.89,0,1.41,1.41,0,0,0-.29.94v3.87a1.41,1.41,0,0,0,.29.94A1.17,1.17,0,0,0,420.38,166.42Z"/><path class="cls-1" d="M426.76,167.55a2.34,2.34,0,0,1-1.82-.65,2.47,2.47,0,0,1-.61-1.77v-3.87a2.49,2.49,0,0,1,.62-1.78,2.42,2.42,0,0,1,1.81-.64,2.39,2.39,0,0,1,1.82.64,2.47,2.47,0,0,1,.61,1.78v3.87a2.47,2.47,0,0,1-.61,1.78A2.39,2.39,0,0,1,426.76,167.55Zm0-1.13a1.17,1.17,0,0,0,.95-.35,1.41,1.41,0,0,0,.29-.94v-3.87a1.41,1.41,0,0,0-.29-.94,1.48,1.48,0,0,0-1.89,0,1.36,1.36,0,0,0-.29.94v3.87a1.36,1.36,0,0,0,.29.94A1.16,1.16,0,0,0,426.76,166.42Z"/><path class="cls-1" d="M433.15,167.55a2.38,2.38,0,0,1-1.83-.65,2.51,2.51,0,0,1-.6-1.77v-3.87a2.48,2.48,0,0,1,.61-1.78,2.44,2.44,0,0,1,1.82-.64,2.4,2.4,0,0,1,1.82.64,2.47,2.47,0,0,1,.61,1.78v3.87a2.47,2.47,0,0,1-.61,1.78A2.4,2.4,0,0,1,433.15,167.55Zm0-1.13a1.19,1.19,0,0,0,1-.35,1.41,1.41,0,0,0,.29-.94v-3.87a1.41,1.41,0,0,0-.29-.94,1.5,1.5,0,0,0-1.9,0,1.41,1.41,0,0,0-.29.94v3.87a1.41,1.41,0,0,0,.29.94A1.19,1.19,0,0,0,433.15,166.42Z"/><path class="cls-1" d="M439.54,167.55a2.36,2.36,0,0,1-1.83-.65,2.52,2.52,0,0,1-.61-1.77v-3.87a2.49,2.49,0,0,1,.62-1.78,2.44,2.44,0,0,1,1.82-.64,2.4,2.4,0,0,1,1.82.64,2.51,2.51,0,0,1,.61,1.78v3.87a2.51,2.51,0,0,1-.61,1.78A2.4,2.4,0,0,1,439.54,167.55Zm0-1.13a1.16,1.16,0,0,0,.94-.35,1.36,1.36,0,0,0,.29-.94v-3.87a1.36,1.36,0,0,0-.29-.94,1.48,1.48,0,0,0-1.89,0,1.41,1.41,0,0,0-.29.94v3.87a1.41,1.41,0,0,0,.29.94A1.17,1.17,0,0,0,439.54,166.42Z"/><path class="cls-1" d="M445.92,167.55a2.34,2.34,0,0,1-1.82-.65,2.47,2.47,0,0,1-.61-1.77v-3.87a2.49,2.49,0,0,1,.62-1.78,2.42,2.42,0,0,1,1.81-.64,2.39,2.39,0,0,1,1.82.64,2.47,2.47,0,0,1,.61,1.78v3.87a2.47,2.47,0,0,1-.61,1.78A2.39,2.39,0,0,1,445.92,167.55Zm0-1.13a1.17,1.17,0,0,0,.95-.35,1.41,1.41,0,0,0,.29-.94v-3.87a1.41,1.41,0,0,0-.29-.94,1.48,1.48,0,0,0-1.89,0,1.36,1.36,0,0,0-.29.94v3.87a1.36,1.36,0,0,0,.29.94A1.16,1.16,0,0,0,445.92,166.42Z"/><path class="cls-1" d="M452.31,167.55a2.38,2.38,0,0,1-1.83-.65,2.51,2.51,0,0,1-.6-1.77v-3.87a2.48,2.48,0,0,1,.61-1.78,2.44,2.44,0,0,1,1.82-.64,2.4,2.4,0,0,1,1.82.64,2.47,2.47,0,0,1,.61,1.78v3.87a2.47,2.47,0,0,1-.61,1.78A2.4,2.4,0,0,1,452.31,167.55Zm0-1.13a1.19,1.19,0,0,0,.95-.35,1.41,1.41,0,0,0,.29-.94v-3.87a1.41,1.41,0,0,0-.29-.94,1.5,1.5,0,0,0-1.9,0,1.41,1.41,0,0,0-.29.94v3.87a1.41,1.41,0,0,0,.29.94A1.19,1.19,0,0,0,452.31,166.42Z"/><path class="cls-1" d="M458.7,167.55a2.36,2.36,0,0,1-1.83-.65,2.52,2.52,0,0,1-.61-1.77v-3.87a2.49,2.49,0,0,1,.62-1.78,2.44,2.44,0,0,1,1.82-.64,2.4,2.4,0,0,1,1.82.64,2.51,2.51,0,0,1,.61,1.78v3.87a2.51,2.51,0,0,1-.61,1.78A2.4,2.4,0,0,1,458.7,167.55Zm0-1.13a1.16,1.16,0,0,0,.94-.35,1.36,1.36,0,0,0,.29-.94v-3.87a1.36,1.36,0,0,0-.29-.94,1.48,1.48,0,0,0-1.89,0,1.41,1.41,0,0,0-.29.94v3.87a1.41,1.41,0,0,0,.29.94A1.17,1.17,0,0,0,458.7,166.42Z"/><path class="cls-1" d="M464.94,159v8.52h-1.19v-7.22l-1.22.74v-1.24l1.22-.8Z"/><path class="cls-1" d="M466.76,166.16v-1l2.86-6.17h1.23l-2.79,6.1h4.18v1.11Zm3.67,1.31v-5h1.17v5Z"/><line class="cls-3" x1="385.76" y1="138.18" x2="483.03" y2="138.18"/><path class="cls-4" d="M388,78.18c.32.94,1.07,1.56,2.88,1.56s2.19-.52,2.19-1.22-.5-1.18-2.8-1.57c-3.79-.65-4.48-1.88-4.48-3.34,0-2.18,2.1-3.3,4.68-3.3,3.75,0,4.76,1.93,4.89,3.2h-2.66c-.15-.54-.51-1.27-2.32-1.27-1.26,0-1.9.4-1.9,1.11s.45,1,2.5,1.32c4.15.74,4.8,2,4.8,3.58,0,1.89-1.49,3.42-5.15,3.42-3.41,0-4.95-1.53-5.28-3.49Z"/><path class="cls-4" d="M404.17,77.56c0,2.15-1.19,4.08-3.5,4.08-2.1,0-3.4-1.72-3.4-4.07s1.23-4.06,3.47-4.06C402.81,73.51,404.17,75.12,404.17,77.56Zm-6.08,0c0,1.85,1,3.34,2.64,3.34s2.62-1.38,2.62-3.34-.93-3.33-2.65-3.33S398.09,75.71,398.09,77.57Z"/><path class="cls-4" d="M406.09,75.81c0-1.31,0-1.86,0-2.11h.75c0,.25,0,.74,0,1.73a2.93,2.93,0,0,1,2.69-1.92v.84a2.79,2.79,0,0,0-2.69,3.07v4h-.78Z"/><path class="cls-4" d="M410.43,73.7h1.44V71.28h.78V73.7h1.84v.73h-1.84v5c0,.86.18,1.36.93,1.36a3.17,3.17,0,0,0,.8-.09v.68a2.66,2.66,0,0,1-1,.14c-1,0-1.55-.5-1.55-1.74V74.43h-1.44Z"/><path class="cls-4" d="M416.07,70h.78v1.51h-.78Zm0,3.68h.78v7.75h-.78Z"/><path class="cls-4" d="M419.39,75.65c0-.68,0-1.33,0-2h.76a14.6,14.6,0,0,1,0,1.47,2.54,2.54,0,0,1,2.58-1.66c1.38,0,2.6.78,2.6,2.92v5h-.77v-4.9c0-1.38-.58-2.28-1.93-2.28-1.84,0-2.48,1.54-2.48,3.23v4h-.77Z"/><path class="cls-4" d="M433.81,80.92c0,2.48-1.11,3.79-3.35,3.79a2.72,2.72,0,0,1-3-2.31h.79A2.14,2.14,0,0,0,430.49,84c2,0,2.57-1.31,2.57-3.27V79.9a2.45,2.45,0,0,1-2.59,1.55c-1.81,0-3.21-1.47-3.21-3.88,0-2.6,1.49-4.06,3.32-4.06a2.35,2.35,0,0,1,2.48,1.37c0-.45,0-1,.05-1.18h.73c0,.28,0,1.5,0,2.25Zm-5.73-3.38c0,1.85,1,3.18,2.47,3.18,1.94,0,2.53-1.29,2.53-3.3s-.62-3.18-2.48-3.18S428.08,75.78,428.08,77.54Z"/><path class="cls-4" d="M389,97.78l-1,2.67H385l4.74-11.76h3.65l5,11.76h-3.08l-1.1-2.67Zm4.44-2.28c-1.1-2.7-1.63-4.07-1.91-5h0c-.26.88-.89,2.67-1.77,5Z"/><path class="cls-4" d="M399.75,100.45V88.15h.83v12.3Z"/><path class="cls-4" d="M409.7,99.88c0,2.67-1.19,4.08-3.61,4.08-2.17,0-3.07-1.22-3.27-2.49h.85a2.31,2.31,0,0,0,2.45,1.7c2.17,0,2.77-1.4,2.77-3.52v-.87a2.63,2.63,0,0,1-2.78,1.67c-2,0-3.46-1.59-3.46-4.17,0-2.81,1.6-4.38,3.57-4.38,1.71,0,2.44.8,2.67,1.47,0-.48,0-1.07.06-1.27h.78c0,.3,0,1.62,0,2.42Zm-6.16-3.64c0,2,1,3.43,2.65,3.43,2.09,0,2.72-1.39,2.72-3.56s-.67-3.42-2.67-3.42S403.54,94.34,403.54,96.24Z"/><path class="cls-4" d="M419.19,96.26c0,2.32-1.28,4.39-3.77,4.39-2.25,0-3.65-1.85-3.65-4.37s1.31-4.38,3.73-4.38C417.73,91.9,419.19,93.64,419.19,96.26Zm-6.54,0c0,2,1.07,3.59,2.84,3.59s2.82-1.49,2.82-3.59-1-3.59-2.86-3.59S412.65,94.27,412.65,96.28Z"/><path class="cls-4" d="M421.26,94.37c0-1.4,0-2,0-2.27h.81c0,.27,0,.8,0,1.87A3.16,3.16,0,0,1,425,91.9v.9a3,3,0,0,0-2.9,3.31v4.34h-.84Z"/><path class="cls-4" d="M426.54,88.15h.83v1.62h-.83Zm0,3.95h.83v8.35h-.83Z"/><path class="cls-4" d="M429,92.1h1.55V89.5h.83v2.6h2v.79h-2v5.42c0,.94.2,1.47,1,1.47a3,3,0,0,0,.87-.1v.74a3.05,3.05,0,0,1-1,.15c-1.07,0-1.67-.54-1.67-1.87V92.89H429Z"/><path class="cls-4" d="M435.84,88.15v5.36a2.9,2.9,0,0,1,2.75-1.61c1.19,0,2.82.6,2.82,3.24v5.31h-.83V95.31c0-1.65-.75-2.59-2.14-2.59-1.65,0-2.6,1-2.6,3.07v4.66H435V88.15Z"/><path class="cls-4" d="M444.15,94.26c0-.72,0-1.51,0-2.16H445c0,.29.05,1,0,1.49a2.61,2.61,0,0,1,2.51-1.69,2.38,2.38,0,0,1,2.42,1.66,2.84,2.84,0,0,1,2.72-1.66c1.28,0,2.62.74,2.62,3.06v5.49h-.83V95.06c0-1.12-.41-2.34-2-2.34s-2.35,1.3-2.35,2.92v4.81h-.82V95.08c0-1.22-.37-2.36-1.9-2.36S445,94.16,445,95.86v4.59h-.83Z"/><path class="cls-4" d="M457.94,98.15a2.21,2.21,0,0,0,2.37,1.73c1.48,0,2.08-.68,2.08-1.62s-.4-1.42-2.27-1.87c-2.15-.51-2.68-1.17-2.68-2.27s.86-2.22,2.75-2.22a2.66,2.66,0,0,1,2.92,2.34h-.83a2,2,0,0,0-2.12-1.57c-1.45,0-1.87.72-1.87,1.39s.4,1.15,2,1.55c2.35.57,2.94,1.33,2.94,2.59,0,1.52-1.24,2.45-3,2.45a2.89,2.89,0,0,1-3.2-2.5Z"/><path class="cls-4" d="M391.56,123.45l-6.51-16h4.29l2.81,7.6c1.06,2.87,1.51,4.42,1.78,5.44H394c.25-.93.47-1.6,2-5.73l2.71-7.31h4.15l-6.62,16Z"/><path class="cls-4" d="M404.68,106.75h1.14V109h-1.14Zm0,5.37h1.14v11.33h-1.14Z"/><path class="cls-4" d="M409.42,120.32a3,3,0,0,0,3.21,2.36c2,0,2.84-.93,2.84-2.2s-.55-1.92-3.08-2.54c-2.93-.7-3.65-1.58-3.65-3.08s1.18-3,3.74-3,3.78,1.56,4,3.17h-1.13a2.68,2.68,0,0,0-2.88-2.13c-2,0-2.54,1-2.54,1.88s.55,1.56,2.79,2.11c3.19.77,4,1.81,4,3.51,0,2.06-1.68,3.33-4.06,3.33-2.58,0-4-1.36-4.35-3.4Z"/><path class="cls-4" d="M427.68,120.14c0,1.11,0,2.88,0,3.31h-1.09c0-.29-.06-1-.06-2-.48,1.34-1.64,2.24-3.65,2.24-1.63,0-3.72-.63-3.72-4.1v-7.5h1.11v7.23c0,1.65.52,3.26,2.77,3.26,2.53,0,3.49-1.43,3.49-4.67v-5.82h1.13Z"/><path class="cls-4" d="M439.16,121.3a12.69,12.69,0,0,0,.16,2.15h-1.09a7.82,7.82,0,0,1-.2-1.74c-.38.83-1.38,2-3.72,2-2.62,0-3.76-1.7-3.76-3.4,0-2.49,1.93-3.62,5.33-3.62H438v-1.16c0-1.13-.34-2.65-2.92-2.65-2.29,0-2.63,1.2-2.88,2.13H431.1c.13-1.25.9-3.17,4-3.17,2.58,0,4,1.09,4,3.58Zm-1.11-3.63h-2.22c-2.51,0-4.08.66-4.08,2.61a2.37,2.37,0,0,0,2.61,2.4c3.24,0,3.69-2.15,3.69-4.6Z"/><path class="cls-4" d="M442.9,123.45v-16.7H444v16.7Z"/><path class="cls-4" d="M447.75,106.75h1.13V109h-1.13Zm0,5.37h1.13v11.33h-1.13Z"/><path class="cls-4" d="M451.42,122.41l7.16-9.22h-6.8v-1.07h8.11v1.09l-7.07,9.18h7.32l-.27,1.06h-8.45Z"/><path class="cls-4" d="M462.65,117.92c0,2.92,1.5,4.74,3.68,4.74a3.19,3.19,0,0,0,3.26-2.13h1.15a4.33,4.33,0,0,1-4.46,3.19c-3.44,0-4.78-3-4.78-5.84,0-3.24,1.61-6,4.92-6,3.49,0,4.6,3,4.6,5.14,0,.32,0,.64,0,.93Zm7.19-1c0-2.24-1.25-4-3.47-4s-3.4,1.63-3.65,4Z"/><path class="cls-4" d="M473.78,115.2c0-1.9,0-2.72,0-3.08h1.11c0,.36.05,1.09.05,2.54a4.3,4.3,0,0,1,3.94-2.81v1.22c-2.35.16-3.94,1.79-3.94,4.49v5.89h-1.13Z"/><path class="cls-5" d="M412.87,17.33h6.92c.14,0,.2.08.2.2v4.82l-.1.2h36.55c.13,0,.2.08.2.2v6.93a.18.18,0,0,1-.2.2H412.87a.18.18,0,0,1-.21-.2V17.53C412.68,17.39,412.75,17.33,412.87,17.33Zm4.81,17.77h34.84c.14,0,.2.08.2.2v6.93a.18.18,0,0,1-.2.2H424.71V55.18a.18.18,0,0,1-.2.2h-6.83a.18.18,0,0,1-.2-.2V35.3C417.5,35.17,417.57,35.1,417.68,35.1Z"/><path class="cls-6" d="M431,46.3h12.31c.05,0,.07,0,.07.07v3.84a43.73,43.73,0,0,1-.45,6.71h.38a.06.06,0,0,1,.07.07v2.35a.06.06,0,0,1-.07.07H431s-.06,0-.06-.07V57c0-.05,0-.07.06-.07h9.27a18.55,18.55,0,0,0,.41-2.8H431s-.06,0-.06-.07V51.66s0-.07.06-.07h9.86V48.9l0-.07-.07,0H431s-.06,0-.06-.07V46.37S431,46.3,431,46.3Z"/></svg>