<svg id="Layer_1" data-name="Layer 1" xmlns="http://www.w3.org/2000/svg" xmlns:xlink="http://www.w3.org/1999/xlink" viewBox="0 0 500 200"><defs><style>.cls-1{fill:#fff5ee;}.cls-2{fill:#191717;opacity:0.71;}.cls-3{fill:none;stroke-miterlimit:10;stroke:url(#linear-gradient);}.cls-4{fill:url(#linear-gradient-2);}.cls-5{fill:url(#linear-gradient-3);}.cls-6{fill:url(#linear-gradient-4);}.cls-7{fill:url(#linear-gradient-5);}.cls-8{fill:url(#linear-gradient-6);}.cls-9{fill:url(#linear-gradient-7);}.cls-10{fill:url(#linear-gradient-8);}.cls-11{fill:url(#linear-gradient-9);}.cls-12{fill:url(#linear-gradient-10);}.cls-13{fill:url(#linear-gradient-11);}.cls-14{fill:url(#linear-gradient-12);}.cls-15{fill:url(#linear-gradient-13);}.cls-16{fill:url(#linear-gradient-14);}.cls-17{fill:url(#linear-gradient-15);}.cls-18{fill:url(#linear-gradient-16);}.cls-19{fill:url(#linear-gradient-17);}.cls-20{fill:url(#linear-gradient-18);}.cls-21{fill:url(#linear-gradient-19);}.cls-22{fill:url(#linear-gradient-20);}.cls-23{fill:url(#linear-gradient-21);}.cls-24{fill:url(#linear-gradient-22);}.cls-25{fill:url(#linear-gradient-23);}.cls-26{fill:url(#linear-gradient-24);}.cls-27{fill:url(#linear-gradient-25);}.cls-28{fill:url(#linear-gradient-26);}.cls-29{fill:url(#linear-gradient-27);}.cls-30{fill:url(#linear-gradient-28);}.cls-31{fill:url(#linear-gradient-29);}.cls-32{fill:url(#linear-gradient-30);}</style><linearGradient id="linear-gradient" x1="385.76" y1="138.18" x2="483.03" y2="138.18" gradientUnits="userSpaceOnUse"><stop offset="0" stop-color="#730f1b"/><stop offset="1" stop-color="#e02635"/></linearGradient><linearGradient id="linear-gradient-2" x1="375.5" y1="-20.05" x2="498.89" y2="0.35" gradientTransform="matrix(1, 0, 0, -1, 0, 75.03)" gradientUnits="userSpaceOnUse"><stop offset="0" stop-color="#e01d3e"/><stop offset="0.14" stop-color="#e12439"/><stop offset="0.4" stop-color="#e22736"/><stop offset="0.63" stop-color="#b02028"/><stop offset="1" stop-color="#571312"/></linearGradient><linearGradient id="linear-gradient-3" x1="375.59" y1="-20.62" x2="498.99" y2="-0.22" xlink:href="#linear-gradient-2"/><linearGradient id="linear-gradient-4" x1="375.7" y1="-21.29" x2="499.1" y2="-0.9" xlink:href="#linear-gradient-2"/><linearGradient id="linear-gradient-5" x1="375.75" y1="-21.57" x2="499.14" y2="-1.17" xlink:href="#linear-gradient-2"/><linearGradient id="linear-gradient-6" x1="375.64" y1="-20.92" x2="499.03" y2="-0.52" xlink:href="#linear-gradient-2"/><linearGradient id="linear-gradient-7" x1="375.66" y1="-21" x2="499.05" y2="-0.6" xlink:href="#linear-gradient-2"/><linearGradient id="linear-gradient-8" x1="378.42" y1="-37.74" x2="501.81" y2="-17.34" xlink:href="#linear-gradient-2"/><linearGradient id="linear-gradient-9" x1="378.55" y1="-38.5" x2="501.94" y2="-18.1" xlink:href="#linear-gradient-2"/><linearGradient id="linear-gradient-10" x1="378.5" y1="-38.21" x2="501.89" y2="-17.81" xlink:href="#linear-gradient-2"/><linearGradient id="linear-gradient-11" x1="378.41" y1="-37.69" x2="501.81" y2="-17.29" xlink:href="#linear-gradient-2"/><linearGradient id="linear-gradient-12" x1="378.59" y1="-38.73" x2="501.98" y2="-18.34" xlink:href="#linear-gradient-2"/><linearGradient id="linear-gradient-13" x1="378.75" y1="-39.74" x2="502.15" y2="-19.35" xlink:href="#linear-gradient-2"/><linearGradient id="linear-gradient-14" x1="378.6" y1="-38.82" x2="501.99" y2="-18.43" xlink:href="#linear-gradient-2"/><linearGradient id="linear-gradient-15" x1="378.68" y1="-39.32" x2="502.08" y2="-18.92" xlink:href="#linear-gradient-2"/><linearGradient id="linear-gradient-16" x1="378.85" y1="-40.34" x2="502.25" y2="-19.95" xlink:href="#linear-gradient-2"/><linearGradient id="linear-gradient-17" x1="400.36" y1="33" x2="481.43" y2="53.74" xlink:href="#linear-gradient-2"/><linearGradient id="linear-gradient-18" x1="392.08" y1="65.35" x2="473.15" y2="86.09" xlink:href="#linear-gradient-2"/><linearGradient id="linear-gradient-19" x1="395.97" y1="50.13" x2="477.05" y2="70.87" xlink:href="#linear-gradient-2"/><linearGradient id="linear-gradient-20" x1="406.75" y1="8" x2="487.82" y2="28.74" xlink:href="#linear-gradient-2"/><linearGradient id="linear-gradient-21" x1="405.61" y1="12.47" x2="486.68" y2="33.21" xlink:href="#linear-gradient-2"/><linearGradient id="linear-gradient-22" x1="406.84" y1="7.63" x2="487.92" y2="28.37" xlink:href="#linear-gradient-2"/><linearGradient id="linear-gradient-23" x1="399.05" y1="38.13" x2="480.12" y2="58.87" xlink:href="#linear-gradient-2"/><linearGradient id="linear-gradient-24" x1="398.4" y1="40.63" x2="479.48" y2="61.36" xlink:href="#linear-gradient-2"/><linearGradient id="linear-gradient-25" x1="403.83" y1="19.41" x2="484.91" y2="40.15" xlink:href="#linear-gradient-2"/><linearGradient id="linear-gradient-26" x1="394.24" y1="56.91" x2="475.32" y2="77.64" xlink:href="#linear-gradient-2"/><linearGradient id="linear-gradient-27" x1="391.48" y1="67.72" x2="472.55" y2="88.45" xlink:href="#linear-gradient-2"/><linearGradient id="linear-gradient-28" x1="395.62" y1="51.5" x2="476.7" y2="72.24" xlink:href="#linear-gradient-2"/><linearGradient id="linear-gradient-29" x1="402.57" y1="24.36" x2="483.64" y2="45.09" xlink:href="#linear-gradient-2"/><linearGradient id="linear-gradient-30" x1="406.98" y1="7.12" x2="488.05" y2="27.85" xlink:href="#linear-gradient-2"/></defs><title>weight-right</title><path class="cls-1" d="M500,10V190a10,10,0,0,1-10,10H365.15V0H490A10,10,0,0,1,500,10Z"/><rect class="cls-2" x="390.36" y="153.09" width="85.57" height="19.74"/><path class="cls-1" d="M395.16,159v8.52H394V159Z"/><path class="cls-1" d="M397.27,167.47V159h1.19v8.52Zm.81,0v-1.14H400a2.06,2.06,0,0,0,1.47-.49,1.84,1.84,0,0,0,.52-1.38V162a1.84,1.84,0,0,0-.52-1.38,2.1,2.1,0,0,0-1.47-.49h-1.92V159H400a3.31,3.31,0,0,1,2.39.8,2.92,2.92,0,0,1,.85,2.25v2.41a3.35,3.35,0,0,1-.38,1.65,2.46,2.46,0,0,1-1.11,1.05,3.92,3.92,0,0,1-1.76.36Z"/><path class="cls-1" d="M404.47,162.58v-1.25h1.25v1.25Zm0,4.89v-1.26h1.25v1.26Z"/><path class="cls-1" d="M413,167.55a2.38,2.38,0,0,1-1.83-.65,2.51,2.51,0,0,1-.6-1.77v-3.87a2.46,2.46,0,0,1,.61-1.77,2.89,2.89,0,0,1,3.64,0,2.47,2.47,0,0,1,.61,1.78v3.87a2.47,2.47,0,0,1-.61,1.78A2.4,2.4,0,0,1,413,167.55Zm0-1.13a1.19,1.19,0,0,0,.95-.35,1.41,1.41,0,0,0,.29-.94v-3.87a1.41,1.41,0,0,0-.29-.94,1.5,1.5,0,0,0-1.9,0,1.41,1.41,0,0,0-.29.94v3.87a1.41,1.41,0,0,0,.29.94A1.19,1.19,0,0,0,413,166.42Z"/><path class="cls-1" d="M419.38,167.55a2.36,2.36,0,0,1-1.83-.65,2.52,2.52,0,0,1-.61-1.77v-3.87a2.46,2.46,0,0,1,.62-1.77,2.89,2.89,0,0,1,3.64,0,2.51,2.51,0,0,1,.61,1.78v3.87a2.51,2.51,0,0,1-.61,1.78A2.4,2.4,0,0,1,419.38,167.55Zm0-1.13a1.16,1.16,0,0,0,.94-.35,1.36,1.36,0,0,0,.29-.94v-3.87a1.36,1.36,0,0,0-.29-.94,1.48,1.48,0,0,0-1.89,0,1.41,1.41,0,0,0-.29.94v3.87a1.41,1.41,0,0,0,.29.94A1.17,1.17,0,0,0,419.38,166.42Z"/><path class="cls-1" d="M425.76,167.55a2.34,2.34,0,0,1-1.82-.65,2.47,2.47,0,0,1-.61-1.77v-3.87a2.46,2.46,0,0,1,.62-1.77,2.88,2.88,0,0,1,3.63,0,2.47,2.47,0,0,1,.61,1.78v3.87a2.47,2.47,0,0,1-.61,1.78A2.39,2.39,0,0,1,425.76,167.55Zm0-1.13a1.17,1.17,0,0,0,.95-.35,1.41,1.41,0,0,0,.29-.94v-3.87a1.41,1.41,0,0,0-.29-.94,1.48,1.48,0,0,0-1.89,0,1.36,1.36,0,0,0-.29.94v3.87a1.36,1.36,0,0,0,.29.94A1.16,1.16,0,0,0,425.76,166.42Z"/><path class="cls-1" d="M432.15,167.55a2.38,2.38,0,0,1-1.83-.65,2.51,2.51,0,0,1-.6-1.77v-3.87a2.46,2.46,0,0,1,.61-1.77,2.89,2.89,0,0,1,3.64,0,2.47,2.47,0,0,1,.61,1.78v3.87a2.47,2.47,0,0,1-.61,1.78A2.4,2.4,0,0,1,432.15,167.55Zm0-1.13a1.19,1.19,0,0,0,1-.35,1.41,1.41,0,0,0,.29-.94v-3.87a1.41,1.41,0,0,0-.29-.94,1.5,1.5,0,0,0-1.9,0,1.41,1.41,0,0,0-.29.94v3.87a1.41,1.41,0,0,0,.29.94A1.19,1.19,0,0,0,432.15,166.42Z"/><path class="cls-1" d="M438.54,167.55a2.36,2.36,0,0,1-1.83-.65,2.52,2.52,0,0,1-.61-1.77v-3.87a2.46,2.46,0,0,1,.62-1.77,2.89,2.89,0,0,1,3.64,0,2.51,2.51,0,0,1,.61,1.78v3.87a2.51,2.51,0,0,1-.61,1.78A2.4,2.4,0,0,1,438.54,167.55Zm0-1.13a1.16,1.16,0,0,0,.94-.35,1.36,1.36,0,0,0,.29-.94v-3.87a1.36,1.36,0,0,0-.29-.94,1.48,1.48,0,0,0-1.89,0,1.41,1.41,0,0,0-.29.94v3.87a1.41,1.41,0,0,0,.29.94A1.17,1.17,0,0,0,438.54,166.42Z"/><path class="cls-1" d="M444.92,167.55a2.34,2.34,0,0,1-1.82-.65,2.47,2.47,0,0,1-.61-1.77v-3.87a2.46,2.46,0,0,1,.62-1.77,2.88,2.88,0,0,1,3.63,0,2.47,2.47,0,0,1,.61,1.78v3.87a2.47,2.47,0,0,1-.61,1.78A2.39,2.39,0,0,1,444.92,167.55Zm0-1.13a1.17,1.17,0,0,0,.95-.35,1.41,1.41,0,0,0,.29-.94v-3.87a1.41,1.41,0,0,0-.29-.94,1.48,1.48,0,0,0-1.89,0,1.36,1.36,0,0,0-.29.94v3.87a1.36,1.36,0,0,0,.29.94A1.16,1.16,0,0,0,444.92,166.42Z"/><path class="cls-1" d="M451.31,167.55a2.38,2.38,0,0,1-1.83-.65,2.51,2.51,0,0,1-.6-1.77v-3.87a2.46,2.46,0,0,1,.61-1.77,2.89,2.89,0,0,1,3.64,0,2.47,2.47,0,0,1,.61,1.78v3.87a2.47,2.47,0,0,1-.61,1.78A2.4,2.4,0,0,1,451.31,167.55Zm0-1.13a1.19,1.19,0,0,0,.95-.35,1.41,1.41,0,0,0,.29-.94v-3.87a1.41,1.41,0,0,0-.29-.94,1.5,1.5,0,0,0-1.9,0,1.41,1.41,0,0,0-.29.94v3.87a1.41,1.41,0,0,0,.29.94A1.19,1.19,0,0,0,451.31,166.42Z"/><path class="cls-1" d="M457.7,167.55a2.36,2.36,0,0,1-1.83-.65,2.52,2.52,0,0,1-.61-1.77v-3.87a2.46,2.46,0,0,1,.62-1.77,2.89,2.89,0,0,1,3.64,0,2.51,2.51,0,0,1,.61,1.78v3.87a2.51,2.51,0,0,1-.61,1.78A2.4,2.4,0,0,1,457.7,167.55Zm0-1.13a1.16,1.16,0,0,0,.94-.35,1.36,1.36,0,0,0,.29-.94v-3.87a1.36,1.36,0,0,0-.29-.94,1.48,1.48,0,0,0-1.89,0,1.41,1.41,0,0,0-.29.94v3.87a1.41,1.41,0,0,0,.29.94A1.17,1.17,0,0,0,457.7,166.42Z"/><path class="cls-1" d="M464.08,167.55a2.34,2.34,0,0,1-1.82-.65,2.47,2.47,0,0,1-.61-1.77v-3.87a2.46,2.46,0,0,1,.62-1.77,2.88,2.88,0,0,1,3.63,0,2.47,2.47,0,0,1,.61,1.78v3.87a2.47,2.47,0,0,1-.61,1.78A2.39,2.39,0,0,1,464.08,167.55Zm0-1.13a1.17,1.17,0,0,0,.95-.35,1.41,1.41,0,0,0,.29-.94v-3.87a1.41,1.41,0,0,0-.29-.94,1.48,1.48,0,0,0-1.89,0,1.36,1.36,0,0,0-.29.94v3.87a1.36,1.36,0,0,0,.29.94A1.16,1.16,0,0,0,464.08,166.42Z"/><path class="cls-1" d="M470.77,167.55a2.93,2.93,0,0,1-1.36-.29,2.07,2.07,0,0,1-.9-.83,2.3,2.3,0,0,1-.33-1.24v-.14a2.46,2.46,0,0,1,.32-1.21,2.17,2.17,0,0,1,.86-.84,1.91,1.91,0,0,1-.72-.72,1.82,1.82,0,0,1-.28-1v-.2a2.12,2.12,0,0,1,.66-1.63,2.82,2.82,0,0,1,3.5,0,2.12,2.12,0,0,1,.66,1.63v.2a2,2,0,0,1-.28,1,1.87,1.87,0,0,1-.74.71,2.19,2.19,0,0,1,.87.84,2.46,2.46,0,0,1,.32,1.21v.14a2.29,2.29,0,0,1-.32,1.24,2.12,2.12,0,0,1-.9.83A2.93,2.93,0,0,1,470.77,167.55Zm0-1.14a1.42,1.42,0,0,0,1-.36,1.24,1.24,0,0,0,.38-1V165a1.24,1.24,0,0,0-.38-1,1.42,1.42,0,0,0-1-.36,1.4,1.4,0,0,0-1,.36,1.24,1.24,0,0,0-.39,1v.09a1.21,1.21,0,0,0,.39.94A1.4,1.4,0,0,0,470.77,166.41Zm0-3.85a1.19,1.19,0,0,0,.88-.35,1.27,1.27,0,0,0,.33-.91v-.09a1.18,1.18,0,0,0-.33-.87,1.22,1.22,0,0,0-.88-.33,1.2,1.2,0,0,0-.88.33,1.18,1.18,0,0,0-.33.88v.09a1.25,1.25,0,0,0,.33.9A1.17,1.17,0,0,0,470.77,162.56Z"/><line class="cls-3" x1="385.76" y1="138.18" x2="483.03" y2="138.18"/><path class="cls-4" d="M418.49,83a2.75,2.75,0,0,0,0,.4c-.14.06-.32.16-.5.26a.64.64,0,0,0-.08.19l-.24,0a.08.08,0,0,0,0,0,1.41,1.41,0,0,0-.36.24l-.34.45a6,6,0,0,1-.34.67h0a1.5,1.5,0,0,1,.11-.36c-.25.14-.39.37-.56.85l.08,0-.06.16a4.37,4.37,0,0,0-.76,1.31c-.33.6-.56,1.22-.85,1.84-.14.34-.26.69-.39,1a2.13,2.13,0,0,0-.16.25,3.19,3.19,0,0,0-.29.8,4.71,4.71,0,0,1-.37,1.28,8.37,8.37,0,0,1-.46,1.36,1,1,0,0,0-.23.43c-.05.17,0,.36-.08.59s0,.19-.11.15c-.05.15-.12.3-.3.29l.05.32c-.14,0-.24-.13-.39-.19a.39.39,0,0,1-.05.14,2,2,0,0,0-.29-.14c-.19.21-.36.17-.51-.1l-.17.17-.27-.53h-.05c0-.09,0-.26,0-.38s.06-.19-.08-.16a1.8,1.8,0,0,1,0-.22.69.69,0,0,0,0-.47,1.31,1.31,0,0,1,0-.28.58.58,0,0,1,0-.62.39.39,0,0,0,0-.28,1.09,1.09,0,0,1-.12-.66,4.54,4.54,0,0,1,.06-.9c0-.42.13-.85.21-1.32l-.14.09c-.21.41-.39.8-.6,1.14a7.32,7.32,0,0,1-.41.88c-.17.22-.14.54-.31.75s-.23.42-.33.63c-.12.36-.32.66-.42,1a4.65,4.65,0,0,0-.22,1.11,2.59,2.59,0,0,1-.23.66s0-.08-.08-.12-.1.19-.13.28l.06.11-.06-.08a1.48,1.48,0,0,0-.12.29l0,.05c-.19,0-.1-.22-.24-.29l-.07.13-.07.15c-.25-.11-.25-.34-.35-.52-.06,0-.07,0-.1.09s.07.15,0,.33l-.27,0a1.24,1.24,0,0,0,.09-.38c-.14,0-.24.14-.34.16l-.15-.12,0,.16c-.09,0-.14-.37-.1-.62A2.49,2.49,0,0,1,406,94l-.07-.13a.47.47,0,0,0,.17,0l-.09-.24s0,0,.07-.07,0-.3,0-.46.06-.19.07-.29l.13-.66a4.26,4.26,0,0,1,.06-.5l.08-.45.08-.39s0,0,0-.07c-.08-.27.14-.53.09-.82.11,0,.1-.07.09-.1a2.57,2.57,0,0,1,.19-1c.11-.37.14-.79.24-1.2a2.74,2.74,0,0,0,.09-.39c0-.11.05-.27.08-.38a1.56,1.56,0,0,1,.1-.37c0-.06,0-.12-.09-.17.11-.56.23-1.16.37-1.75a.57.57,0,0,0,.18,0c.06,0,.07-.11.12-.12a1.39,1.39,0,0,1,.41,0,1,1,0,0,1,.51.12c.11.06.29,0,.41.12a3.67,3.67,0,0,1,.42.24.55.55,0,0,1,0,.47c-.1.22-.18.43-.26.66s-.25.63-.38,1a1.49,1.49,0,0,1,0,.21,14.12,14.12,0,0,0-.48,2c-.11.57-.27,1.11-.38,1.64a4.42,4.42,0,0,1-.23.81v.1a.16.16,0,0,1,0,.07.67.67,0,0,0,.1-.33.76.76,0,0,1,.17-.32,2,2,0,0,1,.36-.4.3.3,0,0,0-.07-.15.56.56,0,0,0,.17-.09c-.07,0-.07,0-.11-.13l.78-1.33a.79.79,0,0,1,.05.22c.05-.19.23-.24.14-.48,0-.06.07-.14.13-.23.19-.29.43-.61.66-.91.05-.08.14-.15,0-.25s.12-.34.23-.45a1.11,1.11,0,0,1,0,.17s0,0,0-.06c0-.24.17-.35.25-.54a4,4,0,0,0,.21-.47c.07,0,.19-.24.33,0a.26.26,0,0,1,.09-.09v.07c.14,0,.23.21.38.23l.1.1c.18,0,.32-.22.5-.07a1.24,1.24,0,0,1,.29.39.48.48,0,0,0,.17,0,20.65,20.65,0,0,1-.67,2.9.32.32,0,0,1-.14,0,1.55,1.55,0,0,0,0,.31,2.8,2.8,0,0,1-.09.58.6.6,0,0,0,0,.47c0,.12-.09.24-.14.36s0,0,.06,0,.13-.34.21-.47l.81-2c.2-.48.44-.93.65-1.42.08-.21.24-.34.28-.53a6.74,6.74,0,0,1,.38-.87,1.9,1.9,0,0,1,.33-.59.43.43,0,0,0,.09-.23,2.56,2.56,0,0,0,.11-.24c.05-.07,0-.18.09-.31a11.75,11.75,0,0,1,.63-1.16,1.09,1.09,0,0,1,.23-.39c.26-.45.55-.88.84-1.33a1.94,1.94,0,0,1,.23-.27c.1-.09.2,0,.31.11.2-.13.43,0,.67,0a.82.82,0,0,0-.1.24.24.24,0,0,0,.12.14.27.27,0,0,1,.37.08.25.25,0,0,1,0,.07c-.06.22,0,.47-.17.59C418.31,82.88,418.41,83,418.49,83ZM406.6,94.27c.07-.24.07-.24-.05-.54a2.91,2.91,0,0,0-.12.39l.11.15-.17-.08a2.57,2.57,0,0,1,0,.48.57.57,0,0,0,.14-.4Zm.75-2c.09-.43.17-.88.24-1.33,0,0,0,0,0,0a10.29,10.29,0,0,0-.28,1.34s.05,0,.07,0Zm1.3-4.22s0,0,0,0c-.15.42-.34.8-.5,1.21a1.4,1.4,0,0,0-.05.5.5.5,0,0,1-.05.36c-.06.2-.21.31-.11.55l0,.09c-.08.37-.15.72-.24,1.09,0,.07,0,.19,0,.29a.11.11,0,0,1,.08,0l0-.16c.07-.35.17-.71.22-1.07l.35-1.56a.37.37,0,0,0,0-.14.35.35,0,0,1,0-.3c.07-.23.12-.46.21-.68Zm.27-.73-.08,0a2.34,2.34,0,0,0-.09.38l-.05.26Zm2.28,6a3,3,0,0,0,.07-.52,7.19,7.19,0,0,1,.07-1.23c0-.12,0-.25,0-.37h-.06l-.08.25a8.49,8.49,0,0,0-.12,1.74.2.2,0,0,0,0,.11,0,0,0,0,0,.05,0Z"/><path class="cls-5" d="M418.51,87.18l-.29.59c0,.08,0,.15.08.14a.89.89,0,0,0,.28,0c.37-.11.72-.25,1.05-.37a2.42,2.42,0,0,1,.46-.13c.12,0,0-.12.09-.12a.61.61,0,0,0,.19,0,.25.25,0,0,0,.12-.11s0,0,0-.07-.06-.14.08-.11.09,0,.05.12,0,.06,0,.06a.12.12,0,0,0,.07-.15v0s0-.09,0-.1a.16.16,0,0,1,.11-.05c.15,0,.34,0,.48.14s.09,0,.14,0a5.32,5.32,0,0,1,.8-.12c.2,0,.31.13.42.28a.1.1,0,0,1,0,.14l0,0h0c-.1.08.17.16,0,.25s-.1.08-.05.26.05.06,0,.09,0,.1.1.09l.1,0c.25-.12.23,0,.24.19a.85.85,0,0,1-.09.22c0,.13-.13.11-.2.15l-.22.11a4.86,4.86,0,0,1-.9.33,2.47,2.47,0,0,0-.52.18,3.63,3.63,0,0,1-1.08.26,2.91,2.91,0,0,0-1,.31,2.83,2.83,0,0,1-1.15.18.92.92,0,0,0-.36.13.37.37,0,0,0-.22.35,2.22,2.22,0,0,1-.12.39c-.1.27-.17.53-.25.82l0,0c0,.34,0,.31.27.22s.68-.22,1-.31c.19-.09.43-.14.63-.23a4.4,4.4,0,0,1,.8-.26.32.32,0,0,0,.26-.12c0-.08.07.17.14,0s.11,0,.18-.07a.67.67,0,0,1,.21-.09,2,2,0,0,0,.79-.26,1.86,1.86,0,0,1,.84-.11c.21,0,.31.18.38.35s0,.16-.12.21-.1,0-.09.1a.64.64,0,0,0,0,.2l.1,0c.05,0,.13.08.06.21s0,.1.09.12,0,0,.05.05-.06,0-.07,0a.12.12,0,0,1-.08,0,.11.11,0,0,0,.08,0l.07,0,.2.14-.22,0c-.14,0,0,.11,0,.14s.08,0,0,.09l-.12.06-1.09.35a2,2,0,0,1-.33.08,2.23,2.23,0,0,0-.71.25,9,9,0,0,1-1.9.91c-.34.08-.66.26-1,.34a1.69,1.69,0,0,1-1.27,0,1.3,1.3,0,0,1-.19-.11c-.07-.06-.11-.16-.21-.19s-.12-.23-.21-.33a.2.2,0,0,1,.15-.2l.43-.11s0,0,.07,0-.05,0-.07,0-.25-.1-.4-.17a.52.52,0,0,1-.33-.49.9.9,0,0,1,0-.43,3.85,3.85,0,0,0,.08-.49c0-.1,0-.22.06-.35s0-.25,0-.38.05-.1.15-.13h0a1,1,0,0,0,0-.24s0-.07,0-.09,0,0,0-.08c-.15,0,0-.21-.13-.26v0l.23-.14s0,0,0-.06l0,0a.48.48,0,0,1-.33-.06c-.05,0-.09-.09,0-.12s-.05-.15.09-.17c0,0,0,0,0,0a.85.85,0,0,1-.42-.56.52.52,0,0,1-.06-.3c0-.06.07-.12.09-.18s.1,0,.15,0a1.8,1.8,0,0,0,.52,0,3.35,3.35,0,0,0,.53-.19s.09,0,.12-.12l.35-.86a9.69,9.69,0,0,1,.42-1.06.23.23,0,0,0,0-.32l-.23-.2a1.05,1.05,0,0,0-.2-.27c-.1-.12,0-.28-.06-.41a.8.8,0,0,1,.22-.17,2.67,2.67,0,0,1,.4,0c.15,0,.32,0,.5,0s0-.06,0-.08.08-.26.15-.4.13-.31.17-.45a.67.67,0,0,0,0-.28s0-.07,0-.08l.11-.12c0-.1,0-.14.1-.17a.52.52,0,0,1,.18-.1.09.09,0,0,1,.07,0c.1.09.22.06.34,0s.16.16.27.19a1.89,1.89,0,0,1,.69.42s0,.07,0,.12.13.15.27.11a6.81,6.81,0,0,1,1.59-.43,2,2,0,0,0,.5-.18s.05,0,0,0c.05-.21.16-.12.26-.08a.42.42,0,0,0,.31,0,3.53,3.53,0,0,0,.46,0h.37a.23.23,0,0,1,.18,0,.1.1,0,0,1,.05.11c-.11.13,0,.18,0,.28s0,.11,0,.19-.1.15-.05.29v.09s-.11,0,0,.07.09,0,.11,0,.11,0,.1.09-.09,0-.11,0a.49.49,0,0,0-.12,0,.19.19,0,0,0-.1,0s0,0,.07,0l.12,0c.09,0,.06.1,0,.14s-.08.07-.11.08-.05,0-.09,0-.06,0,0,.06.06.07,0,.12,0,.07,0,.11,0,0,.06,0,0,.06,0,.09h-.08c-.07,0-.12-.06-.22-.09s-.11-.06-.14,0c-.19.12-.37,0-.52.08s-.14.06-.16,0a.56.56,0,0,0-.45.12.39.39,0,0,1-.29.07.49.49,0,0,0-.41.14,1.59,1.59,0,0,1-1,.29.76.76,0,0,0-.25.06,1.8,1.8,0,0,1-.38.16.94.94,0,0,0-.22.12s0,0,0,0,0,0,0,.05-.14,0-.14,0a.29.29,0,0,0-.32,0,1.36,1.36,0,0,0-.41.26.45.45,0,0,0-.13.14l0,0s.05,0,.06,0a2.17,2.17,0,0,0-.22.34.53.53,0,0,0-.24.29.34.34,0,0,0,0,.09s0,0,0,0a1,1,0,0,1,.2-.25S418.54,87.15,418.51,87.18Zm4.79-2.59a.18.18,0,0,0-.09.06l0,0,.13.12c.05,0,.07,0,.1,0s.05-.07,0-.06Z"/><path class="cls-6" d="M423.83,93.05c0-.11,0-.15-.1-.2s-.24-.13-.21-.35l.2-1,.07-.49s0,0,0,0,0,0,0,0a7.33,7.33,0,0,0-.22.83,2.55,2.55,0,0,1-.35.7c-.05.11-.12.08-.15,0a1.5,1.5,0,0,1,0-.37,1.25,1.25,0,0,1,.07-.57,2.45,2.45,0,0,0,0-.27,12.13,12.13,0,0,1,.24-1.2c0-.08,0-.14,0-.2s0,0,0-.09l0,.09a.21.21,0,0,1,0,.06s0,0,0-.06a.31.31,0,0,0,.06-.13q.15-.6.33-1.2c0-.08.09-.14.14-.19s.16-.35.23-.52,0-.1,0-.13a.9.9,0,0,1,0-.16l.07,0v0c0,.08,0,.06.05,0s.07-.22.11-.34l.06-.22a.05.05,0,0,0,0,0s0,0,0,0a.26.26,0,0,1,0,.23s0,.08,0,.11l.06-.05a1.05,1.05,0,0,0,.16-.46.08.08,0,0,1,.05-.06.06.06,0,0,1,.05,0,.44.44,0,0,1,0,.16l0,.08.08-.06a.5.5,0,0,0,.05-.13,5.08,5.08,0,0,0,.28-.94l.17-.65,0-.07s-.08,0-.09,0a1.22,1.22,0,0,0-.07.17c-.09.36-.21.7-.32,1a.13.13,0,0,1,0,.08h0s0,0,0,0v-.14l.53-1.86a.56.56,0,0,0,0-.12.33.33,0,0,1,0-.14l-.1.09-.16.16a.9.9,0,0,1-.2.28,2.22,2.22,0,0,0-.23.43.18.18,0,0,1-.05.07.18.18,0,0,0,0-.1c-.06-.09,0-.19,0-.28l0-.07s0,0,0,0l-.06.09s0,.1-.07.07a.11.11,0,0,1-.06-.11,1.61,1.61,0,0,1,.08-.38c0-.08,0-.08-.08,0s0-.05,0-.05a1,1,0,0,0,.12-.6,1.27,1.27,0,0,0-.05-.64c-.06-.14,0-.27.07-.4s.07,0,.08,0l.34.12a.2.2,0,0,0,.2,0c.18,0,.36-.17.55,0,0,0,0,0,.07,0s.14,0,.1.11,0,.08.06.08.07,0,.11,0a2.61,2.61,0,0,1,.28.17l.35.23a.81.81,0,0,1,.19.18.87.87,0,0,0,.26.39.14.14,0,0,1,.08.12c.06,0,0,.13-.07.15s-.13.12-.2.22a7.19,7.19,0,0,1-.39.9,1.82,1.82,0,0,0-.07.25c-.11.45-.24.89-.39,1.33-.06.14-.06.3-.11.42a3.1,3.1,0,0,0-.26.85,4.33,4.33,0,0,1-.37,1.12,1.43,1.43,0,0,0-.22.54c0,.09-.05.16-.08.27a1,1,0,0,1-.06.25,3.78,3.78,0,0,0-.24,1,6,6,0,0,1-.24.83c-.09.29-.15.59-.24.9a1,1,0,0,1-.26.54s-.08.07-.1.05a.14.14,0,0,1-.08-.1.36.36,0,0,0,0-.11A.72.72,0,0,1,423.83,93.05Zm.7-4.39c.05-.14.11-.28.16-.45a.54.54,0,0,0,0-.18c-.09,0-.06.11-.1.17s0,.14-.06.19a.73.73,0,0,0-.06.21s0,.06,0,.07Z"/><path class="cls-7" d="M430.42,83.32a3.65,3.65,0,0,0,.37-.29,1.55,1.55,0,0,0,.24-.19c.08,0,.22-.06.2-.2s0,0,0,0c.34-.1.55-.39.86-.54.06,0-.06-.08,0-.11s.08-.07.13-.11a2.49,2.49,0,0,1,.47-.33,1.89,1.89,0,0,0,.27-.2.35.35,0,0,1,.47,0c.05,0,.16,0,.19.07a.52.52,0,0,0,.19.17l.05,0c.39.11.55.44.81.7a.09.09,0,0,1,.06.1c0,.05.1.08.12,0a5.89,5.89,0,0,1,.37-.64,7.9,7.9,0,0,1,.93-1.3l.1,0a3.54,3.54,0,0,0,.45.08c.07,0,.16.1.24.17a1.42,1.42,0,0,1,.46.57.9.9,0,0,1-.2.83c0,.08-.12.14-.17.22l-.17.19a9.82,9.82,0,0,0-1,1.53,6.43,6.43,0,0,1-.39.79.23.23,0,0,1-.14.15c-.08,0-.11,0-.15,0a.77.77,0,0,1-.07-.16.31.31,0,0,0-.13-.06c-.1,0-.14,0-.2-.09s-.11-.11-.21,0-.05.07-.08.09-.05,0-.06,0a.29.29,0,0,0-.1-.18s-.06-.11,0-.12,0-.2,0-.26a.27.27,0,0,0-.08-.07c-.13,0-.1-.07-.08-.13s0,0,.05,0a.12.12,0,0,1,.08,0c0-.05,0-.09,0-.12s-.08,0-.1,0a4.29,4.29,0,0,0-.5.19.74.74,0,0,0-.28.14l-.77.44-.63.39c-.05,0-.18,0-.07.17a.1.1,0,0,1,0,0l-.42.37-.21.21c-.11.14-.25.27-.38.41l-.95,1a7.73,7.73,0,0,0-.6.67,1.18,1.18,0,0,0-.22.28.11.11,0,0,1-.07,0s0,0,0,0,.07-.13.1-.23,0,0,0-.07,0,0-.07,0-.06,0-.07,0,.12-.22.19-.33.24-.35.35-.54c0,0,0,0,0,0h-.06s0,0,0,.07c-.16.21-.33.41-.51.61a2,2,0,0,0-.39.38s0,.08-.1,0a.34.34,0,0,1,0-.1l.05-.06s0-.06,0-.07a.11.11,0,0,0-.08,0,5.79,5.79,0,0,0-.78,1.34.27.27,0,0,1-.06.12s-.12.07-.14,0,.1,0,.12-.1l.25-.53a.28.28,0,0,0,0-.26h0c.14-.06,0-.21.13-.3a.78.78,0,0,0,.24-.3.35.35,0,0,0,.06-.17s0,0,0,0l-.12.09c0,.19-.16.26-.2.39a2.19,2.19,0,0,0-.27.5c-.08.25-.13.5-.2.74a1.13,1.13,0,0,0-.17.69.2.2,0,0,1,0,.15s0,0,0,0,0,0,0,0a3.52,3.52,0,0,0,.28-.59,3.54,3.54,0,0,1,.53-.76s0,0,0,0,.11,0,.16-.06.21-.29.33-.43a.93.93,0,0,1,.23-.21l-.19.38c-.17.27-.33.53-.48.8l0,.09s.06,0,.06,0,.14-.21.21-.28a.52.52,0,0,1,.17-.16s0,0,0,0v.07a1.21,1.21,0,0,1-.2.3c-.15.12-.15.33-.28.47s0,0,0,0,.22,0,.34,0l.33-.07.08,0c.15-.11.36-.13.48-.27s.1.08.13,0a.38.38,0,0,1,.14-.11l.16-.07a3.07,3.07,0,0,0,.76-.4,1.33,1.33,0,0,1,.43-.17,4.21,4.21,0,0,0,.95-.52c.4-.24.8-.52,1.2-.78l.08-.08a1,1,0,0,0,.19-.16l-.21,0a.25.25,0,0,1-.22-.12,1,1,0,0,0-.42-.26.85.85,0,0,1-.67-.59c-.07-.17,0-.26.21-.29l.39,0a5.07,5.07,0,0,0,1.35-.2l.89-.19c.34-.06.65-.12,1-.2a5.65,5.65,0,0,0,.71-.17.4.4,0,0,1,.37,0,1.94,1.94,0,0,1,.34.21c.07,0,0,.08,0,.09s-.06,0,0,.08l.17.15h0a.1.1,0,0,1,0-.06l0-.06a.16.16,0,0,1,.05.09l0,.16s.09.09,0,.12v0c.1.09.15.2.28.26s.07.11,0,.14l-.34.08c-.19,0-.37.05-.57.06a.36.36,0,0,0-.39.25c-.1.2-.17.38-.25.57a.56.56,0,0,0-.05.34.34.34,0,0,1,0,.1c-.2.34-.36.69-.56,1s-.49.85-.72,1.27a.14.14,0,0,0,0,.09,3.86,3.86,0,0,1-.47.9,2.91,2.91,0,0,0-.47.93l-.12.22-.33.75s0,.1-.05.14a2.55,2.55,0,0,0-.23.24l-.34-.2a.12.12,0,0,1,0-.14c.12-.18,0-.35.07-.52,0,0-.07,0-.1,0s-.22,0-.33-.1-.08-.06,0-.16a4.36,4.36,0,0,0,.11-.52s0-.06,0,0a0,0,0,0,0-.06,0s0,0,0,0-.06.08-.11.06h0a.3.3,0,0,1-.08-.16c0-.09.05-.17-.09-.18a.24.24,0,0,1-.06-.1.53.53,0,0,0-.05-.39s0,0,0-.08,0,0,0,0l0,0v.1s0,0,0,.06,0,0,0-.06l.07-.17,0-.08,0,.07c0,.05,0,.05,0,.06a.09.09,0,0,0,0-.07.08.08,0,0,0,0-.06c0-.06,0-.1,0-.17s.07,0,.08,0,0-.11,0-.15a.55.55,0,0,1,0-.18s0-.06,0-.12v-.11s-.07.06-.08.07-.18.19-.33.17L432,90c0-.1-.08,0-.12,0a1.34,1.34,0,0,0-.31.22,2.25,2.25,0,0,1-.88.46l-.23.13-.11.06h.19a.08.08,0,0,1,0,0c-.32.15-.65.27-1,.44a1.32,1.32,0,0,1-.7.2c-.06,0-.08,0-.13,0a.26.26,0,0,0-.12,0l.1-.06h-.06a1.56,1.56,0,0,0-.31,0s0,.06,0,0h-.11l-.11,0a.14.14,0,0,1,0-.07s.12,0,.08-.11a.23.23,0,0,0-.24-.17.2.2,0,0,0-.1,0,1.5,1.5,0,0,1-.3,0c-.08,0-.08,0,0-.07s0-.07-.06-.07c-.21,0-.35-.11-.52-.16s-.1-.08-.14-.12-.11-.07,0-.11a.08.08,0,0,1-.09-.07s-.12,0,0,0,0-.09.07,0,.06,0,.08,0,0,0,0,0h0s0,0,0-.08-.07-.06-.11-.1h-.18a.05.05,0,0,1,0,0c0-.09-.06-.15-.07-.23s-.13-.14,0-.18a.35.35,0,0,0,0-.11,1.22,1.22,0,0,1-.07-.17c0-.12.06,0,.08,0s.12-.23,0-.36,0,0,0-.05l0-.56c0-.06,0-.06.12,0s.11,0,.1-.08a1.67,1.67,0,0,1,.26-.67,13.73,13.73,0,0,1,.73-1.2c.23-.35.51-.64.75-1,.08-.08.2-.17.12-.33s0-.09.06-.05a.1.1,0,0,0,.06,0c.1-.14.24-.24.34-.38l.31-.38.4-.45.09-.16c.13,0,.15-.08.07-.17A2.33,2.33,0,0,1,430.42,83.32Zm-3.28,7.44h.05a.52.52,0,0,0,.2-.06c0-.11-.12-.06-.14-.1a.29.29,0,0,1,0-.09s-.07-.06-.11,0-.06.06-.09.08-.17.13-.14.14.14,0,.2,0Zm1.3-3.92.2-.26c.14-.16.29-.33.43-.52a.06.06,0,0,0,0-.06l0,0c-.21.21-.4.44-.59.67a.53.53,0,0,0-.08.15l0,0,.06,0Zm.41,0c-.14.18-.27.37-.41.54s0,.07,0,.1l.07,0c0-.08,0-.19.11-.24s.13-.23.22-.34,0,0,0,0Zm.81-2.86-.06.09h.1a.69.69,0,0,0,.13-.11c.13,0,.16-.08.07-.17-.08.08-.17.14-.24.2Zm.48,2,.49-.62.05-.06h-.1l-.33.38a5,5,0,0,0-.38.45.08.08,0,0,0,0,.08h0a1,1,0,0,0,.26-.23Zm2.07,2.64,0,0h0a3.29,3.29,0,0,0-.52.29s0,0,0,0,0,0,0,0h0C431.83,88.85,432,88.76,432.21,88.64Zm4.88-6.36c.11,0,.15-.1.22-.15s0,0,.05,0,0,0,0,0l-.37.43s-.06,0-.1,0,0-.08,0-.09v-.09Z"/><path class="cls-8" d="M442.06,86.68a.56.56,0,0,1-.28-.05,1.29,1.29,0,0,0-.44,0c-.27.09-.54.12-.79.21l-.2,0a.41.41,0,0,0-.38.37c0,.08-.06,0-.12.08s0,0,0,.07.06.08,0,.1a1.23,1.23,0,0,1-.12.37s0,.07,0,.06c-.16,0-.12.12-.17.16a.12.12,0,0,0,0,.07.11.11,0,0,0,.06,0,.07.07,0,0,0,.05,0s0,.06,0,.07l-.06.21a1,1,0,0,1-.07.15l-.07.22c-.09-.07.05-.14,0-.21v0l-.08,0s0,.06,0,.08l-.17.45c0,.05-.05.07-.07.09v-.12a3.27,3.27,0,0,0,.17-.53,3.85,3.85,0,0,0,.08-.47s0,0,0,0,0,0,0,0v.06c0,.08,0,.11-.07.13a.28.28,0,0,1,0-.13V88s0,0,0,.06-.08.18-.11.27l-.07.29c0,.27-.13.54-.2.8a6.09,6.09,0,0,0-.23.82s-.06,0-.07,0V90.2c0-.07,0-.07-.08,0a1.22,1.22,0,0,1-.12.19l-.05,0v-.06l0-.07,0-.16c-.09,0-.11.06-.11.14s-.1.19-.15.3a5.71,5.71,0,0,0-.21.58s-.07.12-.09.1-.06-.08,0-.15a2.49,2.49,0,0,0,0-.47l0-.07a.11.11,0,0,0,0,.06l-.11.72a.54.54,0,0,1-.1.2,2.35,2.35,0,0,0-.19.25c-.06.06-.16.1-.17.21s-.15.09-.22,0a.61.61,0,0,1-.15-.59,1.36,1.36,0,0,0,.09-.63c0-.08.07-.15.09-.22s.06,0,.07,0,0,0,0,0,0,0,0,.05v.13c.1,0,.08-.07.08-.1l.09-.41s0-.07,0-.08.09,0,.09,0l.21-.7a1,1,0,0,1,.1-.29c0-.1.08-.2.11-.3a.31.31,0,0,1,.11-.21.55.55,0,0,0,.12-.24l0,0,0-.05c.14-.16.09-.37.16-.53s.07-.17,0-.2.07-.11.08-.15a1.21,1.21,0,0,0,.06-.38.07.07,0,0,1,0-.06c.07-.13.07-.16-.09-.19s-.13-.06-.15-.14-.06-.19-.17-.14-.07,0-.07,0,0,0-.07,0-.06-.07,0-.09-.05-.14-.14-.14-.18,0-.17-.18a.3.3,0,0,0-.11-.24c-.06-.11-.07-.18,0-.27s.1-.08,0-.13,0-.06,0-.11a.07.07,0,0,1,.08,0h0s.06,0,.08,0,.29-.07.4.09.06,0,.09,0a3.62,3.62,0,0,1,.57,0,.17.17,0,0,0,.17-.14,1.81,1.81,0,0,1,.29-.75,6.93,6.93,0,0,0,.5-1.31,8.22,8.22,0,0,1,.33-1c.12-.33.28-.68.39-1,0,0,0-.14.06-.21a.09.09,0,0,0,0-.06l-.05.05c0,.17-.13.2-.22.32l-.08,0a.13.13,0,0,0,0-.09l.31-.74a.48.48,0,0,0,.07-.23s-.05,0-.05,0-.11,0-.09-.08a2.32,2.32,0,0,0,.25-.77c0-.12,0-.24.06-.37a.2.2,0,0,1,.06-.14s.05,0,.07,0a.47.47,0,0,1,.09.12c.1.09.12.09.19,0s0-.11.12,0,.08.09.13,0l.06,0c.08.06.15.14.24,0,.2.1.46,0,.68.11h0a2.31,2.31,0,0,0,.59.29.75.75,0,0,1,.41.35c0,.09.05.17,0,.23s-.15.2-.19.33a1.38,1.38,0,0,1-.21.48,5.2,5.2,0,0,0-.42.72,3.79,3.79,0,0,1-.2.34.48.48,0,0,0-.08.16s0,.08,0,.1v0c-.05.08-.21.12-.08.25-.15,0-.1.17-.15.24a.81.81,0,0,0-.16.43.94.94,0,0,1-.1.23s-.05.07-.05.1a2.26,2.26,0,0,1-.3.78c-.11.26-.19.53-.27.75s0,.1.08.09l.52-.1.25-.07,1.35-.25a3.39,3.39,0,0,0,.43-.11c.3-.06.59-.11.86-.18,0,0,.13,0,.15-.07l.23-.5c0-.06,0-.11-.06-.07a.09.09,0,0,1-.07,0s0,0,0-.06c.17-.39.35-.79.5-1.23a3.56,3.56,0,0,0,.23-.85,4.22,4.22,0,0,1,.22-.77c0-.09.26-.16.38-.14l.08,0a.68.68,0,0,0,.2.07c.09,0,.15,0,.21,0s.24.1.31.06.19,0,.27.07a1.2,1.2,0,0,0,.5,0,.44.44,0,0,1,.32,0,.23.23,0,0,0,.22-.07.48.48,0,0,1,.26-.07c.1,0,.21,0,.25.1a.34.34,0,0,1,0,.31c-.09.1-.16.2-.25.29a1.54,1.54,0,0,0-.4.61,5.42,5.42,0,0,0-.53,1.27,2.71,2.71,0,0,1-.26.74c0,.05-.06.14.07.08s.17-.12.18-.18,0,0,0-.06,0,0,.06,0,0,.07.06.08l.11,0a.37.37,0,0,0-.05-.11.14.14,0,0,0,0-.06h.06l.23.17s0,0,0,.06,0,.12.09.13a0,0,0,0,1,0,.08c0,.05-.06.09-.1.05s0,0,0,0h-.11l.05.06c.12.1.13.12,0,.17s-.1.24-.24.27l0,.1c.1.12.23.1.37.13a1.26,1.26,0,0,1,.27,0,.12.12,0,0,1,.1.07.16.16,0,0,1-.08.06H448a.2.2,0,0,0-.19.08c.15.12,0,.13-.07.17a.73.73,0,0,1-.18.17.88.88,0,0,1-.23.07,2.55,2.55,0,0,1-.73,0,.54.54,0,0,0-.31,0,.74.74,0,0,0-.34.38c-.13.29-.24.6-.36.89a1.48,1.48,0,0,0-.25.7c-.14.08-.08.25-.16.37a3.53,3.53,0,0,0-.15.39,3.69,3.69,0,0,1-.17.42c-.07.13-.11.27-.18.4l-.17.38-.19.4a.72.72,0,0,0-.12.21c0,.09-.05.08-.08,0a.08.08,0,0,0-.07.07c0,.14-.07.29-.08.43s-.08.1-.12.09a.42.42,0,0,1-.34-.44c0-.12,0-.13-.18-.12s-.1,0-.08-.06V90c0-.12,0-.23.07-.36s0-.17-.12-.1-.3-.09-.45-.13,0,0-.05,0-.12,0-.1-.09c.07-.23.14-.46.22-.68a6.81,6.81,0,0,0,.43-1.22,3.22,3.22,0,0,1,.23-.5c0-.06,0-.09-.06-.11a.1.1,0,0,1-.09-.12v0c0-.1,0-.1-.1-.08l-.32,0v0C442.63,86.61,442.34,86.66,442.06,86.68Zm-4.49,2.89a.9.9,0,0,0,.08-.23s.11-.08.06-.16a.31.31,0,0,0-.1.13.85.85,0,0,0-.11.26s0,0,0,.05a.1.1,0,0,0,0-.05Zm.94.44.11-.37s0,0,0,0-.13.27-.11.37v0s0,0,0,0,0,0,0,0Zm1.08-2.3.18-.41,0-.21c-.14,0-.1.12-.14.18a4,4,0,0,0-.16.45s0,0,0,0h0S439.59,87.72,439.59,87.71Zm.33-3.77-.07.13a1.06,1.06,0,0,0,0,.19s0,0,.05,0,.13,0,.09-.25c0,0,0-.07,0-.1Zm.92.21s0,0,0,0a.1.1,0,0,0-.05,0c-.09.22-.17.43-.25.64a.54.54,0,0,0,0,.18l.13-.15s0,0,0,0c-.08-.15,0-.25.09-.38Zm1.59,1.25c-.16,0-.33.09-.51.12a1.64,1.64,0,0,0-.53.17,3.79,3.79,0,0,0-.65.21l-.05,0a.1.1,0,0,0,.07,0,20.36,20.36,0,0,0,2.07-.37,4.69,4.69,0,0,1,1.11-.31.2.2,0,0,0,.2-.11c0-.08,0-.15-.06-.14a.54.54,0,0,0-.28.08,3.06,3.06,0,0,1-.43.13l-.5.09a3,3,0,0,1-.43.11ZM446,83.81c-.06,0-.09,0-.09,0s-.12.2-.18.31h0ZM446.8,85v0l.24-.1a.65.65,0,0,1-.24,0h-.06l-.17.09h.23Z"/><path class="cls-9" d="M449.46,82.69a2.55,2.55,0,0,1,.17-.32.24.24,0,0,1-.11-.06.61.61,0,0,1,.15-.17h0c.09-.29.2-.56.3-.86s.15-.43.22-.64a.6.6,0,0,1,.12-.24c.09-.08.08-.2.05-.36-.28-.09-.58-.21-.91-.33l-.14-.13-.59-.37a1.17,1.17,0,0,1-.41-.52c0-.11,0-.18.05-.26.19,0,.37-.17.59-.12a5.31,5.31,0,0,0,1.32-.1,3.52,3.52,0,0,0,.66-.15.9.9,0,0,0,.28-.13.2.2,0,0,1,.23,0,1,1,0,0,0,.68,0c.21-.09.47-.13.73-.21s.61-.18.92-.28a10.27,10.27,0,0,1,1.08-.32,7.91,7.91,0,0,1,.94-.14,2.42,2.42,0,0,1,.47-.07.5.5,0,0,1,.44.22l.21.13-.16.1.4.22s0,0,0,0l-.41.06c.17.09.35.11.38.34a2.64,2.64,0,0,0-.47.17,1,1,0,0,0-.49,0c.32.19.66.35,1,.54a.88.88,0,0,0-.23.07,1.28,1.28,0,0,1,.25.15c-.17.07-.36-.09-.45.09a.82.82,0,0,0-.31,0c-.28,0-.58,0-.85.08a8,8,0,0,0-.85.17c-.35,0-.68.14-1.05.16a1.09,1.09,0,0,0,.35-.15s0,0,0,0a3.29,3.29,0,0,0-.54.14c-.21.07-.29.25-.39.41s-.2.45-.31.67a10.81,10.81,0,0,1-.51,1.09c-.1.24-.22.43-.33.66-.17,0-.1-.12-.17-.2-.22.21-.22.53-.33.8a1.91,1.91,0,0,0-.25.84,1,1,0,0,1,.09-.17c.08.09,0,.14,0,.22s0,.13.08.23a.35.35,0,0,0-.14-.06,5.68,5.68,0,0,0-.72,1.57.32.32,0,0,1,.09-.08s.05-.09.06-.09h.06a3.31,3.31,0,0,0-.12.42c-.12,0-.17.1-.23.26-.1.38-.24.79-.35,1.2,0,0,0,.05,0,.09a1.47,1.47,0,0,0,.09-.17l.07,0c-.05.17-.12.36-.19.55s-.09.22.06.33c0,0,0,.08,0,.11a.54.54,0,0,0-.05.11H450a.77.77,0,0,1,0,.45,1.08,1.08,0,0,0,.09.61,1,1,0,0,1-.19.22,1.44,1.44,0,0,1-.25.18.93.93,0,0,1-.33.12.33.33,0,0,0-.3.09l-.56-.11a.38.38,0,0,0-.4-.33c-.07.23-.12.24-.41.19a.49.49,0,0,1,.13-.12.45.45,0,0,1-.16-.38c.08-.2,0-.4.07-.6s.07-.26.1-.39c.11-.31.19-.62.3-.93a2.25,2.25,0,0,1,.06-.36c.05-.1.13-.14.21-.21a1.38,1.38,0,0,1,.12-.34c.11-.22.26-.43.45-.74a2.6,2.6,0,0,1,.15-.42c-.26,0-.24.31-.37.52a2.25,2.25,0,0,1,.24-.8s.06,0,.07,0l.25-.11c.17-.4.35-.82.54-1.24a1.94,1.94,0,0,0,.15-.36,4.5,4.5,0,0,0,.25-.7.45.45,0,0,0,0-.23l.35-.49a.31.31,0,0,1-.19-.09c-.05.07-.06.12-.1.15a2.26,2.26,0,0,1-.11.37c-.2.06-.24.2-.29.37a2,2,0,0,0,.17-.23c0,.31-.18.48-.26.7,0,0,0,0,0,0s.05-.19.07-.25a2.61,2.61,0,0,0-.25.23l0,0h-.1a.89.89,0,0,1-.14.25v0C449.26,83,449.39,82.86,449.46,82.69Zm0,.38a.61.61,0,0,1,.07.14l.1,0a4.32,4.32,0,0,0-.19.45l-.2,0c0-.09,0-.2.05-.28a.91.91,0,0,0-.15.35c-.05,0-.09-.11-.07-.12s0-.35.22-.42v.19A1.41,1.41,0,0,1,449.48,83.07Zm1,.91s-.06,0-.06,0c-.12.23-.25.46-.39.7A1.13,1.13,0,0,0,450.49,84Z"/><path class="cls-10" d="M388.41,113.67c.08,0,.14-.06.14-.1.05-.35.34-.56.5-.86a1.75,1.75,0,0,1,.41-.64c.12-.1.11-.33.21-.47a2.44,2.44,0,0,0,.27-.29c-.11-.18.05-.12.15-.15s.29,0,.4.11.18.1.3,0,.1-.06.11-.1.13-.15.16,0c0,0,.15,0,.25.09l.09,0s-.06,0-.08.06c-.17,0-.28.14-.39.22s0,.07,0,.09.05.2.18.1c.32-.28.6,0,.87.11s.24.52.3.78l-.42.58c-.17.21-.35.41-.5.6a2.83,2.83,0,0,1-.3.3,1,1,0,0,0-.33.43,5,5,0,0,1-.44.79c-.3.3-.52.67-.79,1s-.54.56-.82.86l-.75.83-.67.63a3.58,3.58,0,0,0-.26.29,1,1,0,0,1-1,.47,3.78,3.78,0,0,1-1-.32,1.09,1.09,0,0,0-.4-.07c-.15,0-.32,0-.5-.06s-.3-.16-.47,0a1.72,1.72,0,0,1-.61-.49,9.12,9.12,0,0,1-.41-.83,4.4,4.4,0,0,1-.24-.86,11.5,11.5,0,0,1-.08-1.17c0-.12,0-.31.17-.36,0,0,.05-.07.05-.07-.16-.21,0-.39,0-.58,0,0,0,0-.05-.08s-.15,0-.08-.09a2.72,2.72,0,0,0,.11-.85,1.18,1.18,0,0,1,.19-.6,1.39,1.39,0,0,0,.29-.64c.07-.27.1-.5.19-.79l0-.22a.24.24,0,0,0,.1-.19,2.09,2.09,0,0,1,.33-.9s.05-.11.11-.18a1.44,1.44,0,0,1,.27-.72l.13-.3a4.45,4.45,0,0,1,.39-.86,7.15,7.15,0,0,1,.4-.61,7,7,0,0,0,.43-.68,5.48,5.48,0,0,0,.74-1.47c.15-.17.31-.37.46-.52s.2-.09.1-.22c.07-.08.19-.14.23-.27l.24-.25a.24.24,0,0,1,.26-.17s.26-.23.25-.31,0-.22.2-.24.13-.15.07-.25,0-.06,0-.08.07,0,.07.07a.76.76,0,0,1,0,.21s.07,0,.16,0,.05-.07.12-.06a2.15,2.15,0,0,1,.5.12c.06,0,.12.09.2.08a1.16,1.16,0,0,1,.37,0,3.73,3.73,0,0,1,1.33.57,3.87,3.87,0,0,0,.64.33c.08.07.13,0,.17-.09.18-.24.34-.54.54-.8s.5-.63.76-.9l.5-.41s.13,0,.21,0c.24,0,.48.21.73.09,0,0,0,.08,0,.1a.14.14,0,0,1-.07.1h.11c.1,0,.19-.14.27,0a.18.18,0,0,1,0,.3s0,.08.05.08a.45.45,0,0,1,.51.39.47.47,0,0,1,0,.2,1.48,1.48,0,0,1-.25.46,2.16,2.16,0,0,0-.62,1.26.93.93,0,0,1-.18.39,20.67,20.67,0,0,0-1.34,2.71c0,.07-.09.1-.1.14-.12.23-.35.37-.35.69a1.68,1.68,0,0,1-.3.72.51.51,0,0,1-.29.21,2.53,2.53,0,0,1-.91,0c-.39-.15-.76-.27-1.15-.4-.13-.07-.29-.11-.4-.16s-.29-.06-.34-.16-.2-.15-.29-.2a.18.18,0,0,1,0-.16s.07-.1.07-.12-.13-.15-.19-.25a1,1,0,0,0,.3-.11l.2-.24a.24.24,0,0,0,.15-.16s0-.15,0-.15c-.17-.08-.09-.16-.06-.27a.72.72,0,0,0,.12-.21c.14-.18.29-.35.19-.6a.16.16,0,0,1,0-.09c.09,0,.08,0,0-.11l-.14,0c-.17.09-.29.22-.49.16s-.18.09-.23.17l-.81,1a5.47,5.47,0,0,0-.41.71l-.12,0c-.16-.06-.16-.06-.23,0a2.74,2.74,0,0,0-.58,1.29.57.57,0,0,1-.11.25,3.75,3.75,0,0,0-.19.41s-.09.12-.06.17c.16.31-.1.5-.2.73s-.21.26-.16.45c-.19.22-.1.48-.17.71s-.17.51-.28.74,0,.32,0,.47-.19.3-.19.43c-.06.5-.07,1-.11,1.49a4,4,0,0,0,0,.49c0,.17,0,.17.17.11a3.85,3.85,0,0,0,1.18-1.09s0-.05.06-.05,0,.08,0,.11a3.47,3.47,0,0,1-.21.37.07.07,0,0,0,0,.06h.08c.17-.16.38-.31.55-.48s.07-.12,0-.17-.1-.11-.11-.15,0-.16.05-.24c0,.08,0,.14.05.16s.18.23.36.18a.36.36,0,0,0,.33-.28.74.74,0,0,1,.53-.54c.28-.12.37-.41.57-.65a.59.59,0,0,0-.05-.21Zm-1.16-5.25s0,0,0,.06h0a2,2,0,0,0,.26-.38v0l-.08,0a3.88,3.88,0,0,1-.23.33Zm1.11,5.28c0,.07,0,.17,0,.18s-.06-.12-.1-.2l0-.15s.08,0,.1,0a.09.09,0,0,1,.07,0,.34.34,0,0,1,.05.14l0,0c-.06,0-.08,0-.1.06Z"/><path class="cls-11" d="M400.76,115.86a.42.42,0,0,1-.11.15,2.38,2.38,0,0,1-.69.8c-.21.2-.38.48-.6.68a6.63,6.63,0,0,1-1.38,1.05,7.7,7.7,0,0,0-1,.59.29.29,0,0,1-.39,0c-.09,0-.16-.11-.25,0s-.15,0-.22,0-.22.13-.33,0-.22,0-.34,0a.3.3,0,0,1-.13,0l-.11-.16a1.23,1.23,0,0,0-.4-.45c-.19-.12-.31-.38-.47-.57a1.79,1.79,0,0,0-.12-.24s-.12,0-.19,0c.05.15,0,.14-.11.08l-.44-.44c-.1-.07-.17-.12-.27-.06s-.1.14-.18.21a1,1,0,0,1,0,.14l0,.15a.36.36,0,0,1,0,.11s0-.06,0-.08l-.24-.47c0-.06-.11-.13-.1-.2.06-.34-.16-.66-.23-1s-.12-.67-.18-1a2.72,2.72,0,0,1,0-1.27,7.8,7.8,0,0,1,.46-2.13c.21-.46.35-.93.54-1.4l.1-.2a.15.15,0,0,0,.07-.12c-.13-.15,0-.3.07-.39.29-.64.66-1.25.94-1.86.17-.37.35-.69.53-1a6.07,6.07,0,0,0,.26-.57c.09-.2.19-.17.33-.17l.11,0s-.07,0-.08-.09-.18-.08-.12-.24,0-.28.25-.33.19-.12.24-.25a3.84,3.84,0,0,1,.35-.54s0,0,.05-.09a5,5,0,0,1,.9-1.54,4.74,4.74,0,0,1,.74-.6,10.9,10.9,0,0,1,1.22-.72,2.22,2.22,0,0,1,.62-.24l.43-.11s.07,0,.09,0,0,0-.06.07,0,0,0,0h0s-.07.1-.13.13a.3.3,0,0,0,.26,0l.18-.09a1.43,1.43,0,0,1,1.29.06c-.05.14.05.21.15.28s.3.32.51.18a.22.22,0,0,1,.18.1.42.42,0,0,0,.35.19c.11,0,.11,0,.18.18,0,0,0,0,0,0,.24,0,.25.27.33.42a.46.46,0,0,0,.29.24.66.66,0,0,1,.33.12.31.31,0,0,1,.26.35s0,0,0,0a1.25,1.25,0,0,0,.21.71,3.69,3.69,0,0,1,.24.8,5.93,5.93,0,0,1,.06.84.4.4,0,0,0,.1.26,1.21,1.21,0,0,1,.1,1c-.08.6-.23,1.18-.36,1.77,0,.06-.05.09-.05.13s0,.12-.1,0-.1-.09-.13,0a14.38,14.38,0,0,1-1,2.06c-.19.45-.4.87-.6,1.28a2.07,2.07,0,0,0-.1.33l-.19.3q-.12.27-.27.54s-.07.06-.16.09c-.09-.14-.17,0-.2.09a3.54,3.54,0,0,0-.53.63c-.07.21-.31.35-.31.62a1.35,1.35,0,0,0-.44.51l0,0,.4-.46V115l.26-.25a.72.72,0,0,1,.2-.09A3.35,3.35,0,0,1,400.76,115.86Zm-6.25,3a2.09,2.09,0,0,0-.25,0,.28.28,0,0,0,0,.09s0,.06.07.07l-.12,0-.48-.36a.6.6,0,0,0,0-.08s0,0,.07,0c.26.2.54.09.83.05h.33c0,.18-.22.12-.33.18Zm.05-3.64a1.54,1.54,0,0,0-.05-.17,1,1,0,0,0-.08.18,4.23,4.23,0,0,0,.05.63s0,0,0,.06l0-.09c0-.09-.07-.2.05-.26,0,.14,0,.29,0,.44l0,.14c0-.06.05-.11,0-.15a3.78,3.78,0,0,0,0-.75s0-.06,0-.08l0,0c-.07.11.06.28-.08.35Zm7.22-11.09a.14.14,0,0,0-.12-.09c-.11,0-.28,0-.35.09s-.17.07-.28.11a1.18,1.18,0,0,0-1,.71.19.19,0,0,1-.15.11.24.24,0,0,0-.17.29h0c0,.06,0,.08,0,.17s-.1.2-.24.24a2.41,2.41,0,0,0-.24,1.34,2.06,2.06,0,0,1,0,.7c0,.38.1.71.11,1.07a2.14,2.14,0,0,0,.1.22c.11.19.21.44.31.63a.88.88,0,0,1,0,.16.17.17,0,0,1-.1-.1,1.19,1.19,0,0,1-.17-.36,1,1,0,0,0-.17-.12c0,.06,0,.15,0,.19a.45.45,0,0,1-.12.61.43.43,0,0,0-.17.21c-.06.17-.12.06-.15,0a5.18,5.18,0,0,0-.26-.65.56.56,0,0,0,0-.12c-.06,0-.1,0-.11.08-.12.23-.26.27-.44.06a4.08,4.08,0,0,1-.28-.44,1.65,1.65,0,0,1-.19-.27c0-.11-.06-.14-.13,0l-.33.54c0,.07-.09.14,0,.15s-.05.25-.1.34l-.7,1.42v0a.7.7,0,0,1-.24.5s-.06.07,0,.07c.14.19-.05.22-.14.3l-.17.26s0,.07,0,.08c.17.11.07.18,0,.32s-.28.39-.18.67c0,0,0,.11-.06.18a1.65,1.65,0,0,0-.29.89,2.47,2.47,0,0,0-.05.54,2.53,2.53,0,0,0-.07,1,2.09,2.09,0,0,0,.29.87.28.28,0,0,0,.09.05.24.24,0,0,0,.1-.1,6.52,6.52,0,0,0,0-.76.18.18,0,0,1,.1-.17s0,0,0,0a1,1,0,0,1,0,.1l-.07.73a.21.21,0,0,0,.06.1c.21,0,.42,0,.56-.21a.41.41,0,0,1,.22-.17,6.07,6.07,0,0,0,.92-.68c.21-.27.44-.49.66-.74l.78-.92a9.19,9.19,0,0,0,1.58-2.59.79.79,0,0,1,.19-.22,1.06,1.06,0,0,0,.34-.56s0-.07.07-.12a5,5,0,0,0,.64-1.43,3.25,3.25,0,0,0,0-.37c.12-.37.21-.77.37-1.16s-.06-.82.16-1.24a.61.61,0,0,0,.09-.39,6.49,6.49,0,0,0,.05-.88c0-.17,0-.35-.09-.48a.43.43,0,0,1-.05-.33.68.68,0,0,0-.09-.35s0,0,0,0-.06.05,0,.08a4.42,4.42,0,0,1,0,.63s-.05.09-.08.17l0-.13c0-.12,0-.25,0-.38a1.29,1.29,0,0,0-.12-.38Zm-6.48,11.19.24-.35h.06s0,.06,0,.08a.6.6,0,0,0-.1.5l-.1.08-.11.06v-.07a.93.93,0,0,1,0-.29Zm1.13-9.49-.1-.22-.12.17c0,.11-.06.2-.06.31l0,.14s.07-.09.09-.14Zm1.76-1.53s0,0,0,0a3.15,3.15,0,0,0-.22.29.85.85,0,0,0,0,.23c.06,0,.14-.08.19-.17a1.43,1.43,0,0,0,.13-.28l0-.1Zm.72,11.85c.11-.12.16-.26.28-.38v-.06h0a3.47,3.47,0,0,0-.29.38s0,0,0,0a.07.07,0,0,1,0,.06Zm.72,0h-.07a1.51,1.51,0,0,0-.15.28s0,.07,0,.09.06,0,.07-.08a.69.69,0,0,0,.19-.19s.06,0,.06,0-.06,0-.08,0Zm.71-1.66-.78,1.18s0,0,0,0,.09,0,.11,0a8.17,8.17,0,0,0,.73-1.11s.05-.07.1-.17l-.07-.05Zm-.6-9.72a.33.33,0,0,0,.14,0c.12-.08.15-.32.37-.27,0,0,0-.08,0-.08a.43.43,0,0,0-.55.25.24.24,0,0,0,0,.08s.06.07.06.07Zm2,9.6.33-.3c0,.25-.24.39-.38.58,0-.1,0-.18,0-.27Z"/><path class="cls-12" d="M412.55,114.26c.06-.32.14-.64.23-1,0-.11,0-.11-.06-.12s-.31-.08-.24-.3v0c-.07,0-.2.1-.16-.1,0,0-.1-.09-.15-.13s-.18-.21-.05-.37.12-.19-.05-.3l.06-.07c.08-.14.13-.29-.06-.39s0-.09,0-.17a1.13,1.13,0,0,0,0-.26s0,0,0-.08c-.2-.09-.26-.17-.1-.3s.13-.12.09-.25a1.54,1.54,0,0,0-.1-.35.8.8,0,0,0-.1-.43c-.12-.08.06-.28-.12-.36.12-.21-.16-.38-.09-.61a.48.48,0,0,0-.11-.32.55.55,0,0,1-.12-.54,3.87,3.87,0,0,0,0-.48c0-.11,0-.26-.12-.28l-.05,0c.22-.24-.09-.54.08-.81s0-.34-.06-.5a0,0,0,0,0,0-.06.22.22,0,0,1,0,.08c0,.07,0,.09,0,.13a.14.14,0,0,1-.06-.12c0-.27-.06-.56-.12-.83s-.13-.41-.2-.63l-.05-.33-.06-.38s0,0,0-.06a.05.05,0,0,0,0,0c-.12.48-.26,1-.38,1.48-.05.26-.17.51-.23.78l-.34,1.13c-.1.25-.2.43-.27.66-.21.62-.37,1.28-.57,1.91-.12.4-.31.81-.44,1.23a5.47,5.47,0,0,0-.15.58,5.69,5.69,0,0,0-.18.68,1.08,1.08,0,0,1-.18.24s-.1,0,0,.15,0,.14-.06.16-.23.17-.12.34c-.2.07-.13.27-.18.4a1.29,1.29,0,0,0-.07.55,1.81,1.81,0,0,1-.22.94c-.09.1-.26.15-.14.34l-.1,0c-.21,0-.43.13-.65.2a.39.39,0,0,1-.31-.06c0-.07-.14-.06,0-.14a.83.83,0,0,0,.16-.36l.06-.18a.49.49,0,0,0-.13.12.41.41,0,0,1-.18,0c-.11,0-.24,0-.3,0-.35.18-.72,0-1.09.08s-.32-.17-.47-.3a.2.2,0,0,1,0-.11.07.07,0,0,0,.06,0c.4-.16.5-.49.59-.89.15-.72.35-1.45.56-2.19l.36-1.35a4.63,4.63,0,0,1,.43-1.23,3.93,3.93,0,0,0,.25-.8c.13-.42.28-.83.44-1.23l.3-.84c.24-.58.42-1.23.67-1.82s.33-1.07.53-1.61c0-.08.06-.16,0-.24s.1-.33.17-.51.06-.17-.06-.23,0-.1,0-.14a.06.06,0,0,1,0-.07c.19,0,.19,0,.26-.16s.14-.45.41-.49a.26.26,0,0,0,.18-.22,4.07,4.07,0,0,1,.22-.58c0-.09.05-.09.1-.06a.16.16,0,0,1,.1.11c0,.09,0,.19.05.25s.08.2.24.18.2-.11.12-.21a2.38,2.38,0,0,0-.23-.45,2.29,2.29,0,0,0-.1-.23c-.21-.28.12-.37.15-.59l.12,0s.14-.06.14-.08a.31.31,0,0,1,.11-.36c.06-.07,0-.2.06-.2a3.91,3.91,0,0,1,.49,0,.39.39,0,0,1,.27.15.58.58,0,0,0,.58.17,1,1,0,0,1,.83.22c.27.24.63.48.65,1a2.2,2.2,0,0,0,.17.83,3.53,3.53,0,0,1,.12.83c0,.4.06.84.11,1.24a.45.45,0,0,1,0,.28,1.06,1.06,0,0,0,.06.89s0,.1,0,.1c-.13.21.06.4,0,.58s0,.06,0,.08l.08,0,0-.22s0-.07.07-.12,0,.06,0,.1a.1.1,0,0,0,.07.08c.25,0,.3.13.28.32a9.12,9.12,0,0,1,.15,1.28c0,.07.07.18.08.28s.12.2-.05.26c0,0,0,0,0,.09a.8.8,0,0,1,.19.53,2.94,2.94,0,0,1,0,.42.55.55,0,0,0,0,.12s0-.07.07-.07a.46.46,0,0,1,.07-.07c-.05-.23.19-.37.2-.59a.29.29,0,0,1,.16-.32c.1,0,.12-.23.21-.33a.17.17,0,0,1-.09-.22l0,0c.05-.12.11-.24.17-.36a.37.37,0,0,1,.08-.18c.05-.1.08,0,.11,0a.93.93,0,0,0,.12-.33,4.35,4.35,0,0,1,.25-.59,3.08,3.08,0,0,0,.19-.9.28.28,0,0,0-.16-.12l-.07.09a.9.9,0,0,0-.07.27l-.05.13c0-.08-.12-.11-.12-.13.08-.2-.05-.46.17-.62a.34.34,0,0,0,.13-.42c-.08-.12,0-.11,0-.14s.1-.07.07-.13c-.09-.31.11-.53.18-.78s.2-.67.32-1c.06-.1.05-.14-.06-.12a.08.08,0,0,1-.07,0,1.55,1.55,0,0,1,0-.22c0-.26,0-.28.28-.17l.11,0,0-.14c-.09-.18-.07-.21.14-.22s.33.08.42-.12a.67.67,0,0,1,.19,0,1.43,1.43,0,0,1,1.1.29c.15.12.33.18.5.31l.22.18a.52.52,0,0,1,.06.66c-.14.24-.27.53-.4.79a.42.42,0,0,0,0,.43s0,.08,0,.09c-.38.2-.38.2-.46.53,0,.09,0,.15-.08.18a2,2,0,0,0-.29.81l-.09.1L418,104c-.11-.13-.11-.13-.17,0s-.07.11,0,.34c0,0,0,.07,0,.09-.06.18-.17.34-.25.53a.57.57,0,0,1-.23.3c-.1.06-.13.24-.22.4a2.19,2.19,0,0,1-.12.33,1,1,0,0,0-.26.7c-.13.27-.26.57-.38.88,0,0,0,0-.07,0s-.06-.27-.13-.07l-.07.12a.1.1,0,0,1-.08,0l0-.1a1,1,0,0,0,.05-.24c0-.07-.18-.08,0-.15s.1-.22.12-.35-.08-.1-.15-.13-.05.07-.06.13a.73.73,0,0,0-.14.37,2.68,2.68,0,0,1-.16.36c-.08.23-.26.45-.19.74s-.21.36-.13.57l-.09.16c-.11.12-.24.21-.13.38-.17,0-.15.15-.11.27s.19.15.22.06.23-.17.3-.3c.18-.5.43-1,.59-1.45a.86.86,0,0,1,.23-.33.37.37,0,0,1,0,.34,7.75,7.75,0,0,0-.42.81c0,.06-.18.24.06.27a.33.33,0,0,1,0,.1c-.13.41-.33.79-.44,1.19a1.13,1.13,0,0,1-.13.32,2.21,2.21,0,0,0,0,1s.09,0,.09,0c.19-.2.13,0,.17.11s-.07.07-.1.07h-.14a.16.16,0,0,0,.08.14.56.56,0,0,0,.26.17c.13,0,0,.11,0,.17s-.07.1-.13.1a.2.2,0,0,1-.15,0s-.06.05-.08.06l.05,0c.06.1.13.16-.05.14,0,0-.07.07-.05.07.13.3-.2.37-.25.61s-.24.25-.15.43l-.23,2.37s0,.07,0,.11c-.23.14-.27.44-.41.66a.23.23,0,0,1-.27.15h0c-.13,0-.28,0-.34.14s-.06.07-.1.07a4.73,4.73,0,0,1-.84,0,.63.63,0,0,1-.46-.23.55.55,0,0,0-.2-.17c-.21-.18-.21-.18-.1-.43a.25.25,0,0,0-.07-.31c-.1-.11-.11-.21.05-.24a.12.12,0,0,0,.1,0c.12-.09-.21-.14,0-.3s0-.17,0-.28a.1.1,0,0,0-.05-.08.14.14,0,0,1,0,.11.38.38,0,0,1,0,.15s0,0-.07,0,0,0,0-.08,0-.21,0-.3,0-.08.13-.14.09-.1.15-.15l.15-.17a.76.76,0,0,0-.09.42s0,.06,0,.08a.13.13,0,0,0,.05-.07.52.52,0,0,0,.21-.5C412.44,114.47,412.53,114.37,412.55,114.26Zm-.24-.65a.13.13,0,0,0,.05-.13c0-.09.05-.2.14-.19s.06.14.07.22.06.23-.12.19-.22.07-.14-.09Zm.84-8.26h0l.13.9a1.53,1.53,0,0,0,.07.29h0v0a.5.5,0,0,1,0-.21,1.56,1.56,0,0,0,0-.83c0-.21,0-.4-.07-.61,0-.06.14-.21-.09-.22a2.46,2.46,0,0,0-.07-.29s0,0,0,0l-.12-.09v.11Zm.25,2.09v-.35c0-.13,0-.25,0-.36-.13.13,0,.24,0,.39l.06.31Zm.37,1c0-.21-.21-.4-.13-.69,0,0,0,0-.06,0s-.07,0-.06,0v.36a.89.89,0,0,0,.23.56l0,0v-.08Zm.26-1.25a1.58,1.58,0,0,1-.09-.31s-.05,0-.05-.08,0,0,0,.07a3.62,3.62,0,0,0-.06.46.05.05,0,0,1,0,0c.11,0,.22-.13.21-.19Zm.13.6v-.32s0-.12-.06,0-.21-.1-.12.06a1,1,0,0,1,0,.5,4.61,4.61,0,0,0,.07.5,1.62,1.62,0,0,1,0,.44s0,0,0,.06,0,0,0,0a.89.89,0,0,0,.08-.43,3.84,3.84,0,0,0-.07-.76Zm1.2,1.35s0,0,.05-.07a.27.27,0,0,0,0,.11,1.35,1.35,0,0,0-.31.4h0a.33.33,0,0,0,0-.14Zm.18-.79a.72.72,0,0,1-.05.41c0,.09-.13.11-.23.14a.78.78,0,0,1,.13-.57c.05-.06.14-.09.15,0Zm.62,1.38a6,6,0,0,1-.25.61.21.21,0,0,1,0,.07s0-.06,0-.08c-.06-.27.12-.45.24-.7h0s0,0,.09,0,0,0,0,.07Zm.32-1.77c.06-.16.12-.32.19-.47s0,0,.06,0a0,0,0,0,0,0,0c-.06.2-.1.38-.17.6,0,0,0,0,0,0s-.08-.14-.07-.17Zm.43-1.89c0,.29,0,.54-.26.69A.93.93,0,0,1,416.91,106Zm.49-.19-.33.85a.25.25,0,0,1-.1.08c-.11,0-.12-.07-.07-.17.11-.27.22-.56.34-.81,0,0,.08,0,.09-.1h0s0,0,0,.06A.14.14,0,0,0,417.4,105.83Z"/><path class="cls-13" d="M427.37,101.3c-.09,0-.16-.08-.22-.09.17-.24.33-.39.48-.63a2,2,0,0,1,.25.14c.16-.26.23-.5.38-.78a3,3,0,0,0-.43.12,4.14,4.14,0,0,0,.55-.7s0,.08,0,.12v0c.34-.13.3-.12.31-.38a1.16,1.16,0,0,1,.14-.47c.42-.63.8-1.26,1.19-1.91a2.7,2.7,0,0,1,.29-.69c.16-.12.24-.33.54-.37s.24-.21.23-.44a1.83,1.83,0,0,1,.5-.26c0,.29-.25.44-.44.64l.33,0a1.07,1.07,0,0,1,.09-.27l.12.09c.27-.08.42-.17.69-.25l-.24.44.3,0a.7.7,0,0,0,0-.29c.36.14.81,0,.95.38a1.32,1.32,0,0,1,.87.59c-.16,0-.34.14-.48.18.23.09.51.14.78.27a1.33,1.33,0,0,1-.24.1c0,.08,0,.19,0,.3a1.47,1.47,0,0,1-.36,0c-.14.24-.31.41-.44.64-.61.81-1.11,1.61-1.72,2.38a10.39,10.39,0,0,1-1,1.31c-.11.12-.19.16-.3.28,0,0,0,0,0-.06.12-.21.28-.4.42-.66.75-1,1.48-1.94,2.21-2.93l.31-.5-.09,0a5.19,5.19,0,0,1-.68.9c-.27.23-.34.58-.61.81a.08.08,0,0,0-.07,0,1.18,1.18,0,0,1,.24-.42h-.08c-.26.29-.5.62-.76,1a10.38,10.38,0,0,0-.84,1.24c-.33.39-.56.84-.87,1.22a4.22,4.22,0,0,0-.69,1c0,.07,0,.07,0,.09a4,4,0,0,0-.94,1.34c-.2.34-.41.66-.62,1a1.3,1.3,0,0,1-.42.48.66.66,0,0,1-.26.11,2,2,0,0,1-.48,1.11,3.71,3.71,0,0,0-.16.47c-.15.3-.3.57-.47.89a1.48,1.48,0,0,0,.61-.79c.17-.26.33-.53.5-.83a4.26,4.26,0,0,1-1.19,2.07.29.29,0,0,0-.22,0c-.3.4-.58.8-.93,1.22a1.18,1.18,0,0,1,0-.2c-.23.18-.42.33-.4.61,0,.06-.13.12-.21.22a.45.45,0,0,0-.1.31,1,1,0,0,0-.33.16v0a.42.42,0,0,0,.16,0c0,.19-.13.23-.27.31-.15.28-.28.55-.45.88l.17,0a1.43,1.43,0,0,0,0,.29,3.73,3.73,0,0,0-.73.7c-.21.18-.47.73-.76.77s-.33.22-.4.19-.23,0-.35.09-.28.11-.38-.12c-.3.11-.57-.16-.9-.08,0,0,0,0,0,0a.67.67,0,0,1,.2-.21c-.29-.15-.32.27-.59.16a.51.51,0,0,0,.14.26,3.11,3.11,0,0,1-1.47-.47.26.26,0,0,1,0-.09c.09,0,.24,0,.37,0,0-.37-.68-.13-.72-.58,0,0-.08,0-.14.09-.11-.2-.26-.35-.15-.64a.87.87,0,0,0,.23.16,3.11,3.11,0,0,1,0-.43c-.1-.07-.13-.17-.25-.26a2,2,0,0,0,0-1.23,2.86,2.86,0,0,0,.06-.58,1,1,0,0,0,.34-.14,1.19,1.19,0,0,1-.25-.13,8.52,8.52,0,0,1,.17-1.51h.08a.57.57,0,0,0,.12.23h.05c0-.15,0-.34,0-.51a1.46,1.46,0,0,0-.29,0c.13-.38.21-.62.29-.93,0,0,0-.09,0-.11a5.58,5.58,0,0,1,.3-1.89c-.07.09-.17.19-.22.26a.56.56,0,0,1-.29.21,1.29,1.29,0,0,0,.14-.51.74.74,0,0,0-.21,0,.28.28,0,0,0-.11-.17c.39-.25.11-.57.24-.85a3.21,3.21,0,0,0,.33-.81.81.81,0,0,0,0-.51.61.61,0,0,1,0-.3,3.74,3.74,0,0,1,.34-.73c.21,0,.54,0,.75-.28a1.25,1.25,0,0,0,.46.12,6.16,6.16,0,0,0,.72.09c.3,0,.62,0,.78.27a.72.72,0,0,0,.38.1c.13.16.28.36.39.47-.08.18-.23.35-.29.51s.09.07.16.1a.23.23,0,0,1-.07.1c-.18.24-.31.47-.5.69a1.29,1.29,0,0,0-.3.83.8.8,0,0,1-.21.58c-.14.11-.12.25-.07.44a3.64,3.64,0,0,0-.46.5c-.09.12-.13.29-.22.37.48.36.08.71.07,1.1a.86.86,0,0,1,.31-.26c-.24.71-.69,1.31-.57,2a2.94,2.94,0,0,0,.27-.53H420c-.05.15,0,.36-.1.54a.78.78,0,0,0-.07.54c0,.17-.21.31-.05.5s0,.37-.05.56a2.91,2.91,0,0,1-.15.58c.12.09.25.13.33.25a3.33,3.33,0,0,0,1.47-1.62l.17,0c.28-.41.47-.84.71-1.26a7.61,7.61,0,0,0,.7-1,.69.69,0,0,0,.07-.42c.08.1.1.11.11.16a1.12,1.12,0,0,0,.31-.77c0-.15.18-.26.18-.39a1.71,1.71,0,0,1,.32,0c.11-.27.22-.54.35-.82a.56.56,0,0,1,.31-.23.66.66,0,0,1,0-.28c.05-.09.11-.12.24-.19-.24-.53.35-.66.67-1a.51.51,0,0,1-.3,0,1.8,1.8,0,0,0,.26-.29l.22,0a3,3,0,0,0-.11-.32l.22-.08a5.36,5.36,0,0,1,.26-.54.52.52,0,0,0,.19.14.55.55,0,0,0-.12-.24c.17-.26.06-.65.43-.87a1.17,1.17,0,0,0,.1.26.85.85,0,0,0,.24-.69v-.07s0,0,0,0A6.13,6.13,0,0,1,427.37,101.3Zm-4.87,8.34s-.05,0-.07-.07c-.19.22-.41.4-.37.71C422.2,110.06,422.34,109.85,422.5,109.64Zm4.39-7.78v.06s0-.08-.08-.1S426.86,101.84,426.89,101.86Zm1.08,2.49a3.89,3.89,0,0,0,.62-1.28c-.25.44-.47.82-.72,1.19,0,.07.09.08.1.1Zm1.74-3c-.26.38-.43.7-.66,1C429.61,101.78,429.77,101.57,429.71,101.34Zm0,1.44a5.49,5.49,0,0,1,.81-1.16s0,0,0,.06a2.77,2.77,0,0,1-.83,1.1Z"/><path class="cls-14" d="M433.43,102.7l-.41.84c0,.12,0,.22.11.2a1.09,1.09,0,0,0,.4,0c.53-.16,1-.36,1.52-.54.21-.07.43-.13.65-.18s0-.16.13-.16.16,0,.27,0a.29.29,0,0,0,.16-.15s0-.06,0-.11-.09-.2.1-.16.14,0,.07.18,0,.08.08.07a.16.16,0,0,0,.11-.2s0,0,0,0,0-.13,0-.15a.21.21,0,0,1,.17-.07c.21,0,.48,0,.68.2,0,0,.13,0,.2,0a7.28,7.28,0,0,1,1.14-.16c.3,0,.46.19.62.4a.15.15,0,0,1,0,.2l-.05,0h0c-.15.13.25.24-.07.37s-.16.11-.08.38c0,.06.08.07,0,.12s.06.14.15.13l.14,0c.36-.18.34,0,.34.27a1.2,1.2,0,0,1-.13.31c-.06.18-.19.16-.29.21l-.32.16a5.7,5.7,0,0,1-1.29.48,5.56,5.56,0,0,0-.75.26,5,5,0,0,1-1.54.37,4.81,4.81,0,0,0-1.44.44,3.89,3.89,0,0,1-1.65.26,1.42,1.42,0,0,0-.52.19c-.22.09-.28.27-.31.51a3.62,3.62,0,0,1-.17.56c-.13.38-.25.76-.36,1.18,0,0-.06,0-.05.07,0,.47,0,.45.38.31s1-.32,1.47-.45c.28-.13.61-.2.91-.33a7.58,7.58,0,0,1,1.14-.37.48.48,0,0,0,.38-.17c0-.11.09.24.19,0,0-.07.17-.06.26-.1a1,1,0,0,1,.3-.13,2.88,2.88,0,0,0,1.14-.37,2.57,2.57,0,0,1,1.2-.14c.3,0,.44.25.54.5s0,.24-.17.3-.14.06-.13.15,0,.19,0,.28l.13,0c.07.06.19.12.09.31s.06.14.13.17,0,.06.08.07-.09,0-.1.06a.34.34,0,0,1-.12.06.14.14,0,0,0,.11,0l.11,0,.28.19a1.08,1.08,0,0,1-.31.07c-.21,0-.06.16,0,.2s.11,0,0,.13a.56.56,0,0,0-.17.09l-1.57.5-.47.11a3,3,0,0,0-1,.36A14.58,14.58,0,0,1,433,112.3c-.5.11-1,.37-1.44.48a2.42,2.42,0,0,1-1.83,0c-.11,0-.16-.1-.28-.15s-.16-.23-.29-.27-.18-.34-.3-.49a.28.28,0,0,1,.21-.29l.61-.15c.05,0,.06,0,.1-.06s-.07-.05-.09-.05-.36-.14-.59-.23a.77.77,0,0,1-.46-.7,1.19,1.19,0,0,1,0-.62,4.41,4.41,0,0,0,.11-.7c.06-.16,0-.33.1-.5s0-.36,0-.56.07-.13.21-.18h0a1,1,0,0,0,0-.34s0-.1,0-.13,0-.07.05-.12c-.22,0-.07-.3-.18-.37s0-.07,0-.07a2.63,2.63,0,0,1,.33-.2s0,0,0-.09,0,0-.05,0a.63.63,0,0,1-.48-.08c-.07-.05-.12-.13,0-.17s-.07-.22.14-.25c0,0,0,0,0,0a1.33,1.33,0,0,1-.61-.8.75.75,0,0,1-.08-.44c0-.08.1-.16.13-.25s.15,0,.21,0a2.36,2.36,0,0,0,.75,0,5.36,5.36,0,0,0,.77-.26c.06,0,.12-.06.17-.17l.5-1.24a12.25,12.25,0,0,1,.61-1.51.34.34,0,0,0-.09-.46l-.32-.29a1.8,1.8,0,0,0-.29-.39c-.15-.16,0-.4-.08-.58,0,0,.26-.25.3-.23a1.88,1.88,0,0,1,.58,0c.22,0,.45-.07.71-.07.06,0,.05-.09.07-.11.15-.17.11-.38.21-.59a6.36,6.36,0,0,1,.25-.63,1,1,0,0,0,.05-.41c0-.06-.08-.09-.06-.12a.65.65,0,0,0,.16-.17c-.06-.13,0-.19.14-.23a.82.82,0,0,1,.26-.14.17.17,0,0,1,.1,0c.15.13.31.08.48.08s.25.22.4.26a2.68,2.68,0,0,1,1,.6s0,.11.05.19.18.2.39.15a10,10,0,0,1,2.29-.64,2.65,2.65,0,0,0,.73-.26s.06,0,.06,0c.06-.3.23-.18.36-.11a.66.66,0,0,0,.46,0c.22,0,.44,0,.66,0l.53,0a.36.36,0,0,1,.27.07.18.18,0,0,1,.06.17c-.16.19,0,.26,0,.4s0,.17-.05.28-.14.21-.06.42v.12s-.17,0,0,.09a.3.3,0,0,1,.14,0c.07,0,.17.09.15.13s-.12,0-.15,0l-.17,0-.14,0s.07,0,.09.06l.18,0c.13,0,.08.14.07.21s-.11.1-.15.1-.08,0-.14-.06a0,0,0,0,0,0,.09c.11,0,.1.09,0,.16s-.05.1,0,.15.07,0,.08.08,0,.08,0,.12a.2.2,0,0,1-.11,0c-.11,0-.18-.08-.32-.12s-.16-.08-.2-.06c-.27.17-.53,0-.75.11-.06,0-.2.09-.22.06a.83.83,0,0,0-.66.18.59.59,0,0,1-.41.1.72.72,0,0,0-.59.19,2.14,2.14,0,0,1-1.38.41,1.44,1.44,0,0,0-.37.1,4.16,4.16,0,0,1-.54.23.76.76,0,0,0-.32.17s0,0,0,0,0,.06,0,.08-.2,0-.21,0a.41.41,0,0,0-.46-.08,2,2,0,0,0-.58.38c-.08,0-.11.1-.18.2a.08.08,0,0,0,0,0,.11.11,0,0,1,.08.07c-.1.17-.23.33-.31.49a.78.78,0,0,0-.35.41.69.69,0,0,0,0,.13s.06,0,.06-.05a1.28,1.28,0,0,1,.29-.36C433.45,102.55,433.48,102.65,433.43,102.7ZM440.31,99a.39.39,0,0,0-.14.08l0,.08a1.54,1.54,0,0,0,.19.17c.07,0,.1,0,.14,0s.07-.1,0-.09Z"/><path class="cls-15" d="M451.6,96.72a1.54,1.54,0,0,0,.19.46c0,.08.1.22.2.06s0,0,.07,0a4.45,4.45,0,0,1,.25.54.14.14,0,0,0,.09.07c.42-.08.44.26.59.53a1,1,0,0,1,.08.44c0,.13.05.14.12,0s.08,0,.09,0a2.45,2.45,0,0,1,0,1.11.09.09,0,0,1,0,0c.25.13,0,.25,0,.38a3.45,3.45,0,0,1-.36.75,1.93,1.93,0,0,1-.45.58,3.21,3.21,0,0,0-.41.57,3.11,3.11,0,0,1-.93,1.05,1.35,1.35,0,0,0-.41.38,3.28,3.28,0,0,1-1.2.55c-.12,0-.2.07-.3.09a1.64,1.64,0,0,1-.39.14l.3.3a13.15,13.15,0,0,1,1.2,1,4,4,0,0,0,1.29.87,2.25,2.25,0,0,1,.55.41c.45.28.83.6,1.28.88.13.07-.11.12,0,.19s.23.31.38.45.06.1-.09.12,0,.09,0,.13l.06.1c-.22.08,0,.33-.19.45a.17.17,0,0,0,0,.12c.06.12,0,.15-.09.14s-.23,0-.35.08-.08,0,0,.15-.13.28-.21.29a.71.71,0,0,1-.41,0c-.12-.07-.17,0-.15.11,0,.24-.07.31-.25.36a.32.32,0,0,0-.29.16.77.77,0,0,1-.46.24.51.51,0,0,1-.49-.29c-.06-.1-.09-.2-.24-.18s0,0,0,0c-.11-.28-.42-.36-.64-.54l-.59-.58c-.29-.25-.54-.5-.81-.71a9.51,9.51,0,0,1-.76-.68l-1.16-1-1-.91c-.05-.08-.1-.09-.22,0-.32.15-.64.26-1,.39a6.8,6.8,0,0,0-1.52.83l-.05.1s0,0,0,.06,0,0,0,0a.18.18,0,0,0,.09-.06.11.11,0,0,1,0,.11c-.09.23-.1.46-.29.64a.64.64,0,0,0-.05.24,4.3,4.3,0,0,1-.18.79,6.65,6.65,0,0,1-.23.76,2.23,2.23,0,0,1-.13.44.57.57,0,0,0-.12.45c0,.12-.06.17-.17.19l-.21,0c-.08,0-.22,0-.25,0a.51.51,0,0,0-.14.36.54.54,0,0,1-.35.53s-.06,0-.12.06-.14.2-.2.1-.23-.12-.13-.32a1.92,1.92,0,0,0,.11-.57s0-.08-.08-.14,0,.09-.05.09a.59.59,0,0,1-.45,0,1.27,1.27,0,0,0-.65-.25.33.33,0,0,1-.29-.28,1.83,1.83,0,0,1,.16-1.3l.17-.41s.05-.11.07-.11.12,0,.05-.07-.1-.1,0-.11a.51.51,0,0,0,.31-.53.12.12,0,0,1,.05-.11c.07-.1.14-.2.13-.28a1.78,1.78,0,0,1,.27-.93v-.17c.05-.15,0-.34.17-.45s.13-.16,0-.24c.12-.06.1-.22.17-.32v-.32l.16-.53c.19,0,.12-.17.18-.24a.24.24,0,0,0,0-.3.39.39,0,0,1,0-.3c0-.2.16-.39.19-.58a5.06,5.06,0,0,0,.17-.67s-.1-.09-.13-.13a.3.3,0,0,1-.23-.31l0-.09c.15-.16.2-.39.44-.51a.8.8,0,0,0,.48-.79c0-.09,0-.15,0-.17l.36-1c.09-.26,0-.36-.24-.45a4.54,4.54,0,0,0-.53-.12.31.31,0,0,1-.34-.2c0-.13-.24-.18-.12-.39s0-.21,0-.34,0-.17.06-.18.15-.11.22,0a.73.73,0,0,0,.46-.07,12,12,0,0,1,1.1-.5.31.31,0,0,0,.19-.28c.08-.33.19-.62.25-1s.12-.49.54-.49a.39.39,0,0,0,.18,0c.48-.2.9.08,1.35.21l.14.11c.05,0,.07.2.11.19a1.68,1.68,0,0,0,.5,0,5.58,5.58,0,0,1,.91-.26,2.56,2.56,0,0,0,.49-.16,6.22,6.22,0,0,1,1-.17,2.45,2.45,0,0,1,.81,0,.75.75,0,0,0,.21,0,3.6,3.6,0,0,1,1.36.25A.12.12,0,0,0,451,96s-.08.06-.12.06a.23.23,0,0,0-.16-.06h0s0,.08.06.08l.15,0a.62.62,0,0,1,.49.42c-.21,0-.08.22-.14.36s.06.12.09.18a.49.49,0,0,0,0-.17s0-.09.05-.09.07-.1,0-.17a.12.12,0,0,1,0-.1.21.21,0,0,1,.23.2Zm-12,12.68s0,0,.06,0a3.74,3.74,0,0,0,.12-.45s0-.08,0-.1a.08.08,0,0,0,0,.09,2,2,0,0,0-.16.4Zm1.54-1.52c-.11.1-.1.29-.29.36v0s.05,0,.07,0c.19,0,.23-.17.31-.32a.33.33,0,0,1,.07-.14c-.08,0-.14,0-.16,0Zm.08-.19c.2-.07.11-.27.16-.4l0,0a1.94,1.94,0,0,0-.21.29.17.17,0,0,0-.07.13s0,.07,0,.08l.12-.06Zm.25.65-.08,0-.05.14a.73.73,0,0,0-.09.35,2.87,2.87,0,0,1,.18-.34.39.39,0,0,0,0-.18ZM447.7,98a15.77,15.77,0,0,0-2,.67s-.12,0-.12.06c-.11.27-.32.41-.34.71,0,.08-.1.18-.12.18s-.16.11-.19.18c-.09.23-.18.5-.26.72a.53.53,0,0,0,0,.25c.12.22.32.4.34.68a.34.34,0,0,0,.14.15l.89.75.11,0c.13,0,.19-.34.34,0,.07,0,.22-.07.3-.13.18-.32.64-.24.83-.52a5,5,0,0,0,1.08-.58c.24-.12.48-.24.54-.57,0-.07.13-.11.17-.17a1,1,0,0,0,.33-.34l.31-.5a2.82,2.82,0,0,0,.23-.46c.11-.14.07-.23-.09-.35s-.14-.07-.07-.17,0-.21-.12-.28a1.75,1.75,0,0,0-.32-.12c-.5-.12-1-.19-1.53-.29a.33.33,0,0,1-.17,0,1.2,1.2,0,0,1-.31.13Zm.61,4.23a.42.42,0,0,0-.39.06c-.12.09-.24.18-.37.26l-.09.1.13,0c.05,0,.06,0,.12,0a1.11,1.11,0,0,1,.62-.31.13.13,0,0,1,0-.06s0,0,0,0Zm.35,2.08s0,.06,0,.11a.2.2,0,0,0,.09.07,3.71,3.71,0,0,0,.4-.19v-.08l-.2-.06Zm1.49-7.26a.52.52,0,0,1-.1-.11c-.16-.22-.5-.12-.64-.34h0c-.17.07-.32,0-.5,0s0,0-.1,0,.06,0,.09,0a3.31,3.31,0,0,1,.78.38.64.64,0,0,0,.43.07.16.16,0,0,1,.09,0Zm-1,7,0,0c.07,0,.19.12.2.09a.58.58,0,0,0,.18-.23s0,0,0,0a.75.75,0,0,0-.3.09Zm.52-2.71a.54.54,0,0,0,.38-.32.09.09,0,0,0,0-.06h0a.38.38,0,0,1-.13.09v0c-.07-.18-.07-.18-.22,0a.39.39,0,0,1-.14,0c-.12.08-.23.18-.34.24s0,0,0,.09l.09,0a1.68,1.68,0,0,0,.21-.18c.09-.07.16,0,.25,0v.18Zm.09-4.83s.05.08.08.07a1,1,0,0,0,.25.12c.15.06,0-.09.06-.12s0,0,0,0a.63.63,0,0,0-.27-.06s0,0-.08,0Zm.4,5.66c.21,0,.33-.22.46-.35a1.46,1.46,0,0,0,.21-.28c-.12-.15.06-.16.12-.23l.05-.09h-.11c-.24.21-.46.45-.73.68l-.14.19s0,0,0,.07h.15ZM451,100a2.07,2.07,0,0,1-.46.2c-.12.06-.23,0-.06.18s0,.14.13,0l.43-.31s0,0,.07-.1-.09,0-.11,0Zm.74-.76s-.07,0-.07,0l-.15.27s0,0,0,.06c.21,0,.26-.17.19-.31Zm.88,10.74s-.06,0-.08,0,.14.22.22.17a.14.14,0,0,0,.11-.06c0-.18-.16-.12-.25-.15Z"/><path class="cls-16" d="M455.15,99.54l.25-.46a.21.21,0,0,1-.16-.08.75.75,0,0,1,.22-.25h0c.13-.42.28-.8.43-1.23s.21-.62.32-.92a.78.78,0,0,1,.17-.34c.13-.13.12-.29.07-.52-.4-.13-.83-.31-1.3-.47-.07,0-.15-.15-.2-.19-.28-.16-.56-.36-.84-.53a1.91,1.91,0,0,1-.6-.75c0-.15.05-.26.07-.37.28,0,.54-.25.85-.16a8.47,8.47,0,0,0,1.89-.15,5,5,0,0,0,.95-.22,1.47,1.47,0,0,0,.4-.19.31.31,0,0,1,.33,0,1.41,1.41,0,0,0,1,0c.3-.13.68-.19,1-.3s.88-.26,1.33-.41,1-.34,1.55-.46.94-.13,1.35-.19a3,3,0,0,1,.67-.1.71.71,0,0,1,.64.31,3.53,3.53,0,0,0,.3.19l-.23.14.58.32s0,0,0,.07l-.58.08c.23.14.5.17.54.5a3.4,3.4,0,0,0-.67.25,1.34,1.34,0,0,0-.72,0c.47.27.95.5,1.41.77a1.73,1.73,0,0,0-.32.11,1.41,1.41,0,0,1,.35.21c-.24.09-.5-.12-.64.13a1,1,0,0,0-.46,0c-.39.06-.82.06-1.21.11s-.82.14-1.22.24a14.22,14.22,0,0,1-1.5.24,2,2,0,0,0,.5-.22s0,0-.05,0a5.09,5.09,0,0,0-.77.19c-.31.11-.42.36-.56.59s-.29.64-.45,1c-.22.54-.46,1.07-.73,1.58-.15.33-.32.62-.48.94-.23,0-.13-.17-.23-.29-.32.31-.32.77-.48,1.16a2.82,2.82,0,0,0-.35,1.2c0-.07.06-.16.13-.23.11.13.07.2,0,.31s.07.19.11.34a.7.7,0,0,0-.2-.08,7.59,7.59,0,0,0-1,2.26c.09-.1.11-.1.13-.13s.07-.12.09-.12h.08a3.78,3.78,0,0,0-.17.6c-.18.05-.25.14-.33.36-.15.56-.34,1.14-.51,1.74,0,0,0,.06,0,.12a1.5,1.5,0,0,0,.13-.23.14.14,0,0,1,.09,0,7.27,7.27,0,0,1-.27.78c-.1.28-.12.32.09.48,0,.05,0,.11-.06.17a.47.47,0,0,0-.06.15l.17,0a1.22,1.22,0,0,1-.08.65,1.57,1.57,0,0,0,.13.88.92.92,0,0,1-.28.31,1.7,1.7,0,0,1-.34.26,2.05,2.05,0,0,1-.49.18.42.42,0,0,0-.42.13c-.27,0-.55-.12-.81-.16a.55.55,0,0,0-.59-.5c-.1.33-.16.34-.57.28a.77.77,0,0,1,.18-.18.59.59,0,0,1-.22-.54c.1-.29,0-.58.08-.87a5,5,0,0,0,.16-.55c.15-.45.27-.89.42-1.33a4.89,4.89,0,0,1,.09-.53c.07-.13.19-.19.3-.29a1.88,1.88,0,0,1,.17-.47c.16-.33.37-.63.65-1.08a6.08,6.08,0,0,1,.21-.6c-.37.07-.33.45-.53.76a3.79,3.79,0,0,1,.34-1.16s.09,0,.11,0a2,2,0,0,0,.36-.16c.24-.57.49-1.18.77-1.77a3.38,3.38,0,0,0,.22-.52,9.35,9.35,0,0,0,.36-1,1,1,0,0,0,0-.34c.14-.21.32-.43.49-.68a.59.59,0,0,1-.27-.14c-.07.1-.08.17-.14.22a3.21,3.21,0,0,1-.15.53c-.29.08-.35.28-.42.53a1.66,1.66,0,0,0,.25-.34c0,.45-.26.7-.36,1,0,0,0,0,0,0s.07-.27.1-.36l-.36.34,0,0-.13,0a1.65,1.65,0,0,1-.2.37v0C454.88,100,455.06,99.79,455.15,99.54Zm0,.55a.52.52,0,0,1,.09.2l.15,0q-.15.32-.27.63l-.29,0c0-.13.06-.29.07-.4a1.16,1.16,0,0,0-.21.5c-.07-.07-.12-.15-.11-.16.1-.21.06-.5.32-.6v0a2.8,2.8,0,0,0,0,.29A1.77,1.77,0,0,1,455.19,100.09Zm1.44,1.3s-.08,0-.09,0a10.18,10.18,0,0,1-.55,1,1.66,1.66,0,0,0,.64-1Z"/><path class="cls-17" d="M464,98.26l-.41.84c-.05.12,0,.22.11.2a1.07,1.07,0,0,0,.4,0c.53-.16,1-.36,1.52-.54a3.69,3.69,0,0,1,.65-.18c.17,0,0-.16.13-.16a.8.8,0,0,0,.27,0,.41.41,0,0,0,.17-.15s0-.07,0-.11-.09-.2.11-.17.13,0,.06.19,0,.08.08.07a.16.16,0,0,0,.11-.21s0,0,0,0,0-.12,0-.15a.24.24,0,0,1,.17-.06c.21,0,.48,0,.68.2,0,0,.14,0,.2,0a7.47,7.47,0,0,1,1.14-.17c.3,0,.46.19.61.4a.14.14,0,0,1,0,.2l-.05,0h0c-.15.13.25.24-.07.37-.17.07-.16.11-.08.37,0,.06.08.08,0,.13s.07.14.15.12l.14,0c.36-.18.34-.05.34.27a1.27,1.27,0,0,1-.13.32c-.06.18-.19.15-.29.21l-.31.15a5.61,5.61,0,0,1-1.29.49,3.91,3.91,0,0,0-.75.26,5.25,5.25,0,0,1-1.54.37,4.28,4.28,0,0,0-1.45.44,4,4,0,0,1-1.64.26,1.58,1.58,0,0,0-.53.18.56.56,0,0,0-.31.52,3.5,3.5,0,0,1-.17.55c-.14.39-.25.76-.36,1.18,0,0-.06.06-.06.08,0,.46,0,.44.39.3s1-.31,1.46-.45c.28-.12.62-.19.91-.32a7.62,7.62,0,0,1,1.14-.38.45.45,0,0,0,.38-.16c.05-.12.1.24.2,0,.05-.07.16-.06.26-.1a.81.81,0,0,1,.3-.13,2.81,2.81,0,0,0,1.13-.38,2.63,2.63,0,0,1,1.21-.15c.31,0,.45.25.55.5s0,.24-.17.3-.14.06-.13.15,0,.19,0,.28l.13,0c.07.06.19.12.09.31s.06.14.13.17,0,.06.08.07-.09,0-.1.06a.34.34,0,0,1-.12.06.2.2,0,0,0,.11,0l.11,0,.28.19a1.55,1.55,0,0,1-.31.07c-.21,0-.06.16,0,.2s.11,0,0,.13a.56.56,0,0,0-.17.09l-1.57.5-.47.11a3,3,0,0,0-1,.36,14.58,14.58,0,0,1-2.73,1.31c-.5.11-1,.37-1.44.48a2.42,2.42,0,0,1-1.83,0c-.11,0-.17-.1-.28-.15s-.16-.23-.29-.28-.18-.33-.31-.48a.3.3,0,0,1,.22-.29l.61-.15s.06,0,.1-.06-.07,0-.09,0c-.17-.08-.36-.14-.59-.23a.77.77,0,0,1-.46-.7,1.19,1.19,0,0,1,0-.62,6,6,0,0,0,.11-.7c.06-.16,0-.33.09-.5s0-.36,0-.56.07-.13.21-.18h0c0-.12,0-.24,0-.34s0-.1.05-.13,0-.07,0-.12c-.21,0-.06-.31-.18-.37s0-.07,0-.07a2.63,2.63,0,0,1,.33-.2s0,0,0-.09,0,0,0,0a.62.62,0,0,1-.48-.08c-.07,0-.13-.13,0-.17s-.07-.22.13-.25c0,0,0,0,0,0a1.29,1.29,0,0,1-.61-.8.85.85,0,0,1-.09-.44c0-.08.11-.16.14-.25s.14,0,.21,0a2.36,2.36,0,0,0,.75,0,4.36,4.36,0,0,0,.77-.26c.06,0,.12-.06.16-.17l.5-1.24c.21-.48.33-1,.61-1.51a.34.34,0,0,0-.08-.46l-.32-.29a2.19,2.19,0,0,0-.29-.39c-.16-.16,0-.4-.09-.58,0,0,.26-.25.31-.23a1.82,1.82,0,0,1,.57,0c.22,0,.46-.07.72-.07.06,0,0-.09.07-.11.14-.17.11-.38.21-.59a6.36,6.36,0,0,1,.25-.63.94.94,0,0,0,0-.41c0-.06-.07-.09-.06-.12a.69.69,0,0,0,.17-.17c-.06-.14,0-.19.14-.23a.77.77,0,0,1,.25-.14.4.4,0,0,1,.11,0c.15.13.31.08.48.08s.24.22.4.26a2.76,2.76,0,0,1,1,.6s0,.11.05.19.18.2.38.15a10.24,10.24,0,0,1,2.29-.63,3.15,3.15,0,0,0,.73-.25s.06,0,.06,0c.06-.31.23-.18.36-.12a.66.66,0,0,0,.46,0,4.85,4.85,0,0,0,.66,0h.53a.4.4,0,0,1,.27.06.18.18,0,0,1,.06.17c-.16.19,0,.26,0,.4s0,.17,0,.29-.14.21-.07.41v.13s-.17,0,0,.09.12,0,.15,0,.16.08.14.12-.12,0-.15,0a.92.92,0,0,0-.16,0,.28.28,0,0,0-.15,0c.05,0,.07,0,.1,0l.17,0c.13,0,.09.13.07.2s-.11.1-.15.11-.07-.06-.14-.07a0,0,0,0,0,0,.09c.12,0,.1.09,0,.17s-.05.09,0,.15a.09.09,0,0,1,.08.07s0,.09,0,.13a.21.21,0,0,1-.11,0c-.1,0-.18-.08-.31-.13s-.17-.08-.2,0c-.28.16-.54,0-.75.11s-.2.09-.23,0a.81.81,0,0,0-.65.18.6.6,0,0,1-.41.1.7.7,0,0,0-.59.19,2.12,2.12,0,0,1-1.39.42,1.18,1.18,0,0,0-.37.09,2.58,2.58,0,0,1-.54.23,1.1,1.1,0,0,0-.32.17l0,0s0,.06,0,.08-.2,0-.2,0a.4.4,0,0,0-.46-.08,1.93,1.93,0,0,0-.59.38c-.08,0-.11.1-.18.19s0,0,0,0a.11.11,0,0,1,.07.08,5.19,5.19,0,0,0-.31.5.73.73,0,0,0-.34.41s0,.08,0,.12.06,0,.06,0a1.59,1.59,0,0,1,.27-.37C464.05,98.1,464.08,98.21,464,98.26Zm6.88-3.73a.38.38,0,0,0-.13.09l0,.08.19.17c.07,0,.1,0,.14-.05s.08-.09,0-.09Z"/><path class="cls-18" d="M482.2,92.28a1.86,1.86,0,0,0,.19.46c0,.08.1.22.2.06s0,0,.07,0a3.32,3.32,0,0,1,.25.54.17.17,0,0,0,.09.07c.42-.08.45.25.59.53a1.07,1.07,0,0,1,.09.43c0,.14,0,.15.11,0s.09,0,.09,0a2.45,2.45,0,0,1,0,1.11s0,0,0,0c.25.14,0,.26,0,.39a2.73,2.73,0,0,1-.36.75,1.78,1.78,0,0,1-.45.57,3.59,3.59,0,0,0-.4.57,3.14,3.14,0,0,1-.93,1,1.57,1.57,0,0,0-.43.38,3.43,3.43,0,0,1-1.19.56c-.12,0-.2.07-.31.08a1.09,1.09,0,0,1-.38.14l.3.3c.41.33.81.67,1.19,1a4,4,0,0,0,1.3.88,2,2,0,0,1,.55.41c.44.27.83.6,1.27.87.14.07-.11.13,0,.2s.24.3.39.45.06.1-.09.12,0,.09,0,.13,0,0,.06.1c-.23.07,0,.34-.19.45a.27.27,0,0,0,0,.12c.06.12,0,.15-.08.14s-.23,0-.35.07-.08,0,0,.16-.14.27-.22.28a.64.64,0,0,1-.41,0c-.11-.07-.16,0-.15.11s-.06.3-.25.35a.32.32,0,0,0-.29.17.73.73,0,0,1-.46.23.5.5,0,0,1-.49-.29c-.05-.1-.09-.2-.23-.17s-.05,0-.05,0c-.11-.28-.42-.37-.63-.55l-.6-.57c-.29-.26-.54-.5-.8-.71s-.51-.44-.76-.68l-1.17-1-1-.92c-.06-.07-.1-.09-.22,0-.32.15-.65.26-1,.4a6.52,6.52,0,0,0-1.51.83l-.06.09s0,0,0,.06,0,0,0,0a.31.31,0,0,0,.1,0,.33.33,0,0,1,0,.1c-.1.23-.1.47-.29.64a.69.69,0,0,0-.05.24,5.45,5.45,0,0,1-.18.8c-.07.25-.14.51-.23.76a2.23,2.23,0,0,1-.13.44.61.61,0,0,0-.13.45c0,.12-.06.17-.16.19l-.21,0c-.08,0-.22,0-.25,0a.47.47,0,0,0-.14.37.54.54,0,0,1-.35.53s-.06,0-.12.06-.14.2-.2.1-.23-.12-.13-.32a1.92,1.92,0,0,0,.11-.57s0-.08-.08-.14,0,.09-.05.09a.59.59,0,0,1-.45,0,1.3,1.3,0,0,0-.65-.25.35.35,0,0,1-.3-.28,1.83,1.83,0,0,1,.17-1.3l.17-.41s0-.11.07-.11.13,0,.06-.07-.1-.1,0-.11a.53.53,0,0,0,.31-.53.11.11,0,0,1,0-.11.46.46,0,0,0,.14-.28,1.69,1.69,0,0,1,.26-.93l0-.17c0-.15,0-.34.17-.45s.12-.16,0-.24c.12-.06.09-.22.16-.32l0-.32.16-.53c.19,0,.12-.17.18-.24a.24.24,0,0,0,0-.3.39.39,0,0,1,0-.3c0-.2.15-.39.19-.58a5,5,0,0,0,.16-.67s-.1-.09-.13-.13a.31.31,0,0,1-.23-.31l0-.09c.14-.16.2-.39.43-.51a.79.79,0,0,0,.48-.79c0-.09,0-.15,0-.17l.36-1.05c.09-.27,0-.36-.24-.45a4.37,4.37,0,0,0-.52-.12.33.33,0,0,1-.35-.2c0-.13-.24-.18-.12-.39s0-.21,0-.34,0-.17.06-.18.16-.11.23,0a.75.75,0,0,0,.46-.07,10.73,10.73,0,0,1,1.09-.5.33.33,0,0,0,.2-.28c.08-.33.18-.62.24-1s.12-.49.54-.49a.42.42,0,0,0,.18,0c.48-.2.91.08,1.35.21l.14.11c.05,0,.07.2.12.19a1.61,1.61,0,0,0,.49,0,6.12,6.12,0,0,1,.93-.26,2.7,2.7,0,0,0,.48-.16,6.44,6.44,0,0,1,1-.17,2.45,2.45,0,0,1,.81,0,.75.75,0,0,0,.21,0,3.6,3.6,0,0,1,1.36.25.18.18,0,0,0,.05.07s-.08.06-.12.06a.23.23,0,0,0-.16-.06h-.05s0,.08.06.08l.15,0a.62.62,0,0,1,.49.42c-.21,0-.07.22-.14.36s.06.12.09.18a.49.49,0,0,0,0-.17s0-.09.05-.09.07-.1,0-.17,0-.08,0-.1a.21.21,0,0,1,.23.19Zm-12,12.68.06,0c.05-.15.09-.3.13-.45s0-.08,0-.1,0,0,0,.09a1.38,1.38,0,0,0-.15.4Zm1.55-1.53c-.12.11-.11.3-.29.37v0s0,0,.06,0c.19,0,.24-.17.32-.32a.27.27,0,0,1,.06-.14c-.07,0-.14,0-.15,0Zm.08-.18c.2-.07.1-.27.15-.4s0,0,0,0a1.86,1.86,0,0,0-.21.28.21.21,0,0,0-.07.14s0,.06,0,.08a.23.23,0,0,1,.12-.06Zm.24.65-.08,0,0,.14a.74.74,0,0,0-.1.35c.05-.11.12-.21.18-.35a.25.25,0,0,0,0-.17Zm6.25-10.33a18.22,18.22,0,0,0-2,.66s-.12,0-.12.06c-.11.28-.32.41-.34.71a.23.23,0,0,1-.12.19c-.17-.06-.15.11-.19.18s-.18.5-.26.71a.57.57,0,0,0,0,.26c.12.22.32.4.34.68,0,0,.08.11.14.15l.9.74a.14.14,0,0,0,.11,0c.12,0,.18-.34.33,0,.08-.05.23-.07.3-.12.19-.33.65-.25.84-.53a4.61,4.61,0,0,0,1.08-.58c.24-.12.48-.24.54-.57,0-.07.13-.1.16-.17a.92.92,0,0,0,.34-.34l.31-.5a2.82,2.82,0,0,0,.23-.46c.11-.14.07-.22-.09-.35s-.14-.06-.07-.17,0-.21-.12-.28a1.75,1.75,0,0,0-.32-.12c-.5-.12-1-.19-1.53-.29a.33.33,0,0,1-.17,0A1,1,0,0,1,478.31,93.57Zm.61,4.23a.42.42,0,0,0-.39,0,3.18,3.18,0,0,1-.37.27l-.09.1.13,0c.05,0,.06,0,.12,0a1.13,1.13,0,0,1,.62-.3.13.13,0,0,1,0-.06s0,0,0,0Zm.35,2.07s0,.07,0,.11a.2.2,0,0,0,.1.08l.4-.19,0-.08a1.52,1.52,0,0,0-.2-.06Zm1.5-7.25a.23.23,0,0,1-.1-.12c-.17-.21-.51-.11-.65-.33h0c-.17.07-.32,0-.5,0,0,0,0,0-.1,0s.06,0,.09,0a3.13,3.13,0,0,1,.78.38.64.64,0,0,0,.43.06l.08,0Zm-1,6.95,0,0c.07,0,.19.13.21.1a.76.76,0,0,0,.18-.24s-.05,0-.05,0A1.06,1.06,0,0,0,479.77,99.57Zm.52-2.72a.52.52,0,0,0,.38-.31.09.09,0,0,0,0-.06h0a.55.55,0,0,1-.14.09v0c-.07-.19-.07-.19-.22,0a.34.34,0,0,1-.14,0,2.85,2.85,0,0,1-.33.23s0,0,0,.09h.08a1.68,1.68,0,0,0,.21-.18c.09-.08.16,0,.25,0S480.28,96.81,480.29,96.85Zm.09-4.82s.05.08.07.07a1.15,1.15,0,0,0,.25.12c.17.06,0-.09.07-.12s0,0,0,0a.48.48,0,0,0-.26-.06.15.15,0,0,1-.08,0Zm.39,5.66c.21,0,.34-.22.46-.35a1.18,1.18,0,0,0,.22-.28c-.13-.15.06-.16.11-.23l.05-.1-.1,0c-.25.21-.47.45-.73.68l-.14.19s0,0,0,.07h.15Zm.83-2.17a1.89,1.89,0,0,1-.46.2c-.12.06-.22,0-.06.18s.05.14.14,0l.42-.32a.22.22,0,0,0,.07-.09s-.09,0-.1,0Zm.74-.76s-.06,0-.06,0a1.92,1.92,0,0,0-.14.29s0,0,0,.06c.2,0,.24-.18.18-.32Zm.89,10.76s-.07,0-.08,0,.14.21.21.17a.23.23,0,0,0,.12-.06C483.46,105.48,483.32,105.54,483.23,105.52Z"/><polygon class="cls-19" points="411.67 28.98 411.67 48.37 413.55 48.81 413.55 34.25 413.17 32.19 411.67 28.98"/><polygon class="cls-20" points="412.21 4.01 413.55 8.36 413.55 0.01 413.04 0.53 412.21 4.01"/><polygon class="cls-21" points="411.67 23.44 413.55 30.13 413.55 16.35 411.67 11.15 411.67 23.44"/><polygon class="cls-22" points="451.14 54.27 445.32 56.91 447.42 58.02 451.01 56.4 451.14 54.27"/><polygon class="cls-23" points="420.08 56.6 421.31 59.23 423.52 60.23 424.81 58.75 420.08 56.6"/><path class="cls-24" d="M433,62.48,425.32,59l1.19,2.54,0,.08,5.73,2.59h1.55l6.43-2.91c-.17-.71-.34-1.37-.47-1.85Z"/><path class="cls-25" d="M435.69,35.08l.05,0h0c.31-.07.46-.2.46-.39Q435.69,34.86,435.69,35.08Zm0,0,.05,0h0c.31-.07.46-.2.46-.39Q435.69,34.86,435.69,35.08ZM451.21,0H414.87v12.6l.41,1.33-.41,5.51V52.8L433,61l10.51-4.76.34-3.77,1,3.15,6.3-2.86V35.86l-1.37,5.88v-7l1.37-4.11v-21L451,8.91l.22.05V6.37L450,4.86l1.17.28ZM440,32.16c0,.92-.75,1.56-2.24,1.94a11.14,11.14,0,0,1-1.17.39c-.12.5-.33.74-.64.74,0,.05-.13.07-.39.07h-.23c-.22,0-.35-.16-.37-.48v-.13c0-.72.48-1.31,1.46-1.75a7.9,7.9,0,0,1,1.23-.68v0c0-.07-.14-.11-.43-.13a3.18,3.18,0,0,0-1.16.35H436c-.25,0-.49-.36-.71-1.1v-.26c0-.51.53-1.19,1.58-2l0-.13a.17.17,0,0,0-.1,0,5.41,5.41,0,0,0-1.2.48h-.06c-.43,0-.76-.58-1-1.75v-.19q0-.76.48-.9h.07a1.64,1.64,0,0,1,.51.26l.1,0a1.34,1.34,0,0,1,.52-.1h.3c1.48,0,2.33.16,2.55.49a1.52,1.52,0,0,1,.39,1v.23c0,.51-.44,1.15-1.33,1.91v0h.07a1.22,1.22,0,0,1,.55-.23h.09c.31,0,.66.42,1.08,1.24a3.1,3.1,0,0,1,.1.68ZM444.74,21a3.66,3.66,0,0,1-1.42,3l-.39.08c-.07,0-.14-.07-.22-.22a.9.9,0,0,0,.15-.46v-.22a.86.86,0,0,0-.84-.46h-.53q-1.59,0-9,3.26-1.55,0-3.57,8.79l.22,1.52c-.2.95-1.13,1.43-2.8,1.43H426a2.35,2.35,0,0,1-2.49-1.36v-.53a14.86,14.86,0,0,1,1-2.35,36.62,36.62,0,0,1,2.14-7h-.09a5.26,5.26,0,0,1-3.1-2.2,4.52,4.52,0,0,1-.53-2V22.1q0-2.13,2.57-3.48h.16a3.33,3.33,0,0,0,3.1,2,3.46,3.46,0,0,0,.91.07h.3q2.48,0,8.79-2.64a6.51,6.51,0,0,1,1.9-.31H441a3.68,3.68,0,0,1,3.66,2.2l.06.75Zm-9.05,14.06.05,0h0c.31-.07.46-.2.46-.39q-.54.14-.54.36Zm0,0,.05,0h0c.31-.07.46-.2.46-.39q-.54.14-.54.36Zm0,0,.05,0h0c.31-.07.46-.2.46-.39q-.54.14-.54.36Z"/><polygon class="cls-26" points="452.53 26.67 454.41 21.03 454.41 13.96 452.53 14.86 452.53 26.67"/><polygon class="cls-27" points="414.84 56.29 418.02 55.67 413.55 53.64 413.55 49.46 411.67 51.13 411.67 53.64 412.78 55.35 414.84 56.29"/><polygon class="cls-28" points="452.53 1.89 452.53 5.48 454.41 5.93 454.41 1.89 452.53 0.01 452.53 1.89"/><polygon class="cls-29" points="412.41 1.16 411.67 1.89 411.67 2.95 412.41 1.16"/><polygon class="cls-30" points="452.53 9.29 453.72 9.58 452.53 8.06 452.53 9.29"/><polygon class="cls-31" points="452.53 31.27 452.53 48.65 454.41 45.8 454.41 26.65 452.53 31.27"/><polygon class="cls-32" points="444.47 59.22 443.84 57.59 441.11 58.82 444.47 59.22"/></svg>