<svg id="Layer_1" data-name="Layer 1" xmlns="http://www.w3.org/2000/svg" xmlns:xlink="http://www.w3.org/1999/xlink" viewBox="0 0 500 200"><defs><style>.cls-1{fill:#fff5ee;}.cls-2,.cls-3{fill:none;stroke-miterlimit:10;}.cls-2{stroke:url(#linear-gradient);}.cls-3{stroke:url(#linear-gradient-2);}.cls-4{fill:url(#linear-gradient-3);}.cls-5{fill:url(#linear-gradient-4);}.cls-6{fill:url(#linear-gradient-5);}.cls-7{fill:url(#linear-gradient-6);}.cls-8{fill:url(#linear-gradient-7);}.cls-9{fill:url(#linear-gradient-8);}.cls-10{fill:url(#linear-gradient-9);}.cls-11{fill:url(#linear-gradient-10);}.cls-12{fill:url(#linear-gradient-11);}.cls-13{fill:url(#linear-gradient-12);}.cls-14{fill:url(#linear-gradient-13);}.cls-15{fill:url(#linear-gradient-14);}.cls-16{fill:url(#linear-gradient-15);}.cls-17{fill:url(#linear-gradient-16);}.cls-18{fill:url(#linear-gradient-17);}.cls-19{fill:url(#linear-gradient-18);}.cls-20{fill:url(#linear-gradient-19);}.cls-21{fill:url(#linear-gradient-20);}.cls-22{fill:url(#linear-gradient-21);}.cls-23{fill:url(#linear-gradient-22);}.cls-24{fill:url(#linear-gradient-23);}.cls-25{fill:url(#linear-gradient-24);}.cls-26{fill:url(#linear-gradient-25);}.cls-27{fill:url(#linear-gradient-26);}.cls-28{fill:url(#linear-gradient-27);}.cls-29{fill:url(#linear-gradient-28);}.cls-30{fill:url(#linear-gradient-29);}.cls-31{fill:url(#linear-gradient-30);}.cls-32{fill:url(#linear-gradient-31);}.cls-33{fill:url(#linear-gradient-32);}.cls-34{fill:url(#linear-gradient-33);}.cls-35{fill:url(#linear-gradient-34);}.cls-36{fill:url(#linear-gradient-35);}.cls-37{fill:url(#linear-gradient-36);}.cls-38{fill:url(#linear-gradient-37);}.cls-39{fill:url(#linear-gradient-38);}.cls-40{fill:url(#linear-gradient-39);}.cls-41{fill:url(#linear-gradient-40);}.cls-42{fill:url(#linear-gradient-41);}.cls-43{fill:url(#linear-gradient-42);}.cls-44{fill:url(#linear-gradient-43);}.cls-45{fill:url(#linear-gradient-44);}.cls-46{fill:url(#linear-gradient-45);}.cls-47{fill:url(#linear-gradient-46);}.cls-48{fill:url(#linear-gradient-47);}.cls-49{fill:url(#linear-gradient-48);}.cls-50{fill:url(#linear-gradient-49);}</style><linearGradient id="linear-gradient" x1="361.46" y1="165.69" x2="458.72" y2="165.44" gradientUnits="userSpaceOnUse"><stop offset="0" stop-color="#c75828"/><stop offset="0.25" stop-color="#d3723b"/><stop offset="1" stop-color="#f4bb72"/></linearGradient><linearGradient id="linear-gradient-2" x1="361.46" y1="33.87" x2="458.72" y2="33.62" xlink:href="#linear-gradient"/><linearGradient id="linear-gradient-3" x1="369.25" y1="52.34" x2="471.89" y2="56.43" xlink:href="#linear-gradient"/><linearGradient id="linear-gradient-4" x1="369.26" y1="52.02" x2="471.9" y2="56.1" xlink:href="#linear-gradient"/><linearGradient id="linear-gradient-5" x1="369.28" y1="51.63" x2="471.92" y2="55.72" xlink:href="#linear-gradient"/><linearGradient id="linear-gradient-6" x1="369.3" y1="51.21" x2="471.93" y2="55.3" xlink:href="#linear-gradient"/><linearGradient id="linear-gradient-7" x1="369.32" y1="50.72" x2="471.95" y2="54.81" xlink:href="#linear-gradient"/><linearGradient id="linear-gradient-8" x1="369.35" y1="49.93" x2="471.99" y2="54.02" xlink:href="#linear-gradient"/><linearGradient id="linear-gradient-9" x1="369.37" y1="49.34" x2="472.01" y2="53.43" xlink:href="#linear-gradient"/><linearGradient id="linear-gradient-10" x1="368.35" y1="74.98" x2="470.99" y2="79.07" xlink:href="#linear-gradient"/><linearGradient id="linear-gradient-11" x1="368.38" y1="74.28" x2="471.02" y2="78.36" xlink:href="#linear-gradient"/><linearGradient id="linear-gradient-12" x1="368.4" y1="73.76" x2="471.04" y2="77.84" xlink:href="#linear-gradient"/><linearGradient id="linear-gradient-13" x1="368.41" y1="73.48" x2="471.05" y2="77.57" xlink:href="#linear-gradient"/><linearGradient id="linear-gradient-14" x1="368.43" y1="73.06" x2="471.06" y2="77.14" xlink:href="#linear-gradient"/><linearGradient id="linear-gradient-15" x1="367.41" y1="98.6" x2="470.05" y2="102.68" xlink:href="#linear-gradient"/><linearGradient id="linear-gradient-16" x1="367.43" y1="98.18" x2="470.07" y2="102.26" xlink:href="#linear-gradient"/><linearGradient id="linear-gradient-17" x1="367.45" y1="97.5" x2="470.09" y2="101.59" xlink:href="#linear-gradient"/><linearGradient id="linear-gradient-18" x1="367.47" y1="97.02" x2="470.11" y2="101.1" xlink:href="#linear-gradient"/><linearGradient id="linear-gradient-19" x1="367.49" y1="96.51" x2="470.13" y2="100.6" xlink:href="#linear-gradient"/><linearGradient id="linear-gradient-20" x1="367.5" y1="96.23" x2="470.14" y2="100.32" xlink:href="#linear-gradient"/><linearGradient id="linear-gradient-21" x1="367.53" y1="95.64" x2="470.17" y2="99.72" xlink:href="#linear-gradient"/><linearGradient id="linear-gradient-22" x1="366.52" y1="120.96" x2="469.16" y2="125.04" xlink:href="#linear-gradient"/><linearGradient id="linear-gradient-23" x1="366.55" y1="120.31" x2="469.18" y2="124.4" xlink:href="#linear-gradient"/><linearGradient id="linear-gradient-24" x1="366.56" y1="119.86" x2="469.2" y2="123.94" xlink:href="#linear-gradient"/><linearGradient id="linear-gradient-25" x1="366.59" y1="119.31" x2="469.22" y2="123.4" xlink:href="#linear-gradient"/><linearGradient id="linear-gradient-26" x1="365.58" y1="144.62" x2="468.22" y2="148.71" xlink:href="#linear-gradient"/><linearGradient id="linear-gradient-27" x1="365.59" y1="144.35" x2="468.23" y2="148.43" xlink:href="#linear-gradient"/><linearGradient id="linear-gradient-28" x1="365.61" y1="143.73" x2="468.25" y2="147.81" xlink:href="#linear-gradient"/><linearGradient id="linear-gradient-29" x1="365.64" y1="143.16" x2="468.27" y2="147.24" xlink:href="#linear-gradient"/><linearGradient id="linear-gradient-30" x1="365.66" y1="142.67" x2="468.29" y2="146.75" xlink:href="#linear-gradient"/><linearGradient id="linear-gradient-31" x1="365.68" y1="142.18" x2="468.31" y2="146.27" xlink:href="#linear-gradient"/><linearGradient id="linear-gradient-32" x1="365.69" y1="141.85" x2="468.33" y2="145.93" xlink:href="#linear-gradient"/><linearGradient id="linear-gradient-33" x1="35.59" y1="121.48" x2="328.96" y2="120.71" xlink:href="#linear-gradient"/><linearGradient id="linear-gradient-34" x1="35.59" y1="120.8" x2="328.95" y2="120.03" xlink:href="#linear-gradient"/><linearGradient id="linear-gradient-35" x1="35.63" y1="135.78" x2="328.99" y2="135.01" xlink:href="#linear-gradient"/><linearGradient id="linear-gradient-36" x1="35.59" y1="121.04" x2="328.96" y2="120.28" xlink:href="#linear-gradient"/><linearGradient id="linear-gradient-37" x1="35.6" y1="124.45" x2="328.96" y2="123.68" xlink:href="#linear-gradient"/><linearGradient id="linear-gradient-38" x1="35.59" y1="120.98" x2="328.96" y2="120.21" xlink:href="#linear-gradient"/><linearGradient id="linear-gradient-39" x1="35.59" y1="121.22" x2="328.96" y2="120.46" xlink:href="#linear-gradient"/><linearGradient id="linear-gradient-40" x1="35.6" y1="124.62" x2="328.96" y2="123.86" xlink:href="#linear-gradient"/><linearGradient id="linear-gradient-41" x1="35.59" y1="121.42" x2="328.96" y2="120.66" xlink:href="#linear-gradient"/><linearGradient id="linear-gradient-42" x1="35.56" y1="107.14" x2="328.92" y2="106.37" xlink:href="#linear-gradient"/><linearGradient id="linear-gradient-43" x1="35.48" y1="78.27" x2="328.84" y2="77.5" xlink:href="#linear-gradient"/><linearGradient id="linear-gradient-44" x1="35.48" y1="77.66" x2="328.84" y2="76.89" xlink:href="#linear-gradient"/><linearGradient id="linear-gradient-45" x1="35.48" y1="77.74" x2="328.84" y2="76.97" xlink:href="#linear-gradient"/><linearGradient id="linear-gradient-46" x1="35.48" y1="77.82" x2="328.84" y2="77.06" xlink:href="#linear-gradient"/><linearGradient id="linear-gradient-47" x1="35.48" y1="77.89" x2="328.84" y2="77.13" xlink:href="#linear-gradient"/><linearGradient id="linear-gradient-48" x1="35.48" y1="78.04" x2="328.84" y2="77.28" xlink:href="#linear-gradient"/><linearGradient id="linear-gradient-49" x1="35.48" y1="78.15" x2="328.84" y2="77.39" xlink:href="#linear-gradient"/></defs><title>welcome</title><rect class="cls-1" width="500" height="200" rx="10"/><line class="cls-2" x1="361.46" y1="165.57" x2="458.72" y2="165.57"/><line class="cls-3" x1="361.46" y1="33.74" x2="458.72" y2="33.74"/><path class="cls-4" d="M375.85,55.85l1.58,1.6a6.72,6.72,0,0,1-4.76,2,6.61,6.61,0,0,1-6.76-6.93,6.57,6.57,0,0,1,6.76-6.93,6.65,6.65,0,0,1,4.76,2l-1.58,1.58a4.51,4.51,0,0,0-3.18-1.31,4.32,4.32,0,0,0-4.47,4.68,4.39,4.39,0,0,0,4.47,4.68A4.51,4.51,0,0,0,375.85,55.85Z"/><path class="cls-5" d="M387,57v2.26h-7.24V45.74H382V57Z"/><path class="cls-6" d="M389.44,45.74h2.25V59.22h-2.25Z"/><path class="cls-7" d="M404.25,55.85l1.58,1.6a6.72,6.72,0,0,1-4.76,2,6.61,6.61,0,0,1-6.76-6.93,6.57,6.57,0,0,1,6.76-6.93,6.65,6.65,0,0,1,4.76,2l-1.58,1.58a4.51,4.51,0,0,0-3.18-1.31,4.32,4.32,0,0,0-4.47,4.68,4.39,4.39,0,0,0,4.47,4.68A4.51,4.51,0,0,0,404.25,55.85Z"/><path class="cls-8" d="M413.16,52.59l5.6,6.63h-2.94l-4.16-5.12-1.27,1.42v3.7h-2.25V45.74h2.25v6.8l5.52-6.8h2.82Z"/><path class="cls-9" d="M433.34,59.39c-8.9,0-8.88-13.83,0-13.83S442.2,59.39,433.34,59.39Zm0-11.63c-5.82,0-5.84,9.45,0,9.45S439.17,47.76,433.34,47.76Z"/><path class="cls-10" d="M453.79,59.22h-2.28l-6.7-9.59v9.59h-2.25V45.74h2.27l6.72,9.59V45.74h2.24Z"/><path class="cls-11" d="M384.93,80.81h-4.74l-.58,1.56h-2.43l5.38-13.86L388,82.37h-2.43Zm-4-1.94h3.27l-1.63-4.68Z"/><path class="cls-12" d="M405.59,79l1.57,1.6a6.68,6.68,0,0,1-4.75,2,6.93,6.93,0,1,1,4.75-11.88l-1.57,1.58A4.51,4.51,0,0,0,402.41,71a4.33,4.33,0,0,0-4.47,4.68,4.38,4.38,0,0,0,4.47,4.68A4.51,4.51,0,0,0,405.59,79Z"/><path class="cls-13" d="M415.69,80.81H411l-.58,1.56H408l5.37-13.86,5.4,13.86h-2.43Zm-4-1.94H415l-1.64-4.68Z"/><path class="cls-14" d="M424.3,76.75h-1.83v5.62h-2.25V68.89h4.48s4.51,0,4.51,3.93a3.6,3.6,0,0,1-2.6,3.58l2.75,6h-2.48Zm-1.83-2.23h2.23s2.26,0,2.26-1.7-2.26-1.67-2.26-1.67h-2.23Z"/><path class="cls-15" d="M434,68.89c3.28,0,7.88.75,7.88,6.74,0,5.76-4.53,6.74-7.88,6.74h-2.25V68.89Zm5.61,6.74c0-5.39-5.61-4.54-5.61-4.54v9.09S439.63,81,439.63,75.63Z"/><path class="cls-16" d="M374.69,94.11h-2.83v11.42h-2.23V94.11H366.8V92.05h7.89Z"/><path class="cls-17" d="M382.68,105.7c-8.89,0-8.87-13.83,0-13.83S391.54,105.7,382.68,105.7Zm0-11.63c-5.81,0-5.83,9.45,0,9.45S388.52,94.07,382.68,94.07Z"/><path class="cls-18" d="M405.79,103.27v2.26h-7.24V92.05h2.25v11.22Z"/><path class="cls-19" d="M409.64,94.3v3.37h5.6V99.9h-5.6v3.37h6.74v2.26h-9V92.05h9V94.3Z"/><path class="cls-20" d="M424.93,104h-4.74l-.58,1.56h-2.43l5.38-13.87L428,105.53h-2.43Zm-4-2h3.27l-1.63-4.68Z"/><path class="cls-21" d="M433.53,99.9H431.7v5.63h-2.25V92.05h4.49s4.5,0,4.5,3.93a3.61,3.61,0,0,1-2.6,3.58l2.76,6h-2.49Zm-1.83-2.23h2.24s2.25,0,2.25-1.69-2.25-1.68-2.25-1.68H431.7Z"/><path class="cls-22" d="M452.23,105.53H450l-6.71-9.59v9.59H441V92.05h2.27l6.72,9.59V92.05h2.24Z"/><path class="cls-23" d="M398.29,128.68H396V120.4l-3.87,8.28h-2.12l-4.12-8.45v8.45h-2.26v-13.5H386l5.13,10.5,4.91-10.5h2.29Z"/><path class="cls-24" d="M407.45,128.85c-8.89,0-8.88-13.82,0-13.82S416.31,128.85,407.45,128.85Zm0-11.63c-5.81,0-5.83,9.46,0,9.46S413.29,117.22,407.45,117.22Z"/><path class="cls-25" d="M420.74,123.06h-1.83v5.62h-2.26V115.2h4.49s4.51,0,4.51,3.93a3.6,3.6,0,0,1-2.6,3.58l2.75,6h-2.48Zm-1.83-2.23h2.23s2.25,0,2.25-1.7-2.25-1.67-2.25-1.67h-2.23Z"/><path class="cls-26" d="M430.46,117.46v3.37h5.6v2.23h-5.6v3.37h6.74v2.25h-9V115.2h9v2.26Z"/><path class="cls-27" d="M377.75,150.28H373l-.58,1.56H370L375.39,138l5.39,13.87h-2.43Zm-4-1.95H377l-1.63-4.68Z"/><path class="cls-28" d="M391.46,148c0,3.69-3.77,3.87-4.68,3.87H382.3V138.38h4.48s4.49-.12,4.49,3.77a2.88,2.88,0,0,1-2.25,3A2.86,2.86,0,0,1,391.46,148Zm-6.93-4h2.25s2.24,0,2.24-1.68-2.24-1.69-2.24-1.69h-2.25Zm4.68,3.93c0-1.81-2.43-1.68-2.43-1.68h-2.25v3.37h2.25C387.73,149.6,389.21,149.37,389.21,147.91Z"/><path class="cls-29" d="M400,152c-8.9,0-8.88-13.83,0-13.83S408.89,152,400,152Zm0-11.63c-5.81,0-5.83,9.45,0,9.45S405.86,140.38,400,140.38Z"/><path class="cls-30" d="M409.25,147.52v-9.16h2.26v9.16a2.49,2.49,0,0,0,2.79,2.26c1.4,0,2.81-.76,2.81-2.26v-9.16h2.25v9.16c0,2.87-2.19,4.51-5.06,4.51S409.25,150.3,409.25,147.52Z"/><path class="cls-31" d="M429.16,140.42h-2.83v11.42H424.1V140.42h-2.83v-2.06h7.89Z"/><path class="cls-32" d="M437.73,138.36H440v13.48h-2.25Z"/><path class="cls-33" d="M449.82,140.42H447v11.42h-2.23V140.42h-2.83v-2.06h7.89Z"/><path class="cls-34" d="M90.33,112.43h20.14c.07,0,.1,0,.1.1v4.15c0,.07,0,.11-.1.11H97.09v8.35a17.61,17.61,0,0,0,4.16.46h.1a15.16,15.16,0,0,0,9.17-2.77h0v4.62a6.73,6.73,0,0,1-2.35,1.53,16.46,16.46,0,0,1-6.46,1.23h-1.23c-3.49,0-6-.66-7.64-2l-.15-.2V116.79H90.33c-.07,0-.1,0-.1-.11v-4.15C90.24,112.46,90.27,112.43,90.33,112.43Z"/><path class="cls-35" d="M131.74,110.89H140a.1.1,0,0,1,.1.11v4.15a.09.09,0,0,1-.1.1h-4v12.2a6.73,6.73,0,0,1-2.35,1.53,16.46,16.46,0,0,1-6.46,1.23H126c-3.49,0-6-.66-7.64-2l-.15-.2V116.79h-4.41c-.07,0-.1,0-.1-.11v-4.15c0-.07,0-.1.1-.1h8.66c.07,0,.1,0,.1.1v12.61a17.61,17.61,0,0,0,4.16.46h.1a16.82,16.82,0,0,0,4.87-.66V111C131.65,110.93,131.68,110.89,131.74,110.89Z"/><path class="cls-36" d="M129.61,132.65h0a2.74,2.74,0,0,1,2.67,1.93,2.52,2.52,0,0,1,.15.93v.05a2.78,2.78,0,0,1-1.91,2.69,2.25,2.25,0,0,1-.91.16h0a2.73,2.73,0,0,1-2.66-1.93,2.49,2.49,0,0,1-.16-.92v-.05a2.78,2.78,0,0,1,1.91-2.7A2.25,2.25,0,0,1,129.61,132.65Z"/><path class="cls-37" d="M154,111.25h.92q7.32,0,10.1,2.31v16.5c0,.07,0,.1-.1.1h-4.2c-.07,0-.11,0-.11-.1V116.58a23.61,23.61,0,0,0-3.28-.56,4.3,4.3,0,0,1,.62,2.15v.2q0,1.74-2,5.8a8.67,8.67,0,0,0-.67,2.87,4.84,4.84,0,0,0,1.28,3.12v.05H152a4.38,4.38,0,0,1-1.33-3.07v-.21q0-1.74,2.15-6.15a9,9,0,0,0,.52-2.51,4.41,4.41,0,0,0-.72-2.35.47.47,0,0,1-.16,0,20.7,20.7,0,0,0-4.3.71v13.38c0,.07,0,.1-.1.1h-4.15c-.07,0-.11,0-.11-.1V114c.29-.45,1.33-1,3.13-1.69A23.14,23.14,0,0,1,154,111.25Z"/><path class="cls-38" d="M169.77,110.85h3.38a.1.1,0,0,1,.1.11v17.63q0,6.22-5.79,8.25a9.91,9.91,0,0,1-3,.51H154.6c-.07,0-.11,0-.11-.1v-3.13a.1.1,0,0,1,.11-.1H164a5.08,5.08,0,0,0,5.17-3.59,7.65,7.65,0,0,0,.46-2.51V111C169.67,110.89,169.71,110.85,169.77,110.85Z"/><path class="cls-39" d="M200.94,110.89h8.25a.1.1,0,0,1,.1.11v4.15a.09.09,0,0,1-.1.1h-4v12.2a6.73,6.73,0,0,1-2.35,1.53,16.46,16.46,0,0,1-6.46,1.23h-1.23c-3.49,0-6-.66-7.64-2l-.15-.2V123.5H183c-.07,0-.1,0-.1-.1v-4.15c0-.07,0-.11.1-.11h4.41v-2.35H183c-.07,0-.1,0-.1-.11v-4.15c0-.07,0-.1.1-.1h8.66c.07,0,.1,0,.1.1v12.61a17.61,17.61,0,0,0,4.16.46h.1a16.77,16.77,0,0,0,4.87-.66V111C200.85,110.93,200.88,110.89,200.94,110.89Z"/><path class="cls-40" d="M222.5,111.25h.93q7.31,0,10.09,2.31v16.5c0,.07,0,.1-.1.1h-4.2c-.07,0-.11,0-.11-.1V116.58a23.61,23.61,0,0,0-3.28-.56,4.3,4.3,0,0,1,.62,2.15v.2q0,1.74-2,5.8a8.67,8.67,0,0,0-.67,2.87,4.8,4.8,0,0,0,1.29,3.12v.05H220.5a4.42,4.42,0,0,1-1.33-3.07v-.21q0-1.74,2.15-6.15a8.69,8.69,0,0,0,.52-2.51,4.41,4.41,0,0,0-.72-2.35.5.5,0,0,1-.15,0,20.67,20.67,0,0,0-4.31.71v13.38c0,.07,0,.1-.1.1h-4.15c-.07,0-.11,0-.11-.1V114c.29-.45,1.33-1,3.13-1.69A23.14,23.14,0,0,1,222.5,111.25Z"/><path class="cls-41" d="M238.29,110.85h3.38a.1.1,0,0,1,.1.11v17.63q0,6.22-5.79,8.25a9.91,9.91,0,0,1-3,.51h-9.84c-.07,0-.1,0-.1-.1v-3.13a.09.09,0,0,1,.1-.1h9.43a5.07,5.07,0,0,0,5.17-3.59,7.68,7.68,0,0,0,.47-2.51V111A.1.1,0,0,1,238.29,110.85Z"/><path class="cls-42" d="M261.77,117.21h.41a7,7,0,0,1,4.26,1.38v4.51h-.11a8,8,0,0,0-4.35-1.28q-2.48,0-8.46,2.1a15.75,15.75,0,0,1-3.59.57h-.41a6.94,6.94,0,0,1-4.25-1.39v-4.51h.1a8,8,0,0,0,4.36,1.28c1.63,0,4.52-.71,8.66-2.15A15.52,15.52,0,0,1,261.77,117.21Z"/><path class="cls-43" d="M256,103.68h0a2.74,2.74,0,0,1,2.67,1.93,2.52,2.52,0,0,1,.15.93v0a2.78,2.78,0,0,1-1.91,2.69,2.25,2.25,0,0,1-.91.16h0a2.73,2.73,0,0,1-2.66-1.93,2.46,2.46,0,0,1-.15-.92v0a2.75,2.75,0,0,1,1.9-2.69A2.11,2.11,0,0,1,256,103.68Z"/><path class="cls-44" d="M80.23,97.79a.52.52,0,0,1-.93,0L68.16,68.22,57.06,97.79a.56.56,0,0,1-1,0L41.33,58.93c-.17-.32.11-.6.49-.6h6.67a.52.52,0,0,1,.49.28l7.59,21.31,7.71-21.31a.42.42,0,0,1,.43-.28H71.6a.5.5,0,0,1,.49.28l7.65,21.31,7.71-21.31a.5.5,0,0,1,.49-.28H94.6c.44,0,.6.28.44.6Z"/><path class="cls-45" d="M106.84,65.27v8.85h14.91a.45.45,0,0,1,.49.44v6a.45.45,0,0,1-.49.44H106.84V89.7h18a.49.49,0,0,1,.54.44v6a.49.49,0,0,1-.54.43H100.12a.49.49,0,0,1-.5-.43V58.77a.49.49,0,0,1,.5-.44h24.75a.49.49,0,0,1,.54.44v6.07a.49.49,0,0,1-.54.43Z"/><path class="cls-46" d="M152.13,89.53a.5.5,0,0,1,.55.44v6.18a.5.5,0,0,1-.55.43H132.24a.5.5,0,0,1-.55-.43V58.77a.5.5,0,0,1,.55-.44h6.18a.5.5,0,0,1,.54.44V89.53Z"/><path class="cls-47" d="M183.05,86.58a.68.68,0,0,1,.77,0L188.14,91a.41.41,0,0,1,0,.65,19,19,0,0,1-13.45,5.52c-10.49,0-19.12-7.6-19.12-19.51,0-11.42,7.92-19.83,19.12-19.83a18.71,18.71,0,0,1,13.45,5.52.41.41,0,0,1,0,.65l-4.32,4.32a.68.68,0,0,1-.77,0,12,12,0,0,0-8.36-3.5c-7.32,0-11.74,5.63-11.74,12.84,0,7.71,5.24,12.46,11.74,12.46A11.74,11.74,0,0,0,183.05,86.58Z"/><path class="cls-48" d="M231.13,77.4c0,9.78-6.33,19.68-18.85,19.68-12.73,0-19-9.9-19-19.68s6.23-19.61,19-19.61C224.8,57.79,231.13,67.62,231.13,77.4Zm-7.37.11c0-6.39-3.88-12.78-11.48-12.78s-11.53,6.39-11.53,12.78,3.83,12.68,11.53,12.68S223.76,83.85,223.76,77.51Z"/><path class="cls-49" d="M279.6,96.15a.5.5,0,0,1-.55.43h-6.17a.5.5,0,0,1-.55-.43V74.62l-9.62,20.21a.73.73,0,0,1-.49.28h-5.85a.6.6,0,0,1-.43-.28L245.61,74.18v22a.5.5,0,0,1-.55.43h-6.17a.5.5,0,0,1-.55-.43V58.77a.5.5,0,0,1,.55-.44h6.28a.71.71,0,0,1,.49.28l13.61,28.14,13-28.14a.76.76,0,0,1,.5-.28h6.28a.5.5,0,0,1,.55.44Z"/><path class="cls-50" d="M295.54,65.27v8.85h14.92a.45.45,0,0,1,.49.44v6a.45.45,0,0,1-.49.44H295.54V89.7h18a.5.5,0,0,1,.54.44v6a.5.5,0,0,1-.54.43H288.82a.48.48,0,0,1-.49-.43V58.77a.48.48,0,0,1,.49-.44h24.76a.5.5,0,0,1,.54.44v6.07a.5.5,0,0,1-.54.43Z"/></svg>